<?xml version="1.0" encoding="UTF-8" standalone="no"?>
<!-- Created with Inkscape (http://www.inkscape.org/) -->

<svg
   width="100mm"
   height="42mm"
   viewBox="0 0 100 42"
   version="1.1"
   id="svg5"
   inkscape:version="1.1.1 (3bf5ae0d25, 2021-09-20)"
   sodipodi:docname="logo.svg"
   xmlns:inkscape="http://www.inkscape.org/namespaces/inkscape"
   xmlns:sodipodi="http://sodipodi.sourceforge.net/DTD/sodipodi-0.dtd"
   xmlns="http://www.w3.org/2000/svg"
   xmlns:svg="http://www.w3.org/2000/svg">
  <sodipodi:namedview
     id="namedview7"
     pagecolor="#505050"
     bordercolor="#eeeeee"
     borderopacity="1"
     inkscape:pageshadow="0"
     inkscape:pageopacity="0"
     inkscape:pagecheckerboard="0"
     inkscape:document-units="mm"
     showgrid="false"
     inkscape:object-nodes="false"
     inkscape:zoom="5.9295174"
     inkscape:cx="61.809415"
     inkscape:cy="55.063503"
     inkscape:window-width="1920"
     inkscape:window-height="1017"
     inkscape:window-x="-8"
     inkscape:window-y="-8"
     inkscape:window-maximized="1"
     inkscape:current-layer="layer1"
     fit-margin-top="0"
     fit-margin-left="0"
     fit-margin-right="0"
     fit-margin-bottom="0" />
  <defs
     id="defs2" />
  <g
     inkscape:label="Layer 1"
     inkscape:groupmode="layer"
     id="layer1"
     transform="translate(-0.354022,-252.5981)">
    <g
       id="g70376"
       transform="matrix(-0.81467949,-0.48659204,-0.48659204,0.81467949,180.77785,164.76927)"
       style="stroke-width:1.05381">
      <path
         style="fill:#393900;fill-opacity:1;fill-rule:evenodd;stroke:none;stroke-width:0.278821px;stroke-linecap:butt;stroke-linejoin:miter;stroke-opacity:1"
         d="m 33.808707,149.71627 c 0.846806,1.54348 0.571107,3.53583 0.289145,5.27362 -0.25787,1.5893 -1.77583,4.49198 -1.77583,4.49198 0,0 -2.427078,1.11987 -3.7144,1.45119 -1.625495,0.41835 -3.35256,1.01919 -4.992028,0.65947 -1.833581,-0.40231 -3.328303,-1.79481 -4.761441,-3.00724 -0.68293,-0.57776 -1.789187,-2.00014 -1.789187,-2.00014 l 3.682398,-2.70853 -4.121976,1.89025 -0.818746,-0.81887 2.782745,-1.66364 -3.452321,0.86448 c 0,0 -0.347117,-0.35022 -0.469997,-0.56095 -0.847014,-1.45256 -1.388457,-3.08615 -1.769574,-4.72387 -0.315488,-1.3557 -0.412159,-4.15539 -0.412159,-4.15539 0,0 3.659863,-0.35334 4.870887,-0.34518 1.211024,0.008 2.374759,0.20049 2.374759,0.20049 l 1.015604,3.11624 0.542573,-2.98468 c 0,0 1.359717,0.038 2.023426,0.17083 2.321165,0.46461 4.646865,1.10782 6.761206,2.17236 1.368215,0.68887 2.998098,1.33458 3.734916,2.67758 z"
         id="path70370"
         sodipodi:nodetypes="sscsssccccccsscscccsss" />
      <path
         style="fill:#408000;fill-opacity:1;fill-rule:evenodd;stroke:none;stroke-width:0.278821px;stroke-linecap:butt;stroke-linejoin:miter;stroke-opacity:1"
         d="m 33.942571,149.3593 0.289145,5.27362 -1.77583,4.49198 c 0,0 -2.427078,1.11987 -3.7144,1.45119 -1.625495,0.41835 -3.35256,1.01919 -4.992028,0.65947 -1.833581,-0.40231 -3.328303,-1.79481 -4.761441,-3.00724 -0.68293,-0.57776 -1.789187,-2.00014 -1.789187,-2.00014 l 3.682398,-2.70853 -4.121976,1.89025 -0.818746,-0.81887 2.782745,-1.66364 -3.452321,0.86448 c 0,0 -0.347117,-0.35022 -0.469997,-0.56095 -0.847014,-1.45256 -1.388457,-3.08615 -1.769574,-4.72387 -0.315488,-1.3557 -0.412159,-4.15539 -0.412159,-4.15539 l 4.870887,-0.34518 2.374759,0.20049 1.015604,3.11624 0.542573,-2.98468 2.023426,0.17083 6.761206,2.17236 z"
         id="path70372"
         sodipodi:nodetypes="cccsssccccccsscccccccc" />
      <path
         id="path70374"
         style="fill:#50a11e;fill-opacity:1;fill-rule:evenodd;stroke:none;stroke-width:1.05381px;stroke-linecap:butt;stroke-linejoin:miter;stroke-opacity:1"
         d="m 47.71875,545.81055 36.267578,23.03906 23.949222,18.55078 14.67187,14.03906 0.0605,-0.0234 c 0,0 5.7363,-10.97017 6.71094,-16.97657 1.06576,-6.56793 2.10849,-14.09797 -1.0918,-19.93164 -2.78488,-5.07644 -8.94553,-7.5173 -14.11719,-10.12109 -7.9907,-4.0231 -16.780474,-6.45283 -25.552732,-8.20899 -2.50879,-0.50225 -7.648438,-0.64648 -7.648438,-0.64648 l -2.050781,11.28125 -3.837891,-11.77734 c 0,0 -5.973799,-0.7376 -8.976562,-0.75782 -6.151321,-0.0414 -18.408204,1.30469 -18.408204,1.30469 z"
         transform="scale(0.26458333)"
         sodipodi:nodetypes="cccccsssscccscc" />
    </g>
    <g
       id="g70368"
       transform="matrix(-0.89317344,0.3204929,0.3204929,0.89317344,51.710561,124.76423)"
       style="stroke-width:1.05381">
      <path
         style="fill:#393900;fill-opacity:1;fill-rule:evenodd;stroke:none;stroke-width:0.278821px;stroke-linecap:butt;stroke-linejoin:miter;stroke-opacity:1"
         d="m 33.808707,149.71627 c 0.846806,1.54348 0.571107,3.53583 0.289145,5.27362 -0.25787,1.5893 -1.77583,4.49198 -1.77583,4.49198 0,0 -2.427078,1.11987 -3.7144,1.45119 -1.625495,0.41835 -3.35256,1.01919 -4.992028,0.65947 -1.833581,-0.40231 -3.328303,-1.79481 -4.761441,-3.00724 -0.68293,-0.57776 -1.789187,-2.00014 -1.789187,-2.00014 l 3.682398,-2.70853 -4.121976,1.89025 -0.818746,-0.81887 2.782745,-1.66364 -3.452321,0.86448 c 0,0 -0.347117,-0.35022 -0.469997,-0.56095 -0.847014,-1.45256 -1.388457,-3.08615 -1.769574,-4.72387 -0.315488,-1.3557 -0.412159,-4.15539 -0.412159,-4.15539 0,0 3.659863,-0.35334 4.870887,-0.34518 1.211024,0.008 2.374759,0.20049 2.374759,0.20049 l 1.015604,3.11624 0.542573,-2.98468 c 0,0 1.359717,0.038 2.023426,0.17083 2.321165,0.46461 4.646865,1.10782 6.761206,2.17236 1.368215,0.68887 2.998098,1.33458 3.734916,2.67758 z"
         id="path70362"
         sodipodi:nodetypes="sscsssccccccsscscccsss" />
      <path
         style="fill:#408000;fill-opacity:1;fill-rule:evenodd;stroke:none;stroke-width:0.278821px;stroke-linecap:butt;stroke-linejoin:miter;stroke-opacity:1"
         d="m 33.942571,149.3593 0.289145,5.27362 -1.77583,4.49198 c 0,0 -2.427078,1.11987 -3.7144,1.45119 -1.625495,0.41835 -3.35256,1.01919 -4.992028,0.65947 -1.833581,-0.40231 -3.328303,-1.79481 -4.761441,-3.00724 -0.68293,-0.57776 -1.789187,-2.00014 -1.789187,-2.00014 l 3.682398,-2.70853 -4.121976,1.89025 -0.818746,-0.81887 2.782745,-1.66364 -3.452321,0.86448 c 0,0 -0.347117,-0.35022 -0.469997,-0.56095 -0.847014,-1.45256 -1.388457,-3.08615 -1.769574,-4.72387 -0.315488,-1.3557 -0.412159,-4.15539 -0.412159,-4.15539 l 4.870887,-0.34518 2.374759,0.20049 1.015604,3.11624 0.542573,-2.98468 2.023426,0.17083 6.761206,2.17236 z"
         id="path70364"
         sodipodi:nodetypes="cccsssccccccsscccccccc" />
      <path
         id="path70366"
         style="fill:#50a11e;fill-opacity:1;fill-rule:evenodd;stroke:none;stroke-width:1.05381px;stroke-linecap:butt;stroke-linejoin:miter;stroke-opacity:1"
         d="m 47.71875,545.81055 36.267578,23.03906 23.949222,18.55078 14.67187,14.03906 0.0605,-0.0234 c 0,0 5.7363,-10.97017 6.71094,-16.97657 1.06576,-6.56793 2.10849,-14.09797 -1.0918,-19.93164 -2.78488,-5.07644 -8.94553,-7.5173 -14.11719,-10.12109 -7.9907,-4.0231 -16.780474,-6.45283 -25.552732,-8.20899 -2.50879,-0.50225 -7.648438,-0.64648 -7.648438,-0.64648 l -2.050781,11.28125 -3.837891,-11.77734 c 0,0 -5.973799,-0.7376 -8.976562,-0.75782 -6.151321,-0.0414 -18.408204,1.30469 -18.408204,1.30469 z"
         transform="scale(0.26458333)"
         sodipodi:nodetypes="cccccsssscccscc" />
    </g>
    <g
       id="g70360"
       transform="matrix(0.94893334,0,0,0.94893334,-11.090771,123.17314)"
       style="stroke-width:1.05381">
      <path
         style="fill:#393900;fill-opacity:1;fill-rule:evenodd;stroke:none;stroke-width:0.278821px;stroke-linecap:butt;stroke-linejoin:miter;stroke-opacity:1"
         d="m 33.808707,149.71627 c 0.846806,1.54348 0.571107,3.53583 0.289145,5.27362 -0.25787,1.5893 -1.77583,4.49198 -1.77583,4.49198 0,0 -2.427078,1.11987 -3.7144,1.45119 -1.625495,0.41835 -3.35256,1.01919 -4.992028,0.65947 -1.833581,-0.40231 -3.328303,-1.79481 -4.761441,-3.00724 -0.68293,-0.57776 -1.789187,-2.00014 -1.789187,-2.00014 l 3.682398,-2.70853 -4.121976,1.89025 -0.818746,-0.81887 2.782745,-1.66364 -3.452321,0.86448 c 0,0 -0.347117,-0.35022 -0.469997,-0.56095 -0.847014,-1.45256 -1.388457,-3.08615 -1.769574,-4.72387 -0.315488,-1.3557 -0.412159,-4.15539 -0.412159,-4.15539 0,0 3.659863,-0.35334 4.870887,-0.34518 1.211024,0.008 2.374759,0.20049 2.374759,0.20049 l 1.015604,3.11624 0.542573,-2.98468 c 0,0 1.359717,0.038 2.023426,0.17083 2.321165,0.46461 4.646865,1.10782 6.761206,2.17236 1.368215,0.68887 2.998098,1.33458 3.734916,2.67758 z"
         id="path60632"
         sodipodi:nodetypes="sscsssccccccsscscccsss" />
      <path
         style="fill:#408000;fill-opacity:1;fill-rule:evenodd;stroke:none;stroke-width:0.278821px;stroke-linecap:butt;stroke-linejoin:miter;stroke-opacity:1"
         d="m 33.942571,149.3593 0.289145,5.27362 -1.77583,4.49198 c 0,0 -2.427078,1.11987 -3.7144,1.45119 -1.625495,0.41835 -3.35256,1.01919 -4.992028,0.65947 -1.833581,-0.40231 -3.328303,-1.79481 -4.761441,-3.00724 -0.68293,-0.57776 -1.789187,-2.00014 -1.789187,-2.00014 l 3.682398,-2.70853 -4.121976,1.89025 -0.818746,-0.81887 2.782745,-1.66364 -3.452321,0.86448 c 0,0 -0.347117,-0.35022 -0.469997,-0.56095 -0.847014,-1.45256 -1.388457,-3.08615 -1.769574,-4.72387 -0.315488,-1.3557 -0.412159,-4.15539 -0.412159,-4.15539 l 4.870887,-0.34518 2.374759,0.20049 1.015604,3.11624 0.542573,-2.98468 2.023426,0.17083 6.761206,2.17236 z"
         id="path66148"
         sodipodi:nodetypes="cccsssccccccsscccccccc" />
      <path
         id="path66903"
         style="fill:#50a11e;fill-opacity:1;fill-rule:evenodd;stroke:none;stroke-width:1.05381px;stroke-linecap:butt;stroke-linejoin:miter;stroke-opacity:1"
         d="m 47.71875,545.81055 36.267578,23.03906 23.949222,18.55078 14.67187,14.03906 0.0605,-0.0234 c 0,0 5.7363,-10.97017 6.71094,-16.97657 1.06576,-6.56793 2.10849,-14.09797 -1.0918,-19.93164 -2.78488,-5.07644 -8.94553,-7.5173 -14.11719,-10.12109 -7.9907,-4.0231 -16.780474,-6.45283 -25.552732,-8.20899 -2.50879,-0.50225 -7.648438,-0.64648 -7.648438,-0.64648 l -2.050781,11.28125 -3.837891,-11.77734 c 0,0 -5.973799,-0.7376 -8.976562,-0.75782 -6.151321,-0.0414 -18.408204,1.30469 -18.408204,1.30469 z"
         transform="scale(0.26458333)"
         sodipodi:nodetypes="cccccsssscccscc" />
    </g>
    <path
       id="path53719"
       style="opacity:1;fill:#431e05;fill-opacity:1;stroke-width:0.999995;stroke-linecap:round;stop-color:#000000"
       d="m 11.237776,273.21275 23.110915,0.48098 36.769666,1.0357 11.226972,0.43108 1.226618,1.88719 0.640539,15.31497 -1.276442,1.51334 -17.866914,0.51408 -51.468073,-1.34867 -4.0615921,0.58053 -1.476793,-4.23427 1.552827,-15.09919 z"
       sodipodi:nodetypes="ccccccccccccc" />
    <path
       id="path53721"
       style="opacity:1;fill:#692f09;fill-opacity:1;stroke-width:0.999995;stroke-linecap:round;stop-color:#000000"
       d="m 12.345371,272.53527 23.110914,0.48097 36.769667,1.03571 11.22697,0.43108 1.22661,1.88719 0.640549,15.31497 -1.276448,1.51334 -17.866908,0.51407 -51.468073,-1.34866 -4.061593,0.58053 -1.476793,-4.23427 1.552828,-15.09919 z"
       sodipodi:nodetypes="ccccccccccccc" />
    <path
       id="path53723"
       style="opacity:1;fill:#7c3200;fill-opacity:1;stroke-width:0.999995;stroke-linecap:round;stop-color:#000000"
       d="m 12.345558,272.53518 -1.622635,1.07588 -1.2143041,11.81019 75.7370381,4.48497 -0.566106,-13.53582 -1.226695,-1.88746 -11.226751,-0.43103 -36.769874,-1.03567 z" />
    <path
       id="path53727"
       style="opacity:1;fill:#914614;fill-opacity:1;stroke-width:0.999995;stroke-linecap:round;stop-color:#000000"
       d="m 12.345558,272.53518 -1.622635,1.07588 -0.722596,7.02806 74.953732,2.29446 -0.274508,-6.56318 -1.226695,-1.88746 -11.226751,-0.43103 -36.769874,-1.03567 z" />
    <path
       id="path18179"
       style="fill:#431e05;fill-opacity:1;stroke-width:0.999995;stroke-linecap:round;stop-color:#000000"
       d="m 19.568386,256.77388 12.740583,-0.77572 36.713091,-2.36989 4.758829,1.38301 1.363875,1.76745 1.788496,15.20506 -1.260498,1.74825 -1.775338,1.18142 -4.108661,-0.65704 -49.211988,1.49567 -2.957008,-2.56304 0.413064,-15.19293 z"
       sodipodi:nodetypes="ccccccccccccc" />
    <path
       id="rect936"
       style="fill:#692f09;fill-opacity:1;stroke-width:0.999995;stroke-linecap:round;stop-color:#000000"
       d="m 20.621048,255.99617 12.740583,-0.77574 36.713091,-2.36987 4.758829,1.38299 1.363874,1.76747 1.788498,15.20504 -1.260498,1.74827 -1.775339,1.1814 -4.108661,-0.65702 -49.211988,1.49565 -2.957007,-2.56303 0.413063,-15.19294 z"
       sodipodi:nodetypes="ccccccccccccc" />
    <path
       id="path52372"
       style="fill:#7c3200;fill-opacity:1;stroke-width:0.999995;stroke-linecap:round;stop-color:#000000"
       d="m 20.621228,255.99606 -1.535896,1.22247 -0.322814,11.88347 59.015638,0.33787 -1.580695,-13.43868 -1.363986,-1.7677 -4.758604,-1.38298 -36.713296,2.36992 z"
       sodipodi:nodetypes="ccccccccc" />
    <path
       id="path52896"
       style="fill:#914614;fill-opacity:1;stroke-width:0.999995;stroke-linecap:round;stop-color:#000000"
       d="m 20.621228,255.99606 -1.535896,1.22247 -0.192089,7.07167 58.070661,-1.77293 -0.766445,-6.51608 -1.363987,-1.7677 -4.758603,-1.38298 -36.713297,2.36992 z"
       sodipodi:nodetypes="ccccccccc" />
    <g
       id="g53741"
       transform="matrix(1.0367463,-0.09627782,0.08963425,1.1894414,-32.833842,92.282599)"
       style="stroke-width:0.897383">
      <text
         xml:space="preserve"
         style="font-style:normal;font-variant:normal;font-weight:bold;font-stretch:normal;font-size:17.6389px;font-family:'Passion One';-inkscape-font-specification:'Passion One Bold';fill:#161200;fill-opacity:1;stroke:none;stroke-width:0.897383;stroke-linecap:round;stop-color:#000000"
         x="41.483669"
         y="155.93996"
         id="text36719"><tspan
           sodipodi:role="line"
           id="tspan36717"
           style="fill:#161200;fill-opacity:1;stroke-width:0.897383"
           x="41.483669"
           y="155.93996">Plants </tspan></text>
      <text
         xml:space="preserve"
         style="font-style:normal;font-variant:normal;font-weight:bold;font-stretch:normal;font-size:17.6389px;font-family:'Passion One';-inkscape-font-specification:'Passion One Bold';fill:#aad400;fill-opacity:1;stroke:none;stroke-width:0.897383;stroke-linecap:round;stop-color:#000000"
         x="41.862286"
         y="155.56134"
         id="text40553"><tspan
           sodipodi:role="line"
           id="tspan40551"
           style="fill:#aad400;fill-opacity:1;stroke-width:0.897383"
           x="41.862286"
           y="155.56134">Plants </tspan></text>
    </g>
    <g
       id="g53747"
       transform="matrix(1.1667424,0.0184102,-0.0184102,1.1667424,-18.690583,95.18736)"
       style="stroke-width:0.85698">
      <text
         xml:space="preserve"
         style="font-style:normal;font-variant:normal;font-weight:bold;font-stretch:normal;font-size:16.4707px;font-family:'Passion One';-inkscape-font-specification:'Passion One Bold';fill:#211b00;fill-opacity:1;stroke:none;stroke-width:0.85698;stroke-linecap:round;stop-color:#000000"
         x="35.738239"
         y="154.81984"
         id="text40405"
         transform="matrix(0.933805,0.00216366,0.00216366,1.0708924,0,0)"><tspan
           sodipodi:role="line"
           id="tspan40403"
           style="fill:#211b00;fill-opacity:1;stroke-width:0.85698"
           x="35.738239"
           y="154.81984">Revived</tspan></text>
      <text
         xml:space="preserve"
         style="font-style:normal;font-variant:normal;font-weight:bold;font-stretch:normal;font-size:16.4707px;line-height:0;font-family:'Passion One';-inkscape-font-specification:'Passion One Bold';letter-spacing:0px;word-spacing:0px;fill:#d0af2a;fill-opacity:1;stroke:none;stroke-width:0.171396;stroke-linecap:round;stroke-miterlimit:4;stroke-dasharray:none;paint-order:stroke markers fill;stop-color:#000000"
         x="36.071568"
         y="154.52818"
         id="text30539"
         transform="matrix(0.933805,0.00216366,0.00216366,1.0708924,0,0)"><tspan
           sodipodi:role="line"
           id="tspan30537"
           style="fill:#d0af2a;fill-opacity:1;stroke:none;stroke-width:0.171396;stroke-miterlimit:4;stroke-dasharray:none;paint-order:stroke markers fill"
           x="36.071568"
           y="154.52818"
           dx="0"
           rotate="0 0 0 0 0 0 0 0">Revived</tspan></text>
    </g>
  </g>
</svg>
