<?xml version="1.0" encoding="UTF-8" standalone="no"?>
<!-- Created with Inkscape (http://www.inkscape.org/) -->

<svg
   width="64"
   height="64"
   viewBox="0 0 16.933333 16.933334"
   version="1.1"
   id="svg930"
   inkscape:version="1.1.1 (3bf5ae0d25, 2021-09-20)"
   sodipodi:docname="apple_0.svg"
   xmlns:inkscape="http://www.inkscape.org/namespaces/inkscape"
   xmlns:sodipodi="http://sodipodi.sourceforge.net/DTD/sodipodi-0.dtd"
   xmlns="http://www.w3.org/2000/svg"
   xmlns:svg="http://www.w3.org/2000/svg">
  <sodipodi:namedview
     id="namedview932"
     pagecolor="#505050"
     bordercolor="#eeeeee"
     borderopacity="1"
     inkscape:pageshadow="0"
     inkscape:pageopacity="0"
     inkscape:pagecheckerboard="0"
     inkscape:document-units="px"
     showgrid="false"
     units="px"
     showguides="true"
     inkscape:guide-bbox="true"
     inkscape:zoom="4.192802"
     inkscape:cx="4.1738198"
     inkscape:cy="18.245555"
     inkscape:window-width="1920"
     inkscape:window-height="1017"
     inkscape:window-x="-8"
     inkscape:window-y="-8"
     inkscape:window-maximized="1"
     inkscape:current-layer="layer1">
    <sodipodi:guide
       position="5.5847199,1.2203923"
       orientation="0,-1"
       id="guide1233" />
    <sodipodi:guide
       position="8.0457829,15.608146"
       orientation="0,-1"
       id="guide1235" />
    <sodipodi:guide
       position="1.3567399,12.705354"
       orientation="1,0"
       id="guide1237" />
    <sodipodi:guide
       position="15.712941,5.9216538"
       orientation="1,0"
       id="guide1239" />
  </sodipodi:namedview>
  <defs
     id="defs927" />
  <g
     inkscape:label="Layer 1"
     inkscape:groupmode="layer"
     id="layer1">
    <g
       id="g288399"
       transform="translate(-0.996658,-279.36334)">
      <path
         id="path282334"
         style="fill:#6c5724;fill-opacity:0.943953;fill-rule:evenodd;stroke:#1f190a;stroke-width:2;stroke-linecap:round;stroke-linejoin:round;stroke-miterlimit:4;stroke-dasharray:none;stroke-opacity:0.996078"
         d="m 30.345703,1075.0938 c -2.006367,2.0637 -1.749944,5.57 1.490235,5.9199 l -0.1875,0.3515 0.03125,0.1 c -2.692245,-1.34 -4.631698,0.2835 -5.052735,3.3379 2.248814,1.3873 5.271421,0.6498 5.472656,-1.9863 l 1.410157,4.5137 0.347656,2.5644 -1.060547,12.75 h 0.002 l 1.589844,1.2422 1.242187,-0.123 c 0,0 -0.002,0 -0.002,0 l 0.527344,-0.053 1.148438,-0.8867 -0.882813,-10.8731 0.984375,-2.7793 1.068359,-1.2558 c -0.125367,2.2344 2.317975,3.578 4.6875,2.9941 0.342443,-1.9464 -0.08981,-3.524 -1.226562,-4.2871 0.202451,-0.086 0.393451,-0.1964 0.568359,-0.3281 0.01529,-0.011 0.02985,-0.023 0.04492,-0.035 1.039645,-0.8167 1.548868,-2.3941 1.220703,-3.9668 -0.0095,-0.046 -0.02032,-0.091 -0.03125,-0.1367 -2.924238,-0.5333 -5.023833,0.6904 -4.783203,3.4453 l -1.738281,1.666 -1.240235,0.6953 -0.880859,-0.7851 -2.058594,-4.8086 c 0.733116,0.9096 1.76238,1.4643 2.779297,1.4453 0.03819,-7e-4 0.0771,0 0.115235,0 0.07627,0 0.15071,-0.014 0.226562,-0.025 0.01896,0 0.03967,0 0.05859,-0.01 0.01893,0 0.03775,-0.01 0.05664,-0.012 0.05666,-0.011 0.111747,-0.024 0.167968,-0.039 0.187403,-0.05 0.372875,-0.1201 0.552735,-0.2148 0.01799,-0.01 0.03485,-0.019 0.05273,-0.029 0.536638,-0.2982 1.028976,-0.807 1.419922,-1.5645 -1.190209,-3.0256 -3.762776,-3.103 -6.056641,-1.0078 l -0.01172,-0.027 c 2.044335,-2.3846 0.891859,-4.6937 -2.052735,-5.7871 z"
         transform="scale(0.26458333)" />
      <path
         style="fill:#6c5724;fill-opacity:0.943953;fill-rule:evenodd;stroke:none;stroke-width:0.264583px;stroke-linecap:butt;stroke-linejoin:miter;stroke-opacity:1"
         d="m 8.6776556,291.74138 0.2806323,-3.37343 -0.092226,-0.67863 -0.4924251,-1.57812 0.1403164,-0.2631 0.7717408,1.80072 0.2332627,0.20729 0.3280033,-0.18389 0.561266,-0.53788 0.116931,0.30402 -0.6278565,0.73779 -0.2608152,0.73554 0.2338605,2.87648 -0.3040192,0.23503 -0.4677217,0.0468 z"
         id="path234867"
         sodipodi:nodetypes="cccccccccccccccc" />
      <path
         id="path236334"
         style="fill:#4a3d19;fill-opacity:1;fill-rule:evenodd;stroke:none;stroke-width:0.264583px;stroke-linecap:butt;stroke-linejoin:miter;stroke-opacity:1"
         d="M 9.4271379,292.03727 C 9.2745234,291.8926 9.066768,291.70152 9.006156,291.5351 c -0.031379,-0.67509 0.1396285,-2.14442 0.060575,-3.40937 -0.035968,-0.57555 -0.2725909,-1.24838 -0.6395326,-2.11548 l -0.053743,0.10078 0.4924766,1.57819 0.092501,0.67852 -0.2806031,3.37344 0.4206463,0.32866 z"
         sodipodi:nodetypes="ccsccccccc" />
      <path
         style="fill:#4a3d19;fill-opacity:1;fill-rule:evenodd;stroke:none;stroke-width:0.264583px;stroke-linecap:butt;stroke-linejoin:miter;stroke-opacity:1"
         d="m 10.478506,287.32038 0.04665,0.11794 -0.6278562,0.73779 -0.2608152,0.73554 c 0,0 -0.034129,-0.18979 -0.094235,-0.46128 0.052699,-0.21803 -0.014386,-0.0913 0.3709163,-0.50371 z"
         id="path260244"
         sodipodi:nodetypes="ccccccc" />
      <g
         id="g279672"
         transform="rotate(30.706198,6.7281877,286.836)">
        <path
           style="fill:#589f1e;fill-opacity:1;fill-rule:evenodd;stroke:none;stroke-width:0.264583px;stroke-linecap:butt;stroke-linejoin:miter;stroke-opacity:1"
           d="m 7.8675095,285.21675 c -0.8381716,0.4727 -1.4233339,-0.32342 -1.238322,-1.09486 0.8359218,-0.15244 1.4175813,0.2373 1.2383352,1.09487 z"
           id="path264639"
           sodipodi:nodetypes="cccc" />
        <path
           style="fill:#478119;fill-opacity:1;fill-rule:evenodd;stroke:none;stroke-width:0.264583px;stroke-linecap:butt;stroke-linejoin:miter;stroke-opacity:1"
           d="m 7.8675095,285.21675 c -0.8381716,0.4727 -1.4233339,-0.32342 -1.238322,-1.09486 0.5217291,0.18656 0.8222688,0.46881 1.2383352,1.09487 z"
           id="path265182"
           sodipodi:nodetypes="cccc" />
      </g>
      <g
         id="g280152"
         transform="rotate(-71.816664,7.8038711,285.28513)">
        <path
           style="fill:#4e8d1b;fill-opacity:1;fill-rule:evenodd;stroke:none;stroke-width:0.264583px;stroke-linecap:butt;stroke-linejoin:miter;stroke-opacity:1"
           d="m 7.1564418,286.20067 c -0.8381716,0.4727 -1.4233339,-0.32342 -1.238322,-1.09486 0.8359218,-0.15244 1.4175813,0.2373 1.2383352,1.09487 z"
           id="path279666"
           sodipodi:nodetypes="cccc" />
        <path
           style="fill:#3a6b15;fill-opacity:1;fill-rule:evenodd;stroke:none;stroke-width:0.264583px;stroke-linecap:butt;stroke-linejoin:miter;stroke-opacity:1"
           d="m 7.1564418,286.20067 c -0.8381716,0.4727 -1.4233339,-0.32342 -1.238322,-1.09486 0.5217291,0.18656 0.8222688,0.46881 1.2383352,1.09487 z"
           id="path279668"
           sodipodi:nodetypes="cccc" />
      </g>
      <g
         id="g281416"
         transform="matrix(-1,0,0,1,18.201666,2.1982918)">
        <path
           style="fill:#589f1e;fill-opacity:1;fill-rule:evenodd;stroke:none;stroke-width:0.264583px;stroke-linecap:butt;stroke-linejoin:miter;stroke-opacity:1"
           d="m 7.8675095,285.21675 c -0.8381716,0.4727 -1.4233339,-0.32342 -1.238322,-1.09486 0.8359218,-0.15244 1.4175813,0.2373 1.2383352,1.09487 z"
           id="path281412"
           sodipodi:nodetypes="cccc" />
        <path
           style="fill:#478119;fill-opacity:1;fill-rule:evenodd;stroke:none;stroke-width:0.264583px;stroke-linecap:butt;stroke-linejoin:miter;stroke-opacity:1"
           d="m 7.8675095,285.21675 c -0.8381716,0.4727 -1.4233339,-0.32342 -1.238322,-1.09486 0.5217291,0.18656 0.8222688,0.46881 1.2383352,1.09487 z"
           id="path281414"
           sodipodi:nodetypes="cccc" />
      </g>
      <g
         id="g281422"
         transform="matrix(-0.00622533,-0.99998062,-0.99998062,0.00622533,295.57758,293.49638)">
        <path
           style="fill:#589f1e;fill-opacity:1;fill-rule:evenodd;stroke:none;stroke-width:0.264583px;stroke-linecap:butt;stroke-linejoin:miter;stroke-opacity:1"
           d="m 7.8675095,285.21675 c -0.8381716,0.4727 -1.4233339,-0.32342 -1.238322,-1.09486 0.8359218,-0.15244 1.4175813,0.2373 1.2383352,1.09487 z"
           id="path281418"
           sodipodi:nodetypes="cccc" />
        <path
           style="fill:#478119;fill-opacity:1;fill-rule:evenodd;stroke:none;stroke-width:0.264583px;stroke-linecap:butt;stroke-linejoin:miter;stroke-opacity:1"
           d="m 7.8675095,285.21675 c -0.8381716,0.4727 -1.4233339,-0.32342 -1.238322,-1.09486 0.5217291,0.18656 0.8222688,0.46881 1.2383352,1.09487 z"
           id="path281420"
           sodipodi:nodetypes="cccc" />
      </g>
      <g
         id="g281428"
         transform="rotate(-33.279387,10.762963,281.87202)"
         inkscape:transform-center-x="-0.16370259"
         inkscape:transform-center-y="-0.67819642">
        <path
           style="fill:#589f1e;fill-opacity:1;fill-rule:evenodd;stroke:none;stroke-width:0.264583px;stroke-linecap:butt;stroke-linejoin:miter;stroke-opacity:1"
           d="m 7.8675095,285.21675 c -0.8381716,0.4727 -1.4233339,-0.32342 -1.238322,-1.09486 0.8359218,-0.15244 1.4175813,0.2373 1.2383352,1.09487 z"
           id="path281424"
           sodipodi:nodetypes="cccc" />
        <path
           style="fill:#478119;fill-opacity:1;fill-rule:evenodd;stroke:none;stroke-width:0.264583px;stroke-linecap:butt;stroke-linejoin:miter;stroke-opacity:1"
           d="m 7.8675095,285.21675 c -0.8381716,0.4727 -1.4233339,-0.32342 -1.238322,-1.09486 0.5217291,0.18656 0.8222688,0.46881 1.2383352,1.09487 z"
           id="path281426"
           sodipodi:nodetypes="cccc" />
      </g>
    </g>
  </g>
</svg>
