<?xml version="1.0" encoding="UTF-8" standalone="no"?>
<!-- Created with Inkscape (http://www.inkscape.org/) -->

<svg
   width="64"
   height="64"
   viewBox="0 0 16.933333 16.933334"
   version="1.1"
   id="svg930"
   inkscape:version="1.1.1 (3bf5ae0d25, 2021-09-20)"
   sodipodi:docname="apple_2.svg"
   xmlns:inkscape="http://www.inkscape.org/namespaces/inkscape"
   xmlns:sodipodi="http://sodipodi.sourceforge.net/DTD/sodipodi-0.dtd"
   xmlns="http://www.w3.org/2000/svg"
   xmlns:svg="http://www.w3.org/2000/svg">
  <sodipodi:namedview
     id="namedview932"
     pagecolor="#505050"
     bordercolor="#eeeeee"
     borderopacity="1"
     inkscape:pageshadow="0"
     inkscape:pageopacity="0"
     inkscape:pagecheckerboard="0"
     inkscape:document-units="px"
     showgrid="false"
     units="px"
     showguides="true"
     inkscape:guide-bbox="true"
     inkscape:zoom="4.192802"
     inkscape:cx="4.1738198"
     inkscape:cy="18.245555"
     inkscape:window-width="1920"
     inkscape:window-height="1017"
     inkscape:window-x="-8"
     inkscape:window-y="-8"
     inkscape:window-maximized="1"
     inkscape:current-layer="layer1">
    <sodipodi:guide
       position="5.5847199,1.2203923"
       orientation="0,-1"
       id="guide1233" />
    <sodipodi:guide
       position="8.0457829,15.608146"
       orientation="0,-1"
       id="guide1235" />
    <sodipodi:guide
       position="1.3567399,12.705354"
       orientation="1,0"
       id="guide1237" />
    <sodipodi:guide
       position="15.712941,5.9216538"
       orientation="1,0"
       id="guide1239" />
  </sodipodi:namedview>
  <defs
     id="defs927" />
  <g
     inkscape:label="Layer 1"
     inkscape:groupmode="layer"
     id="layer1">
    <g
       id="g346033"
       transform="translate(-1.1498923,-278.91586)">
      <path
         id="path337369"
         style="fill:#51411b;fill-opacity:1;fill-rule:evenodd;stroke:#20190b;stroke-width:2;stroke-linecap:round;stroke-linejoin:round;stroke-miterlimit:4;stroke-dasharray:none;stroke-opacity:1"
         d="m 36.333984,1057.1133 c -1.678629,0.042 -3.105794,1.1525 -4.068359,3.0254 -0.120006,-0.033 -0.238977,-0.063 -0.357422,-0.088 -1.217084,-2.1141 -3.902405,-2.5879 -7.033203,-1.4453 -0.0081,0.1227 -0.01217,0.2455 -0.01367,0.3672 -1.108978,-0.4486 -2.507757,-0.5828 -4.085937,-0.3789 -0.333156,1.1275 -0.359169,2.2812 -0.126953,3.3183 -1.493454,-0.1002 -3.183794,0.5809 -4.822266,1.9492 0.326377,1.135 0.927723,2.1259 1.685547,2.877 -0.199865,0.1091 -0.402289,0.2254 -0.603516,0.3515 0.06176,0.4251 0.16288,0.8368 0.296875,1.2286 -2.798377,-0.8675 -5.131744,1.0506 -6.1875,4.6054 1.219781,1.0368 2.712683,1.5726 4.103516,1.5742 0.02992,10e-5 0.06003,5e-4 0.08984,0 0.02949,-4e-4 0.0585,-10e-4 0.08789,0 0.0294,-9e-4 0.0586,0 0.08789,0 0.18032,-0.01 0.358104,-0.027 0.533203,-0.055 0.05826,0.1898 0.12384,0.3758 0.197266,0.5566 -1.874686,-0.3133 -3.881166,0.797 -5.539063,3.0039 1.115533,1.9909 3.108547,3.2217 4.986328,3.2208 0.02803,-1e-4 0.05601,0 0.08399,0 0.02797,-6e-4 0.05607,-8e-4 0.08398,0 0.08342,0 0.167247,-0.01 0.25,-0.017 0.100814,-0.01 0.20124,-0.023 0.300781,-0.041 -1.336969,1.1158 -1.936467,3.1546 -1.693359,5.6797 1.164008,0.3855 2.368341,0.4393 3.447265,0.209 0.05994,-0.013 0.118588,-0.027 0.177735,-0.041 0.558262,-0.1372 1.079408,-0.3526 1.541015,-0.6367 0.0076,0.034 0.0135,0.068 0.02148,0.1016 0.254737,0.047 0.509024,0.077 0.761718,0.096 0,0 0,0 0,0 -0.009,0.018 -0.01866,0.036 -0.02734,0.055 -0.0021,0 -0.0038,0.01 -0.0059,0.014 -0.0087,0.019 -0.01897,0.038 -0.02734,0.057 -8.2e-4,0 -0.0011,0 -0.002,0.01 -0.0034,0.01 -0.0064,0.016 -0.0098,0.023 -0.0057,0.013 -0.01204,0.026 -0.01758,0.039 0,0 0,0 0,0 -0.0091,0.022 -0.0186,0.044 -0.02734,0.066 -0.0013,0 -0.0026,0.01 -0.0039,0.01 -0.01495,0.038 -0.02925,0.078 -0.04297,0.1172 -0.0029,0.01 -0.005,0.017 -0.0078,0.025 -0.0064,0.019 -0.01343,0.036 -0.01953,0.055 -0.0021,0.01 -0.0038,0.013 -0.0059,0.019 -0.0033,0.01 -0.0065,0.021 -0.0098,0.031 -0.0122,0.04 -0.02428,0.079 -0.03516,0.1192 -0.0014,0.01 -0.0025,0.01 -0.0039,0.016 -0.0054,0.02 -0.01058,0.042 -0.01563,0.062 -0.0124,0.05 -0.02493,0.1012 -0.03516,0.1523 0,0 0,0 0,0 0,0 0,0 0,0 -0.0039,0.019 -0.0082,0.039 -0.01172,0.059 -0.0011,0.01 -9.25e-4,0.012 -0.002,0.018 -0.0043,0.025 -0.0079,0.05 -0.01172,0.074 -3.06e-4,0 -0.0017,0 -0.002,0.01 -0.0022,0.015 -0.0038,0.03 -0.0059,0.045 -0.0027,0.02 -0.0054,0.039 -0.0078,0.059 -4.81e-4,0 -0.0015,0.01 -0.002,0.012 -0.0018,0.015 -0.0023,0.03 -0.0039,0.045 -0.0045,0.043 -0.0089,0.087 -0.01172,0.1308 -6.62e-4,0.01 -0.0014,0.021 -0.002,0.031 -0.0015,0.028 -0.0031,0.054 -0.0039,0.082 -0.0021,0.071 -4.41e-4,0.1437 0.002,0.2168 7.98e-4,0.024 6.56e-4,0.048 0.002,0.072 0,0 0,0 0,0 0.0013,0.024 0.0022,0.048 0.0039,0.072 0,0 0,0 0,0 0.0018,0.024 0.0056,0.048 0.0078,0.072 0,0 0,0 0,0 0.0046,0.05 0.0091,0.098 0.01563,0.1484 0.0033,0.025 0.008,0.049 0.01172,0.074 0,0 0,0 0,0 0.01497,0.1001 0.03211,0.1988 0.05469,0.2988 0.0056,0.025 0.01146,0.049 0.01758,0.074 0,0 0,0 0,0 0.01834,0.075 0.04,0.1489 0.0625,0.2226 0.0075,0.025 0.01548,0.048 0.02344,0.072 0,0 0,0 0,0 0.02368,0.073 0.0485,0.146 0.07617,0.2168 0.102371,0.2617 0.23245,0.5084 0.386719,0.7246 0.01402,0.02 0.02853,0.038 0.04297,0.057 0,0 0,0 0,0 0.01413,0.019 0.02845,0.036 0.04297,0.055 0,0 0,0 0,0 0.01455,0.018 0.03194,0.035 0.04687,0.053 0,0 0,0 0,0 0.0305,0.036 0.06165,0.07 0.09375,0.1035 0.01605,0.017 0.03238,0.033 0.04883,0.049 0,0 0,0 0,0 0.427541,0.4213 0.986821,0.6226 1.654296,0.3984 0.107761,-0.036 0.218144,-0.047 0.326172,-0.043 0.01351,5e-4 0.02759,10e-4 0.04102,0 0.308635,0.022 0.591708,0.1579 0.730469,0.166 0.1058,0.01 0.212951,0 0.318359,-0.01 0.01316,0 0.02592,0 0.03906,-0.01 0.0078,0 0.01561,0 0.02344,0 0.02103,0 0.04153,-0.01 0.0625,-0.012 0.0216,0 0.04293,-0.01 0.06445,-0.014 0.01368,0 0.02737,-0.01 0.04102,-0.01 0.0072,0 0.01431,0 0.02148,-0.01 0.02284,-0.01 0.04563,-0.013 0.06836,-0.02 0.0182,-0.01 0.03656,-0.011 0.05469,-0.018 0.0019,-6e-4 0.004,0 0.0059,0 0.0191,-0.01 0.03764,-0.014 0.05664,-0.022 0.02051,-0.01 0.04016,-0.015 0.06055,-0.023 0.04018,-0.016 0.08146,-0.034 0.121094,-0.053 0.01827,-0.01 0.03654,-0.018 0.05469,-0.027 0.0018,-9e-4 0.004,-10e-4 0.0059,0 0.02669,-0.014 0.05369,-0.028 0.08008,-0.043 0.01285,-0.01 0.02629,-0.014 0.03906,-0.021 0.01556,-0.01 0.03143,-0.018 0.04687,-0.027 0.0041,0 0.0077,-0.01 0.01172,-0.01 0.0096,-0.01 0.01979,-0.012 0.0293,-0.018 0.01007,-0.01 0.01928,-0.013 0.0293,-0.019 0.004,0 0.0077,-0.01 0.01172,-0.01 0.01466,-0.01 0.03039,-0.019 0.04492,-0.029 0.01316,-0.01 0.02601,-0.018 0.03906,-0.027 0.0058,0 0.01181,-0.01 0.01758,-0.012 0.04822,-0.034 0.09596,-0.07 0.142578,-0.1074 0.0079,-0.01 0.01559,-0.013 0.02344,-0.019 0.01803,-0.015 0.03692,-0.03 0.05469,-0.045 0.01276,-0.011 0.02449,-0.022 0.03711,-0.033 0.0045,0 0.0092,-0.01 0.01367,-0.012 0.0086,-0.01 0.0169,-0.016 0.02539,-0.024 0.0089,-0.01 0.01848,-0.015 0.02734,-0.023 0.01585,-0.015 0.03128,-0.03 0.04687,-0.045 0.0013,0 0.0026,0 0.0039,0 0.0232,-0.022 0.04575,-0.045 0.06836,-0.068 0.01029,-0.01 0.02109,-0.021 0.03125,-0.031 0.01314,-0.014 0.02614,-0.029 0.03906,-0.043 0.0031,0 0.0067,-0.01 0.0098,-0.01 0.01062,-0.012 0.02078,-0.024 0.03125,-0.035 0,0 0.002,0 0.002,0 0.0046,-0.01 0.0091,-0.01 0.01367,-0.016 0.004,0 0.0078,-0.01 0.01172,-0.014 0.0063,-0.01 0.01325,-0.014 0.01953,-0.021 0.0033,0 0.0084,-0.01 0.01172,-0.014 0.06105,0.28 0.135477,0.5659 0.222656,0.8555 3.887165,0.482 7.500721,-2.4442 5.949219,-6.1523 0.154897,0.091 0.304956,0.1794 0.451172,0.2675 1.378892,0.8731 2.575854,1.774 3.068359,2.3672 l -0.193359,3.2578 v 0 l -0.03906,0.7617 -0.763671,14.918 h 0.002 l 2.564453,2.1015 2.003906,-0.1542 0.849609,-0.067 1.853516,-1.6582 -1.425781,-13.6035 1.589844,-3.4785 0.408203,-0.3711 c 0,0 0,0 0,0 0.008,0.024 0.01503,0.048 0.02344,0.072 0,0 0,0 0,0 0.0082,0.024 0.01675,0.047 0.02539,0.07 0,0 0,0 0,0 0.0089,0.024 0.01804,0.047 0.02734,0.07 0.0093,0.024 0.01955,0.047 0.0293,0.07 0,0 0,0 0,0 0.0095,0.023 0.01935,0.046 0.0293,0.068 0,0 0,0 0,0 0.02038,0.047 0.04232,0.091 0.06445,0.1368 0.01107,0.023 0.02171,0.044 0.0332,0.066 0,0 0,0 0,0 0.01124,0.022 0.02351,0.043 0.03516,0.064 0,0 0,0 0,0 0.01192,0.022 0.02476,0.043 0.03711,0.064 0.01235,0.022 0.02434,0.041 0.03711,0.062 0,0 0,0 0,0 0.0125,0.021 0.02616,0.04 0.03906,0.061 0,0 0,0 0,0 0.06597,0.1032 0.136652,0.1989 0.212891,0.2891 0.01525,0.018 0.03122,0.035 0.04687,0.053 0,0 0,0 0,0 0.01565,0.017 0.03278,0.034 0.04883,0.051 0.320801,0.3362 0.7202,0.5483 1.1875,0.541 0.02339,-4e-4 0.04854,-5e-4 0.07227,0 0.118619,-0.01 0.240413,-0.03 0.367188,-0.066 0.02535,-0.01 0.0505,-0.015 0.07617,-0.023 0.02694,-0.01 0.05484,-0.017 0.08203,-0.024 0.0136,0 0.02738,-0.01 0.04102,-0.01 0.395284,-0.068 0.79965,0.146 0.974609,0.1563 0.01529,10e-4 0.03158,0 0.04687,0 0.0058,2e-4 0.01181,-1e-4 0.01758,0 0.0632,0 0.126396,-2e-4 0.189453,-0.01 0,0 0.002,0 0.002,0 0.03696,0 0.07449,-0.01 0.111328,-0.014 0.0045,-7e-4 0.0092,0 0.01367,0 0.02103,0 0.04153,-0.01 0.0625,-0.012 0.02098,0 0.04159,-0.01 0.0625,-0.014 0.01388,0 0.02912,-0.01 0.04297,-0.01 0.0072,0 0.01431,0 0.02148,-0.01 0.002,-5e-4 0.0038,0 0.0059,0 0.03928,-0.011 0.07825,-0.024 0.117188,-0.037 0.01156,0 0.02363,-0.01 0.03516,-0.012 0.02972,-0.011 0.05842,-0.021 0.08789,-0.033 0.02965,-0.012 0.05853,-0.026 0.08789,-0.039 0.0084,0 0.017,-0.01 0.02539,-0.012 0.02065,-0.01 0.04201,-0.019 0.0625,-0.029 0.0021,0 0.0038,0 0.0059,0 0.02641,-0.013 0.05397,-0.027 0.08008,-0.041 0.013,-0.01 0.02614,-0.016 0.03906,-0.024 0.0046,0 0.0091,-0.01 0.01367,-0.01 0.01473,-0.01 0.0303,-0.017 0.04492,-0.025 0.02345,-0.014 0.04716,-0.03 0.07031,-0.045 0.01466,-0.01 0.03039,-0.019 0.04492,-0.029 0.01316,-0.01 0.02601,-0.018 0.03906,-0.027 0.0058,0 0.01181,-0.01 0.01758,-0.012 0.02099,-0.015 0.0418,-0.031 0.0625,-0.047 0.01614,-0.012 0.03287,-0.025 0.04883,-0.037 0.01059,-0.01 0.02075,-0.017 0.03125,-0.025 0.0076,-0.01 0.01591,-0.012 0.02344,-0.018 0.01803,-0.015 0.03692,-0.032 0.05469,-0.047 0.01722,-0.015 0.03382,-0.03 0.05078,-0.045 0.01439,-0.013 0.02877,-0.026 0.04297,-0.039 0.003,0 0.0067,-0.01 0.0098,-0.01 0.01616,-0.015 0.03098,-0.03 0.04687,-0.045 0.001,-10e-4 0.0029,-10e-4 0.0039,0 0.02286,-0.022 0.04607,-0.046 0.06836,-0.068 0.01062,-0.011 0.02077,-0.022 0.03125,-0.033 0.0019,0 0.004,0 0.0059,-0.01 0.6461,0.2025 1.342831,0.3132 2.0625,0.3086 0.03396,-2e-4 0.06751,0 0.101563,0 0.769852,-1.8488 0.94911,-3.5618 0.523437,-4.9199 0.119202,-0.042 0.237699,-0.088 0.355469,-0.1386 0.05603,-0.024 0.112351,-0.049 0.167969,-0.074 0.0203,-0.01 0.04031,-0.02 0.06055,-0.029 0.92797,2.3095 4.005037,3.3586 6.851562,2.42 0.04196,-0.4302 0.05916,-0.8462 0.05273,-1.2461 0.386,-0.065 0.772522,-0.1647 1.154297,-0.3008 0.176674,-2.4047 -0.39649,-4.3537 -1.623047,-5.4727 -0.09173,-0.2467 -0.19002,-0.4837 -0.294922,-0.7109 0.03556,-4e-4 0.07179,-7e-4 0.107422,0 0.534223,-0.02 1.076025,-0.1389 1.601563,-0.3437 0.05532,-0.022 0.111069,-0.043 0.166015,-0.066 1.098932,-0.4696 2.117725,-1.3208 2.845704,-2.4531 0.01829,-0.029 0.03677,-0.057 0.05469,-0.086 0.0535,-0.086 0.104222,-0.1726 0.154297,-0.2617 -1.304947,-1.7422 -2.827072,-2.8031 -4.332031,-3.0215 0,0 0,0 0,0 0.0024,-0.01 0.0054,-0.012 0.0078,-0.018 0.396694,-0.2367 0.770057,-0.5333 1.109375,-0.8809 0.04255,-0.044 0.0855,-0.088 0.126953,-0.1328 0.746112,-0.8126 1.311506,-1.8757 1.570313,-3.0742 -2.116514,-1.5381 -4.242558,-2.0426 -5.90625,-1.3672 -0.391669,-0.3116 -0.786663,-0.5827 -1.179688,-0.8144 0.909919,-0.1935 1.769815,-0.6998 2.480469,-1.4278 0.04255,-0.044 0.0855,-0.088 0.126953,-0.1328 0.746112,-0.8127 1.311506,-1.8757 1.570313,-3.0742 -1.030888,-0.7492 -2.06396,-1.2541 -3.044922,-1.4961 0.04031,-0.1404 0.07775,-0.2832 0.109375,-0.4277 -3.258899,-2.382 -6.54736,-2.3028 -8.132813,0.7793 -0.821879,-0.6838 -1.781717,-1.0299 -2.830078,-0.9668 -1.322045,-0.7231 -2.612304,-1.0258 -3.755859,-0.875 0.05197,-0.3752 0.07008,-0.7788 0.05078,-1.2129 -1.29198,-1.0344 -2.53715,-1.4913 -3.667969,-1.4629 z m 0.71875,9.1328 c -0.08426,0.1011 -0.167892,0.2051 -0.248046,0.3144 -0.03193,-0.07 -0.06501,-0.1382 -0.09961,-0.205 0.09159,-0.026 0.182297,-0.053 0.273438,-0.084 0.0247,-0.01 0.04956,-0.017 0.07422,-0.025 z m 5.476563,10.7207 c 0.05008,0.035 0.09967,0.068 0.150391,0.1 -0.0818,0.1106 -0.160563,0.2278 -0.236329,0.3496 0.01035,-0.1354 0.01564,-0.2737 0.01758,-0.416 0.02282,-0.011 0.04566,-0.022 0.06836,-0.033 z m -24.074219,2.9863 c -0.04843,0.1056 -0.09499,0.2125 -0.140625,0.3223 -0.08065,0.012 -0.160072,0.026 -0.238281,0.041 0.0205,-0.017 0.04026,-0.035 0.06055,-0.053 0.109754,-0.096 0.215224,-0.1995 0.318359,-0.3106 z m 20.144531,1.5215 c 0.655478,1.9415 2.841966,3.2174 5.267579,3.1914 0.06615,-7e-4 0.13274,0 0.199218,-0.01 0.03062,0 0.06111,0 0.0918,0 -0.02585,0.09 -0.04895,0.1802 -0.06836,0.2696 -0.002,5e-4 -0.0038,0 -0.0059,0 -0.002,6e-4 -0.0038,0 -0.0059,0 -0.0044,0 -0.0092,7e-4 -0.01367,0 -0.0055,0 -0.01017,0 -0.01563,0.01 -0.01486,0 -0.03007,0.01 -0.04492,0.014 -0.0033,0 -0.0065,0 -0.0098,0 -0.01683,0.01 -0.03397,0.011 -0.05078,0.018 -0.0013,5e-4 -0.0026,0 -0.0039,0 -0.03885,0.015 -0.07855,0.031 -0.117187,0.049 -0.0147,0.01 -0.02831,0.014 -0.04297,0.022 -0.0053,0 -0.01032,0.01 -0.01563,0.01 -0.01282,0.01 -0.02629,0.015 -0.03906,0.022 -0.0084,0 -0.01699,0.01 -0.02539,0.014 -0.0054,0 -0.01027,0.01 -0.01563,0.01 -0.0038,0 -0.0079,0 -0.01172,0.01 -0.0066,0 -0.01293,0.01 -0.01953,0.012 0,0 -0.002,0 -0.002,0 -0.002,0 -0.0039,0 -0.0059,0 -0.0086,0.01 -0.01684,0.01 -0.02539,0.016 -0.0048,0 -0.0089,0.01 -0.01367,0.01 -0.01036,0.01 -0.02094,0.013 -0.03125,0.02 -0.0024,0 -0.0054,0 -0.0078,0 -0.008,0.01 -0.01543,0.012 -0.02344,0.018 -0.0042,0 -0.0094,0 -0.01367,0.01 0,0 -0.002,0 -0.002,0 -0.0012,8e-4 -0.0027,0 -0.0039,0 -0.0034,0 -0.0064,0.01 -0.0098,0.01 0,0 -0.002,0 -0.002,0 -0.0039,0 -0.0078,0.01 -0.01172,0.01 -0.01024,0.01 -0.02106,0.014 -0.03125,0.022 -0.0022,0 -0.0036,0 -0.0059,0.01 -0.01699,0.013 -0.03394,0.024 -0.05078,0.037 0,0 -0.002,0 -0.002,0 -0.01705,0.013 -0.03389,0.027 -0.05078,0.041 -0.0098,0.01 -0.01954,0.017 -0.0293,0.025 -0.01031,0.01 -0.02101,0.016 -0.03125,0.025 -0.0048,0 -0.0089,0.01 -0.01367,0.014 -0.0097,0.01 -0.01969,0.017 -0.0293,0.025 -0.0044,0 -0.0093,0.01 -0.01367,0.012 0,0 -0.002,0 -0.002,0 -0.01006,0.01 -0.01932,0.02 -0.0293,0.029 -0.0044,0 -0.0093,0.01 -0.01367,0.012 -0.003,0 -0.0067,0 -0.0098,0.01 -0.01149,0.011 -0.02183,0.024 -0.0332,0.035 -0.0065,0.01 -0.01306,0.013 -0.01953,0.019 -0.007,0.01 -0.01451,0.014 -0.02148,0.022 -9.53e-4,10e-4 -10e-4,0 -0.002,0 -0.0098,0.01 -0.0196,0.021 -0.0293,0.031 -0.01425,0.015 -0.02893,0.031 -0.04297,0.047 -0.0031,0 -0.0067,0.01 -0.0098,0.01 0,0 0,0 0,0 0,0 -0.002,0 -0.002,0 -0.0178,0.02 -0.0353,0.039 -0.05273,0.061 -0.0094,0.011 -0.01807,0.024 -0.02734,0.035 -0.0057,0.01 -0.0119,0.014 -0.01758,0.022 0,0 -0.002,0 -0.002,0 -0.0067,0.01 -0.01285,0.017 -0.01953,0.025 -0.0075,0.01 -0.01408,0.02 -0.02148,0.029 -0.0022,0 -0.0056,0 -0.0078,0.01 -0.0034,0 -0.0064,0.01 -0.0098,0.014 -0.0034,0 -0.0064,0.01 -0.0098,0.014 -0.0053,0.01 -0.01033,0.014 -0.01563,0.022 -0.0039,0.01 -0.0079,0.01 -0.01172,0.016 0,0 -0.002,0 -0.002,0 -0.0099,0.014 -0.01959,0.029 -0.0293,0.043 -0.0024,0 -0.0054,0.01 -0.0078,0.01 -0.0024,0 -0.0054,0.01 -0.0078,0.014 -0.0084,0.012 -0.01707,0.025 -0.02539,0.037 -8.03e-4,0 -0.0012,0 -0.002,0 -0.006,0.01 -0.01166,0.018 -0.01758,0.027 -0.006,0.01 -0.01356,0.018 -0.01953,0.027 0,0 -0.002,0 -0.002,0 -0.0041,0.01 -0.0077,0.013 -0.01172,0.019 -0.0041,0.01 -0.0077,0.013 -0.01172,0.02 -0.01808,0.029 -0.03538,0.058 -0.05273,0.088 -0.0081,0.014 -0.01555,0.029 -0.02344,0.043 -0.0043,0.01 -0.0094,0.016 -0.01367,0.024 -0.0063,0.012 -0.01134,0.023 -0.01758,0.035 -0.009,0.017 -0.01854,0.034 -0.02734,0.051 -0.01925,0.037 -0.03663,0.077 -0.05469,0.1152 0,0 -0.002,0 -0.002,0 -0.0021,0 -0.0038,0.01 -0.0059,0.014 -0.0087,0.019 -0.01897,0.038 -0.02734,0.057 -0.0048,0.011 -0.0089,0.022 -0.01367,0.033 l -0.800781,0.5957 -2,0.8691 -0.818359,-0.9804 -0.742188,-5.5469 c 0.06638,3e-4 0.133345,10e-5 0.199219,0 0.02939,-9e-4 0.05861,0 0.08789,0 0.02961,0 0.05841,0 0.08789,-0.01 0.02916,0 0.0569,0 0.08594,-0.01 0.01434,0 0.02866,0 0.04297,0 z m -3.412109,1.8711 0.126953,1.5547 c -0.910518,0.042 -1.897165,-0.5566 -3.048828,-1.3379 0.377622,0.075 0.754885,0.1148 1.125,0.1152 0.0595,10e-5 0.118641,0 0.177734,0 0.02939,-10e-4 0.05861,0 0.08789,0 0.05856,0 0.11576,-0.01 0.173828,-0.012 0.116136,-0.01 0.231877,-0.024 0.345703,-0.041 0.02872,0 0.05738,-0.01 0.08594,-0.014 0.02829,0 0.05586,-0.01 0.08398,-0.016 0.02806,-0.01 0.0561,-0.01 0.08398,-0.016 0.139735,-0.029 0.277347,-0.064 0.412109,-0.1054 0.02685,-0.01 0.05344,-0.017 0.08008,-0.025 0.02673,-0.01 0.05357,-0.018 0.08008,-0.027 0.02679,-0.01 0.05353,-0.019 0.08008,-0.029 0.03555,-0.013 0.07036,-0.027 0.105469,-0.041 z"
         transform="scale(0.26458333)" />
      <path
         style="fill:#6c5724;fill-opacity:0.943953;fill-rule:evenodd;stroke:none;stroke-width:0.264583px;stroke-linecap:butt;stroke-linejoin:miter;stroke-opacity:1"
         d="m 9.1349809,292.73427 0.2122537,-4.14888 0.051467,-0.86249 C 9.2725707,287.49943 8.662228,287.11455 7.7677784,286.63497 l 0.3338728,-0.23664 c 0.5055881,0.33029 0.8935414,0.6639 1.2417865,0.64803 l -0.1016742,-1.24468 0.7572105,-0.25785 0.277132,2.0696 0.216111,0.25937 0.529152,-0.2301 0.905469,-0.67302 0.188638,0.3804 -1.012895,0.92318 -0.42076,0.92035 0.377277,3.5992 -0.490462,0.43892 -0.7545561,0.0586 z"
         id="path282125"
         sodipodi:nodetypes="ccccccccccccccccccc" />
      <path
         id="path282127"
         style="fill:#4a3d19;fill-opacity:1;fill-rule:evenodd;stroke:none;stroke-width:0.264583px;stroke-linecap:butt;stroke-linejoin:miter;stroke-opacity:1"
         d="m 10.34409,293.24933 c -0.246208,-0.18101 -0.5813701,-0.56494 -0.679153,-0.77318 -0.050622,-0.8447 0.016185,-2.34381 0.048853,-3.91324 0.015036,-0.72233 -0.3037378,-2.50808 0.024478,-2.8876 l -0.4967927,0.12614 0.1034701,1.20872 c 0.025048,0.0251 -0.018033,0.38165 -0.1984023,0.25705 -0.4509055,-0.3115 -1.2060619,-0.76324 -1.2060619,-0.76324 l -0.1848407,0.1283 c 0.6278854,0.30015 1.4164092,0.81773 1.6428632,1.09049 l -0.051024,0.86235 -0.2122054,4.14889 0.6786103,0.55608 z"
         sodipodi:nodetypes="ccscccsccccccc" />
      <path
         style="fill:#4a3d19;fill-opacity:1;fill-rule:evenodd;stroke:none;stroke-width:0.264583px;stroke-linecap:butt;stroke-linejoin:miter;stroke-opacity:1"
         d="m 12.040217,287.20247 0.07525,0.14757 -1.012893,0.92316 -0.420762,0.92034 c 0,0 -0.05505,-0.23747 -0.152025,-0.57717 0.08502,-0.27281 -0.02321,-0.11423 0.598384,-0.63028 z"
         id="path282129"
         sodipodi:nodetypes="ccccccc" />
      <g
         id="g293142-3-1"
         transform="matrix(0.12257745,-1.4488594,1.4488594,0.12257745,-409.94326,261.18575)"
         style="stroke-width:0.687741">
        <path
           style="fill:#4e8d1b;fill-opacity:1;fill-rule:evenodd;stroke:none;stroke-width:0.181965px;stroke-linecap:butt;stroke-linejoin:miter;stroke-opacity:1"
           d="m 7.1564418,286.20067 c -0.8381716,0.4727 -1.4233339,-0.32342 -1.238322,-1.09486 0.8359218,-0.15244 1.4175813,0.2373 1.2383352,1.09487 z"
           id="path293138-8-7"
           sodipodi:nodetypes="cccc" />
        <path
           style="fill:#3a6b15;fill-opacity:1;fill-rule:evenodd;stroke:none;stroke-width:0.181965px;stroke-linecap:butt;stroke-linejoin:miter;stroke-opacity:1"
           d="m 7.1564418,286.20067 c -0.8381716,0.4727 -1.4233339,-0.32342 -1.238322,-1.09486 0.5217291,0.18656 0.8222688,0.46881 1.2383352,1.09487 z"
           id="path293140-2-0"
           sodipodi:nodetypes="cccc" />
      </g>
      <g
         id="g293142-3-1-7"
         transform="matrix(1.067728,-0.98700333,0.98700333,1.067728,-284.92056,-13.353996)"
         style="stroke-width:0.687741">
        <path
           style="fill:#4e8d1b;fill-opacity:1;fill-rule:evenodd;stroke:none;stroke-width:0.181965px;stroke-linecap:butt;stroke-linejoin:miter;stroke-opacity:1"
           d="m 7.1564418,286.20067 c -0.8381716,0.4727 -1.4233339,-0.32342 -1.238322,-1.09486 0.8359218,-0.15244 1.4175813,0.2373 1.2383352,1.09487 z"
           id="path293138-8-7-3"
           sodipodi:nodetypes="cccc" />
        <path
           style="fill:#3a6b15;fill-opacity:1;fill-rule:evenodd;stroke:none;stroke-width:0.181965px;stroke-linecap:butt;stroke-linejoin:miter;stroke-opacity:1"
           d="m 7.1564418,286.20067 c -0.8381716,0.4727 -1.4233339,-0.32342 -1.238322,-1.09486 0.5217291,0.18656 0.8222688,0.46881 1.2383352,1.09487 z"
           id="path293140-2-0-5"
           sodipodi:nodetypes="cccc" />
      </g>
      <g
         id="g293142-3-1-8"
         transform="matrix(0.65730874,-1.2969826,1.2969826,0.65730874,-370.7523,104.15085)"
         style="stroke-width:0.687741">
        <path
           style="fill:#4e8d1b;fill-opacity:1;fill-rule:evenodd;stroke:none;stroke-width:0.181965px;stroke-linecap:butt;stroke-linejoin:miter;stroke-opacity:1"
           d="m 7.1564418,286.20067 c -0.8381716,0.4727 -1.4233339,-0.32342 -1.238322,-1.09486 0.8359218,-0.15244 1.4175813,0.2373 1.2383352,1.09487 z"
           id="path293138-8-7-4"
           sodipodi:nodetypes="cccc" />
        <path
           style="fill:#3a6b15;fill-opacity:1;fill-rule:evenodd;stroke:none;stroke-width:0.181965px;stroke-linecap:butt;stroke-linejoin:miter;stroke-opacity:1"
           d="m 7.1564418,286.20067 c -0.8381716,0.4727 -1.4233339,-0.32342 -1.238322,-1.09486 0.5217291,0.18656 0.8222688,0.46881 1.2383352,1.09487 z"
           id="path293140-2-0-4"
           sodipodi:nodetypes="cccc" />
      </g>
      <g
         id="g293142-3-1-6"
         transform="matrix(1.2651499,-0.71666913,0.71666913,1.2651499,-207.62658,-74.980106)"
         style="stroke-width:0.687741">
        <path
           style="fill:#4e8d1b;fill-opacity:1;fill-rule:evenodd;stroke:none;stroke-width:0.181965px;stroke-linecap:butt;stroke-linejoin:miter;stroke-opacity:1"
           d="m 7.1564418,286.20067 c -0.8381716,0.4727 -1.4233339,-0.32342 -1.238322,-1.09486 0.8359218,-0.15244 1.4175813,0.2373 1.2383352,1.09487 z"
           id="path293138-8-7-9"
           sodipodi:nodetypes="cccc" />
        <path
           style="fill:#3a6b15;fill-opacity:1;fill-rule:evenodd;stroke:none;stroke-width:0.181965px;stroke-linecap:butt;stroke-linejoin:miter;stroke-opacity:1"
           d="m 7.1564418,286.20067 c -0.8381716,0.4727 -1.4233339,-0.32342 -1.238322,-1.09486 0.5217291,0.18656 0.8222688,0.46881 1.2383352,1.09487 z"
           id="path293140-2-0-50"
           sodipodi:nodetypes="cccc" />
      </g>
      <g
         id="g293142-3-1-83"
         transform="matrix(1.4331841,-0.24536106,0.24536106,1.4331841,-71.854057,-127.06749)"
         style="stroke-width:0.687741">
        <path
           style="fill:#4e8d1b;fill-opacity:1;fill-rule:evenodd;stroke:none;stroke-width:0.181965px;stroke-linecap:butt;stroke-linejoin:miter;stroke-opacity:1"
           d="m 7.1564418,286.20067 c -0.8381716,0.4727 -1.4233339,-0.32342 -1.238322,-1.09486 0.8359218,-0.15244 1.4175813,0.2373 1.2383352,1.09487 z"
           id="path293138-8-7-2"
           sodipodi:nodetypes="cccc" />
        <path
           style="fill:#3a6b15;fill-opacity:1;fill-rule:evenodd;stroke:none;stroke-width:0.181965px;stroke-linecap:butt;stroke-linejoin:miter;stroke-opacity:1"
           d="m 7.1564418,286.20067 c -0.8381716,0.4727 -1.4233339,-0.32342 -1.238322,-1.09486 0.5217291,0.18656 0.8222688,0.46881 1.2383352,1.09487 z"
           id="path293140-2-0-7"
           sodipodi:nodetypes="cccc" />
      </g>
      <g
         id="g293142-3-1-2"
         transform="matrix(0.65730874,-1.2969826,1.2969826,0.65730874,-365.31747,101.24105)"
         style="stroke-width:0.687741">
        <path
           style="fill:#4e8d1b;fill-opacity:1;fill-rule:evenodd;stroke:none;stroke-width:0.181965px;stroke-linecap:butt;stroke-linejoin:miter;stroke-opacity:1"
           d="m 7.1564418,286.20067 c -0.8381716,0.4727 -1.4233339,-0.32342 -1.238322,-1.09486 0.8359218,-0.15244 1.4175813,0.2373 1.2383352,1.09487 z"
           id="path293138-8-7-49"
           sodipodi:nodetypes="cccc" />
        <path
           style="fill:#3a6b15;fill-opacity:1;fill-rule:evenodd;stroke:none;stroke-width:0.181965px;stroke-linecap:butt;stroke-linejoin:miter;stroke-opacity:1"
           d="m 7.1564418,286.20067 c -0.8381716,0.4727 -1.4233339,-0.32342 -1.238322,-1.09486 0.5217291,0.18656 0.8222688,0.46881 1.2383352,1.09487 z"
           id="path293140-2-0-45"
           sodipodi:nodetypes="cccc" />
      </g>
      <g
         id="g293142-3-1-79"
         transform="matrix(-1.3087804,-0.63349233,-0.63349233,1.3087804,202.8224,-88.70802)"
         style="stroke-width:0.687741">
        <path
           style="fill:#4e8d1b;fill-opacity:1;fill-rule:evenodd;stroke:none;stroke-width:0.181965px;stroke-linecap:butt;stroke-linejoin:miter;stroke-opacity:1"
           d="m 7.1564418,286.20067 c -0.8381716,0.4727 -1.4233339,-0.32342 -1.238322,-1.09486 0.8359218,-0.15244 1.4175813,0.2373 1.2383352,1.09487 z"
           id="path293138-8-7-21"
           sodipodi:nodetypes="cccc" />
        <path
           style="fill:#3a6b15;fill-opacity:1;fill-rule:evenodd;stroke:none;stroke-width:0.181965px;stroke-linecap:butt;stroke-linejoin:miter;stroke-opacity:1"
           d="m 7.1564418,286.20067 c -0.8381716,0.4727 -1.4233339,-0.32342 -1.238322,-1.09486 0.5217291,0.18656 0.8222688,0.46881 1.2383352,1.09487 z"
           id="path293140-2-0-6"
           sodipodi:nodetypes="cccc" />
      </g>
      <g
         id="g293142-3-1-4"
         transform="matrix(-1.0663362,-0.98850679,-0.98850679,1.0663362,304.55223,-13.286394)"
         style="stroke-width:0.687741">
        <path
           style="fill:#4e8d1b;fill-opacity:1;fill-rule:evenodd;stroke:none;stroke-width:0.181965px;stroke-linecap:butt;stroke-linejoin:miter;stroke-opacity:1"
           d="m 7.1564418,286.20067 c -0.8381716,0.4727 -1.4233339,-0.32342 -1.238322,-1.09486 0.8359218,-0.15244 1.4175813,0.2373 1.2383352,1.09487 z"
           id="path293138-8-7-40"
           sodipodi:nodetypes="cccc" />
        <path
           style="fill:#3a6b15;fill-opacity:1;fill-rule:evenodd;stroke:none;stroke-width:0.181965px;stroke-linecap:butt;stroke-linejoin:miter;stroke-opacity:1"
           d="m 7.1564418,286.20067 c -0.8381716,0.4727 -1.4233339,-0.32342 -1.238322,-1.09486 0.5217291,0.18656 0.8222688,0.46881 1.2383352,1.09487 z"
           id="path293140-2-0-1"
           sodipodi:nodetypes="cccc" />
      </g>
      <g
         id="g293142-3-1-28"
         transform="matrix(-0.12076866,-1.4490113,-1.4490113,0.12076866,429.13237,261.92155)"
         style="stroke-width:0.687741">
        <path
           style="fill:#4e8d1b;fill-opacity:1;fill-rule:evenodd;stroke:none;stroke-width:0.181965px;stroke-linecap:butt;stroke-linejoin:miter;stroke-opacity:1"
           d="m 7.1564418,286.20067 c -0.8381716,0.4727 -1.4233339,-0.32342 -1.238322,-1.09486 0.8359218,-0.15244 1.4175813,0.2373 1.2383352,1.09487 z"
           id="path293138-8-7-39"
           sodipodi:nodetypes="cccc" />
        <path
           style="fill:#3a6b15;fill-opacity:1;fill-rule:evenodd;stroke:none;stroke-width:0.181965px;stroke-linecap:butt;stroke-linejoin:miter;stroke-opacity:1"
           d="m 7.1564418,286.20067 c -0.8381716,0.4727 -1.4233339,-0.32342 -1.238322,-1.09486 0.5217291,0.18656 0.8222688,0.46881 1.2383352,1.09487 z"
           id="path293140-2-0-8"
           sodipodi:nodetypes="cccc" />
      </g>
      <g
         id="g293142-3-1-41"
         transform="matrix(0.30905356,-1.4208113,-1.4208113,-0.30905356,416.44301,385.02478)"
         style="stroke-width:0.687741">
        <path
           style="fill:#4e8d1b;fill-opacity:1;fill-rule:evenodd;stroke:none;stroke-width:0.181965px;stroke-linecap:butt;stroke-linejoin:miter;stroke-opacity:1"
           d="m 7.1564418,286.20067 c -0.8381716,0.4727 -1.4233339,-0.32342 -1.238322,-1.09486 0.8359218,-0.15244 1.4175813,0.2373 1.2383352,1.09487 z"
           id="path293138-8-7-99"
           sodipodi:nodetypes="cccc" />
        <path
           style="fill:#3a6b15;fill-opacity:1;fill-rule:evenodd;stroke:none;stroke-width:0.181965px;stroke-linecap:butt;stroke-linejoin:miter;stroke-opacity:1"
           d="m 7.1564418,286.20067 c -0.8381716,0.4727 -1.4233339,-0.32342 -1.238322,-1.09486 0.5217291,0.18656 0.8222688,0.46881 1.2383352,1.09487 z"
           id="path293140-2-0-3"
           sodipodi:nodetypes="cccc" />
      </g>
      <g
         id="g293142-3-1-0"
         transform="matrix(0.65730874,-1.2969826,1.2969826,0.65730874,-368.15512,107.63779)"
         style="stroke-width:0.687741">
        <path
           style="fill:#4e8d1b;fill-opacity:1;fill-rule:evenodd;stroke:none;stroke-width:0.181965px;stroke-linecap:butt;stroke-linejoin:miter;stroke-opacity:1"
           d="m 7.1564418,286.20067 c -0.8381716,0.4727 -1.4233339,-0.32342 -1.238322,-1.09486 0.8359218,-0.15244 1.4175813,0.2373 1.2383352,1.09487 z"
           id="path293138-8-7-8"
           sodipodi:nodetypes="cccc" />
        <path
           style="fill:#3a6b15;fill-opacity:1;fill-rule:evenodd;stroke:none;stroke-width:0.181965px;stroke-linecap:butt;stroke-linejoin:miter;stroke-opacity:1"
           d="m 7.1564418,286.20067 c -0.8381716,0.4727 -1.4233339,-0.32342 -1.238322,-1.09486 0.5217291,0.18656 0.8222688,0.46881 1.2383352,1.09487 z"
           id="path293140-2-0-56"
           sodipodi:nodetypes="cccc" />
      </g>
      <g
         id="g293142-3-1-02"
         transform="matrix(0.65730874,-1.2969826,1.2969826,0.65730874,-368.92465,106.3873)"
         style="stroke-width:0.687741">
        <path
           style="fill:#4e8d1b;fill-opacity:1;fill-rule:evenodd;stroke:none;stroke-width:0.181965px;stroke-linecap:butt;stroke-linejoin:miter;stroke-opacity:1"
           d="m 7.1564418,286.20067 c -0.8381716,0.4727 -1.4233339,-0.32342 -1.238322,-1.09486 0.8359218,-0.15244 1.4175813,0.2373 1.2383352,1.09487 z"
           id="path293138-8-7-1"
           sodipodi:nodetypes="cccc" />
        <path
           style="fill:#3a6b15;fill-opacity:1;fill-rule:evenodd;stroke:none;stroke-width:0.181965px;stroke-linecap:butt;stroke-linejoin:miter;stroke-opacity:1"
           d="m 7.1564418,286.20067 c -0.8381716,0.4727 -1.4233339,-0.32342 -1.238322,-1.09486 0.5217291,0.18656 0.8222688,0.46881 1.2383352,1.09487 z"
           id="path293140-2-0-67"
           sodipodi:nodetypes="cccc" />
      </g>
      <g
         id="g293142-3-1-87"
         transform="matrix(1.361578,-0.51021939,0.51021939,1.361578,-149.37823,-101.20415)"
         style="stroke-width:0.687741">
        <path
           style="fill:#4e8d1b;fill-opacity:1;fill-rule:evenodd;stroke:none;stroke-width:0.181965px;stroke-linecap:butt;stroke-linejoin:miter;stroke-opacity:1"
           d="m 7.1564418,286.20067 c -0.8381716,0.4727 -1.4233339,-0.32342 -1.238322,-1.09486 0.8359218,-0.15244 1.4175813,0.2373 1.2383352,1.09487 z"
           id="path293138-8-7-22"
           sodipodi:nodetypes="cccc" />
        <path
           style="fill:#3a6b15;fill-opacity:1;fill-rule:evenodd;stroke:none;stroke-width:0.181965px;stroke-linecap:butt;stroke-linejoin:miter;stroke-opacity:1"
           d="m 7.1564418,286.20067 c -0.8381716,0.4727 -1.4233339,-0.32342 -1.238322,-1.09486 0.5217291,0.18656 0.8222688,0.46881 1.2383352,1.09487 z"
           id="path293140-2-0-2"
           sodipodi:nodetypes="cccc" />
      </g>
      <g
         id="g293142-3-1-71"
         transform="matrix(1.3504916,-0.53887948,0.53887948,1.3504916,-157.15616,-99.509411)"
         style="stroke-width:0.687741">
        <path
           style="fill:#4e8d1b;fill-opacity:1;fill-rule:evenodd;stroke:none;stroke-width:0.181965px;stroke-linecap:butt;stroke-linejoin:miter;stroke-opacity:1"
           d="m 7.1564418,286.20067 c -0.8381716,0.4727 -1.4233339,-0.32342 -1.238322,-1.09486 0.8359218,-0.15244 1.4175813,0.2373 1.2383352,1.09487 z"
           id="path293138-8-7-6"
           sodipodi:nodetypes="cccc" />
        <path
           style="fill:#3a6b15;fill-opacity:1;fill-rule:evenodd;stroke:none;stroke-width:0.181965px;stroke-linecap:butt;stroke-linejoin:miter;stroke-opacity:1"
           d="m 7.1564418,286.20067 c -0.8381716,0.4727 -1.4233339,-0.32342 -1.238322,-1.09486 0.5217291,0.18656 0.8222688,0.46881 1.2383352,1.09487 z"
           id="path293140-2-0-9"
           sodipodi:nodetypes="cccc" />
      </g>
      <g
         id="g293142-3-1-45"
         transform="matrix(0.65730874,-1.2969826,1.2969826,0.65730874,-367.86655,102.4194)"
         style="stroke-width:0.687741">
        <path
           style="fill:#4e8d1b;fill-opacity:1;fill-rule:evenodd;stroke:none;stroke-width:0.181965px;stroke-linecap:butt;stroke-linejoin:miter;stroke-opacity:1"
           d="m 7.1564418,286.20067 c -0.8381716,0.4727 -1.4233339,-0.32342 -1.238322,-1.09486 0.8359218,-0.15244 1.4175813,0.2373 1.2383352,1.09487 z"
           id="path293138-8-7-31"
           sodipodi:nodetypes="cccc" />
        <path
           style="fill:#3a6b15;fill-opacity:1;fill-rule:evenodd;stroke:none;stroke-width:0.181965px;stroke-linecap:butt;stroke-linejoin:miter;stroke-opacity:1"
           d="m 7.1564418,286.20067 c -0.8381716,0.4727 -1.4233339,-0.32342 -1.238322,-1.09486 0.5217291,0.18656 0.8222688,0.46881 1.2383352,1.09487 z"
           id="path293140-2-0-22"
           sodipodi:nodetypes="cccc" />
      </g>
      <g
         id="g293142-3-1-875"
         transform="matrix(-0.65730874,-1.2969826,-1.2969826,0.65730874,384.03667,102.05868)"
         style="stroke-width:0.687741">
        <path
           style="fill:#4e8d1b;fill-opacity:1;fill-rule:evenodd;stroke:none;stroke-width:0.181965px;stroke-linecap:butt;stroke-linejoin:miter;stroke-opacity:1"
           d="m 7.1564418,286.20067 c -0.8381716,0.4727 -1.4233339,-0.32342 -1.238322,-1.09486 0.8359218,-0.15244 1.4175813,0.2373 1.2383352,1.09487 z"
           id="path293138-8-7-0"
           sodipodi:nodetypes="cccc" />
        <path
           style="fill:#3a6b15;fill-opacity:1;fill-rule:evenodd;stroke:none;stroke-width:0.181965px;stroke-linecap:butt;stroke-linejoin:miter;stroke-opacity:1"
           d="m 7.1564418,286.20067 c -0.8381716,0.4727 -1.4233339,-0.32342 -1.238322,-1.09486 0.5217291,0.18656 0.8222688,0.46881 1.2383352,1.09487 z"
           id="path293140-2-0-18"
           sodipodi:nodetypes="cccc" />
      </g>
      <g
         id="g293142-3-1-47"
         transform="matrix(-0.65730874,-1.2969826,-1.2969826,0.65730874,386.58575,102.17892)"
         style="stroke-width:0.687741">
        <path
           style="fill:#4e8d1b;fill-opacity:1;fill-rule:evenodd;stroke:none;stroke-width:0.181965px;stroke-linecap:butt;stroke-linejoin:miter;stroke-opacity:1"
           d="m 7.1564418,286.20067 c -0.8381716,0.4727 -1.4233339,-0.32342 -1.238322,-1.09486 0.8359218,-0.15244 1.4175813,0.2373 1.2383352,1.09487 z"
           id="path293138-8-7-26"
           sodipodi:nodetypes="cccc" />
        <path
           style="fill:#3a6b15;fill-opacity:1;fill-rule:evenodd;stroke:none;stroke-width:0.181965px;stroke-linecap:butt;stroke-linejoin:miter;stroke-opacity:1"
           d="m 7.1564418,286.20067 c -0.8381716,0.4727 -1.4233339,-0.32342 -1.238322,-1.09486 0.5217291,0.18656 0.8222688,0.46881 1.2383352,1.09487 z"
           id="path293140-2-0-77"
           sodipodi:nodetypes="cccc" />
      </g>
      <g
         id="g293142-3-1-27"
         transform="matrix(-1.2645833,-0.71766831,-0.71766831,1.2645833,226.60348,-73.609347)"
         style="stroke-width:0.687741">
        <path
           style="fill:#4e8d1b;fill-opacity:1;fill-rule:evenodd;stroke:none;stroke-width:0.181965px;stroke-linecap:butt;stroke-linejoin:miter;stroke-opacity:1"
           d="m 7.1564418,286.20067 c -0.8381716,0.4727 -1.4233339,-0.32342 -1.238322,-1.09486 0.8359218,-0.15244 1.4175813,0.2373 1.2383352,1.09487 z"
           id="path293138-8-7-34"
           sodipodi:nodetypes="cccc" />
        <path
           style="fill:#3a6b15;fill-opacity:1;fill-rule:evenodd;stroke:none;stroke-width:0.181965px;stroke-linecap:butt;stroke-linejoin:miter;stroke-opacity:1"
           d="m 7.1564418,286.20067 c -0.8381716,0.4727 -1.4233339,-0.32342 -1.238322,-1.09486 0.5217291,0.18656 0.8222688,0.46881 1.2383352,1.09487 z"
           id="path293140-2-0-12"
           sodipodi:nodetypes="cccc" />
      </g>
      <g
         id="g293142-3-1-13"
         transform="matrix(-1.2642859,-0.71819213,-0.71819213,1.2642859,227.56879,-72.294527)"
         style="stroke-width:0.687741">
        <path
           style="fill:#4e8d1b;fill-opacity:1;fill-rule:evenodd;stroke:none;stroke-width:0.181965px;stroke-linecap:butt;stroke-linejoin:miter;stroke-opacity:1"
           d="m 7.1564418,286.20067 c -0.8381716,0.4727 -1.4233339,-0.32342 -1.238322,-1.09486 0.8359218,-0.15244 1.4175813,0.2373 1.2383352,1.09487 z"
           id="path293138-8-7-7"
           sodipodi:nodetypes="cccc" />
        <path
           style="fill:#3a6b15;fill-opacity:1;fill-rule:evenodd;stroke:none;stroke-width:0.181965px;stroke-linecap:butt;stroke-linejoin:miter;stroke-opacity:1"
           d="m 7.1564418,286.20067 c -0.8381716,0.4727 -1.4233339,-0.32342 -1.238322,-1.09486 0.5217291,0.18656 0.8222688,0.46881 1.2383352,1.09487 z"
           id="path293140-2-0-52"
           sodipodi:nodetypes="cccc" />
      </g>
      <g
         id="g293142-3-1-5"
         transform="matrix(-0.65730874,-1.2969826,-1.2969826,0.65730874,388.9184,106.3873)"
         style="stroke-width:0.687741">
        <path
           style="fill:#4e8d1b;fill-opacity:1;fill-rule:evenodd;stroke:none;stroke-width:0.181965px;stroke-linecap:butt;stroke-linejoin:miter;stroke-opacity:1"
           d="m 7.1564418,286.20067 c -0.8381716,0.4727 -1.4233339,-0.32342 -1.238322,-1.09486 0.8359218,-0.15244 1.4175813,0.2373 1.2383352,1.09487 z"
           id="path293138-8-7-67"
           sodipodi:nodetypes="cccc" />
        <path
           style="fill:#3a6b15;fill-opacity:1;fill-rule:evenodd;stroke:none;stroke-width:0.181965px;stroke-linecap:butt;stroke-linejoin:miter;stroke-opacity:1"
           d="m 7.1564418,286.20067 c -0.8381716,0.4727 -1.4233339,-0.32342 -1.238322,-1.09486 0.5217291,0.18656 0.8222688,0.46881 1.2383352,1.09487 z"
           id="path293140-2-0-96"
           sodipodi:nodetypes="cccc" />
      </g>
      <g
         id="g282147-6-83-0"
         transform="matrix(-0.15534139,-1.4457135,-1.4457135,0.15534139,427.40442,252.81661)"
         style="stroke-width:0.687741">
        <path
           style="fill:#589f1e;fill-opacity:1;fill-rule:evenodd;stroke:none;stroke-width:0.181965px;stroke-linecap:butt;stroke-linejoin:miter;stroke-opacity:1"
           d="m 7.8675095,285.21675 c -0.8381716,0.4727 -1.4233339,-0.32342 -1.238322,-1.09486 0.8359218,-0.15244 1.4175813,0.2373 1.2383352,1.09487 z"
           id="path282143-7-0-6"
           sodipodi:nodetypes="cccc" />
        <path
           style="fill:#478119;fill-opacity:1;fill-rule:evenodd;stroke:none;stroke-width:0.181965px;stroke-linecap:butt;stroke-linejoin:miter;stroke-opacity:1"
           d="m 7.8675095,285.21675 c -0.8381716,0.4727 -1.4233339,-0.32342 -1.238322,-1.09486 0.5217291,0.18656 0.8222688,0.46881 1.2383352,1.09487 z"
           id="path282145-4-6-6"
           sodipodi:nodetypes="cccc" />
      </g>
      <g
         id="g293142-3-1-04"
         transform="matrix(-0.96783943,-1.0851292,-1.0851292,0.96783943,329.26774,17.039269)"
         style="stroke-width:0.687741">
        <path
           style="fill:#4e8d1b;fill-opacity:1;fill-rule:evenodd;stroke:none;stroke-width:0.181965px;stroke-linecap:butt;stroke-linejoin:miter;stroke-opacity:1"
           d="m 7.1564418,286.20067 c -0.8381716,0.4727 -1.4233339,-0.32342 -1.238322,-1.09486 0.8359218,-0.15244 1.4175813,0.2373 1.2383352,1.09487 z"
           id="path293138-8-7-15"
           sodipodi:nodetypes="cccc" />
        <path
           style="fill:#3a6b15;fill-opacity:1;fill-rule:evenodd;stroke:none;stroke-width:0.181965px;stroke-linecap:butt;stroke-linejoin:miter;stroke-opacity:1"
           d="m 7.1564418,286.20067 c -0.8381716,0.4727 -1.4233339,-0.32342 -1.238322,-1.09486 0.5217291,0.18656 0.8222688,0.46881 1.2383352,1.09487 z"
           id="path293140-2-0-46"
           sodipodi:nodetypes="cccc" />
      </g>
      <g
         id="g293142-3-1-48"
         transform="matrix(-0.16253369,-1.4449227,1.4449227,-0.16253369,-404.10109,343.54401)"
         style="stroke-width:0.687741">
        <path
           style="fill:#4e8d1b;fill-opacity:1;fill-rule:evenodd;stroke:none;stroke-width:0.181965px;stroke-linecap:butt;stroke-linejoin:miter;stroke-opacity:1"
           d="m 7.1564418,286.20067 c -0.8381716,0.4727 -1.4233339,-0.32342 -1.238322,-1.09486 0.8359218,-0.15244 1.4175813,0.2373 1.2383352,1.09487 z"
           id="path293138-8-7-994"
           sodipodi:nodetypes="cccc" />
        <path
           style="fill:#3a6b15;fill-opacity:1;fill-rule:evenodd;stroke:none;stroke-width:0.181965px;stroke-linecap:butt;stroke-linejoin:miter;stroke-opacity:1"
           d="m 7.1564418,286.20067 c -0.8381716,0.4727 -1.4233339,-0.32342 -1.238322,-1.09486 0.5217291,0.18656 0.8222688,0.46881 1.2383352,1.09487 z"
           id="path293140-2-0-26"
           sodipodi:nodetypes="cccc" />
      </g>
      <g
         id="g293142-3-1-870"
         transform="matrix(0.65730874,-1.2969826,1.2969826,0.65730874,-367.57797,106.09873)"
         style="stroke-width:0.687741">
        <path
           style="fill:#4e8d1b;fill-opacity:1;fill-rule:evenodd;stroke:none;stroke-width:0.181965px;stroke-linecap:butt;stroke-linejoin:miter;stroke-opacity:1"
           d="m 7.1564418,286.20067 c -0.8381716,0.4727 -1.4233339,-0.32342 -1.238322,-1.09486 0.8359218,-0.15244 1.4175813,0.2373 1.2383352,1.09487 z"
           id="path293138-8-7-33"
           sodipodi:nodetypes="cccc" />
        <path
           style="fill:#3a6b15;fill-opacity:1;fill-rule:evenodd;stroke:none;stroke-width:0.181965px;stroke-linecap:butt;stroke-linejoin:miter;stroke-opacity:1"
           d="m 7.1564418,286.20067 c -0.8381716,0.4727 -1.4233339,-0.32342 -1.238322,-1.09486 0.5217291,0.18656 0.8222688,0.46881 1.2383352,1.09487 z"
           id="path293140-2-0-86"
           sodipodi:nodetypes="cccc" />
      </g>
      <g
         id="g293142-3-1-59"
         transform="matrix(1.3047848,-0.64168154,0.64168154,1.3047848,-184.80521,-84.555291)"
         style="stroke-width:0.687741">
        <path
           style="fill:#4e8d1b;fill-opacity:1;fill-rule:evenodd;stroke:none;stroke-width:0.181965px;stroke-linecap:butt;stroke-linejoin:miter;stroke-opacity:1"
           d="m 7.1564418,286.20067 c -0.8381716,0.4727 -1.4233339,-0.32342 -1.238322,-1.09486 0.8359218,-0.15244 1.4175813,0.2373 1.2383352,1.09487 z"
           id="path293138-8-7-85"
           sodipodi:nodetypes="cccc" />
        <path
           style="fill:#3a6b15;fill-opacity:1;fill-rule:evenodd;stroke:none;stroke-width:0.181965px;stroke-linecap:butt;stroke-linejoin:miter;stroke-opacity:1"
           d="m 7.1564418,286.20067 c -0.8381716,0.4727 -1.4233339,-0.32342 -1.238322,-1.09486 0.5217291,0.18656 0.8222688,0.46881 1.2383352,1.09487 z"
           id="path293140-2-0-0"
           sodipodi:nodetypes="cccc" />
      </g>
      <g
         id="g293142-3-1-75"
         transform="matrix(1.4539122,-0.0189278,0.0189278,1.4539122,-6.9701481,-132.37475)"
         style="stroke-width:0.687741">
        <path
           style="fill:#4e8d1b;fill-opacity:1;fill-rule:evenodd;stroke:none;stroke-width:0.181965px;stroke-linecap:butt;stroke-linejoin:miter;stroke-opacity:1"
           d="m 7.1564418,286.20067 c -0.8381716,0.4727 -1.4233339,-0.32342 -1.238322,-1.09486 0.8359218,-0.15244 1.4175813,0.2373 1.2383352,1.09487 z"
           id="path293138-8-7-07"
           sodipodi:nodetypes="cccc" />
        <path
           style="fill:#3a6b15;fill-opacity:1;fill-rule:evenodd;stroke:none;stroke-width:0.181965px;stroke-linecap:butt;stroke-linejoin:miter;stroke-opacity:1"
           d="m 7.1564418,286.20067 c -0.8381716,0.4727 -1.4233339,-0.32342 -1.238322,-1.09486 0.5217291,0.18656 0.8222688,0.46881 1.2383352,1.09487 z"
           id="path293140-2-0-42"
           sodipodi:nodetypes="cccc" />
      </g>
      <g
         id="g293142-3-1-07"
         transform="matrix(0.65730874,-1.2969826,1.2969826,0.65730874,-364.28341,103.21298)"
         style="stroke-width:0.687741">
        <path
           style="fill:#4e8d1b;fill-opacity:1;fill-rule:evenodd;stroke:none;stroke-width:0.181965px;stroke-linecap:butt;stroke-linejoin:miter;stroke-opacity:1"
           d="m 7.1564418,286.20067 c -0.8381716,0.4727 -1.4233339,-0.32342 -1.238322,-1.09486 0.8359218,-0.15244 1.4175813,0.2373 1.2383352,1.09487 z"
           id="path293138-8-7-74"
           sodipodi:nodetypes="cccc" />
        <path
           style="fill:#3a6b15;fill-opacity:1;fill-rule:evenodd;stroke:none;stroke-width:0.181965px;stroke-linecap:butt;stroke-linejoin:miter;stroke-opacity:1"
           d="m 7.1564418,286.20067 c -0.8381716,0.4727 -1.4233339,-0.32342 -1.238322,-1.09486 0.5217291,0.18656 0.8222688,0.46881 1.2383352,1.09487 z"
           id="path293140-2-0-865"
           sodipodi:nodetypes="cccc" />
      </g>
      <g
         id="g293142-3-1-283"
         transform="matrix(-0.65730874,-1.2969826,-1.2969826,0.65730874,386.68194,103.71799)"
         style="stroke-width:0.687741">
        <path
           style="fill:#4e8d1b;fill-opacity:1;fill-rule:evenodd;stroke:none;stroke-width:0.181965px;stroke-linecap:butt;stroke-linejoin:miter;stroke-opacity:1"
           d="m 7.1564418,286.20067 c -0.8381716,0.4727 -1.4233339,-0.32342 -1.238322,-1.09486 0.8359218,-0.15244 1.4175813,0.2373 1.2383352,1.09487 z"
           id="path293138-8-7-18"
           sodipodi:nodetypes="cccc" />
        <path
           style="fill:#3a6b15;fill-opacity:1;fill-rule:evenodd;stroke:none;stroke-width:0.181965px;stroke-linecap:butt;stroke-linejoin:miter;stroke-opacity:1"
           d="m 7.1564418,286.20067 c -0.8381716,0.4727 -1.4233339,-0.32342 -1.238322,-1.09486 0.5217291,0.18656 0.8222688,0.46881 1.2383352,1.09487 z"
           id="path293140-2-0-90"
           sodipodi:nodetypes="cccc" />
      </g>
      <g
         id="g293142-3-1-74"
         transform="matrix(-0.65730874,-1.2969826,-1.2969826,0.65730874,387.40338,105.59372)"
         style="stroke-width:0.687741">
        <path
           style="fill:#4e8d1b;fill-opacity:1;fill-rule:evenodd;stroke:none;stroke-width:0.181965px;stroke-linecap:butt;stroke-linejoin:miter;stroke-opacity:1"
           d="m 7.1564418,286.20067 c -0.8381716,0.4727 -1.4233339,-0.32342 -1.238322,-1.09486 0.8359218,-0.15244 1.4175813,0.2373 1.2383352,1.09487 z"
           id="path293138-8-7-81"
           sodipodi:nodetypes="cccc" />
        <path
           style="fill:#3a6b15;fill-opacity:1;fill-rule:evenodd;stroke:none;stroke-width:0.181965px;stroke-linecap:butt;stroke-linejoin:miter;stroke-opacity:1"
           d="m 7.1564418,286.20067 c -0.8381716,0.4727 -1.4233339,-0.32342 -1.238322,-1.09486 0.5217291,0.18656 0.8222688,0.46881 1.2383352,1.09487 z"
           id="path293140-2-0-69"
           sodipodi:nodetypes="cccc" />
      </g>
      <g
         id="g293142-3-1-023"
         transform="matrix(-0.65730874,-1.2969826,-1.2969826,0.65730874,386.34527,106.67588)"
         style="stroke-width:0.687741">
        <path
           style="fill:#4e8d1b;fill-opacity:1;fill-rule:evenodd;stroke:none;stroke-width:0.181965px;stroke-linecap:butt;stroke-linejoin:miter;stroke-opacity:1"
           d="m 7.1564418,286.20067 c -0.8381716,0.4727 -1.4233339,-0.32342 -1.238322,-1.09486 0.8359218,-0.15244 1.4175813,0.2373 1.2383352,1.09487 z"
           id="path293138-8-7-816"
           sodipodi:nodetypes="cccc" />
        <path
           style="fill:#3a6b15;fill-opacity:1;fill-rule:evenodd;stroke:none;stroke-width:0.181965px;stroke-linecap:butt;stroke-linejoin:miter;stroke-opacity:1"
           d="m 7.1564418,286.20067 c -0.8381716,0.4727 -1.4233339,-0.32342 -1.238322,-1.09486 0.5217291,0.18656 0.8222688,0.46881 1.2383352,1.09487 z"
           id="path293140-2-0-61"
           sodipodi:nodetypes="cccc" />
      </g>
      <g
         id="g293142-3-1-43"
         transform="matrix(0.65730874,-1.2969826,1.2969826,0.65730874,-365.91866,106.57969)"
         style="stroke-width:0.687741">
        <path
           style="fill:#4e8d1b;fill-opacity:1;fill-rule:evenodd;stroke:none;stroke-width:0.181965px;stroke-linecap:butt;stroke-linejoin:miter;stroke-opacity:1"
           d="m 7.1564418,286.20067 c -0.8381716,0.4727 -1.4233339,-0.32342 -1.238322,-1.09486 0.8359218,-0.15244 1.4175813,0.2373 1.2383352,1.09487 z"
           id="path293138-8-7-80"
           sodipodi:nodetypes="cccc" />
        <path
           style="fill:#3a6b15;fill-opacity:1;fill-rule:evenodd;stroke:none;stroke-width:0.181965px;stroke-linecap:butt;stroke-linejoin:miter;stroke-opacity:1"
           d="m 7.1564418,286.20067 c -0.8381716,0.4727 -1.4233339,-0.32342 -1.238322,-1.09486 0.5217291,0.18656 0.8222688,0.46881 1.2383352,1.09487 z"
           id="path293140-2-0-675"
           sodipodi:nodetypes="cccc" />
      </g>
      <g
         id="g293142-3-1-9"
         transform="matrix(0.65730874,-1.2969826,1.2969826,0.65730874,-366.23129,104.82419)"
         style="stroke-width:0.687741">
        <path
           style="fill:#4e8d1b;fill-opacity:1;fill-rule:evenodd;stroke:none;stroke-width:0.181965px;stroke-linecap:butt;stroke-linejoin:miter;stroke-opacity:1"
           d="m 7.1564418,286.20067 c -0.8381716,0.4727 -1.4233339,-0.32342 -1.238322,-1.09486 0.8359218,-0.15244 1.4175813,0.2373 1.2383352,1.09487 z"
           id="path293138-8-7-75"
           sodipodi:nodetypes="cccc" />
        <path
           style="fill:#3a6b15;fill-opacity:1;fill-rule:evenodd;stroke:none;stroke-width:0.181965px;stroke-linecap:butt;stroke-linejoin:miter;stroke-opacity:1"
           d="m 7.1564418,286.20067 c -0.8381716,0.4727 -1.4233339,-0.32342 -1.238322,-1.09486 0.5217291,0.18656 0.8222688,0.46881 1.2383352,1.09487 z"
           id="path293140-2-0-49"
           sodipodi:nodetypes="cccc" />
      </g>
      <g
         id="g293142-3-1-26"
         transform="matrix(-1.2198758,-0.79127855,-0.79127855,1.2198758,245.99229,-59.059116)"
         style="stroke-width:0.687741">
        <path
           style="fill:#4e8d1b;fill-opacity:1;fill-rule:evenodd;stroke:none;stroke-width:0.181965px;stroke-linecap:butt;stroke-linejoin:miter;stroke-opacity:1"
           d="m 7.1564418,286.20067 c -0.8381716,0.4727 -1.4233339,-0.32342 -1.238322,-1.09486 0.8359218,-0.15244 1.4175813,0.2373 1.2383352,1.09487 z"
           id="path293138-8-7-800"
           sodipodi:nodetypes="cccc" />
        <path
           style="fill:#3a6b15;fill-opacity:1;fill-rule:evenodd;stroke:none;stroke-width:0.181965px;stroke-linecap:butt;stroke-linejoin:miter;stroke-opacity:1"
           d="m 7.1564418,286.20067 c -0.8381716,0.4727 -1.4233339,-0.32342 -1.238322,-1.09486 0.5217291,0.18656 0.8222688,0.46881 1.2383352,1.09487 z"
           id="path293140-2-0-84"
           sodipodi:nodetypes="cccc" />
      </g>
      <g
         id="g293142-3-1-85"
         transform="matrix(0.65730874,-1.2969826,1.2969826,0.65730874,-364.66818,106.00253)"
         style="stroke-width:0.687741">
        <path
           style="fill:#4e8d1b;fill-opacity:1;fill-rule:evenodd;stroke:none;stroke-width:0.181965px;stroke-linecap:butt;stroke-linejoin:miter;stroke-opacity:1"
           d="m 7.1564418,286.20067 c -0.8381716,0.4727 -1.4233339,-0.32342 -1.238322,-1.09486 0.8359218,-0.15244 1.4175813,0.2373 1.2383352,1.09487 z"
           id="path293138-8-7-09"
           sodipodi:nodetypes="cccc" />
        <path
           style="fill:#3a6b15;fill-opacity:1;fill-rule:evenodd;stroke:none;stroke-width:0.181965px;stroke-linecap:butt;stroke-linejoin:miter;stroke-opacity:1"
           d="m 7.1564418,286.20067 c -0.8381716,0.4727 -1.4233339,-0.32342 -1.238322,-1.09486 0.5217291,0.18656 0.8222688,0.46881 1.2383352,1.09487 z"
           id="path293140-2-0-15"
           sodipodi:nodetypes="cccc" />
      </g>
      <g
         id="g282147-6-83-02"
         transform="matrix(-1.3105124,-0.6299016,-0.6299016,1.3105124,203.66727,-85.173524)"
         style="stroke-width:0.687741">
        <path
           style="fill:#589f1e;fill-opacity:1;fill-rule:evenodd;stroke:none;stroke-width:0.181965px;stroke-linecap:butt;stroke-linejoin:miter;stroke-opacity:1"
           d="m 7.8675095,285.21675 c -0.8381716,0.4727 -1.4233339,-0.32342 -1.238322,-1.09486 0.8359218,-0.15244 1.4175813,0.2373 1.2383352,1.09487 z"
           id="path282143-7-0-9"
           sodipodi:nodetypes="cccc" />
        <path
           style="fill:#478119;fill-opacity:1;fill-rule:evenodd;stroke:none;stroke-width:0.181965px;stroke-linecap:butt;stroke-linejoin:miter;stroke-opacity:1"
           d="m 7.8675095,285.21675 c -0.8381716,0.4727 -1.4233339,-0.32342 -1.238322,-1.09486 0.5217291,0.18656 0.8222688,0.46881 1.2383352,1.09487 z"
           id="path282145-4-6-3"
           sodipodi:nodetypes="cccc" />
      </g>
      <g
         id="g282147-6-83-1"
         transform="matrix(-1.3105124,-0.6299016,-0.6299016,1.3105124,202.89773,-86.977118)"
         style="stroke-width:0.687741">
        <path
           style="fill:#589f1e;fill-opacity:1;fill-rule:evenodd;stroke:none;stroke-width:0.181965px;stroke-linecap:butt;stroke-linejoin:miter;stroke-opacity:1"
           d="m 7.8675095,285.21675 c -0.8381716,0.4727 -1.4233339,-0.32342 -1.238322,-1.09486 0.8359218,-0.15244 1.4175813,0.2373 1.2383352,1.09487 z"
           id="path282143-7-0-65"
           sodipodi:nodetypes="cccc" />
        <path
           style="fill:#478119;fill-opacity:1;fill-rule:evenodd;stroke:none;stroke-width:0.181965px;stroke-linecap:butt;stroke-linejoin:miter;stroke-opacity:1"
           d="m 7.8675095,285.21675 c -0.8381716,0.4727 -1.4233339,-0.32342 -1.238322,-1.09486 0.5217291,0.18656 0.8222688,0.46881 1.2383352,1.09487 z"
           id="path282145-4-6-2"
           sodipodi:nodetypes="cccc" />
      </g>
      <g
         id="g282147-6-83-6"
         transform="matrix(-1.3105124,-0.6299016,-0.6299016,1.3105124,199.53103,-87.337835)"
         style="stroke-width:0.687741">
        <path
           style="fill:#589f1e;fill-opacity:1;fill-rule:evenodd;stroke:none;stroke-width:0.181965px;stroke-linecap:butt;stroke-linejoin:miter;stroke-opacity:1"
           d="m 7.8675095,285.21675 c -0.8381716,0.4727 -1.4233339,-0.32342 -1.238322,-1.09486 0.8359218,-0.15244 1.4175813,0.2373 1.2383352,1.09487 z"
           id="path282143-7-0-0"
           sodipodi:nodetypes="cccc" />
        <path
           style="fill:#478119;fill-opacity:1;fill-rule:evenodd;stroke:none;stroke-width:0.181965px;stroke-linecap:butt;stroke-linejoin:miter;stroke-opacity:1"
           d="m 7.8675095,285.21675 c -0.8381716,0.4727 -1.4233339,-0.32342 -1.238322,-1.09486 0.5217291,0.18656 0.8222688,0.46881 1.2383352,1.09487 z"
           id="path282145-4-6-4"
           sodipodi:nodetypes="cccc" />
      </g>
      <g
         id="g282147-6-83-9"
         transform="matrix(-1.3105124,-0.6299016,-0.6299016,1.3105124,196.9579,-87.289739)"
         style="stroke-width:0.687741">
        <path
           style="fill:#589f1e;fill-opacity:1;fill-rule:evenodd;stroke:none;stroke-width:0.181965px;stroke-linecap:butt;stroke-linejoin:miter;stroke-opacity:1"
           d="m 7.8675095,285.21675 c -0.8381716,0.4727 -1.4233339,-0.32342 -1.238322,-1.09486 0.8359218,-0.15244 1.4175813,0.2373 1.2383352,1.09487 z"
           id="path282143-7-0-4"
           sodipodi:nodetypes="cccc" />
        <path
           style="fill:#478119;fill-opacity:1;fill-rule:evenodd;stroke:none;stroke-width:0.181965px;stroke-linecap:butt;stroke-linejoin:miter;stroke-opacity:1"
           d="m 7.8675095,285.21675 c -0.8381716,0.4727 -1.4233339,-0.32342 -1.238322,-1.09486 0.5217291,0.18656 0.8222688,0.46881 1.2383352,1.09487 z"
           id="path282145-4-6-9"
           sodipodi:nodetypes="cccc" />
      </g>
      <g
         id="g282147-6-83-16"
         transform="matrix(1.4520765,0.0754478,-0.0754478,1.4520765,17.307265,-132.98041)"
         style="stroke-width:0.687741">
        <path
           style="fill:#589f1e;fill-opacity:1;fill-rule:evenodd;stroke:none;stroke-width:0.181965px;stroke-linecap:butt;stroke-linejoin:miter;stroke-opacity:1"
           d="m 7.8675095,285.21675 c -0.8381716,0.4727 -1.4233339,-0.32342 -1.238322,-1.09486 0.8359218,-0.15244 1.4175813,0.2373 1.2383352,1.09487 z"
           id="path282143-7-0-61"
           sodipodi:nodetypes="cccc" />
        <path
           style="fill:#478119;fill-opacity:1;fill-rule:evenodd;stroke:none;stroke-width:0.181965px;stroke-linecap:butt;stroke-linejoin:miter;stroke-opacity:1"
           d="m 7.8675095,285.21675 c -0.8381716,0.4727 -1.4233339,-0.32342 -1.238322,-1.09486 0.5217291,0.18656 0.8222688,0.46881 1.2383352,1.09487 z"
           id="path282145-4-6-1"
           sodipodi:nodetypes="cccc" />
      </g>
      <g
         id="g282147-6-83-2"
         transform="matrix(1.4424201,-0.18341989,0.18341989,1.4424201,-57.36117,-125.73947)"
         style="stroke-width:0.687741">
        <path
           style="fill:#589f1e;fill-opacity:1;fill-rule:evenodd;stroke:none;stroke-width:0.181965px;stroke-linecap:butt;stroke-linejoin:miter;stroke-opacity:1"
           d="m 7.8675095,285.21675 c -0.8381716,0.4727 -1.4233339,-0.32342 -1.238322,-1.09486 0.8359218,-0.15244 1.4175813,0.2373 1.2383352,1.09487 z"
           id="path282143-7-0-02"
           sodipodi:nodetypes="cccc" />
        <path
           style="fill:#478119;fill-opacity:1;fill-rule:evenodd;stroke:none;stroke-width:0.181965px;stroke-linecap:butt;stroke-linejoin:miter;stroke-opacity:1"
           d="m 7.8675095,285.21675 c -0.8381716,0.4727 -1.4233339,-0.32342 -1.238322,-1.09486 0.5217291,0.18656 0.8222688,0.46881 1.2383352,1.09487 z"
           id="path282145-4-6-90"
           sodipodi:nodetypes="cccc" />
      </g>
      <g
         id="g282147-6-83-5"
         transform="matrix(0.76032975,-1.2394021,1.2394021,0.76032975,-351.45419,75.371836)"
         style="stroke-width:0.687741">
        <path
           style="fill:#589f1e;fill-opacity:1;fill-rule:evenodd;stroke:none;stroke-width:0.181965px;stroke-linecap:butt;stroke-linejoin:miter;stroke-opacity:1"
           d="m 7.8675095,285.21675 c -0.8381716,0.4727 -1.4233339,-0.32342 -1.238322,-1.09486 0.8359218,-0.15244 1.4175813,0.2373 1.2383352,1.09487 z"
           id="path282143-7-0-7"
           sodipodi:nodetypes="cccc" />
        <path
           style="fill:#478119;fill-opacity:1;fill-rule:evenodd;stroke:none;stroke-width:0.181965px;stroke-linecap:butt;stroke-linejoin:miter;stroke-opacity:1"
           d="m 7.8675095,285.21675 c -0.8381716,0.4727 -1.4233339,-0.32342 -1.238322,-1.09486 0.5217291,0.18656 0.8222688,0.46881 1.2383352,1.09487 z"
           id="path282145-4-6-8"
           sodipodi:nodetypes="cccc" />
      </g>
      <g
         id="g282147-6-83-8"
         transform="matrix(1.3105124,-0.6299016,0.6299016,1.3105124,-182.44708,-83.73065)"
         style="stroke-width:0.687741">
        <path
           style="fill:#589f1e;fill-opacity:1;fill-rule:evenodd;stroke:none;stroke-width:0.181965px;stroke-linecap:butt;stroke-linejoin:miter;stroke-opacity:1"
           d="m 7.8675095,285.21675 c -0.8381716,0.4727 -1.4233339,-0.32342 -1.238322,-1.09486 0.8359218,-0.15244 1.4175813,0.2373 1.2383352,1.09487 z"
           id="path282143-7-0-5"
           sodipodi:nodetypes="cccc" />
        <path
           style="fill:#478119;fill-opacity:1;fill-rule:evenodd;stroke:none;stroke-width:0.181965px;stroke-linecap:butt;stroke-linejoin:miter;stroke-opacity:1"
           d="m 7.8675095,285.21675 c -0.8381716,0.4727 -1.4233339,-0.32342 -1.238322,-1.09486 0.5217291,0.18656 0.8222688,0.46881 1.2383352,1.09487 z"
           id="path282145-4-6-44"
           sodipodi:nodetypes="cccc" />
      </g>
      <g
         id="g282147-6-83-027"
         transform="matrix(-0.07492972,-1.4521034,1.4521034,-0.07492972,-406.84477,318.37688)"
         style="stroke-width:0.687741">
        <path
           style="fill:#589f1e;fill-opacity:1;fill-rule:evenodd;stroke:none;stroke-width:0.181965px;stroke-linecap:butt;stroke-linejoin:miter;stroke-opacity:1"
           d="m 7.8675095,285.21675 c -0.8381716,0.4727 -1.4233339,-0.32342 -1.238322,-1.09486 0.8359218,-0.15244 1.4175813,0.2373 1.2383352,1.09487 z"
           id="path282143-7-0-1"
           sodipodi:nodetypes="cccc" />
        <path
           style="fill:#478119;fill-opacity:1;fill-rule:evenodd;stroke:none;stroke-width:0.181965px;stroke-linecap:butt;stroke-linejoin:miter;stroke-opacity:1"
           d="m 7.8675095,285.21675 c -0.8381716,0.4727 -1.4233339,-0.32342 -1.238322,-1.09486 0.5217291,0.18656 0.8222688,0.46881 1.2383352,1.09487 z"
           id="path282145-4-6-25"
           sodipodi:nodetypes="cccc" />
      </g>
      <g
         id="g282147-6-83-7"
         transform="matrix(1.3105124,-0.6299016,0.6299016,1.3105124,-181.38897,-82.383969)"
         style="stroke-width:0.687741">
        <path
           style="fill:#589f1e;fill-opacity:1;fill-rule:evenodd;stroke:none;stroke-width:0.181965px;stroke-linecap:butt;stroke-linejoin:miter;stroke-opacity:1"
           d="m 7.8675095,285.21675 c -0.8381716,0.4727 -1.4233339,-0.32342 -1.238322,-1.09486 0.8359218,-0.15244 1.4175813,0.2373 1.2383352,1.09487 z"
           id="path282143-7-0-52"
           sodipodi:nodetypes="cccc" />
        <path
           style="fill:#478119;fill-opacity:1;fill-rule:evenodd;stroke:none;stroke-width:0.181965px;stroke-linecap:butt;stroke-linejoin:miter;stroke-opacity:1"
           d="m 7.8675095,285.21675 c -0.8381716,0.4727 -1.4233339,-0.32342 -1.238322,-1.09486 0.5217291,0.18656 0.8222688,0.46881 1.2383352,1.09487 z"
           id="path282145-4-6-7"
           sodipodi:nodetypes="cccc" />
      </g>
      <g
         id="g282147-6-83-81"
         transform="matrix(1.4252822,-0.28773127,0.28773127,1.4252822,-83.401579,-121.30872)"
         style="stroke-width:0.687741">
        <path
           style="fill:#589f1e;fill-opacity:1;fill-rule:evenodd;stroke:none;stroke-width:0.181965px;stroke-linecap:butt;stroke-linejoin:miter;stroke-opacity:1"
           d="m 7.8675095,285.21675 c -0.8381716,0.4727 -1.4233339,-0.32342 -1.238322,-1.09486 0.8359218,-0.15244 1.4175813,0.2373 1.2383352,1.09487 z"
           id="path282143-7-0-08"
           sodipodi:nodetypes="cccc" />
        <path
           style="fill:#478119;fill-opacity:1;fill-rule:evenodd;stroke:none;stroke-width:0.181965px;stroke-linecap:butt;stroke-linejoin:miter;stroke-opacity:1"
           d="m 7.8675095,285.21675 c -0.8381716,0.4727 -1.4233339,-0.32342 -1.238322,-1.09486 0.5217291,0.18656 0.8222688,0.46881 1.2383352,1.09487 z"
           id="path282145-4-6-42"
           sodipodi:nodetypes="cccc" />
      </g>
      <g
         id="g282147-6-83-3"
         transform="matrix(-1.3105124,-0.6299016,-0.6299016,1.3105124,201.71939,-86.327825)"
         style="stroke-width:0.687741">
        <path
           style="fill:#589f1e;fill-opacity:1;fill-rule:evenodd;stroke:none;stroke-width:0.181965px;stroke-linecap:butt;stroke-linejoin:miter;stroke-opacity:1"
           d="m 7.8675095,285.21675 c -0.8381716,0.4727 -1.4233339,-0.32342 -1.238322,-1.09486 0.8359218,-0.15244 1.4175813,0.2373 1.2383352,1.09487 z"
           id="path282143-7-0-19"
           sodipodi:nodetypes="cccc" />
        <path
           style="fill:#478119;fill-opacity:1;fill-rule:evenodd;stroke:none;stroke-width:0.181965px;stroke-linecap:butt;stroke-linejoin:miter;stroke-opacity:1"
           d="m 7.8675095,285.21675 c -0.8381716,0.4727 -1.4233339,-0.32342 -1.238322,-1.09486 0.5217291,0.18656 0.8222688,0.46881 1.2383352,1.09487 z"
           id="path282145-4-6-52"
           sodipodi:nodetypes="cccc" />
      </g>
      <g
         id="g282147-6-83-14"
         transform="matrix(-1.3105124,-0.6299016,-0.6299016,1.3105124,199.84365,-85.798771)"
         style="stroke-width:0.687741">
        <path
           style="fill:#589f1e;fill-opacity:1;fill-rule:evenodd;stroke:none;stroke-width:0.181965px;stroke-linecap:butt;stroke-linejoin:miter;stroke-opacity:1"
           d="m 7.8675095,285.21675 c -0.8381716,0.4727 -1.4233339,-0.32342 -1.238322,-1.09486 0.8359218,-0.15244 1.4175813,0.2373 1.2383352,1.09487 z"
           id="path282143-7-0-12"
           sodipodi:nodetypes="cccc" />
        <path
           style="fill:#478119;fill-opacity:1;fill-rule:evenodd;stroke:none;stroke-width:0.181965px;stroke-linecap:butt;stroke-linejoin:miter;stroke-opacity:1"
           d="m 7.8675095,285.21675 c -0.8381716,0.4727 -1.4233339,-0.32342 -1.238322,-1.09486 0.5217291,0.18656 0.8222688,0.46881 1.2383352,1.09487 z"
           id="path282145-4-6-91"
           sodipodi:nodetypes="cccc" />
      </g>
      <g
         id="g293142-3-1-52"
         transform="matrix(-0.65730874,-1.2969826,-1.2969826,0.65730874,384.68596,104.36728)"
         style="stroke-width:0.687741">
        <path
           style="fill:#4e8d1b;fill-opacity:1;fill-rule:evenodd;stroke:none;stroke-width:0.181965px;stroke-linecap:butt;stroke-linejoin:miter;stroke-opacity:1"
           d="m 7.1564418,286.20067 c -0.8381716,0.4727 -1.4233339,-0.32342 -1.238322,-1.09486 0.8359218,-0.15244 1.4175813,0.2373 1.2383352,1.09487 z"
           id="path293138-8-7-16"
           sodipodi:nodetypes="cccc" />
        <path
           style="fill:#3a6b15;fill-opacity:1;fill-rule:evenodd;stroke:none;stroke-width:0.181965px;stroke-linecap:butt;stroke-linejoin:miter;stroke-opacity:1"
           d="m 7.1564418,286.20067 c -0.8381716,0.4727 -1.4233339,-0.32342 -1.238322,-1.09486 0.5217291,0.18656 0.8222688,0.46881 1.2383352,1.09487 z"
           id="path293140-2-0-13"
           sodipodi:nodetypes="cccc" />
      </g>
      <g
         id="g282147-6-83-94"
         transform="matrix(1.3105124,-0.6299016,0.6299016,1.3105124,-179.898,-83.778746)"
         style="stroke-width:0.687741">
        <path
           style="fill:#589f1e;fill-opacity:1;fill-rule:evenodd;stroke:none;stroke-width:0.181965px;stroke-linecap:butt;stroke-linejoin:miter;stroke-opacity:1"
           d="m 7.8675095,285.21675 c -0.8381716,0.4727 -1.4233339,-0.32342 -1.238322,-1.09486 0.8359218,-0.15244 1.4175813,0.2373 1.2383352,1.09487 z"
           id="path282143-7-0-8"
           sodipodi:nodetypes="cccc" />
        <path
           style="fill:#478119;fill-opacity:1;fill-rule:evenodd;stroke:none;stroke-width:0.181965px;stroke-linecap:butt;stroke-linejoin:miter;stroke-opacity:1"
           d="m 7.8675095,285.21675 c -0.8381716,0.4727 -1.4233339,-0.32342 -1.238322,-1.09486 0.5217291,0.18656 0.8222688,0.46881 1.2383352,1.09487 z"
           id="path282145-4-6-5"
           sodipodi:nodetypes="cccc" />
      </g>
      <g
         id="g282147-6-83-53"
         transform="matrix(-1.3105124,-0.6299016,-0.6299016,1.3105124,202.08011,-84.54828)"
         style="stroke-width:0.687741">
        <path
           style="fill:#589f1e;fill-opacity:1;fill-rule:evenodd;stroke:none;stroke-width:0.181965px;stroke-linecap:butt;stroke-linejoin:miter;stroke-opacity:1"
           d="m 7.8675095,285.21675 c -0.8381716,0.4727 -1.4233339,-0.32342 -1.238322,-1.09486 0.8359218,-0.15244 1.4175813,0.2373 1.2383352,1.09487 z"
           id="path282143-7-0-14"
           sodipodi:nodetypes="cccc" />
        <path
           style="fill:#478119;fill-opacity:1;fill-rule:evenodd;stroke:none;stroke-width:0.181965px;stroke-linecap:butt;stroke-linejoin:miter;stroke-opacity:1"
           d="m 7.8675095,285.21675 c -0.8381716,0.4727 -1.4233339,-0.32342 -1.238322,-1.09486 0.5217291,0.18656 0.8222688,0.46881 1.2383352,1.09487 z"
           id="path282145-4-6-38"
           sodipodi:nodetypes="cccc" />
      </g>
      <g
         id="g282147-6-83-89"
         transform="matrix(-1.3105124,-0.6299016,-0.6299016,1.3105124,200.97391,-83.201597)"
         style="stroke-width:0.687741">
        <path
           style="fill:#589f1e;fill-opacity:1;fill-rule:evenodd;stroke:none;stroke-width:0.181965px;stroke-linecap:butt;stroke-linejoin:miter;stroke-opacity:1"
           d="m 7.8675095,285.21675 c -0.8381716,0.4727 -1.4233339,-0.32342 -1.238322,-1.09486 0.8359218,-0.15244 1.4175813,0.2373 1.2383352,1.09487 z"
           id="path282143-7-0-2"
           sodipodi:nodetypes="cccc" />
        <path
           style="fill:#478119;fill-opacity:1;fill-rule:evenodd;stroke:none;stroke-width:0.181965px;stroke-linecap:butt;stroke-linejoin:miter;stroke-opacity:1"
           d="m 7.8675095,285.21675 c -0.8381716,0.4727 -1.4233339,-0.32342 -1.238322,-1.09486 0.5217291,0.18656 0.8222688,0.46881 1.2383352,1.09487 z"
           id="path282145-4-6-95"
           sodipodi:nodetypes="cccc" />
      </g>
      <g
         id="g282147-6-83-92"
         transform="matrix(0.11249548,-1.449677,-1.449677,-0.11249548,423.0108,328.5347)"
         style="stroke-width:0.687741">
        <path
           style="fill:#589f1e;fill-opacity:1;fill-rule:evenodd;stroke:none;stroke-width:0.181965px;stroke-linecap:butt;stroke-linejoin:miter;stroke-opacity:1"
           d="m 7.8675095,285.21675 c -0.8381716,0.4727 -1.4233339,-0.32342 -1.238322,-1.09486 0.8359218,-0.15244 1.4175813,0.2373 1.2383352,1.09487 z"
           id="path282143-7-0-82"
           sodipodi:nodetypes="cccc" />
        <path
           style="fill:#478119;fill-opacity:1;fill-rule:evenodd;stroke:none;stroke-width:0.181965px;stroke-linecap:butt;stroke-linejoin:miter;stroke-opacity:1"
           d="m 7.8675095,285.21675 c -0.8381716,0.4727 -1.4233339,-0.32342 -1.238322,-1.09486 0.5217291,0.18656 0.8222688,0.46881 1.2383352,1.09487 z"
           id="path282145-4-6-0"
           sodipodi:nodetypes="cccc" />
      </g>
      <g
         id="g282147-6-83-898"
         transform="matrix(-1.3105124,-0.6299016,-0.6299016,1.3105124,199.74745,-84.355896)"
         style="stroke-width:0.687741">
        <path
           style="fill:#589f1e;fill-opacity:1;fill-rule:evenodd;stroke:none;stroke-width:0.181965px;stroke-linecap:butt;stroke-linejoin:miter;stroke-opacity:1"
           d="m 7.8675095,285.21675 c -0.8381716,0.4727 -1.4233339,-0.32342 -1.238322,-1.09486 0.8359218,-0.15244 1.4175813,0.2373 1.2383352,1.09487 z"
           id="path282143-7-0-77"
           sodipodi:nodetypes="cccc" />
        <path
           style="fill:#478119;fill-opacity:1;fill-rule:evenodd;stroke:none;stroke-width:0.181965px;stroke-linecap:butt;stroke-linejoin:miter;stroke-opacity:1"
           d="m 7.8675095,285.21675 c -0.8381716,0.4727 -1.4233339,-0.32342 -1.238322,-1.09486 0.5217291,0.18656 0.8222688,0.46881 1.2383352,1.09487 z"
           id="path282145-4-6-47"
           sodipodi:nodetypes="cccc" />
      </g>
      <g
         id="g336408"
         transform="translate(-0.30997863,-6.0881703)">
        <g
           id="g326960"
           transform="translate(-1.0500651,-0.44648435)">
          <path
             style="fill:#bb2727;fill-opacity:1;fill-rule:evenodd;stroke:none;stroke-width:0.265;stroke-linecap:round;stroke-linejoin:round;stroke-miterlimit:4;stroke-dasharray:none;stroke-opacity:1"
             d="m 16.313216,290.56608 c 0.0091,0.32026 -0.355961,0.75911 -0.714075,0.7358 -0.05108,-0.003 -0.176468,-0.0713 -0.290515,-0.033 -0.434715,0.14606 -0.698371,-0.39199 -0.686262,-0.79374 0.01395,-0.46288 0.392025,-0.85492 0.679334,-0.77017 0.213691,0.063 0.271238,0.005 0.346691,0.005 0.247945,10e-4 0.643798,0.11893 0.664827,0.85611 z"
             id="path317448"
             sodipodi:nodetypes="sssssss" />
          <path
             id="path324162"
             style="fill:#dc3434;fill-opacity:1;fill-rule:evenodd;stroke:none;stroke-width:1.00157;stroke-linecap:round;stroke-linejoin:round;stroke-miterlimit:4;stroke-dasharray:none;stroke-opacity:1"
             d="m 57.519531,1094.9043 c -0.634001,0 -1.323584,0.5215 -1.771484,1.291 0.498653,-0.5451 1.416529,-1.4635 1.90039,-1.1738 0.807652,0.4836 1.072246,0.3109 1.357422,0.1909 0.937115,0 2.385364,0.7627 2.464844,3.5488 0.01137,0.4002 -0.36558,0.8644 -0.611328,1.2832 0.492052,-0.5499 0.813714,-1.2492 0.796875,-1.8418 -0.07948,-2.7862 -1.576557,-3.2325 -2.513672,-3.2363 -0.285177,0 -0.500943,0.2186 -1.308594,-0.019 -0.101802,-0.03 -0.208037,-0.043 -0.314453,-0.043 z"
             transform="scale(0.26458333)"
             sodipodi:nodetypes="scscscccss" />
          <path
             id="path323048"
             style="fill:#9f1818;fill-opacity:1;fill-rule:evenodd;stroke:none;stroke-width:1.00157;stroke-linecap:round;stroke-linejoin:round;stroke-miterlimit:4;stroke-dasharray:none;stroke-opacity:1"
             d="m 57.466797,1094.9062 c -1.01564,0.05 -2.154214,1.3951 -2.201172,2.9532 -0.04577,1.5184 0.950733,3.552 2.59375,3 0.431044,-0.1448 0.904598,0.1136 1.097656,0.125 0.97879,0.064 1.970115,-0.7876 2.431641,-1.7207 -0.385532,0.7619 -1.567761,1.1356 -2.734375,0.8886 -1.691641,0.01 -2.226692,-1.205 -2.240235,-2.7871 -0.0082,-0.9989 0.164147,-1.9301 1.070313,-2.459 -0.0059,3e-4 -0.01165,-2e-4 -0.01758,0 z"
             transform="scale(0.26458333)"
             sodipodi:nodetypes="ssscccccss" />
        </g>
      </g>
      <g
         id="g336418"
         transform="translate(-9.1993749,-5.4994223)">
        <g
           id="g336416"
           transform="translate(-1.0500651,-0.44648435)">
          <path
             style="fill:#bb2727;fill-opacity:1;fill-rule:evenodd;stroke:none;stroke-width:0.265;stroke-linecap:round;stroke-linejoin:round;stroke-miterlimit:4;stroke-dasharray:none;stroke-opacity:1"
             d="m 16.313216,290.56608 c 0.0091,0.32026 -0.355961,0.75911 -0.714075,0.7358 -0.05108,-0.003 -0.176468,-0.0713 -0.290515,-0.033 -0.434715,0.14606 -0.698371,-0.39199 -0.686262,-0.79374 0.01395,-0.46288 0.392025,-0.85492 0.679334,-0.77017 0.213691,0.063 0.271238,0.005 0.346691,0.005 0.247945,10e-4 0.643798,0.11893 0.664827,0.85611 z"
             id="path336410"
             sodipodi:nodetypes="sssssss" />
          <path
             id="path336412"
             style="fill:#dc3434;fill-opacity:1;fill-rule:evenodd;stroke:none;stroke-width:1.00157;stroke-linecap:round;stroke-linejoin:round;stroke-miterlimit:4;stroke-dasharray:none;stroke-opacity:1"
             d="m 57.519531,1094.9043 c -0.634001,0 -1.323584,0.5215 -1.771484,1.291 0.498653,-0.5451 1.416529,-1.4635 1.90039,-1.1738 0.807652,0.4836 1.072246,0.3109 1.357422,0.1909 0.937115,0 2.385364,0.7627 2.464844,3.5488 0.01137,0.4002 -0.36558,0.8644 -0.611328,1.2832 0.492052,-0.5499 0.813714,-1.2492 0.796875,-1.8418 -0.07948,-2.7862 -1.576557,-3.2325 -2.513672,-3.2363 -0.285177,0 -0.500943,0.2186 -1.308594,-0.019 -0.101802,-0.03 -0.208037,-0.043 -0.314453,-0.043 z"
             transform="scale(0.26458333)"
             sodipodi:nodetypes="scscscccss" />
          <path
             id="path336414"
             style="fill:#9f1818;fill-opacity:1;fill-rule:evenodd;stroke:none;stroke-width:1.00157;stroke-linecap:round;stroke-linejoin:round;stroke-miterlimit:4;stroke-dasharray:none;stroke-opacity:1"
             d="m 57.466797,1094.9062 c -1.01564,0.05 -2.154214,1.3951 -2.201172,2.9532 -0.04577,1.5184 0.950733,3.552 2.59375,3 0.431044,-0.1448 0.904598,0.1136 1.097656,0.125 0.97879,0.064 1.970115,-0.7876 2.431641,-1.7207 -0.385532,0.7619 -1.567761,1.1356 -2.734375,0.8886 -1.691641,0.01 -2.226692,-1.205 -2.240235,-2.7871 -0.0082,-0.9989 0.164147,-1.9301 1.070313,-2.459 -0.0059,3e-4 -0.01165,-2e-4 -0.01758,0 z"
             transform="scale(0.26458333)"
             sodipodi:nodetypes="ssscccccss" />
        </g>
      </g>
      <g
         id="g336428"
         transform="translate(-5.4439859,-5.1858834)">
        <g
           id="g336426"
           transform="translate(-1.0500651,-0.44648435)">
          <path
             style="fill:#bb2727;fill-opacity:1;fill-rule:evenodd;stroke:none;stroke-width:0.265;stroke-linecap:round;stroke-linejoin:round;stroke-miterlimit:4;stroke-dasharray:none;stroke-opacity:1"
             d="m 16.313216,290.56608 c 0.0091,0.32026 -0.355961,0.75911 -0.714075,0.7358 -0.05108,-0.003 -0.176468,-0.0713 -0.290515,-0.033 -0.434715,0.14606 -0.698371,-0.39199 -0.686262,-0.79374 0.01395,-0.46288 0.392025,-0.85492 0.679334,-0.77017 0.213691,0.063 0.271238,0.005 0.346691,0.005 0.247945,10e-4 0.643798,0.11893 0.664827,0.85611 z"
             id="path336420"
             sodipodi:nodetypes="sssssss" />
          <path
             id="path336422"
             style="fill:#dc3434;fill-opacity:1;fill-rule:evenodd;stroke:none;stroke-width:1.00157;stroke-linecap:round;stroke-linejoin:round;stroke-miterlimit:4;stroke-dasharray:none;stroke-opacity:1"
             d="m 57.519531,1094.9043 c -0.634001,0 -1.323584,0.5215 -1.771484,1.291 0.498653,-0.5451 1.416529,-1.4635 1.90039,-1.1738 0.807652,0.4836 1.072246,0.3109 1.357422,0.1909 0.937115,0 2.385364,0.7627 2.464844,3.5488 0.01137,0.4002 -0.36558,0.8644 -0.611328,1.2832 0.492052,-0.5499 0.813714,-1.2492 0.796875,-1.8418 -0.07948,-2.7862 -1.576557,-3.2325 -2.513672,-3.2363 -0.285177,0 -0.500943,0.2186 -1.308594,-0.019 -0.101802,-0.03 -0.208037,-0.043 -0.314453,-0.043 z"
             transform="scale(0.26458333)"
             sodipodi:nodetypes="scscscccss" />
          <path
             id="path336424"
             style="fill:#9f1818;fill-opacity:1;fill-rule:evenodd;stroke:none;stroke-width:1.00157;stroke-linecap:round;stroke-linejoin:round;stroke-miterlimit:4;stroke-dasharray:none;stroke-opacity:1"
             d="m 57.466797,1094.9062 c -1.01564,0.05 -2.154214,1.3951 -2.201172,2.9532 -0.04577,1.5184 0.950733,3.552 2.59375,3 0.431044,-0.1448 0.904598,0.1136 1.097656,0.125 0.97879,0.064 1.970115,-0.7876 2.431641,-1.7207 -0.385532,0.7619 -1.567761,1.1356 -2.734375,0.8886 -1.691641,0.01 -2.226692,-1.205 -2.240235,-2.7871 -0.0082,-0.9989 0.164147,-1.9301 1.070313,-2.459 -0.0059,3e-4 -0.01165,-2e-4 -0.01758,0 z"
             transform="scale(0.26458333)"
             sodipodi:nodetypes="ssscccccss" />
        </g>
      </g>
      <g
         id="g336438"
         transform="translate(-2.9269532,-8.1359374)">
        <g
           id="g336436"
           transform="translate(-1.0500651,-0.44648435)">
          <path
             style="fill:#bb2727;fill-opacity:1;fill-rule:evenodd;stroke:none;stroke-width:0.265;stroke-linecap:round;stroke-linejoin:round;stroke-miterlimit:4;stroke-dasharray:none;stroke-opacity:1"
             d="m 16.313216,290.56608 c 0.0091,0.32026 -0.355961,0.75911 -0.714075,0.7358 -0.05108,-0.003 -0.176468,-0.0713 -0.290515,-0.033 -0.434715,0.14606 -0.698371,-0.39199 -0.686262,-0.79374 0.01395,-0.46288 0.392025,-0.85492 0.679334,-0.77017 0.213691,0.063 0.271238,0.005 0.346691,0.005 0.247945,10e-4 0.643798,0.11893 0.664827,0.85611 z"
             id="path336430"
             sodipodi:nodetypes="sssssss" />
          <path
             id="path336432"
             style="fill:#dc3434;fill-opacity:1;fill-rule:evenodd;stroke:none;stroke-width:1.00157;stroke-linecap:round;stroke-linejoin:round;stroke-miterlimit:4;stroke-dasharray:none;stroke-opacity:1"
             d="m 57.519531,1094.9043 c -0.634001,0 -1.323584,0.5215 -1.771484,1.291 0.498653,-0.5451 1.416529,-1.4635 1.90039,-1.1738 0.807652,0.4836 1.072246,0.3109 1.357422,0.1909 0.937115,0 2.385364,0.7627 2.464844,3.5488 0.01137,0.4002 -0.36558,0.8644 -0.611328,1.2832 0.492052,-0.5499 0.813714,-1.2492 0.796875,-1.8418 -0.07948,-2.7862 -1.576557,-3.2325 -2.513672,-3.2363 -0.285177,0 -0.500943,0.2186 -1.308594,-0.019 -0.101802,-0.03 -0.208037,-0.043 -0.314453,-0.043 z"
             transform="scale(0.26458333)"
             sodipodi:nodetypes="scscscccss" />
          <path
             id="path336434"
             style="fill:#9f1818;fill-opacity:1;fill-rule:evenodd;stroke:none;stroke-width:1.00157;stroke-linecap:round;stroke-linejoin:round;stroke-miterlimit:4;stroke-dasharray:none;stroke-opacity:1"
             d="m 57.466797,1094.9062 c -1.01564,0.05 -2.154214,1.3951 -2.201172,2.9532 -0.04577,1.5184 0.950733,3.552 2.59375,3 0.431044,-0.1448 0.904598,0.1136 1.097656,0.125 0.97879,0.064 1.970115,-0.7876 2.431641,-1.7207 -0.385532,0.7619 -1.567761,1.1356 -2.734375,0.8886 -1.691641,0.01 -2.226692,-1.205 -2.240235,-2.7871 -0.0082,-0.9989 0.164147,-1.9301 1.070313,-2.459 -0.0059,3e-4 -0.01165,-2e-4 -0.01758,0 z"
             transform="scale(0.26458333)"
             sodipodi:nodetypes="ssscccccss" />
        </g>
      </g>
      <g
         id="g336448"
         transform="translate(-8.2334453,-2.1619784)">
        <g
           id="g336446"
           transform="translate(-1.0500651,-0.44648435)">
          <path
             style="fill:#bb2727;fill-opacity:1;fill-rule:evenodd;stroke:none;stroke-width:0.265;stroke-linecap:round;stroke-linejoin:round;stroke-miterlimit:4;stroke-dasharray:none;stroke-opacity:1"
             d="m 16.313216,290.56608 c 0.0091,0.32026 -0.355961,0.75911 -0.714075,0.7358 -0.05108,-0.003 -0.176468,-0.0713 -0.290515,-0.033 -0.434715,0.14606 -0.698371,-0.39199 -0.686262,-0.79374 0.01395,-0.46288 0.392025,-0.85492 0.679334,-0.77017 0.213691,0.063 0.271238,0.005 0.346691,0.005 0.247945,10e-4 0.643798,0.11893 0.664827,0.85611 z"
             id="path336440"
             sodipodi:nodetypes="sssssss" />
          <path
             id="path336442"
             style="fill:#dc3434;fill-opacity:1;fill-rule:evenodd;stroke:none;stroke-width:1.00157;stroke-linecap:round;stroke-linejoin:round;stroke-miterlimit:4;stroke-dasharray:none;stroke-opacity:1"
             d="m 57.519531,1094.9043 c -0.634001,0 -1.323584,0.5215 -1.771484,1.291 0.498653,-0.5451 1.416529,-1.4635 1.90039,-1.1738 0.807652,0.4836 1.072246,0.3109 1.357422,0.1909 0.937115,0 2.385364,0.7627 2.464844,3.5488 0.01137,0.4002 -0.36558,0.8644 -0.611328,1.2832 0.492052,-0.5499 0.813714,-1.2492 0.796875,-1.8418 -0.07948,-2.7862 -1.576557,-3.2325 -2.513672,-3.2363 -0.285177,0 -0.500943,0.2186 -1.308594,-0.019 -0.101802,-0.03 -0.208037,-0.043 -0.314453,-0.043 z"
             transform="scale(0.26458333)"
             sodipodi:nodetypes="scscscccss" />
          <path
             id="path336444"
             style="fill:#9f1818;fill-opacity:1;fill-rule:evenodd;stroke:none;stroke-width:1.00157;stroke-linecap:round;stroke-linejoin:round;stroke-miterlimit:4;stroke-dasharray:none;stroke-opacity:1"
             d="m 57.466797,1094.9062 c -1.01564,0.05 -2.154214,1.3951 -2.201172,2.9532 -0.04577,1.5184 0.950733,3.552 2.59375,3 0.431044,-0.1448 0.904598,0.1136 1.097656,0.125 0.97879,0.064 1.970115,-0.7876 2.431641,-1.7207 -0.385532,0.7619 -1.567761,1.1356 -2.734375,0.8886 -1.691641,0.01 -2.226692,-1.205 -2.240235,-2.7871 -0.0082,-0.9989 0.164147,-1.9301 1.070313,-2.459 -0.0059,3e-4 -0.01165,-2e-4 -0.01758,0 z"
             transform="scale(0.26458333)"
             sodipodi:nodetypes="ssscccccss" />
        </g>
      </g>
      <g
         id="g337124"
         transform="translate(-2.4147262,-2.2060804)">
        <g
           id="g337122"
           transform="translate(-1.0500651,-0.44648435)">
          <path
             style="fill:#bb2727;fill-opacity:1;fill-rule:evenodd;stroke:none;stroke-width:0.265;stroke-linecap:round;stroke-linejoin:round;stroke-miterlimit:4;stroke-dasharray:none;stroke-opacity:1"
             d="m 16.313216,290.56608 c 0.0091,0.32026 -0.355961,0.75911 -0.714075,0.7358 -0.05108,-0.003 -0.176468,-0.0713 -0.290515,-0.033 -0.434715,0.14606 -0.698371,-0.39199 -0.686262,-0.79374 0.01395,-0.46288 0.392025,-0.85492 0.679334,-0.77017 0.213691,0.063 0.271238,0.005 0.346691,0.005 0.247945,10e-4 0.643798,0.11893 0.664827,0.85611 z"
             id="path337116"
             sodipodi:nodetypes="sssssss" />
          <path
             id="path337118"
             style="fill:#dc3434;fill-opacity:1;fill-rule:evenodd;stroke:none;stroke-width:1.00157;stroke-linecap:round;stroke-linejoin:round;stroke-miterlimit:4;stroke-dasharray:none;stroke-opacity:1"
             d="m 57.519531,1094.9043 c -0.634001,0 -1.323584,0.5215 -1.771484,1.291 0.498653,-0.5451 1.416529,-1.4635 1.90039,-1.1738 0.807652,0.4836 1.072246,0.3109 1.357422,0.1909 0.937115,0 2.385364,0.7627 2.464844,3.5488 0.01137,0.4002 -0.36558,0.8644 -0.611328,1.2832 0.492052,-0.5499 0.813714,-1.2492 0.796875,-1.8418 -0.07948,-2.7862 -1.576557,-3.2325 -2.513672,-3.2363 -0.285177,0 -0.500943,0.2186 -1.308594,-0.019 -0.101802,-0.03 -0.208037,-0.043 -0.314453,-0.043 z"
             transform="scale(0.26458333)"
             sodipodi:nodetypes="scscscccss" />
          <path
             id="path337120"
             style="fill:#9f1818;fill-opacity:1;fill-rule:evenodd;stroke:none;stroke-width:1.00157;stroke-linecap:round;stroke-linejoin:round;stroke-miterlimit:4;stroke-dasharray:none;stroke-opacity:1"
             d="m 57.466797,1094.9062 c -1.01564,0.05 -2.154214,1.3951 -2.201172,2.9532 -0.04577,1.5184 0.950733,3.552 2.59375,3 0.431044,-0.1448 0.904598,0.1136 1.097656,0.125 0.97879,0.064 1.970115,-0.7876 2.431641,-1.7207 -0.385532,0.7619 -1.567761,1.1356 -2.734375,0.8886 -1.691641,0.01 -2.226692,-1.205 -2.240235,-2.7871 -0.0082,-0.9989 0.164147,-1.9301 1.070313,-2.459 -0.0059,3e-4 -0.01165,-2e-4 -0.01758,0 z"
             transform="scale(0.26458333)"
             sodipodi:nodetypes="ssscccccss" />
        </g>
      </g>
    </g>
  </g>
</svg>
