<?xml version="1.0" encoding="UTF-8" standalone="no"?>
<!-- Created with Inkscape (http://www.inkscape.org/) -->

<svg
   width="64"
   height="64"
   viewBox="0 0 16.933333 16.933334"
   version="1.1"
   id="svg930"
   inkscape:version="1.1.1 (3bf5ae0d25, 2021-09-20)"
   sodipodi:docname="banana_2.svg"
   xmlns:inkscape="http://www.inkscape.org/namespaces/inkscape"
   xmlns:sodipodi="http://sodipodi.sourceforge.net/DTD/sodipodi-0.dtd"
   xmlns="http://www.w3.org/2000/svg"
   xmlns:svg="http://www.w3.org/2000/svg">
  <sodipodi:namedview
     id="namedview932"
     pagecolor="#505050"
     bordercolor="#eeeeee"
     borderopacity="1"
     inkscape:pageshadow="0"
     inkscape:pageopacity="0"
     inkscape:pagecheckerboard="0"
     inkscape:document-units="px"
     showgrid="false"
     units="px"
     showguides="true"
     inkscape:guide-bbox="true"
     inkscape:zoom="4.192802"
     inkscape:cx="4.1738198"
     inkscape:cy="18.245555"
     inkscape:window-width="1920"
     inkscape:window-height="1017"
     inkscape:window-x="-8"
     inkscape:window-y="-8"
     inkscape:window-maximized="1"
     inkscape:current-layer="layer1">
    <sodipodi:guide
       position="5.5847199,1.2203923"
       orientation="0,-1"
       id="guide1233" />
    <sodipodi:guide
       position="8.0457829,15.608146"
       orientation="0,-1"
       id="guide1235" />
    <sodipodi:guide
       position="1.3567399,12.705354"
       orientation="1,0"
       id="guide1237" />
    <sodipodi:guide
       position="15.712941,5.9216538"
       orientation="1,0"
       id="guide1239" />
  </sodipodi:namedview>
  <defs
     id="defs927" />
  <g
     inkscape:label="Layer 1"
     inkscape:groupmode="layer"
     id="layer1">
    <g
       id="g232552"
       transform="translate(-0.92085157,-279.26144)">
      <path
         id="path232242"
         style="fill:#6c711b;fill-opacity:1;stroke:#202208;stroke-width:2;stroke-linecap:round;stroke-linejoin:round;stroke-miterlimit:4;stroke-dasharray:none;stroke-opacity:1;paint-order:fill markers stroke;stop-color:#000000"
         d="m 19.474609,1058.043 h 0.002 c 5.008483,2.9573 9.765771,5.6461 12.966797,9.6934 -5.443642,-4.4 -14.779655,-4.4534 -24.8066402,2.5683 h 0.00195 c 7.1226082,-0.9836 13.7704892,-2.0347 20.2539062,-0.5625 0.85923,0.1408 2.174682,0.5701 3.511719,1.0605 -9.486877,-1.9941 -18.175776,2.1623 -21.7421877,11.4258 h 0.00195 c 6.3755357,-3.865 12.2872617,-7.6089 18.8203127,-8.6777 1.1683,-0.2724 3.307875,-0.3237 5.189453,-0.3164 -6.411059,2.5964 -10.648455,8.3135 -8.486328,14.3164 h 0.002 c 1.088961,-2.4197 2.113247,-4.7626 3.353516,-6.8965 0.560761,0.1342 1.627945,0.3552 2.570312,0.3594 -0.304566,0.1723 -0.614047,0.3318 -0.929687,0.4766 -0.577147,0.2649 -1.908203,0.9375 -1.908203,0.9375 l 0.01563,0.3125 0.03516,0.6855 c 0,0 1.745052,0.4927 3.121094,0.461 0.05504,0 0.110338,0 0.164062,-0.01 0.107449,-0.01 0.211943,-0.016 0.3125,-0.029 0.02514,0 0.0496,-0.01 0.07422,-0.01 0.04925,-0.01 0.09755,-0.017 0.144531,-0.027 0.02349,-0.01 0.04744,-0.012 0.07031,-0.018 0.0915,-0.023 0.177535,-0.048 0.257812,-0.08 0.33603,-0.1353 0.656079,-0.312 0.958985,-0.5195 -0.672723,0.8642 -1.470838,1.6385 -2.341797,2.2871 -0.509296,0.3793 -1.669922,1.3144 -1.669922,1.3144 l 0.08203,0.3067 0.175781,0.6601 c 0,0 0.416383,0.027 0.998047,0.02 0.04847,-6e-4 0.09782,0 0.148438,0 0.722663,-0.016 1.6484,-0.087 2.353515,-0.3164 l -0.246093,4.2012 a 11.06826,10.302531 89.12548 0 0 -0.222657,-0.1172 11.06826,10.302531 89.12548 0 0 -0.002,0 l -0.349609,6.5391 a 13.293698,12.374009 89.173938 0 0 -0.519531,-0.2734 l -0.109376,1.998 -0.339843,6.2461 1.625,1.5352 h 0.167969 l 0.427734,-0.01 4.708984,-0.078 2.355469,-1.8497 -0.214844,-5.7949 -0.07422,-2 a 12.374009,13.293698 1.8083874 0 0 -0.433593,0.2168 l -0.25586,-4.8027 -0.08984,-1.6641 a 10.302531,11.06826 0.88095045 0 0 -0.462891,0.2461 10.302531,11.06826 0.88095045 0 0 -0.06055,0.033 l 0.04687,-2.8965 c 1.32687,0.4316 3.259766,0.4141 3.259766,0.4141 l 0.214843,-0.6543 0.0957,-0.2969 c 0,0 -1.106203,-0.9974 -1.59375,-1.4043 -0.878073,-0.7327 -1.668258,-1.5995 -2.310547,-2.5566 v -0.1094 c 0.209589,0.148 0.426839,0.2794 0.652343,0.3945 0,0 0.002,0 0.002,0 0.13999,0.072 0.283735,0.1365 0.429687,0.1934 0.08063,0.032 0.166072,0.059 0.257813,0.08 0,0 0.002,0 0.002,0 0.320717,0.075 0.704432,0.093 1.101562,0.076 0.113051,0 0.229299,-0.014 0.34375,-0.024 0.287122,-0.025 0.577128,-0.064 0.84961,-0.1094 0.43619,-0.073 0.834117,-0.162 1.121093,-0.2324 0.286207,-0.07 0.464844,-0.123 0.464844,-0.123 l 0.02734,-0.6856 v 0 l 0.01172,-0.3125 c 0,0 -1.336002,-0.6575 -1.916016,-0.916 -1.32771,-0.5917 -2.578046,-1.4326 -3.607422,-2.4649 l -0.05859,-0.9648 c 0.747082,0.6257 1.59282,1.1183 2.503907,1.3261 0.168739,0.039 0.359568,0.053 0.5625,0.049 0.02537,-6e-4 0.05041,0 0.07617,0 0.419785,-0.019 0.889807,-0.1115 1.34375,-0.2344 0.749897,0.8424 1.542374,1.7422 2.414062,2.7461 0.03192,0.064 0.06231,0.1302 0.09375,0.1953 h 0.002 c -0.01052,-0.041 -0.0207,-0.081 -0.03125,-0.1211 0.0028,0 0.005,0.01 0.0078,0.01 -0.0047,-0.011 -0.009,-0.022 -0.01367,-0.033 -0.327047,-1.2466 -0.670752,-2.3283 -1.044922,-3.2774 0.3856,-0.1518 0.636719,-0.2676 0.636719,-0.2676 l -0.07422,-0.6835 -0.0332,-0.3106 c 0,0 -0.670602,-0.2145 -1.289063,-0.4043 -1.198658,-2.2558 -2.73589,-3.5973 -4.978515,-4.7559 1.691384,0.351 3.561846,0.7968 4.552734,1.2579 5.797145,2.2396 10.508779,6.8171 15.623047,11.5957 -4.139495,-10.9009 -10.006613,-15.7133 -18.279297,-14.9961 1.296246,-0.4724 2.560472,-0.8809 3.394531,-1.0176 6.483417,-1.4722 13.133249,-0.4211 20.25586,0.5625 h 0.002 c -8.029747,-4.8821 -14.609718,-6.3857 -20.089844,-4.5429 3.858946,-2.1919 8.404869,-3.5014 13.158203,-4.9492 v 0 c -9.842341,-1.2654 -17.816218,0.7013 -20.597656,7.9746 0.634761,-3.6195 -0.10842,-6.3884 -3.363281,-10.8242 -0.0078,-0.015 -0.01567,-0.03 -0.02344,-0.045 0.0011,0.01 0.0028,0.012 0.0039,0.018 -0.02547,-0.035 -0.0504,-0.069 -0.07617,-0.1035 0.03117,0.066 0.0615,0.1312 0.0918,0.1973 0.37136,2.1016 0.659966,3.8732 0.929688,5.5625 -2.774292,-3.7194 -7.948519,-6.0798 -14.757813,-6.1738 z m 16.820313,15.0058 a 5.2650588,4.9008098 88.087768 0 0 -0.166016,0.1973 l -0.05664,-0.01 -0.117188,-0.02 0.05078,-0.051 0.0625,0.02 c -5.5e-4,-0.01 -0.0014,-0.015 -0.002,-0.023 0.0026,0.01 0.0052,0.014 0.0078,0.022 z m -1.164063,0.4981 -0.01563,0.2168 -0.002,0.014 c -0.309506,0.625 -0.798239,1.5411 -1.224609,2.0157 -1.069729,1.191 -2.42775,2.1585 -3.882813,2.8261 -0.06754,0.031 -0.147607,0.067 -0.232421,0.1075 0.630563,-0.8954 1.322814,-1.7396 2.101562,-2.5215 0.628911,-0.7134 2.144798,-1.8509 3.255859,-2.6582 z m 2.748047,1.2031 c 0.531426,0.603 1.042614,1.177 1.542969,1.7363 -0.28141,-0.1876 -0.553193,-0.388 -0.814453,-0.5996 -0.213012,-0.1724 -0.450019,-0.4239 -0.683594,-0.6992 z"
         transform="scale(0.26458333)" />
      <path
         id="path174297"
         style="fill:#6c711b;fill-opacity:1;stroke:none;stroke-width:2.00001;stroke-linecap:round;stroke-linejoin:round;stroke-miterlimit:4;stroke-dasharray:none;stroke-opacity:1;paint-order:fill markers stroke;stop-color:#000000"
         d="m 9.9473197,283.63213 0.2644843,2.58021 a 1.3930468,1.2966726 88.087768 0 1 -0.960003,-1.29957 l -5.001e-4,-0.0233 a 1.3930468,1.2966726 88.087768 0 1 0.696023,-1.25738 z" />
      <path
         id="path174299"
         style="fill:#9da227;fill-opacity:1;stroke:none;stroke-width:2.00001;stroke-linecap:round;stroke-linejoin:round;stroke-miterlimit:4;stroke-dasharray:none;stroke-opacity:1;paint-order:fill markers stroke;stop-color:#000000"
         d="m 9.9473197,283.63213 0.021481,0.20858 a 1.3930468,1.4018979 88.087768 0 0 -0.7102314,1.16824 1.3930468,1.2966726 88.087768 0 1 -0.00675,-0.0962 l -5e-4,-0.0233 a 1.3930468,1.2966726 88.087768 0 1 0.6960234,-1.25736 z" />
      <path
         id="path174301"
         style="fill:#6c711b;fill-opacity:1;stroke:none;stroke-width:2.00001;stroke-linecap:round;stroke-linejoin:round;stroke-miterlimit:4;stroke-dasharray:none;stroke-opacity:1;paint-order:fill markers stroke;stop-color:#000000"
         d="m 9.3083012,283.86901 -0.2168098,2.85495 a 1.4313813,1.5377676 0.40237023 0 0 1.0215686,-1.46203 l -1.2e-4,-0.0257 a 1.4313813,1.5377676 0.40237023 0 0 -0.8046372,-1.36725 z" />
      <path
         id="path174303"
         style="fill:#9da227;fill-opacity:1;stroke:none;stroke-width:2.00001;stroke-linecap:round;stroke-linejoin:round;stroke-miterlimit:4;stroke-dasharray:none;stroke-opacity:1;paint-order:fill markers stroke;stop-color:#000000"
         d="m 9.3083012,283.86901 -0.01764,0.23077 a 1.5475382,1.5377676 0.40237023 0 1 0.8177228,1.26851 1.4313813,1.5377676 0.40237023 0 0 0.0047,-0.10636 l -1.2e-4,-0.0257 a 1.4313813,1.5377676 0.40237023 0 0 -0.8046372,-1.36724 z" />
      <path
         id="path174305"
         style="fill:#6c711b;fill-opacity:1;stroke:none;stroke-width:2;stroke-linecap:round;stroke-linejoin:round;stroke-miterlimit:4;stroke-dasharray:none;stroke-opacity:1;paint-order:fill markers stroke;stop-color:#000000"
         d="m 9.1424944,284.90562 -0.1704087,3.24867 a 1.7472175,1.6263409 89.062247 0 0 1.1215433,-1.68783 l -8.21e-4,-0.0292 a 1.7472175,1.6263409 89.062247 0 0 -0.9503148,-1.53168 z" />
      <path
         id="path174307"
         style="fill:#9da227;fill-opacity:1;stroke:none;stroke-width:2;stroke-linecap:round;stroke-linejoin:round;stroke-miterlimit:4;stroke-dasharray:none;stroke-opacity:1;paint-order:fill markers stroke;stop-color:#000000"
         d="m 9.1626637,284.88695 -0.022898,0.26197 a 1.7583189,1.7472175 1.0265471 0 1 0.9133433,1.45132 1.6263409,1.7472175 1.0265471 0 0 0.0066,-0.12077 l 1.83e-4,-0.0292 a 1.6263409,1.7472175 1.0265471 0 0 -0.8972548,-1.56334 z" />
      <path
         id="path174309"
         style="fill:#6c711b;fill-opacity:1;stroke:none;stroke-width:2;stroke-linecap:round;stroke-linejoin:round;stroke-miterlimit:4;stroke-dasharray:none;stroke-opacity:1;paint-order:fill markers stroke;stop-color:#000000"
         d="m 10.147253,285.02959 0.196605,3.2472 a 1.6263409,1.7472175 0.47564365 0 1 -1.1351197,-1.67874 l 5.861e-4,-0.0292 a 1.6263409,1.7472175 0.47564365 0 1 0.9379296,-1.5393 z" />
      <path
         id="path174311"
         style="fill:#9da227;fill-opacity:1;stroke:none;stroke-width:2;stroke-linecap:round;stroke-linejoin:round;stroke-miterlimit:4;stroke-dasharray:none;stroke-opacity:1;paint-order:fill markers stroke;stop-color:#000000"
         d="m 10.147253,285.02959 0.01602,0.26248 a 1.7583189,1.7472175 0.47564365 0 0 -0.9510761,1.42689 1.6263409,1.7472175 0.47564365 0 1 -0.00345,-0.12091 l 5.866e-4,-0.0292 a 1.6263409,1.7472175 0.47564365 0 1 0.9379295,-1.53929 z" />
      <path
         id="path174313"
         style="fill:#6c711b;fill-opacity:1;stroke:none;stroke-width:2;stroke-linecap:round;stroke-linejoin:round;stroke-miterlimit:4;stroke-dasharray:none;stroke-opacity:1;paint-order:fill markers stroke;stop-color:#000000"
         d="m 8.973021,286.25334 -0.3539138,3.72384 a 1.8700404,2.0090298 1.488657 0 0 1.3706087,-1.88442 l 4.77e-4,-0.0335 A 1.8700404,2.0090298 1.488657 0 0 8.973021,286.25338 Z" />
      <path
         id="path174315"
         style="fill:#9da227;fill-opacity:1;stroke:none;stroke-width:2;stroke-linecap:round;stroke-linejoin:round;stroke-miterlimit:4;stroke-dasharray:none;stroke-opacity:1;paint-order:fill markers stroke;stop-color:#000000"
         d="m 8.973021,286.25334 -0.028758,0.30101 a 2.0217947,2.0090298 1.488657 0 1 1.0367099,1.67722 1.8700404,2.0090298 1.488657 0 0 0.0087,-0.13881 l 4.77e-4,-0.0335 a 1.8700404,2.0090298 1.488657 0 0 -1.0171721,-1.80587 z" />
      <path
         id="path174317"
         style="fill:#6c711b;fill-opacity:1;stroke:none;stroke-width:2;stroke-linecap:round;stroke-linejoin:round;stroke-miterlimit:4;stroke-dasharray:none;stroke-opacity:1;paint-order:fill markers stroke;stop-color:#000000"
         d="m 10.268344,286.18855 -0.02168,3.74056 a 1.8700404,2.0090298 4.2724421 0 1 -1.1745267,-2.01249 l 0.00289,-0.0334 a 1.8700404,2.0090298 4.2724421 0 1 1.1933107,-1.69465 z" />
      <path
         id="path174319"
         style="fill:#9da227;fill-opacity:1;stroke:none;stroke-width:2;stroke-linecap:round;stroke-linejoin:round;stroke-miterlimit:4;stroke-dasharray:none;stroke-opacity:1;paint-order:fill markers stroke;stop-color:#000000"
         d="m 10.268344,286.18855 -0.0016,0.30238 a 2.0217947,2.0090298 4.2724421 0 0 -1.1998348,1.56468 1.8700404,2.0090298 4.2724421 0 1 0.00525,-0.13899 l 0.00289,-0.0334 a 1.8700404,2.0090298 4.2724421 0 1 1.1933078,-1.69463 z" />
      <path
         id="path209685"
         style="fill:#34a000;fill-opacity:0.996078;fill-rule:evenodd;stroke:none;stroke-width:0.264582px;stroke-linecap:butt;stroke-linejoin:miter;stroke-opacity:1"
         d="m 2.5566836,286.3406 5.139e-4,4e-5 c 0,0 1.4378485,-1.20652 2.2543052,-1.59129 0.9426063,-0.44418 1.9065763,-0.74616 2.92141,-0.98269 0.6209756,-0.0677 1.2841321,0.003 1.882601,0.0857 l -0.00717,-0.12052 C 6.6239502,282.45359 3.6615084,283.4709 2.5566836,286.3406 Z"
         sodipodi:nodetypes="ccscccc" />
      <path
         id="path209357"
         style="fill:#2e8604;fill-opacity:1;fill-rule:evenodd;stroke:none;stroke-width:0.264582px;stroke-linecap:butt;stroke-linejoin:miter;stroke-opacity:1"
         d="m 8.0508385,283.48721 c -1.4366073,-0.11145 -2.5409671,0.41086 -3.401621,0.91621 -0.8521604,0.50034 -1.3691181,1.17756 -2.0920191,1.93722 1.6868604,-1.02262 3.2508027,-2.01342 4.9793391,-2.29622 0.4449509,-0.10373 1.425554,-0.087 1.9625941,-0.0759 l 0.1159737,-0.11423 c -0.3278261,-0.14882 -0.5146312,-0.18949 -0.8320269,-0.25854 -0.2532679,-0.055 -0.4971588,-0.0904 -0.7322399,-0.10859 z" />
      <path
         id="path202716"
         style="fill:#6c711b;fill-opacity:1;stroke:none;stroke-width:2;stroke-linecap:round;stroke-linejoin:round;stroke-miterlimit:4;stroke-dasharray:none;stroke-opacity:1;paint-order:fill markers stroke;stop-color:#000000"
         d="m 8.8006683,287.33465 -0.2642784,4.50287 a 2.4225798,2.25498 89.418479 0 0 1.5695791,-2.33055 l -8.84e-4,-0.0404 a 2.4225798,2.25498 89.418479 0 0 -1.3044156,-2.13189 z" />
      <path
         id="path202718"
         style="fill:#9da227;fill-opacity:1;stroke:none;stroke-width:2;stroke-linecap:round;stroke-linejoin:round;stroke-miterlimit:4;stroke-dasharray:none;stroke-opacity:1;paint-order:fill markers stroke;stop-color:#000000"
         d="m 8.8006683,287.33465 -0.021544,0.36399 a 2.4225798,2.4379722 89.418479 0 1 1.3223557,1.97599 2.4225798,2.25498 89.418479 0 0 0.0045,-0.16766 l -8.85e-4,-0.0404 a 2.4225798,2.25498 89.418479 0 0 -1.3044149,-2.13188 z" />
      <path
         id="path202720"
         style="fill:#6c711b;fill-opacity:1;stroke:none;stroke-width:2;stroke-linecap:round;stroke-linejoin:round;stroke-miterlimit:4;stroke-dasharray:none;stroke-opacity:1;paint-order:fill markers stroke;stop-color:#000000"
         d="m 10.362854,287.49907 -0.07384,4.51 a 2.25498,2.4225798 4.8783642 0 1 -1.3905539,-2.44159 l 0.00391,-0.0402 a 2.25498,2.4225798 4.8783642 0 1 1.4604789,-2.02816 z" />
      <path
         id="path202722"
         style="fill:#9da227;fill-opacity:1;stroke:none;stroke-width:2;stroke-linecap:round;stroke-linejoin:round;stroke-miterlimit:4;stroke-dasharray:none;stroke-opacity:1;paint-order:fill markers stroke;stop-color:#000000"
         d="m 10.362854,287.49907 -0.0058,0.36457 a 2.4379722,2.4225798 4.8783642 0 0 -1.4666872,1.87136 2.25498,2.4225798 4.8783642 0 1 0.0081,-0.16752 l 0.00391,-0.0402 a 2.25498,2.4225798 4.8783642 0 1 1.4604752,-2.02813 z" />
      <path
         id="path203773"
         style="fill:#6c711b;fill-opacity:1;stroke:none;stroke-width:2.00001;stroke-linecap:round;stroke-linejoin:round;stroke-miterlimit:4;stroke-dasharray:none;stroke-opacity:1;paint-order:fill markers stroke;stop-color:#000000"
         d="m 8.6533201,288.80577 -0.21239,3.96772 0.2935221,0.2775 1.0883056,-0.0181 a 2.9284771,2.725878 89.12548 0 0 0.4221972,-1.60922 l -0.0016,-0.0491 a 2.9284771,2.725878 89.12548 0 0 -1.5900839,-2.56884 z" />
      <path
         id="path202726"
         style="fill:#9da227;fill-opacity:1;stroke:none;stroke-width:2.00001;stroke-linecap:round;stroke-linejoin:round;stroke-miterlimit:4;stroke-dasharray:none;stroke-opacity:1;paint-order:fill markers stroke;stop-color:#000000"
         d="m 8.6535015,288.80578 -0.023792,0.44013 a 2.9284771,2.9470838 89.12548 0 1 1.6106915,2.38042 2.9284771,2.7258781 89.12548 0 0 0.0044,-0.20269 l -0.0013,-0.0489 a 2.9284771,2.7258781 89.12548 0 0 -1.5899677,-2.56895 z" />
      <path
         id="path203518"
         style="fill:#6c711b;fill-opacity:1;stroke:none;stroke-width:2.00001;stroke-linecap:round;stroke-linejoin:round;stroke-miterlimit:4;stroke-dasharray:none;stroke-opacity:1;paint-order:fill markers stroke;stop-color:#000000"
         d="m 10.478532,288.82231 a 2.725878,2.9284771 0.88095045 0 0 -1.5906008,2.56884 l -0.00103,0.0491 a 2.725878,2.9284771 0.88095045 0 0 0.4170288,1.60147 l 0.834058,-0.014 0.542603,-0.4258 z" />
      <path
         id="path202730"
         style="fill:#9da227;fill-opacity:1;stroke:none;stroke-width:2.00001;stroke-linecap:round;stroke-linejoin:round;stroke-miterlimit:4;stroke-dasharray:none;stroke-opacity:1;paint-order:fill markers stroke;stop-color:#000000"
         d="m 10.478405,288.82239 0.02374,0.44013 a 2.9470838,2.9284771 0.88095045 0 0 -1.6109589,2.38024 2.7258781,2.9284771 0.88095045 0 1 -0.00436,-0.2027 l 0.00133,-0.0489 a 2.7258781,2.9284771 0.88095045 0 1 1.5902559,-2.56877 z" />
      <path
         id="path203603"
         style="fill:#6c711b;fill-opacity:1;stroke:none;stroke-width:2.00001;stroke-linecap:round;stroke-linejoin:round;stroke-miterlimit:4;stroke-dasharray:none;stroke-opacity:1;paint-order:fill markers stroke;stop-color:#000000"
         d="m 8.4233601,290.46355 -0.1188558,2.18127 0.4299479,0.40617 1.4035318,-0.0233 0.121957,-0.0956 a 3.5172909,3.2739565 89.173938 0 0 -1.8365809,-2.46858 z" />
      <path
         id="path203688"
         style="fill:#9da227;fill-opacity:1;stroke:none;stroke-width:2.00001;stroke-linecap:round;stroke-linejoin:round;stroke-miterlimit:4;stroke-dasharray:none;stroke-opacity:1;paint-order:fill markers stroke;stop-color:#000000"
         d="m 8.4233601,290.46355 -0.028939,0.52866 a 3.5172909,3.5396389 89.173938 0 1 1.7595829,2.02314 l 0.105937,-0.0832 a 3.5172909,3.2739565 89.173938 0 0 -1.8365811,-2.46858 z" />
      <path
         id="path203433"
         style="fill:#6c711b;fill-opacity:1;stroke:none;stroke-width:2.00001;stroke-linecap:round;stroke-linejoin:round;stroke-miterlimit:4;stroke-dasharray:none;stroke-opacity:1;paint-order:fill markers stroke;stop-color:#000000"
         d="m 10.684721,290.47595 a 3.2739565,3.5172909 1.8083874 0 0 -1.9063437,2.57453 l 1.3596067,-0.0227 0.623218,-0.48937 z" />
      <path
         id="path203858"
         style="fill:#9da227;fill-opacity:1;stroke:none;stroke-width:2.00001;stroke-linecap:round;stroke-linejoin:round;stroke-miterlimit:4;stroke-dasharray:none;stroke-opacity:1;paint-order:fill markers stroke;stop-color:#000000"
         d="m 10.684721,290.47595 a 3.2739565,3.5172909 1.8083874 0 0 -1.905827,2.57453 l 0.1131713,-0.002 a 3.5396389,3.5172909 1.8083874 0 1 1.8122927,-2.0433 z" />
      <path
         id="path210311"
         style="fill:#34a000;fill-opacity:0.996078;fill-rule:evenodd;stroke:none;stroke-width:0.264582px;stroke-linecap:butt;stroke-linejoin:miter;stroke-opacity:1"
         d="m 5.1527777,279.94079 1.65e-4,3.8e-4 c 0,0 1.3842741,0.55324 1.9601239,0.98016 0.664795,0.4929 1.2380942,1.05414 1.7846863,1.67555 0.2805492,0.40917 0.4800766,0.89983 0.6469173,1.34972 l 0.081642,-0.0503 c 0.3021655,-2.23562 -1.4951294,-3.91436 -4.4735345,-3.95551 z"
         sodipodi:nodetypes="ccscccc" />
      <path
         id="path210313"
         style="fill:#2e8604;fill-opacity:1;fill-rule:evenodd;stroke:none;stroke-width:0.264582px;stroke-linecap:butt;stroke-linejoin:miter;stroke-opacity:1"
         d="m 9.2127027,282.71445 c -0.4614308,-1.04725 -1.2416412,-1.62402 -1.9184742,-2.03659 -0.6701373,-0.40851 -1.3381991,-0.51601 -2.1412855,-0.73669 1.3490733,0.79656 2.6297229,1.51905 3.4766846,2.62257 0.2396686,0.27245 0.5961646,0.965 0.7900483,1.34502 l 0.12349,0.0383 c -0.018942,-0.2853 -0.060622,-0.43131 -0.1314774,-0.67937 -0.056604,-0.1979 -0.1234107,-0.38188 -0.1989508,-0.55323 z" />
      <path
         id="path210315"
         style="fill:#34a000;fill-opacity:0.996078;fill-rule:evenodd;stroke:none;stroke-width:0.264582px;stroke-linecap:butt;stroke-linejoin:miter;stroke-opacity:1"
         d="m 15.152188,280.83891 -2.69e-4,3.5e-4 c 0,0 -1.586557,0.22764 -2.296373,0.52796 -0.819465,0.34674 -1.560623,0.78806 -2.289106,1.29902 -0.396751,0.35653 -0.729469,0.81872 -1.0177096,1.2466 l -0.072574,-0.0732 c 0.3811089,-2.65339 2.7077896,-3.38236 5.6760316,-3.00073 z"
         sodipodi:nodetypes="ccscccc" />
      <path
         id="path210317"
         style="fill:#2e8604;fill-opacity:1;fill-rule:evenodd;stroke:none;stroke-width:0.264582px;stroke-linecap:butt;stroke-linejoin:miter;stroke-opacity:1"
         d="m 10.207569,282.70931 c 0.747307,-0.97748 1.708607,-1.38265 2.520312,-1.64241 0.803682,-0.2572 1.528987,-0.2004 2.424038,-0.22768 -1.611378,0.49081 -3.132501,0.92155 -4.296914,1.86023 -0.319418,0.22402 -0.8672731,0.85744 -1.1660816,1.20545 l -0.1387369,0.009 c 0.092022,-0.29333 0.1725416,-0.43535 0.3093861,-0.67662 0.1092472,-0.19247 0.2256404,-0.3678 0.3479574,-0.52773 z" />
      <path
         id="path210319"
         style="fill:#34a000;fill-opacity:0.996078;fill-rule:evenodd;stroke:none;stroke-width:0.264582px;stroke-linecap:butt;stroke-linejoin:miter;stroke-opacity:1"
         d="m 15.564812,287.43963 -4.81e-4,-7e-5 c 0,0 -1.08895,-1.38535 -1.7651,-1.89605 -0.780626,-0.58956 -1.608247,-1.05258 -2.495203,-1.46523 -0.557556,-0.18173 -1.180505,-0.24441 -1.7463364,-0.2836 l 0.029794,-0.10928 c 2.8027384,-0.78117 4.7007264,0.39198 5.9773264,3.75423 z"
         sodipodi:nodetypes="ccscccc" />
      <path
         id="path210321"
         style="fill:#2e8604;fill-opacity:1;fill-rule:evenodd;stroke:none;stroke-width:0.264582px;stroke-linecap:butt;stroke-linejoin:miter;stroke-opacity:1"
         d="m 11.065693,283.76031 c 1.341461,0.17411 2.25569,0.86659 2.949239,1.49657 0.686701,0.62376 1.031366,1.34553 1.549399,2.18268 -1.35315,-1.26432 -2.59949,-2.47571 -4.133318,-3.06828 -0.388884,-0.18094 -1.293128,-0.35431 -1.788728,-0.44747 l -0.08484,-0.12714 c 0.3298587,-0.0736 0.509337,-0.0751 0.814273,-0.0774 0.243304,-0.003 0.474217,0.0126 0.693724,0.0411 z" />
      <path
         id="path210323"
         style="fill:#34a000;fill-opacity:0.996078;fill-rule:evenodd;stroke:none;stroke-width:0.264582px;stroke-linecap:butt;stroke-linejoin:miter;stroke-opacity:1"
         d="m 16.985834,283.35081 -4.83e-4,2.2e-4 c 0,0 -1.700725,-0.50904 -2.581795,-0.54049 -1.017189,-0.0363 -2.014507,0.0572 -3.041497,0.22546 -0.606708,0.16901 -1.214309,0.47216 -1.7573183,0.76196 l -0.027147,-0.10594 c 1.7886123,-2.20161 4.1462693,-2.32452 7.4082403,-0.34121 z"
         sodipodi:nodetypes="ccscccc" />
      <path
         id="path210325"
         style="fill:#2e8604;fill-opacity:1;fill-rule:evenodd;stroke:none;stroke-width:0.264582px;stroke-linecap:butt;stroke-linejoin:miter;stroke-opacity:1"
         d="m 10.982435,282.91257 c 1.328009,-0.62091 2.520292,-0.57679 3.477168,-0.45809 0.947427,0.11753 1.627531,0.50935 2.525748,0.89655 -1.884524,-0.26025 -3.643762,-0.53814 -5.359166,-0.14862 -0.450288,0.0738 -1.373494,0.4467 -1.8785609,0.65261 l -0.1421161,-0.0553 c 0.2682542,-0.24752 0.433539,-0.35076 0.714453,-0.52601 0.224008,-0.14004 0.444987,-0.25932 0.662275,-0.36095 z" />
      <path
         id="path210327"
         style="fill:#34a000;fill-opacity:0.996078;fill-rule:evenodd;stroke:none;stroke-width:0.264582px;stroke-linecap:butt;stroke-linejoin:miter;stroke-opacity:1"
         d="m 2.0204323,283.18544 4.83e-4,2.2e-4 c 0,0 1.7007245,-0.50904 2.5817945,-0.54049 1.017189,-0.0363 2.014507,0.0572 3.041497,0.22546 0.606708,0.16901 1.2143083,0.47216 1.7573179,0.76196 l 0.02715,-0.10594 C 8.3142015,281.454 5.3072203,280.88374 2.0204323,283.18544 Z"
         sodipodi:nodetypes="ccscccc" />
      <path
         id="path210329"
         style="fill:#2e8604;fill-opacity:1;fill-rule:evenodd;stroke:none;stroke-width:0.264582px;stroke-linecap:butt;stroke-linejoin:miter;stroke-opacity:1"
         d="m 8.0238308,282.7472 c -1.328009,-0.62091 -2.520292,-0.57679 -3.477168,-0.45809 -0.947427,0.11753 -1.627531,0.50935 -2.5257475,0.89655 1.8845235,-0.26025 3.6437615,-0.53814 5.3591655,-0.14862 0.450288,0.0738 1.373494,0.4467 1.8785605,0.65261 l 0.1421164,-0.0553 c -0.2682545,-0.24752 -0.4335391,-0.35076 -0.7144529,-0.52601 -0.224008,-0.14004 -0.444987,-0.25932 -0.662275,-0.36095 z" />
      <path
         id="path210331"
         style="fill:#34a000;fill-opacity:0.996078;fill-rule:evenodd;stroke:none;stroke-width:0.264582px;stroke-linecap:butt;stroke-linejoin:miter;stroke-opacity:1"
         d="m 6.6642918,287.7486 2.879e-4,-1.9e-4 c 0,0 0.3069966,-1.11235 0.5939406,-1.6084 0.3312796,-0.57269 0.727176,-1.08961 1.1744884,-1.59705 0.3025879,-0.27575 0.6793528,-0.50566 1.0264608,-0.7046 l -0.048964,-0.0516 c -1.9677585,0.57212 -3.3729602,2.22176 -2.7462137,3.96184 z"
         sodipodi:nodetypes="ccscccc" />
      <path
         id="path210333"
         style="fill:#2e8604;fill-opacity:1;fill-rule:evenodd;stroke:none;stroke-width:0.264582px;stroke-linecap:butt;stroke-linejoin:miter;stroke-opacity:1"
         d="m 8.496135,284.29128 c -0.800532,0.51689 -1.1879711,1.1887 -1.4530462,1.75663 -0.2624563,0.56232 -0.2815496,1.07215 -0.3785087,1.7005 0.5074735,-1.12765 0.9619675,-2.1924 1.7688569,-3.00254 0.1961401,-0.22248 0.7203046,-0.6021 1.0081126,-0.80912 l 0.018625,-0.0974 c -0.2289428,0.0623 -0.3428738,0.11761 -0.5363903,0.21179 -0.1544755,0.075 -0.2964726,0.15549 -0.4274756,0.24006 z" />
      <path
         id="path211612"
         style="fill:#34a000;fill-opacity:0.996078;fill-rule:evenodd;stroke:none;stroke-width:0.264582px;stroke-linecap:butt;stroke-linejoin:miter;stroke-opacity:1"
         d="m 8.7868469,280.05001 c 0.574478,1.21958 0.5864481,2.39069 0.6808211,3.65104 l 0.055683,-0.0181 c 0.4059141,-1.37803 0.3553941,-2.15638 -0.736504,-3.63304 z"
         sodipodi:nodetypes="ccccc" />
      <path
         id="path211614"
         style="fill:#2e8604;fill-opacity:1;fill-rule:evenodd;stroke:none;stroke-width:0.264582px;stroke-linecap:butt;stroke-linejoin:miter;stroke-opacity:1"
         d="m 8.806174,280.07302 c 0.2489085,1.4053 0.3573652,2.25164 0.5948297,3.57972 l 0.065644,0.0485 c 0.2964403,-1.0873 -0.1102824,-2.57941 -0.6604738,-3.62817 z"
         sodipodi:nodetypes="cccc" />
      <path
         id="path213545"
         style="fill:#34a000;fill-opacity:0.996078;fill-rule:evenodd;stroke:none;stroke-width:0.264582px;stroke-linecap:butt;stroke-linejoin:miter;stroke-opacity:1"
         d="m 12.030477,286.64276 c -0.586036,-1.21406 -1.488488,-1.96054 -2.408412,-2.82721 l 0.049113,-0.0319 c 1.326278,0.55201 1.899278,1.08121 2.359375,2.85915 z"
         sodipodi:nodetypes="ccccc" />
      <path
         id="path213547"
         style="fill:#2e8604;fill-opacity:1;fill-rule:evenodd;stroke:none;stroke-width:0.264582px;stroke-linecap:butt;stroke-linejoin:miter;stroke-opacity:1"
         d="m 12.024763,286.61326 c -0.93528,-1.07799 -1.524641,-1.69501 -2.407123,-2.7155 l 0.00363,-0.0815 c 1.031463,0.45408 1.934859,1.70934 2.40345,2.79701 z"
         sodipodi:nodetypes="cccc" />
      <g
         id="g232117"
         transform="matrix(-0.35104248,-0.93635953,-0.93635953,0.35104248,286.22813,199.45906)">
        <path
           style="fill:#dcd238;fill-opacity:1;fill-rule:evenodd;stroke:none;stroke-width:0.264583px;stroke-linecap:butt;stroke-linejoin:miter;stroke-opacity:1"
           d="m 13.617773,288.51159 -0.206705,0.16536 c 0,0 0.269185,0.73844 0.578776,0.93431 0.375001,0.23726 0.883067,0.26544 1.322916,0.20671 0.340899,-0.0455 0.959115,-0.43822 0.959115,-0.43822 l -0.14056,-0.28939 c 0,0 -0.540368,0.11196 -0.810286,0.0827 -0.421111,-0.0456 -0.83888,-0.18764 -1.207162,-0.39689 -0.146076,-0.083 -0.496094,-0.26458 -0.496094,-0.26458 z"
           id="path232113"
           sodipodi:nodetypes="ccssccssc" />
        <path
           id="path232115"
           style="fill:#bcb22f;fill-opacity:1;fill-rule:evenodd;stroke:none;stroke-width:0.999999px;stroke-linecap:butt;stroke-linejoin:miter;stroke-opacity:1"
           d="m 51.224609,1090.6328 -0.537109,0.4297 c 0,0 1.017392,2.791 2.1875,3.5313 1.417327,0.8967 3.337579,1.0032 5,0.7812 1.288437,-0.172 3.625,-1.6562 3.625,-1.6562 l -0.244141,-0.502 c -0.05604,0.019 -0.110463,0.038 -0.167968,0.057 -0.126835,0.042 -0.256371,0.083 -0.388672,0.125 -0.06615,0.021 -0.132134,0.042 -0.199219,0.062 -0.06708,0.021 -0.135395,0.042 -0.203125,0.062 -0.06773,0.02 -0.135038,0.039 -0.203125,0.059 -0.06809,0.02 -0.136922,0.039 -0.205078,0.059 -0.06816,0.019 -0.135189,0.038 -0.203125,0.057 -0.06794,0.018 -0.135698,0.035 -0.203125,0.053 -0.06743,0.017 -0.134542,0.034 -0.201172,0.051 -0.06663,0.016 -0.133674,0.032 -0.199219,0.047 -0.06555,0.015 -0.131142,0.029 -0.195312,0.043 -0.06417,0.014 -0.126945,0.027 -0.189453,0.039 -0.06251,0.012 -0.123037,0.023 -0.183594,0.033 -0.06056,0.01 -0.12137,0.021 -0.179688,0.029 -0.05832,0.01 -0.114132,0.015 -0.169922,0.022 -0.05579,0.01 -0.11109,0.013 -0.164062,0.017 -0.08353,0.01 -0.167492,0.015 -0.251953,0.022 -0.08446,0.01 -0.168709,0.012 -0.253906,0.018 -0.0852,0.01 -0.172078,0.011 -0.257813,0.016 -0.08573,0 -0.171738,0.01 -0.257812,0.01 -0.08608,0 -0.171597,0.01 -0.257813,0.01 -0.04311,6e-4 -0.0858,-10e-5 -0.128906,0 -0.04311,10e-5 -0.08583,5e-4 -0.128906,0 -0.04308,-4e-4 -0.08783,-9e-4 -0.13086,0 -0.04303,0 -0.08595,0 -0.128906,0 -0.04295,0 -0.0841,0 -0.126953,-0.01 -0.04285,0 -0.08618,0 -0.128906,-0.01 -0.04272,0 -0.08633,-0.01 -0.128907,-0.01 -0.04257,0 -0.08455,-0.01 -0.126953,-0.012 -0.0424,0 -0.08476,-0.01 -0.126953,-0.016 -0.0422,-0.01 -0.08498,-0.012 -0.126953,-0.018 -0.04197,-0.01 -0.08328,-0.013 -0.125,-0.019 -0.04172,-0.01 -0.08355,-0.014 -0.125,-0.022 -0.04145,-0.01 -0.0819,-0.017 -0.123047,-0.025 -0.04115,-0.01 -0.08222,-0.017 -0.123047,-0.027 -0.04082,-0.01 -0.08257,-0.02 -0.123047,-0.031 -0.04048,-0.011 -0.07904,-0.021 -0.11914,-0.033 -0.0401,-0.012 -0.08139,-0.026 -0.121094,-0.039 -0.0397,-0.013 -0.07791,-0.025 -0.117187,-0.039 -0.03928,-0.014 -0.07836,-0.03 -0.117188,-0.045 -0.03883,-0.015 -0.07883,-0.03 -0.117188,-0.047 -0.03836,-0.016 -0.07542,-0.035 -0.113281,-0.053 -0.03786,-0.018 -0.07594,-0.036 -0.113281,-0.055 -0.02094,-0.011 -0.0414,-0.022 -0.0625,-0.033 -0.0211,-0.012 -0.0432,-0.024 -0.06445,-0.037 -0.02125,-0.013 -0.04307,-0.026 -0.06445,-0.039 -0.02138,-0.013 -0.04295,-0.027 -0.06445,-0.041 -0.0215,-0.014 -0.04285,-0.028 -0.06445,-0.043 -0.0216,-0.015 -0.04277,-0.031 -0.06445,-0.047 -0.02169,-0.016 -0.0427,-0.032 -0.06445,-0.049 -0.02176,-0.017 -0.04459,-0.034 -0.06641,-0.051 -0.04362,-0.034 -0.08711,-0.07 -0.130859,-0.1074 -0.04375,-0.037 -0.08711,-0.076 -0.13086,-0.1153 -0.04375,-0.039 -0.08723,-0.08 -0.130859,-0.121 -0.04362,-0.042 -0.08749,-0.084 -0.130859,-0.127 -0.04337,-0.043 -0.08591,-0.088 -0.128907,-0.1328 -0.043,-0.045 -0.0864,-0.089 -0.128906,-0.1348 -0.0425,-0.046 -0.08507,-0.092 -0.126953,-0.1386 -0.04188,-0.047 -0.08387,-0.095 -0.125,-0.1426 -0.04113,-0.047 -0.08084,-0.093 -0.121094,-0.1406 -0.04026,-0.048 -0.07988,-0.097 -0.11914,-0.1446 -0.03926,-0.048 -0.07905,-0.095 -0.117188,-0.1426 -0.03814,-0.047 -0.07444,-0.094 -0.111328,-0.1406 -0.03689,-0.047 -0.07385,-0.094 -0.109375,-0.1406 -0.03552,-0.046 -0.06949,-0.092 -0.103516,-0.1367 -0.06805,-0.09 -0.133989,-0.1778 -0.195312,-0.2617 -0.06132,-0.084 -0.11828,-0.1627 -0.171875,-0.2383 -0.0536,-0.076 -0.103567,-0.1479 -0.148438,-0.2129 -0.01093,-0.016 -0.01892,-0.028 -0.0293,-0.043 z"
           transform="scale(0.26458333)" />
      </g>
      <g
         id="g232099"
         transform="rotate(-66.279343,9.9631634,292.49827)">
        <path
           style="fill:#dcd238;fill-opacity:1;fill-rule:evenodd;stroke:none;stroke-width:0.264583px;stroke-linecap:butt;stroke-linejoin:miter;stroke-opacity:1"
           d="m 13.617773,288.51159 -0.206705,0.16536 c 0,0 0.269185,0.73844 0.578776,0.93431 0.375001,0.23726 0.883067,0.26544 1.322916,0.20671 0.340899,-0.0455 0.959115,-0.43822 0.959115,-0.43822 l -0.14056,-0.28939 c 0,0 -0.540368,0.11196 -0.810286,0.0827 -0.421111,-0.0456 -0.83888,-0.18764 -1.207162,-0.39689 -0.146076,-0.083 -0.496094,-0.26458 -0.496094,-0.26458 z"
           id="path232095"
           sodipodi:nodetypes="ccssccssc" />
        <path
           id="path232097"
           style="fill:#bcb22f;fill-opacity:1;fill-rule:evenodd;stroke:none;stroke-width:0.999999px;stroke-linecap:butt;stroke-linejoin:miter;stroke-opacity:1"
           d="m 51.224609,1090.6328 -0.537109,0.4297 c 0,0 1.017392,2.791 2.1875,3.5313 1.417327,0.8967 3.337579,1.0032 5,0.7812 1.288437,-0.172 3.625,-1.6562 3.625,-1.6562 l -0.244141,-0.502 c -0.05604,0.019 -0.110463,0.038 -0.167968,0.057 -0.126835,0.042 -0.256371,0.083 -0.388672,0.125 -0.06615,0.021 -0.132134,0.042 -0.199219,0.062 -0.06708,0.021 -0.135395,0.042 -0.203125,0.062 -0.06773,0.02 -0.135038,0.039 -0.203125,0.059 -0.06809,0.02 -0.136922,0.039 -0.205078,0.059 -0.06816,0.019 -0.135189,0.038 -0.203125,0.057 -0.06794,0.018 -0.135698,0.035 -0.203125,0.053 -0.06743,0.017 -0.134542,0.034 -0.201172,0.051 -0.06663,0.016 -0.133674,0.032 -0.199219,0.047 -0.06555,0.015 -0.131142,0.029 -0.195312,0.043 -0.06417,0.014 -0.126945,0.027 -0.189453,0.039 -0.06251,0.012 -0.123037,0.023 -0.183594,0.033 -0.06056,0.01 -0.12137,0.021 -0.179688,0.029 -0.05832,0.01 -0.114132,0.015 -0.169922,0.022 -0.05579,0.01 -0.11109,0.013 -0.164062,0.017 -0.08353,0.01 -0.167492,0.015 -0.251953,0.022 -0.08446,0.01 -0.168709,0.012 -0.253906,0.018 -0.0852,0.01 -0.172078,0.011 -0.257813,0.016 -0.08573,0 -0.171738,0.01 -0.257812,0.01 -0.08608,0 -0.171597,0.01 -0.257813,0.01 -0.04311,6e-4 -0.0858,-10e-5 -0.128906,0 -0.04311,10e-5 -0.08583,5e-4 -0.128906,0 -0.04308,-4e-4 -0.08783,-9e-4 -0.13086,0 -0.04303,0 -0.08595,0 -0.128906,0 -0.04295,0 -0.0841,0 -0.126953,-0.01 -0.04285,0 -0.08618,0 -0.128906,-0.01 -0.04272,0 -0.08633,-0.01 -0.128907,-0.01 -0.04257,0 -0.08455,-0.01 -0.126953,-0.012 -0.0424,0 -0.08476,-0.01 -0.126953,-0.016 -0.0422,-0.01 -0.08498,-0.012 -0.126953,-0.018 -0.04197,-0.01 -0.08328,-0.013 -0.125,-0.019 -0.04172,-0.01 -0.08355,-0.014 -0.125,-0.022 -0.04145,-0.01 -0.0819,-0.017 -0.123047,-0.025 -0.04115,-0.01 -0.08222,-0.017 -0.123047,-0.027 -0.04082,-0.01 -0.08257,-0.02 -0.123047,-0.031 -0.04048,-0.011 -0.07904,-0.021 -0.11914,-0.033 -0.0401,-0.012 -0.08139,-0.026 -0.121094,-0.039 -0.0397,-0.013 -0.07791,-0.025 -0.117187,-0.039 -0.03928,-0.014 -0.07836,-0.03 -0.117188,-0.045 -0.03883,-0.015 -0.07883,-0.03 -0.117188,-0.047 -0.03836,-0.016 -0.07542,-0.035 -0.113281,-0.053 -0.03786,-0.018 -0.07594,-0.036 -0.113281,-0.055 -0.02094,-0.011 -0.0414,-0.022 -0.0625,-0.033 -0.0211,-0.012 -0.0432,-0.024 -0.06445,-0.037 -0.02125,-0.013 -0.04307,-0.026 -0.06445,-0.039 -0.02138,-0.013 -0.04295,-0.027 -0.06445,-0.041 -0.0215,-0.014 -0.04285,-0.028 -0.06445,-0.043 -0.0216,-0.015 -0.04277,-0.031 -0.06445,-0.047 -0.02169,-0.016 -0.0427,-0.032 -0.06445,-0.049 -0.02176,-0.017 -0.04459,-0.034 -0.06641,-0.051 -0.04362,-0.034 -0.08711,-0.07 -0.130859,-0.1074 -0.04375,-0.037 -0.08711,-0.076 -0.13086,-0.1153 -0.04375,-0.039 -0.08723,-0.08 -0.130859,-0.121 -0.04362,-0.042 -0.08749,-0.084 -0.130859,-0.127 -0.04337,-0.043 -0.08591,-0.088 -0.128907,-0.1328 -0.043,-0.045 -0.0864,-0.089 -0.128906,-0.1348 -0.0425,-0.046 -0.08507,-0.092 -0.126953,-0.1386 -0.04188,-0.047 -0.08387,-0.095 -0.125,-0.1426 -0.04113,-0.047 -0.08084,-0.093 -0.121094,-0.1406 -0.04026,-0.048 -0.07988,-0.097 -0.11914,-0.1446 -0.03926,-0.048 -0.07905,-0.095 -0.117188,-0.1426 -0.03814,-0.047 -0.07444,-0.094 -0.111328,-0.1406 -0.03689,-0.047 -0.07385,-0.094 -0.109375,-0.1406 -0.03552,-0.046 -0.06949,-0.092 -0.103516,-0.1367 -0.06805,-0.09 -0.133989,-0.1778 -0.195312,-0.2617 -0.06132,-0.084 -0.11828,-0.1627 -0.171875,-0.2383 -0.0536,-0.076 -0.103567,-0.1479 -0.148438,-0.2129 -0.01093,-0.016 -0.01892,-0.028 -0.0293,-0.043 z"
           transform="scale(0.26458333)" />
      </g>
      <g
         id="g232111"
         transform="matrix(-0.59307471,-0.80514743,-0.80514743,0.59307471,252.02752,126.56921)">
        <path
           style="fill:#dcd238;fill-opacity:1;fill-rule:evenodd;stroke:none;stroke-width:0.264583px;stroke-linecap:butt;stroke-linejoin:miter;stroke-opacity:1"
           d="m 13.617773,288.51159 -0.206705,0.16536 c 0,0 0.269185,0.73844 0.578776,0.93431 0.375001,0.23726 0.883067,0.26544 1.322916,0.20671 0.340899,-0.0455 0.959115,-0.43822 0.959115,-0.43822 l -0.14056,-0.28939 c 0,0 -0.540368,0.11196 -0.810286,0.0827 -0.421111,-0.0456 -0.83888,-0.18764 -1.207162,-0.39689 -0.146076,-0.083 -0.496094,-0.26458 -0.496094,-0.26458 z"
           id="path232107"
           sodipodi:nodetypes="ccssccssc" />
        <path
           id="path232109"
           style="fill:#bcb22f;fill-opacity:1;fill-rule:evenodd;stroke:none;stroke-width:0.999999px;stroke-linecap:butt;stroke-linejoin:miter;stroke-opacity:1"
           d="m 51.224609,1090.6328 -0.537109,0.4297 c 0,0 1.017392,2.791 2.1875,3.5313 1.417327,0.8967 3.337579,1.0032 5,0.7812 1.288437,-0.172 3.625,-1.6562 3.625,-1.6562 l -0.244141,-0.502 c -0.05604,0.019 -0.110463,0.038 -0.167968,0.057 -0.126835,0.042 -0.256371,0.083 -0.388672,0.125 -0.06615,0.021 -0.132134,0.042 -0.199219,0.062 -0.06708,0.021 -0.135395,0.042 -0.203125,0.062 -0.06773,0.02 -0.135038,0.039 -0.203125,0.059 -0.06809,0.02 -0.136922,0.039 -0.205078,0.059 -0.06816,0.019 -0.135189,0.038 -0.203125,0.057 -0.06794,0.018 -0.135698,0.035 -0.203125,0.053 -0.06743,0.017 -0.134542,0.034 -0.201172,0.051 -0.06663,0.016 -0.133674,0.032 -0.199219,0.047 -0.06555,0.015 -0.131142,0.029 -0.195312,0.043 -0.06417,0.014 -0.126945,0.027 -0.189453,0.039 -0.06251,0.012 -0.123037,0.023 -0.183594,0.033 -0.06056,0.01 -0.12137,0.021 -0.179688,0.029 -0.05832,0.01 -0.114132,0.015 -0.169922,0.022 -0.05579,0.01 -0.11109,0.013 -0.164062,0.017 -0.08353,0.01 -0.167492,0.015 -0.251953,0.022 -0.08446,0.01 -0.168709,0.012 -0.253906,0.018 -0.0852,0.01 -0.172078,0.011 -0.257813,0.016 -0.08573,0 -0.171738,0.01 -0.257812,0.01 -0.08608,0 -0.171597,0.01 -0.257813,0.01 -0.04311,6e-4 -0.0858,-10e-5 -0.128906,0 -0.04311,10e-5 -0.08583,5e-4 -0.128906,0 -0.04308,-4e-4 -0.08783,-9e-4 -0.13086,0 -0.04303,0 -0.08595,0 -0.128906,0 -0.04295,0 -0.0841,0 -0.126953,-0.01 -0.04285,0 -0.08618,0 -0.128906,-0.01 -0.04272,0 -0.08633,-0.01 -0.128907,-0.01 -0.04257,0 -0.08455,-0.01 -0.126953,-0.012 -0.0424,0 -0.08476,-0.01 -0.126953,-0.016 -0.0422,-0.01 -0.08498,-0.012 -0.126953,-0.018 -0.04197,-0.01 -0.08328,-0.013 -0.125,-0.019 -0.04172,-0.01 -0.08355,-0.014 -0.125,-0.022 -0.04145,-0.01 -0.0819,-0.017 -0.123047,-0.025 -0.04115,-0.01 -0.08222,-0.017 -0.123047,-0.027 -0.04082,-0.01 -0.08257,-0.02 -0.123047,-0.031 -0.04048,-0.011 -0.07904,-0.021 -0.11914,-0.033 -0.0401,-0.012 -0.08139,-0.026 -0.121094,-0.039 -0.0397,-0.013 -0.07791,-0.025 -0.117187,-0.039 -0.03928,-0.014 -0.07836,-0.03 -0.117188,-0.045 -0.03883,-0.015 -0.07883,-0.03 -0.117188,-0.047 -0.03836,-0.016 -0.07542,-0.035 -0.113281,-0.053 -0.03786,-0.018 -0.07594,-0.036 -0.113281,-0.055 -0.02094,-0.011 -0.0414,-0.022 -0.0625,-0.033 -0.0211,-0.012 -0.0432,-0.024 -0.06445,-0.037 -0.02125,-0.013 -0.04307,-0.026 -0.06445,-0.039 -0.02138,-0.013 -0.04295,-0.027 -0.06445,-0.041 -0.0215,-0.014 -0.04285,-0.028 -0.06445,-0.043 -0.0216,-0.015 -0.04277,-0.031 -0.06445,-0.047 -0.02169,-0.016 -0.0427,-0.032 -0.06445,-0.049 -0.02176,-0.017 -0.04459,-0.034 -0.06641,-0.051 -0.04362,-0.034 -0.08711,-0.07 -0.130859,-0.1074 -0.04375,-0.037 -0.08711,-0.076 -0.13086,-0.1153 -0.04375,-0.039 -0.08723,-0.08 -0.130859,-0.121 -0.04362,-0.042 -0.08749,-0.084 -0.130859,-0.127 -0.04337,-0.043 -0.08591,-0.088 -0.128907,-0.1328 -0.043,-0.045 -0.0864,-0.089 -0.128906,-0.1348 -0.0425,-0.046 -0.08507,-0.092 -0.126953,-0.1386 -0.04188,-0.047 -0.08387,-0.095 -0.125,-0.1426 -0.04113,-0.047 -0.08084,-0.093 -0.121094,-0.1406 -0.04026,-0.048 -0.07988,-0.097 -0.11914,-0.1446 -0.03926,-0.048 -0.07905,-0.095 -0.117188,-0.1426 -0.03814,-0.047 -0.07444,-0.094 -0.111328,-0.1406 -0.03689,-0.047 -0.07385,-0.094 -0.109375,-0.1406 -0.03552,-0.046 -0.06949,-0.092 -0.103516,-0.1367 -0.06805,-0.09 -0.133989,-0.1778 -0.195312,-0.2617 -0.06132,-0.084 -0.11828,-0.1627 -0.171875,-0.2383 -0.0536,-0.076 -0.103567,-0.1479 -0.148438,-0.2129 -0.01093,-0.016 -0.01892,-0.028 -0.0293,-0.043 z"
           transform="scale(0.26458333)" />
      </g>
      <g
         id="g232093"
         transform="rotate(-54.251707,8.4814941,293.44131)">
        <path
           style="fill:#dcd238;fill-opacity:1;fill-rule:evenodd;stroke:none;stroke-width:0.264583px;stroke-linecap:butt;stroke-linejoin:miter;stroke-opacity:1"
           d="m 13.617773,288.51159 -0.206705,0.16536 c 0,0 0.269185,0.73844 0.578776,0.93431 0.375001,0.23726 0.883067,0.26544 1.322916,0.20671 0.340899,-0.0455 0.959115,-0.43822 0.959115,-0.43822 l -0.14056,-0.28939 c 0,0 -0.540368,0.11196 -0.810286,0.0827 -0.421111,-0.0456 -0.83888,-0.18764 -1.207162,-0.39689 -0.146076,-0.083 -0.496094,-0.26458 -0.496094,-0.26458 z"
           id="path232089"
           sodipodi:nodetypes="ccssccssc" />
        <path
           id="path232091"
           style="fill:#bcb22f;fill-opacity:1;fill-rule:evenodd;stroke:none;stroke-width:0.999999px;stroke-linecap:butt;stroke-linejoin:miter;stroke-opacity:1"
           d="m 51.224609,1090.6328 -0.537109,0.4297 c 0,0 1.017392,2.791 2.1875,3.5313 1.417327,0.8967 3.337579,1.0032 5,0.7812 1.288437,-0.172 3.625,-1.6562 3.625,-1.6562 l -0.244141,-0.502 c -0.05604,0.019 -0.110463,0.038 -0.167968,0.057 -0.126835,0.042 -0.256371,0.083 -0.388672,0.125 -0.06615,0.021 -0.132134,0.042 -0.199219,0.062 -0.06708,0.021 -0.135395,0.042 -0.203125,0.062 -0.06773,0.02 -0.135038,0.039 -0.203125,0.059 -0.06809,0.02 -0.136922,0.039 -0.205078,0.059 -0.06816,0.019 -0.135189,0.038 -0.203125,0.057 -0.06794,0.018 -0.135698,0.035 -0.203125,0.053 -0.06743,0.017 -0.134542,0.034 -0.201172,0.051 -0.06663,0.016 -0.133674,0.032 -0.199219,0.047 -0.06555,0.015 -0.131142,0.029 -0.195312,0.043 -0.06417,0.014 -0.126945,0.027 -0.189453,0.039 -0.06251,0.012 -0.123037,0.023 -0.183594,0.033 -0.06056,0.01 -0.12137,0.021 -0.179688,0.029 -0.05832,0.01 -0.114132,0.015 -0.169922,0.022 -0.05579,0.01 -0.11109,0.013 -0.164062,0.017 -0.08353,0.01 -0.167492,0.015 -0.251953,0.022 -0.08446,0.01 -0.168709,0.012 -0.253906,0.018 -0.0852,0.01 -0.172078,0.011 -0.257813,0.016 -0.08573,0 -0.171738,0.01 -0.257812,0.01 -0.08608,0 -0.171597,0.01 -0.257813,0.01 -0.04311,6e-4 -0.0858,-10e-5 -0.128906,0 -0.04311,10e-5 -0.08583,5e-4 -0.128906,0 -0.04308,-4e-4 -0.08783,-9e-4 -0.13086,0 -0.04303,0 -0.08595,0 -0.128906,0 -0.04295,0 -0.0841,0 -0.126953,-0.01 -0.04285,0 -0.08618,0 -0.128906,-0.01 -0.04272,0 -0.08633,-0.01 -0.128907,-0.01 -0.04257,0 -0.08455,-0.01 -0.126953,-0.012 -0.0424,0 -0.08476,-0.01 -0.126953,-0.016 -0.0422,-0.01 -0.08498,-0.012 -0.126953,-0.018 -0.04197,-0.01 -0.08328,-0.013 -0.125,-0.019 -0.04172,-0.01 -0.08355,-0.014 -0.125,-0.022 -0.04145,-0.01 -0.0819,-0.017 -0.123047,-0.025 -0.04115,-0.01 -0.08222,-0.017 -0.123047,-0.027 -0.04082,-0.01 -0.08257,-0.02 -0.123047,-0.031 -0.04048,-0.011 -0.07904,-0.021 -0.11914,-0.033 -0.0401,-0.012 -0.08139,-0.026 -0.121094,-0.039 -0.0397,-0.013 -0.07791,-0.025 -0.117187,-0.039 -0.03928,-0.014 -0.07836,-0.03 -0.117188,-0.045 -0.03883,-0.015 -0.07883,-0.03 -0.117188,-0.047 -0.03836,-0.016 -0.07542,-0.035 -0.113281,-0.053 -0.03786,-0.018 -0.07594,-0.036 -0.113281,-0.055 -0.02094,-0.011 -0.0414,-0.022 -0.0625,-0.033 -0.0211,-0.012 -0.0432,-0.024 -0.06445,-0.037 -0.02125,-0.013 -0.04307,-0.026 -0.06445,-0.039 -0.02138,-0.013 -0.04295,-0.027 -0.06445,-0.041 -0.0215,-0.014 -0.04285,-0.028 -0.06445,-0.043 -0.0216,-0.015 -0.04277,-0.031 -0.06445,-0.047 -0.02169,-0.016 -0.0427,-0.032 -0.06445,-0.049 -0.02176,-0.017 -0.04459,-0.034 -0.06641,-0.051 -0.04362,-0.034 -0.08711,-0.07 -0.130859,-0.1074 -0.04375,-0.037 -0.08711,-0.076 -0.13086,-0.1153 -0.04375,-0.039 -0.08723,-0.08 -0.130859,-0.121 -0.04362,-0.042 -0.08749,-0.084 -0.130859,-0.127 -0.04337,-0.043 -0.08591,-0.088 -0.128907,-0.1328 -0.043,-0.045 -0.0864,-0.089 -0.128906,-0.1348 -0.0425,-0.046 -0.08507,-0.092 -0.126953,-0.1386 -0.04188,-0.047 -0.08387,-0.095 -0.125,-0.1426 -0.04113,-0.047 -0.08084,-0.093 -0.121094,-0.1406 -0.04026,-0.048 -0.07988,-0.097 -0.11914,-0.1446 -0.03926,-0.048 -0.07905,-0.095 -0.117188,-0.1426 -0.03814,-0.047 -0.07444,-0.094 -0.111328,-0.1406 -0.03689,-0.047 -0.07385,-0.094 -0.109375,-0.1406 -0.03552,-0.046 -0.06949,-0.092 -0.103516,-0.1367 -0.06805,-0.09 -0.133989,-0.1778 -0.195312,-0.2617 -0.06132,-0.084 -0.11828,-0.1627 -0.171875,-0.2383 -0.0536,-0.076 -0.103567,-0.1479 -0.148438,-0.2129 -0.01093,-0.016 -0.01892,-0.028 -0.0293,-0.043 z"
           transform="scale(0.26458333)" />
      </g>
      <g
         id="g231758"
         transform="matrix(-0.70492507,-0.70928178,-0.70928178,0.70492507,226.12015,91.683419)">
        <path
           style="fill:#dcd238;fill-opacity:1;fill-rule:evenodd;stroke:none;stroke-width:0.264583px;stroke-linecap:butt;stroke-linejoin:miter;stroke-opacity:1"
           d="m 13.617773,288.51159 -0.206705,0.16536 c 0,0 0.269185,0.73844 0.578776,0.93431 0.375001,0.23726 0.883067,0.26544 1.322916,0.20671 0.340899,-0.0455 0.959115,-0.43822 0.959115,-0.43822 l -0.14056,-0.28939 c 0,0 -0.540368,0.11196 -0.810286,0.0827 -0.421111,-0.0456 -0.83888,-0.18764 -1.207162,-0.39689 -0.146076,-0.083 -0.496094,-0.26458 -0.496094,-0.26458 z"
           id="path230605"
           sodipodi:nodetypes="ccssccssc" />
        <path
           id="path230931"
           style="fill:#bcb22f;fill-opacity:1;fill-rule:evenodd;stroke:none;stroke-width:0.999999px;stroke-linecap:butt;stroke-linejoin:miter;stroke-opacity:1"
           d="m 51.224609,1090.6328 -0.537109,0.4297 c 0,0 1.017392,2.791 2.1875,3.5313 1.417327,0.8967 3.337579,1.0032 5,0.7812 1.288437,-0.172 3.625,-1.6562 3.625,-1.6562 l -0.244141,-0.502 c -0.05604,0.019 -0.110463,0.038 -0.167968,0.057 -0.126835,0.042 -0.256371,0.083 -0.388672,0.125 -0.06615,0.021 -0.132134,0.042 -0.199219,0.062 -0.06708,0.021 -0.135395,0.042 -0.203125,0.062 -0.06773,0.02 -0.135038,0.039 -0.203125,0.059 -0.06809,0.02 -0.136922,0.039 -0.205078,0.059 -0.06816,0.019 -0.135189,0.038 -0.203125,0.057 -0.06794,0.018 -0.135698,0.035 -0.203125,0.053 -0.06743,0.017 -0.134542,0.034 -0.201172,0.051 -0.06663,0.016 -0.133674,0.032 -0.199219,0.047 -0.06555,0.015 -0.131142,0.029 -0.195312,0.043 -0.06417,0.014 -0.126945,0.027 -0.189453,0.039 -0.06251,0.012 -0.123037,0.023 -0.183594,0.033 -0.06056,0.01 -0.12137,0.021 -0.179688,0.029 -0.05832,0.01 -0.114132,0.015 -0.169922,0.022 -0.05579,0.01 -0.11109,0.013 -0.164062,0.017 -0.08353,0.01 -0.167492,0.015 -0.251953,0.022 -0.08446,0.01 -0.168709,0.012 -0.253906,0.018 -0.0852,0.01 -0.172078,0.011 -0.257813,0.016 -0.08573,0 -0.171738,0.01 -0.257812,0.01 -0.08608,0 -0.171597,0.01 -0.257813,0.01 -0.04311,6e-4 -0.0858,-10e-5 -0.128906,0 -0.04311,10e-5 -0.08583,5e-4 -0.128906,0 -0.04308,-4e-4 -0.08783,-9e-4 -0.13086,0 -0.04303,0 -0.08595,0 -0.128906,0 -0.04295,0 -0.0841,0 -0.126953,-0.01 -0.04285,0 -0.08618,0 -0.128906,-0.01 -0.04272,0 -0.08633,-0.01 -0.128907,-0.01 -0.04257,0 -0.08455,-0.01 -0.126953,-0.012 -0.0424,0 -0.08476,-0.01 -0.126953,-0.016 -0.0422,-0.01 -0.08498,-0.012 -0.126953,-0.018 -0.04197,-0.01 -0.08328,-0.013 -0.125,-0.019 -0.04172,-0.01 -0.08355,-0.014 -0.125,-0.022 -0.04145,-0.01 -0.0819,-0.017 -0.123047,-0.025 -0.04115,-0.01 -0.08222,-0.017 -0.123047,-0.027 -0.04082,-0.01 -0.08257,-0.02 -0.123047,-0.031 -0.04048,-0.011 -0.07904,-0.021 -0.11914,-0.033 -0.0401,-0.012 -0.08139,-0.026 -0.121094,-0.039 -0.0397,-0.013 -0.07791,-0.025 -0.117187,-0.039 -0.03928,-0.014 -0.07836,-0.03 -0.117188,-0.045 -0.03883,-0.015 -0.07883,-0.03 -0.117188,-0.047 -0.03836,-0.016 -0.07542,-0.035 -0.113281,-0.053 -0.03786,-0.018 -0.07594,-0.036 -0.113281,-0.055 -0.02094,-0.011 -0.0414,-0.022 -0.0625,-0.033 -0.0211,-0.012 -0.0432,-0.024 -0.06445,-0.037 -0.02125,-0.013 -0.04307,-0.026 -0.06445,-0.039 -0.02138,-0.013 -0.04295,-0.027 -0.06445,-0.041 -0.0215,-0.014 -0.04285,-0.028 -0.06445,-0.043 -0.0216,-0.015 -0.04277,-0.031 -0.06445,-0.047 -0.02169,-0.016 -0.0427,-0.032 -0.06445,-0.049 -0.02176,-0.017 -0.04459,-0.034 -0.06641,-0.051 -0.04362,-0.034 -0.08711,-0.07 -0.130859,-0.1074 -0.04375,-0.037 -0.08711,-0.076 -0.13086,-0.1153 -0.04375,-0.039 -0.08723,-0.08 -0.130859,-0.121 -0.04362,-0.042 -0.08749,-0.084 -0.130859,-0.127 -0.04337,-0.043 -0.08591,-0.088 -0.128907,-0.1328 -0.043,-0.045 -0.0864,-0.089 -0.128906,-0.1348 -0.0425,-0.046 -0.08507,-0.092 -0.126953,-0.1386 -0.04188,-0.047 -0.08387,-0.095 -0.125,-0.1426 -0.04113,-0.047 -0.08084,-0.093 -0.121094,-0.1406 -0.04026,-0.048 -0.07988,-0.097 -0.11914,-0.1446 -0.03926,-0.048 -0.07905,-0.095 -0.117188,-0.1426 -0.03814,-0.047 -0.07444,-0.094 -0.111328,-0.1406 -0.03689,-0.047 -0.07385,-0.094 -0.109375,-0.1406 -0.03552,-0.046 -0.06949,-0.092 -0.103516,-0.1367 -0.06805,-0.09 -0.133989,-0.1778 -0.195312,-0.2617 -0.06132,-0.084 -0.11828,-0.1627 -0.171875,-0.2383 -0.0536,-0.076 -0.103567,-0.1479 -0.148438,-0.2129 -0.01093,-0.016 -0.01892,-0.028 -0.0293,-0.043 z"
           transform="scale(0.26458333)" />
      </g>
      <g
         id="g232087"
         transform="matrix(0.50546702,-0.75705628,0.7021821,0.54496829,-201.73245,138.59803)"
         style="stroke-width:1.11314">
        <path
           style="fill:#dcd238;fill-opacity:1;fill-rule:evenodd;stroke:none;stroke-width:0.294517px;stroke-linecap:butt;stroke-linejoin:miter;stroke-opacity:1"
           d="m 13.617773,288.51159 -0.206705,0.16536 c 0,0 0.269185,0.73844 0.578776,0.93431 0.375001,0.23726 0.883067,0.26544 1.322916,0.20671 0.340899,-0.0455 0.959115,-0.43822 0.959115,-0.43822 l -0.14056,-0.28939 c 0,0 -0.540368,0.11196 -0.810286,0.0827 -0.421111,-0.0456 -0.83888,-0.18764 -1.207162,-0.39689 -0.146076,-0.083 -0.496094,-0.26458 -0.496094,-0.26458 z"
           id="path232083"
           sodipodi:nodetypes="ccssccssc" />
        <path
           id="path232085"
           style="fill:#bcb22f;fill-opacity:1;fill-rule:evenodd;stroke:none;stroke-width:1.11314px;stroke-linecap:butt;stroke-linejoin:miter;stroke-opacity:1"
           d="m 51.224609,1090.6328 -0.537109,0.4297 c 0,0 1.017392,2.791 2.1875,3.5313 1.417327,0.8967 3.337579,1.0032 5,0.7812 1.288437,-0.172 3.625,-1.6562 3.625,-1.6562 l -0.244141,-0.502 c -0.05604,0.019 -0.110463,0.038 -0.167968,0.057 -0.126835,0.042 -0.256371,0.083 -0.388672,0.125 -0.06615,0.021 -0.132134,0.042 -0.199219,0.062 -0.06708,0.021 -0.135395,0.042 -0.203125,0.062 -0.06773,0.02 -0.135038,0.039 -0.203125,0.059 -0.06809,0.02 -0.136922,0.039 -0.205078,0.059 -0.06816,0.019 -0.135189,0.038 -0.203125,0.057 -0.06794,0.018 -0.135698,0.035 -0.203125,0.053 -0.06743,0.017 -0.134542,0.034 -0.201172,0.051 -0.06663,0.016 -0.133674,0.032 -0.199219,0.047 -0.06555,0.015 -0.131142,0.029 -0.195312,0.043 -0.06417,0.014 -0.126945,0.027 -0.189453,0.039 -0.06251,0.012 -0.123037,0.023 -0.183594,0.033 -0.06056,0.01 -0.12137,0.021 -0.179688,0.029 -0.05832,0.01 -0.114132,0.015 -0.169922,0.022 -0.05579,0.01 -0.11109,0.013 -0.164062,0.017 -0.08353,0.01 -0.167492,0.015 -0.251953,0.022 -0.08446,0.01 -0.168709,0.012 -0.253906,0.018 -0.0852,0.01 -0.172078,0.011 -0.257813,0.016 -0.08573,0 -0.171738,0.01 -0.257812,0.01 -0.08608,0 -0.171597,0.01 -0.257813,0.01 -0.04311,6e-4 -0.0858,-10e-5 -0.128906,0 -0.04311,10e-5 -0.08583,5e-4 -0.128906,0 -0.04308,-4e-4 -0.08783,-9e-4 -0.13086,0 -0.04303,0 -0.08595,0 -0.128906,0 -0.04295,0 -0.0841,0 -0.126953,-0.01 -0.04285,0 -0.08618,0 -0.128906,-0.01 -0.04272,0 -0.08633,-0.01 -0.128907,-0.01 -0.04257,0 -0.08455,-0.01 -0.126953,-0.012 -0.0424,0 -0.08476,-0.01 -0.126953,-0.016 -0.0422,-0.01 -0.08498,-0.012 -0.126953,-0.018 -0.04197,-0.01 -0.08328,-0.013 -0.125,-0.019 -0.04172,-0.01 -0.08355,-0.014 -0.125,-0.022 -0.04145,-0.01 -0.0819,-0.017 -0.123047,-0.025 -0.04115,-0.01 -0.08222,-0.017 -0.123047,-0.027 -0.04082,-0.01 -0.08257,-0.02 -0.123047,-0.031 -0.04048,-0.011 -0.07904,-0.021 -0.11914,-0.033 -0.0401,-0.012 -0.08139,-0.026 -0.121094,-0.039 -0.0397,-0.013 -0.07791,-0.025 -0.117187,-0.039 -0.03928,-0.014 -0.07836,-0.03 -0.117188,-0.045 -0.03883,-0.015 -0.07883,-0.03 -0.117188,-0.047 -0.03836,-0.016 -0.07542,-0.035 -0.113281,-0.053 -0.03786,-0.018 -0.07594,-0.036 -0.113281,-0.055 -0.02094,-0.011 -0.0414,-0.022 -0.0625,-0.033 -0.0211,-0.012 -0.0432,-0.024 -0.06445,-0.037 -0.02125,-0.013 -0.04307,-0.026 -0.06445,-0.039 -0.02138,-0.013 -0.04295,-0.027 -0.06445,-0.041 -0.0215,-0.014 -0.04285,-0.028 -0.06445,-0.043 -0.0216,-0.015 -0.04277,-0.031 -0.06445,-0.047 -0.02169,-0.016 -0.0427,-0.032 -0.06445,-0.049 -0.02176,-0.017 -0.04459,-0.034 -0.06641,-0.051 -0.04362,-0.034 -0.08711,-0.07 -0.130859,-0.1074 -0.04375,-0.037 -0.08711,-0.076 -0.13086,-0.1153 -0.04375,-0.039 -0.08723,-0.08 -0.130859,-0.121 -0.04362,-0.042 -0.08749,-0.084 -0.130859,-0.127 -0.04337,-0.043 -0.08591,-0.088 -0.128907,-0.1328 -0.043,-0.045 -0.0864,-0.089 -0.128906,-0.1348 -0.0425,-0.046 -0.08507,-0.092 -0.126953,-0.1386 -0.04188,-0.047 -0.08387,-0.095 -0.125,-0.1426 -0.04113,-0.047 -0.08084,-0.093 -0.121094,-0.1406 -0.04026,-0.048 -0.07988,-0.097 -0.11914,-0.1446 -0.03926,-0.048 -0.07905,-0.095 -0.117188,-0.1426 -0.03814,-0.047 -0.07444,-0.094 -0.111328,-0.1406 -0.03689,-0.047 -0.07385,-0.094 -0.109375,-0.1406 -0.03552,-0.046 -0.06949,-0.092 -0.103516,-0.1367 -0.06805,-0.09 -0.133989,-0.1778 -0.195312,-0.2617 -0.06132,-0.084 -0.11828,-0.1627 -0.171875,-0.2383 -0.0536,-0.076 -0.103567,-0.1479 -0.148438,-0.2129 -0.01093,-0.016 -0.01892,-0.028 -0.0293,-0.043 z"
           transform="scale(0.26458333)" />
      </g>
    </g>
  </g>
</svg>
