<?xml version="1.0" encoding="UTF-8" standalone="no"?>
<!-- Created with Inkscape (http://www.inkscape.org/) -->

<svg
   width="64"
   height="64"
   viewBox="0 0 16.933333 16.933334"
   version="1.1"
   id="svg930"
   inkscape:version="1.1.1 (3bf5ae0d25, 2021-09-20)"
   sodipodi:docname="banana_0.svg"
   xmlns:inkscape="http://www.inkscape.org/namespaces/inkscape"
   xmlns:sodipodi="http://sodipodi.sourceforge.net/DTD/sodipodi-0.dtd"
   xmlns="http://www.w3.org/2000/svg"
   xmlns:svg="http://www.w3.org/2000/svg">
  <sodipodi:namedview
     id="namedview932"
     pagecolor="#505050"
     bordercolor="#eeeeee"
     borderopacity="1"
     inkscape:pageshadow="0"
     inkscape:pageopacity="0"
     inkscape:pagecheckerboard="0"
     inkscape:document-units="px"
     showgrid="false"
     units="px"
     showguides="true"
     inkscape:guide-bbox="true"
     inkscape:zoom="4.192802"
     inkscape:cx="4.1738198"
     inkscape:cy="18.245555"
     inkscape:window-width="1920"
     inkscape:window-height="1017"
     inkscape:window-x="-8"
     inkscape:window-y="-8"
     inkscape:window-maximized="1"
     inkscape:current-layer="layer1">
    <sodipodi:guide
       position="5.5847199,1.2203923"
       orientation="0,-1"
       id="guide1233" />
    <sodipodi:guide
       position="8.0457829,15.608146"
       orientation="0,-1"
       id="guide1235" />
    <sodipodi:guide
       position="1.3567399,12.705354"
       orientation="1,0"
       id="guide1237" />
    <sodipodi:guide
       position="15.712941,5.9216538"
       orientation="1,0"
       id="guide1239" />
  </sodipodi:namedview>
  <defs
     id="defs927" />
  <g
     inkscape:label="Layer 1"
     inkscape:groupmode="layer"
     id="layer1">
    <g
       id="g202540"
       transform="translate(-1.0267362,-278.88856)">
      <path
         id="path198104"
         style="fill:#5e791d;fill-opacity:1;stroke:#202208;stroke-width:2;stroke-linecap:round;stroke-linejoin:round;stroke-miterlimit:4;stroke-dasharray:none;stroke-opacity:1;paint-order:fill markers stroke;stop-color:#000000"
         d="m 27.951172,1074.3027 c -0.329752,-4e-4 -0.533203,0.012 -0.533203,0.012 2.49127,1.5511 4.857054,2.9605 6.394531,5.0644 0.322322,0.3843 0.754162,1.2009 1.097656,1.8926 -0.717511,-0.2878 -1.608622,-0.5725 -2.222656,-0.5176 -2.026882,0.1814 -4.027015,1.3271 -5.417969,2.8125 -1.752154,1.8711 -3.08789,7.043 -3.08789,7.043 0,0 1.05189,-1.2355 2.121093,-2.4121 1.860975,-2.008 3.858977,-3.8307 5.992188,-4.959 0.518629,-0.3204 1.422539,-0.653 2.210937,-0.9141 l -0.572265,6.0137 a 6.1468003,6.6036567 1.4886573 0 0 -0.0059,0 v 0 l -0.09375,0.9883 -0.865234,9.0899 0.496094,0.5703 0.451172,0.5176 0.134765,0.1542 2.617188,-0.045 0.490234,-0.01 0.171875,-0.1426 0.03125,-0.027 0.0293,-0.023 0.976563,-0.8164 -0.882813,-9.2696 a 6.6036567,6.6456147 88.511343 0 0 0.002,0 l -0.0957,-0.9883 a 6.6036567,6.1468003 88.511343 0 0 -0.01367,0.01 l -0.265625,-2.8028 a 2.6455494,2.4625241 88.511343 0 0 0.02539,0.01 l -0.425781,-4.4687 c 2.523505,-1.8407 4.958008,-3.485 7.701171,-4.1875 1.126972,-0.3704 4.177851,-0.4857 4.427735,-0.5313 -0.03706,-0.015 -0.07203,-0.027 -0.107422,-0.041 0.116215,0.014 0.197266,0.025 0.197266,0.025 -10e-7,0 -1.10905,-1.0381 -4.226563,-1.3926 -2.433524,-0.2766 -4.237994,0.6678 -5.9375,1.7871 -1.493679,0.9838 -2.590855,3.2102 -3.119141,4.4688 -0.01432,-0.544 -0.101806,-1.2672 -0.351562,-2.1797 -0.501872,-1.8334 -1.701743,-2.8615 -2.998047,-3.7637 -1.224687,-0.8522 -3.356446,-0.9616 -4.345703,-0.9629 z m 7.349609,7.7676 c 0.0023,0 0.0036,0.01 0.0059,0.014 -0.0019,0.01 -0.01367,0.037 -0.01367,0.037 0.0072,-0.01 0.0143,-0.01 0.02148,-0.016 0.03771,0.078 0.07652,0.1547 0.101563,0.205 a 2.6455494,2.4625241 88.511343 0 0 -0.0039,0.014 2.6455494,2.4625241 88.511343 0 0 -0.002,0.01 3.7980741,4.0803632 1.488658 0 0 -0.07422,-0.072 3.7980741,4.0803632 1.488658 0 0 -0.01563,-0.014 3.7980741,4.0803632 1.488658 0 0 -0.152343,-0.1348 c 0.04563,-0.014 0.08982,-0.028 0.132812,-0.041 z"
         transform="scale(0.26458333)" />
      <g
         id="g175778"
         transform="translate(-0.09354433,-0.63142426)">
        <path
           id="path133335"
           style="fill:#6c711b;fill-opacity:1;stroke:none;stroke-width:2;stroke-linecap:round;stroke-linejoin:round;stroke-miterlimit:4;stroke-dasharray:none;stroke-opacity:1;paint-order:fill markers stroke;stop-color:#000000"
           d="m 9.7959249,286.55212 0.1233075,1.29743 A 0.69996827,0.65154283 88.511343 0 1 9.441697,287.19299 l -1.663e-4,-0.0117 a 0.69996827,0.65154283 88.511343 0 1 0.3543942,-0.62919 z" />
        <path
           id="path133337"
           style="fill:#9da227;fill-opacity:1;stroke:none;stroke-width:2;stroke-linecap:round;stroke-linejoin:round;stroke-miterlimit:4;stroke-dasharray:none;stroke-opacity:1;paint-order:fill markers stroke;stop-color:#000000"
           d="m 9.7959249,286.55212 0.01002,0.10488 a 0.69996827,0.7044157 88.511343 0 0 -0.3612015,0.58436 0.69996827,0.65154283 88.511343 0 1 -0.00304,-0.0484 l -1.66e-4,-0.0117 a 0.69996827,0.65154283 88.511343 0 1 0.3543941,-0.62918 z" />
        <path
           id="path133329"
           style="fill:#6c711b;fill-opacity:1;stroke:none;stroke-width:2;stroke-linecap:round;stroke-linejoin:round;stroke-miterlimit:4;stroke-dasharray:none;stroke-opacity:1;paint-order:fill markers stroke;stop-color:#000000"
           d="m 9.2385513,286.83126 -0.1901834,2.00109 a 1.0049071,1.0795961 1.488658 0 0 0.7365268,-1.01264 l 2.565e-4,-0.018 a 1.0049071,1.0795961 1.488658 0 0 -0.5465999,-0.97043 z" />
        <path
           id="path133331"
           style="fill:#9da227;fill-opacity:1;stroke:none;stroke-width:2;stroke-linecap:round;stroke-linejoin:round;stroke-miterlimit:4;stroke-dasharray:none;stroke-opacity:1;paint-order:fill markers stroke;stop-color:#000000"
           d="m 9.2385513,286.83126 -0.015454,0.16176 a 1.0864556,1.0795961 1.488658 0 1 0.557099,0.90128 1.0049071,1.0795961 1.488658 0 0 0.00469,-0.0746 l 2.561e-4,-0.018 a 1.0049071,1.0795961 1.488658 0 0 -0.5465997,-0.97042 z" />
        <path
           id="path133311"
           style="fill:#6c711b;fill-opacity:1;stroke:none;stroke-width:2.00001;stroke-linecap:round;stroke-linejoin:round;stroke-miterlimit:4;stroke-dasharray:none;stroke-opacity:1;paint-order:fill markers stroke;stop-color:#000000"
           d="m 9.8806352,287.50983 0.2708958,2.85033 a 1.5377676,1.4313813 88.511343 0 1 -1.0491028,-1.44239 l -3.653e-4,-0.0257 a 1.5377676,1.4313813 88.511343 0 1 0.7785723,-1.38227 z" />
        <path
           id="path133313"
           style="fill:#9da227;fill-opacity:1;stroke:none;stroke-width:2.00001;stroke-linecap:round;stroke-linejoin:round;stroke-miterlimit:4;stroke-dasharray:none;stroke-opacity:1;paint-order:fill markers stroke;stop-color:#000000"
           d="m 9.8806352,287.50983 0.022012,0.2304 A 1.5377676,1.5475382 88.511343 0 0 9.10912,289.02402 1.5377676,1.4313813 88.511343 0 1 9.10244,288.91777 l -3.648e-4,-0.0257 a 1.5377676,1.4313813 88.511343 0 1 0.778572,-1.38226 z" />
        <path
           id="path133047"
           style="fill:#6c711b;fill-opacity:1;stroke:none;stroke-width:2.00001;stroke-linecap:round;stroke-linejoin:round;stroke-miterlimit:4;stroke-dasharray:none;stroke-opacity:1;paint-order:fill markers stroke;stop-color:#000000"
           d="m 9.176314,287.50983 -0.2708956,2.85033 a 1.4313813,1.5377676 1.4886565 0 0 1.0491026,-1.44239 l 3.653e-4,-0.0257 A 1.4313813,1.5377676 1.4886565 0 0 9.176314,287.5098 Z" />
        <path
           id="path133049"
           style="fill:#9da227;fill-opacity:1;stroke:none;stroke-width:2.00001;stroke-linecap:round;stroke-linejoin:round;stroke-miterlimit:4;stroke-dasharray:none;stroke-opacity:1;paint-order:fill markers stroke;stop-color:#000000"
           d="m 9.176314,287.50983 -0.022012,0.2304 a 1.5475382,1.5377676 1.4886565 0 1 0.7935272,1.28379 1.4313813,1.5377676 1.4886565 0 0 0.00668,-0.10625 l 3.648e-4,-0.0257 a 1.4313813,1.5377676 1.4886565 0 0 -0.778572,-1.38226 z" />
        <path
           id="path175599"
           style="fill:#6c711b;fill-opacity:1;stroke:none;stroke-width:2;stroke-linecap:round;stroke-linejoin:round;stroke-miterlimit:4;stroke-dasharray:none;stroke-opacity:1;paint-order:fill markers stroke;stop-color:#000000"
           d="m 9.0702355,288.58673 -0.2537312,2.6665 0.2862874,0.32866 0.1472779,-0.003 a 1.6263409,1.7472175 1.4886573 0 0 0.7043497,-1.39266 l 5.167e-4,-0.0295 a 1.6263409,1.7472175 1.4886573 0 0 -0.8847005,-1.57044 z" />
        <path
           id="path133043"
           style="fill:#9da227;fill-opacity:1;stroke:none;stroke-width:2;stroke-linecap:round;stroke-linejoin:round;stroke-miterlimit:4;stroke-dasharray:none;stroke-opacity:1;paint-order:fill markers stroke;stop-color:#000000"
           d="m 9.0702551,288.58688 -0.02501,0.26178 a 1.7583189,1.7472175 1.4886573 0 1 0.9016086,1.45865 1.6263409,1.7472175 1.4886573 0 0 0.00759,-0.12072 l 4.145e-4,-0.0292 a 1.6263409,1.7472175 1.4886573 0 0 -0.8846165,-1.57053 z" />
        <path
           id="path175259"
           style="fill:#6c711b;fill-opacity:1;stroke:none;stroke-width:2;stroke-linecap:round;stroke-linejoin:round;stroke-miterlimit:4;stroke-dasharray:none;stroke-opacity:1;paint-order:fill markers stroke;stop-color:#000000"
           d="m 9.9864587,288.58673 a 1.7472175,1.6263409 88.511343 0 0 -0.8841838,1.57044 v 0.0295 a 1.7472175,1.6263409 88.511343 0 0 0.6929811,1.38337 l 0.1297077,-0.002 0.3198773,-0.26718 z" />
        <path
           id="path133319"
           style="fill:#9da227;fill-opacity:1;stroke:none;stroke-width:2;stroke-linecap:round;stroke-linejoin:round;stroke-miterlimit:4;stroke-dasharray:none;stroke-opacity:1;paint-order:fill markers stroke;stop-color:#000000"
           d="m 9.9866938,288.58688 0.025011,0.26178 a 1.7472175,1.7583189 88.511343 0 0 -0.901613,1.45865 1.7472175,1.6263409 88.511343 0 1 -0.00759,-0.12072 l -4.145e-4,-0.0292 a 1.7472175,1.6263409 88.511343 0 1 0.8846165,-1.57053 z" />
        <path
           id="path175429"
           style="fill:#6c711b;fill-opacity:1;stroke:none;stroke-width:2;stroke-linecap:round;stroke-linejoin:round;stroke-miterlimit:4;stroke-dasharray:none;stroke-opacity:1;paint-order:fill markers stroke;stop-color:#000000"
           d="m 8.9736007,289.69208 -0.1493449,1.56993 0.2785359,0.31988 0.822172,-0.0139 0.065629,-0.0548 v -0.0155 a 1.8700404,2.0090298 1.488657 0 0 -1.0169921,-1.80557 z" />
        <path
           id="path175344"
           style="fill:#9da227;fill-opacity:1;stroke:none;stroke-width:2;stroke-linecap:round;stroke-linejoin:round;stroke-miterlimit:4;stroke-dasharray:none;stroke-opacity:1;paint-order:fill markers stroke;stop-color:#000000"
           d="m 8.9736007,289.69208 -0.028939,0.30075 a 2.0217947,2.0090298 1.488657 0 1 1.0257771,1.53739 l 0.020154,-0.0171 v -0.0155 a 1.8700404,2.0090298 1.488657 0 0 -1.0169921,-1.80557 z" />
        <path
           id="path174839"
           style="fill:#6c711b;fill-opacity:1;stroke:none;stroke-width:2;stroke-linecap:round;stroke-linejoin:round;stroke-miterlimit:4;stroke-dasharray:none;stroke-opacity:1;paint-order:fill markers stroke;stop-color:#000000"
           d="m 10.08361,289.69208 a 2.0090298,1.8700404 88.511344 0 0 -1.0175086,1.80557 l 5.167e-4,0.0336 a 2.0090298,1.8700404 88.511344 0 0 5.167e-4,0.01 l 0.035657,0.0408 0.822172,-0.0139 0.3121252,-0.26099 z" />
        <path
           id="path175514"
           style="fill:#9da227;fill-opacity:1;stroke:none;stroke-width:2;stroke-linecap:round;stroke-linejoin:round;stroke-miterlimit:4;stroke-dasharray:none;stroke-opacity:1;paint-order:fill markers stroke;stop-color:#000000"
           d="m 10.08361,289.69208 a 2.0090298,1.8700404 88.511344 0 0 -1.0169919,1.80557 v 0.0336 a 2.0090298,1.8700404 88.511344 0 0 5.167e-4,0.01 l 0.01602,0.0186 a 2.0090298,2.0217947 88.511344 0 1 1.0288772,-1.56684 z" />
      </g>
      <path
         style="fill:#34a000;fill-opacity:0.996078;fill-rule:evenodd;stroke:none;stroke-width:0.264583px;stroke-linecap:butt;stroke-linejoin:miter;stroke-opacity:1"
         d="m 6.3979957,288.55701 c 0,0 0.3533097,-1.36846 0.8169004,-1.86353 0.3680233,-0.39301 0.8973661,-0.69615 1.4336452,-0.74415 0.3129986,-0.028 0.9005442,0.27884 0.9005442,0.27884 0,0 -0.7050619,0.15447 -0.9878443,0.32914 -0.4496425,0.27774 -0.8312421,0.58705 -1.2125951,0.95295 -0.3303122,0.31694 -0.9506504,1.04675 -0.9506504,1.04675 z"
         id="path175813"
         sodipodi:nodetypes="csscssc" />
      <path
         id="path176371"
         style="fill:#2e8604;fill-opacity:1;fill-rule:evenodd;stroke:none;stroke-width:0.264583px;stroke-linecap:butt;stroke-linejoin:miter;stroke-opacity:1"
         d="m 9.526906,286.23819 c -0.2794921,-0.0403 -0.3787389,-0.0292 -0.5794493,-0.007 -0.9290682,0.10301 -1.3461682,0.57882 -1.7325763,1.02339 -0.3287944,0.37828 -0.5921444,0.82032 -0.816882,1.30237 0.6456504,-0.76427 1.361447,-1.53473 2.1467161,-1.95008 0.2670319,-0.16494 0.9207254,-0.34157 0.9821915,-0.36875 z"
         sodipodi:nodetypes="csscccc" />
      <path
         style="fill:#34a000;fill-opacity:0.996078;fill-rule:evenodd;stroke:none;stroke-width:0.264583px;stroke-linecap:butt;stroke-linejoin:miter;stroke-opacity:1"
         d="m 9.3381102,286.31111 c 0,0 0.3522229,-1.05067 0.9186508,-1.42372 0.449661,-0.29615 0.927199,-0.54604 1.571069,-0.47285 0.824842,0.0938 1.118279,0.36837 1.118279,0.36837 0,0 -0.792696,-0.1081 -1.108452,-0.004 -0.502089,0.165 -0.975619,0.36082 -1.431907,0.62749 -0.395221,0.231 -1.0676304,0.90504 -1.0676304,0.90504 z"
         id="path177849"
         sodipodi:nodetypes="csscsscc" />
      <path
         id="path177851"
         style="fill:#2e8604;fill-opacity:1;fill-rule:evenodd;stroke:none;stroke-width:0.264583px;stroke-linecap:butt;stroke-linejoin:miter;stroke-opacity:1"
         d="m 12.922194,284.78751 c -0.262341,-0.10449 -0.361434,-0.11688 -0.561776,-0.14219 -0.927422,-0.11691 -1.572464,0.25146 -2.052048,0.59344 -0.4080758,0.29099 -0.6390987,0.65609 -0.9702432,1.07229 0.8063462,-0.59227 1.5520932,-1.16294 2.4126712,-1.38333 0.298178,-0.098 1.105297,-0.12821 1.171412,-0.14028 z"
         sodipodi:nodetypes="csscccc" />
      <path
         style="fill:#34a000;fill-opacity:0.996078;fill-rule:evenodd;stroke:none;stroke-width:0.264583px;stroke-linecap:butt;stroke-linejoin:miter;stroke-opacity:1"
         d="m 7.2542909,284.24557 c 0,0 0.8586271,-0.0489 1.2906693,0.25175 0.3429805,0.2387 0.6606577,0.51082 0.7934446,0.9959 0.1700815,0.62142 0.056774,0.912 0.056774,0.912 0,0 -0.1505138,-0.60238 -0.3165145,-0.79993 -0.263578,-0.31427 -0.5411363,-0.59908 -0.8647825,-0.85105 -0.2803452,-0.21824 -0.9598254,-0.50857 -0.9598254,-0.50857 z"
         id="path178750"
         sodipodi:nodetypes="csscsscc" />
      <path
         id="path178752"
         style="fill:#2e8604;fill-opacity:1;fill-rule:evenodd;stroke:none;stroke-width:0.264583px;stroke-linecap:butt;stroke-linejoin:miter;stroke-opacity:1"
         d="m 9.3849724,286.38931 c -2.951e-4,-0.21916 -0.01992,-0.29414 -0.059409,-0.4458 -0.182986,-0.702 -0.6343082,-1.06069 -1.0189369,-1.30775 -0.3272794,-0.21022 -0.6569468,-0.2715 -1.0522876,-0.3902 0.6591485,0.4104 1.2852702,0.78337 1.6920609,1.34002 0.1565399,0.18663 0.4108789,0.75956 0.4386276,0.80372 z"
         sodipodi:nodetypes="csscccc" />
    </g>
  </g>
</svg>
