<?xml version="1.0" encoding="UTF-8" standalone="no"?>
<!-- Created with Inkscape (http://www.inkscape.org/) -->

<svg
   width="64"
   height="64"
   viewBox="0 0 16.933333 16.933334"
   version="1.1"
   id="svg930"
   inkscape:version="1.1.1 (3bf5ae0d25, 2021-09-20)"
   sodipodi:docname="carrot_0.svg"
   xmlns:inkscape="http://www.inkscape.org/namespaces/inkscape"
   xmlns:sodipodi="http://sodipodi.sourceforge.net/DTD/sodipodi-0.dtd"
   xmlns="http://www.w3.org/2000/svg"
   xmlns:svg="http://www.w3.org/2000/svg">
  <sodipodi:namedview
     id="namedview932"
     pagecolor="#505050"
     bordercolor="#eeeeee"
     borderopacity="1"
     inkscape:pageshadow="0"
     inkscape:pageopacity="0"
     inkscape:pagecheckerboard="0"
     inkscape:document-units="px"
     showgrid="false"
     units="px"
     showguides="true"
     inkscape:guide-bbox="true"
     inkscape:zoom="4.192802"
     inkscape:cx="16.814531"
     inkscape:cy="33.748315"
     inkscape:window-width="1920"
     inkscape:window-height="1017"
     inkscape:window-x="-8"
     inkscape:window-y="-8"
     inkscape:window-maximized="1"
     inkscape:current-layer="layer1">
    <sodipodi:guide
       position="5.5847199,1.2203923"
       orientation="0,-1"
       id="guide1233" />
    <sodipodi:guide
       position="8.0457829,15.608146"
       orientation="0,-1"
       id="guide1235" />
    <sodipodi:guide
       position="1.3567399,12.705354"
       orientation="1,0"
       id="guide1237" />
    <sodipodi:guide
       position="15.712941,5.9216538"
       orientation="1,0"
       id="guide1239" />
  </sodipodi:namedview>
  <defs
     id="defs927" />
  <g
     inkscape:label="Layer 1"
     inkscape:groupmode="layer"
     id="layer1">
    <g
       id="g195735"
       transform="matrix(0.41916273,0,0,0.40542446,0.86313946,-103.5857)"
       style="stroke-width:2.42579">
      <path
         style="fill:#8d6b00;fill-opacity:1;stroke:#261d00;stroke-width:1.73345;stroke-linecap:round;stroke-miterlimit:4;stroke-dasharray:none;stroke-opacity:1;paint-order:fill markers stroke;stop-color:#000000"
         id="path183286"
         sodipodi:type="arc"
         sodipodi:cx="14.105279"
         sodipodi:cy="278.12033"
         sodipodi:rx="1.554427"
         sodipodi:ry="1.3642578"
         sodipodi:start="0"
         sodipodi:end="6.2664476"
         sodipodi:open="true"
         sodipodi:arc-type="arc"
         d="m 15.659706,278.12033 a 1.554427,1.3642578 0 0 1 -1.547923,1.36425 1.554427,1.3642578 0 0 1 -1.560877,-1.35283 1.554427,1.3642578 0 0 1 1.53486,-1.37557 1.554427,1.3642578 0 0 1 1.573722,1.34132" />
      <path
         style="fill:#8d6b00;fill-opacity:1;stroke:none;stroke-width:1.73345;stroke-linecap:round;stroke-miterlimit:4;stroke-dasharray:none;stroke-opacity:0.976471;paint-order:fill markers stroke;stop-color:#000000"
         id="path164435"
         sodipodi:type="arc"
         sodipodi:cx="14.105279"
         sodipodi:cy="278.12033"
         sodipodi:rx="1.554427"
         sodipodi:ry="1.3642578"
         sodipodi:start="0"
         sodipodi:end="6.2664476"
         sodipodi:open="true"
         sodipodi:arc-type="arc"
         d="m 15.659706,278.12033 a 1.554427,1.3642578 0 0 1 -1.547923,1.36425 1.554427,1.3642578 0 0 1 -1.560877,-1.35283 1.554427,1.3642578 0 0 1 1.53486,-1.37557 1.554427,1.3642578 0 0 1 1.573722,1.34132" />
      <path
         id="path164596"
         style="fill:#6e5405;fill-opacity:1;stroke:none;stroke-width:1.73345;stroke-linecap:round;stroke-miterlimit:4;stroke-dasharray:none;stroke-opacity:0.976471;paint-order:fill markers stroke;stop-color:#000000"
         d="m 13.100402,277.08025 c -0.351767,0.26167 -0.553001,0.64691 -0.54932,1.05161 0.0071,0.75115 0.704756,1.35591 1.560628,1.3529 0.480932,-0.003 0.933714,-0.19931 1.226282,-0.53433 -1.446515,0.58968 -2.78691,-0.81857 -2.23759,-1.87018 z"
         sodipodi:nodetypes="ccccc" />
      <path
         style="fill:#8d6b00;fill-opacity:1;stroke:#261d00;stroke-width:1.73345;stroke-linecap:round;stroke-miterlimit:4;stroke-dasharray:none;stroke-opacity:1;paint-order:fill markers stroke;stop-color:#000000"
         id="path183286-6"
         sodipodi:type="arc"
         sodipodi:cx="22.123236"
         sodipodi:cy="274.13168"
         sodipodi:rx="1.554427"
         sodipodi:ry="1.3642578"
         sodipodi:start="0"
         sodipodi:end="6.2664476"
         sodipodi:open="true"
         sodipodi:arc-type="arc"
         d="m 23.677663,274.13168 a 1.554427,1.3642578 0 0 1 -1.547923,1.36425 1.554427,1.3642578 0 0 1 -1.560877,-1.35283 1.554427,1.3642578 0 0 1 1.53486,-1.37557 1.554427,1.3642578 0 0 1 1.573722,1.34132" />
      <path
         style="fill:#8d6b00;fill-opacity:1;stroke:none;stroke-width:1.73345;stroke-linecap:round;stroke-miterlimit:4;stroke-dasharray:none;stroke-opacity:0.976471;paint-order:fill markers stroke;stop-color:#000000"
         id="path164435-1"
         sodipodi:type="arc"
         sodipodi:cx="22.123236"
         sodipodi:cy="274.13168"
         sodipodi:rx="1.554427"
         sodipodi:ry="1.3642578"
         sodipodi:start="0"
         sodipodi:end="6.2664476"
         sodipodi:open="true"
         sodipodi:arc-type="arc"
         d="m 23.677663,274.13168 a 1.554427,1.3642578 0 0 1 -1.547923,1.36425 1.554427,1.3642578 0 0 1 -1.560877,-1.35283 1.554427,1.3642578 0 0 1 1.53486,-1.37557 1.554427,1.3642578 0 0 1 1.573722,1.34132" />
      <path
         id="path164596-9"
         style="fill:#6e5405;fill-opacity:1;stroke:none;stroke-width:1.73345;stroke-linecap:round;stroke-miterlimit:4;stroke-dasharray:none;stroke-opacity:0.976471;paint-order:fill markers stroke;stop-color:#000000"
         d="m 21.118359,273.09158 c -0.351766,0.26168 -0.553001,0.64691 -0.54932,1.05162 0.0071,0.75115 0.704757,1.35591 1.560628,1.35289 0.480933,-0.003 0.933714,-0.19931 1.226282,-0.53433 -1.446515,0.58968 -2.78691,-0.81856 -2.23759,-1.87018 z"
         sodipodi:nodetypes="ccccc" />
      <path
         style="fill:#8d6b00;fill-opacity:1;stroke:#261d00;stroke-width:1.73345;stroke-linecap:round;stroke-miterlimit:4;stroke-dasharray:none;stroke-opacity:1;paint-order:fill markers stroke;stop-color:#000000"
         id="path183286-9"
         sodipodi:type="arc"
         sodipodi:cx="21.000704"
         sodipodi:cy="282.3168"
         sodipodi:rx="1.554427"
         sodipodi:ry="1.3642578"
         sodipodi:start="0"
         sodipodi:end="6.2664476"
         sodipodi:open="true"
         sodipodi:arc-type="arc"
         d="m 22.555131,282.3168 a 1.554427,1.3642578 0 0 1 -1.547923,1.36425 1.554427,1.3642578 0 0 1 -1.560877,-1.35283 1.554427,1.3642578 0 0 1 1.53486,-1.37557 1.554427,1.3642578 0 0 1 1.573722,1.34132" />
      <path
         style="fill:#8d6b00;fill-opacity:1;stroke:none;stroke-width:1.73345;stroke-linecap:round;stroke-miterlimit:4;stroke-dasharray:none;stroke-opacity:0.976471;paint-order:fill markers stroke;stop-color:#000000"
         id="path164435-8"
         sodipodi:type="arc"
         sodipodi:cx="21.000704"
         sodipodi:cy="282.3168"
         sodipodi:rx="1.554427"
         sodipodi:ry="1.3642578"
         sodipodi:start="0"
         sodipodi:end="6.2664476"
         sodipodi:open="true"
         sodipodi:arc-type="arc"
         d="m 22.555131,282.3168 a 1.554427,1.3642578 0 0 1 -1.547923,1.36425 1.554427,1.3642578 0 0 1 -1.560877,-1.35283 1.554427,1.3642578 0 0 1 1.53486,-1.37557 1.554427,1.3642578 0 0 1 1.573722,1.34132" />
      <path
         id="path164596-0"
         style="fill:#6e5405;fill-opacity:1;stroke:none;stroke-width:1.73345;stroke-linecap:round;stroke-miterlimit:4;stroke-dasharray:none;stroke-opacity:0.976471;paint-order:fill markers stroke;stop-color:#000000"
         d="m 19.995827,281.27671 c -0.351767,0.26167 -0.553001,0.6469 -0.54932,1.05161 0.0071,0.75115 0.704756,1.35591 1.560628,1.35289 0.480932,-0.003 0.933714,-0.19931 1.226282,-0.53432 -1.446515,0.58967 -2.78691,-0.81857 -2.23759,-1.87018 z"
         sodipodi:nodetypes="ccccc" />
    </g>
  </g>
</svg>
