<?xml version="1.0" encoding="UTF-8" standalone="no"?>
<!-- Created with Inkscape (http://www.inkscape.org/) -->

<svg
   width="64"
   height="64"
   viewBox="0 0 16.933333 16.933334"
   version="1.1"
   id="svg930"
   inkscape:version="1.1.1 (3bf5ae0d25, 2021-09-20)"
   sodipodi:docname="carrot_2.svg"
   xmlns:inkscape="http://www.inkscape.org/namespaces/inkscape"
   xmlns:sodipodi="http://sodipodi.sourceforge.net/DTD/sodipodi-0.dtd"
   xmlns="http://www.w3.org/2000/svg"
   xmlns:svg="http://www.w3.org/2000/svg">
  <sodipodi:namedview
     id="namedview932"
     pagecolor="#505050"
     bordercolor="#eeeeee"
     borderopacity="1"
     inkscape:pageshadow="0"
     inkscape:pageopacity="0"
     inkscape:pagecheckerboard="0"
     inkscape:document-units="px"
     showgrid="false"
     units="px"
     showguides="true"
     inkscape:guide-bbox="true"
     inkscape:zoom="4.192802"
     inkscape:cx="16.814531"
     inkscape:cy="33.748315"
     inkscape:window-width="1920"
     inkscape:window-height="1017"
     inkscape:window-x="-8"
     inkscape:window-y="-8"
     inkscape:window-maximized="1"
     inkscape:current-layer="layer1">
    <sodipodi:guide
       position="5.5847199,1.2203923"
       orientation="0,-1"
       id="guide1233" />
    <sodipodi:guide
       position="8.0457829,15.608146"
       orientation="0,-1"
       id="guide1235" />
    <sodipodi:guide
       position="1.3567399,12.705354"
       orientation="1,0"
       id="guide1237" />
    <sodipodi:guide
       position="15.712941,5.9216538"
       orientation="1,0"
       id="guide1239" />
  </sodipodi:namedview>
  <defs
     id="defs927" />
  <g
     inkscape:label="Layer 1"
     inkscape:groupmode="layer"
     id="layer1">
    <g
       id="g124672"
       transform="matrix(0.9506099,0,0,0.92758057,-0.620828,-257.82777)"
       style="stroke-width:1.06493">
      <path
         id="path120827"
         style="fill:#182600;fill-opacity:1;fill-rule:evenodd;stroke:#182600;stroke-width:2.12987;stroke-linecap:round;stroke-linejoin:round;stroke-miterlimit:4;stroke-dasharray:none;stroke-opacity:1"
         d="m 30.677734,1059.4199 c -0.06008,8e-4 -0.119081,0.01 -0.177734,0.016 -0.02442,0 -0.04988,0.01 -0.07422,0.012 -0.0065,0 -0.0131,0 -0.01953,0 -0.24249,0.056 -0.453496,0.1967 -0.626953,0.3808 -0.02855,0.03 -0.05746,0.061 -0.08398,0.094 0,0 0,0 0,0 -0.02648,0.033 -0.05177,0.065 -0.07617,0.1 0,0 0,0 0,0 -0.02437,0.035 -0.04806,0.069 -0.07031,0.1055 0,0 -0.002,0 -0.002,0 -0.04502,0.073 -0.08502,0.1489 -0.121094,0.2266 -0.01806,0.039 -0.03503,0.078 -0.05078,0.1172 0,0 0,0 0,0 -0.01549,0.039 -0.02976,0.076 -0.04297,0.1153 0,0 0,0 0,0 -0.01317,0.039 -0.02627,0.078 -0.03711,0.1172 0,0 0,0 0,0 -0.01099,0.039 -0.02074,0.078 -0.0293,0.1171 -0.0086,0.039 -0.01542,0.077 -0.02148,0.1153 0,0 0,0 0,0 -0.0068,0.043 -0.01182,0.088 -0.01367,0.1309 -0.0018,0.043 -8.5e-4,0.086 0.002,0.1289 0,0 0,0 0,0 0.0029,0.043 0.0085,0.088 0.01563,0.1309 0,0 0,0 0,0 0.0072,0.043 0.0163,0.086 0.02734,0.1289 0,0 0,0 0,0 0.0112,0.044 0.02423,0.087 0.03906,0.1309 0.01484,0.044 0.03072,0.087 0.04883,0.1308 0,0 0,0 0,0 0.01792,0.043 0.03784,0.086 0.05859,0.1289 0,0 0,0 0,0 0.0208,0.043 0.04312,0.086 0.06641,0.129 0,0 0,0 0,0 0.02332,0.043 0.04877,0.086 0.07422,0.1289 0,0 0,0 0,0 0.02549,0.043 0.05281,0.086 0.08008,0.1289 0,0 0,0 0,0 0.05511,0.087 0.113616,0.1732 0.173828,0.2598 0.06023,0.087 0.123113,0.1717 0.185547,0.2578 0,0 0,0 0,0 0.124508,0.1716 0.251214,0.3429 0.367188,0.5117 0.05811,0.085 0.114411,0.1682 0.166015,0.2519 0.02581,0.042 0.05058,0.083 0.07422,0.125 0,0 0,0 0,0 0.02363,0.042 0.04531,0.082 0.06641,0.123 0.02111,0.041 0.04038,0.082 0.05859,0.1231 0,0 0,0 0,0 0.01792,0.041 0.03603,0.081 0.05078,0.1211 0,0 0,0 0,0 0.01469,0.04 0.0279,0.079 0.03906,0.1191 0,0 0,0 0,0 0.04418,0.158 0.05961,0.3138 0.03516,0.4668 -5.34e-4,0 -0.0014,0.01 -0.002,0.01 0,0 0,0 0,0 -0.0016,0.01 -0.004,0.018 -0.0059,0.027 -0.0072,0.035 -0.01757,0.071 -0.0293,0.1055 -0.01107,0.033 -0.02383,0.065 -0.03906,0.098 0,0 0,0 0,0 -0.01786,0.038 -0.03864,0.076 -0.0625,0.1133 0,0 0,0 0,0 -0.0081,0.013 -0.0181,0.024 -0.02734,0.035 0,0 0,0 0,0 -0.0093,0.011 -0.01893,0.02 -0.0293,0.029 0,0 -0.002,0 -0.002,0 -0.107236,0.096 -0.271266,0.1147 -0.453125,0.1074 -0.347305,-0.014 -0.76569,-0.1192 -1.009765,0.051 -0.01287,0.01 -0.02525,0.019 -0.03711,0.029 -0.02586,0.023 -0.051,0.047 -0.07422,0.072 -0.04641,0.05 -0.08678,0.104 -0.123047,0.1621 0,0 0,0 0,0 -0.0178,0.029 -0.03532,0.058 -0.05078,0.088 0,0 0,0 0,0 -0.01541,0.03 -0.03176,0.06 -0.04492,0.092 0,0 0,0 0,0 -0.01311,0.031 -0.02617,0.063 -0.03711,0.096 0,0 0,0 0,0 -0.02235,0.066 -0.03891,0.1336 -0.05273,0.2031 -0.0069,0.035 -0.01272,0.068 -0.01758,0.1035 0,0 0,0 0,0 -0.0343,0.2467 -0.02154,0.5031 0.02734,0.7324 0.0795,0.373 0.361476,0.704 0.710938,1.0156 0,0 0.002,0 0.002,0 0.116172,0.1036 0.238957,0.2069 0.365235,0.3067 0,0 0.002,0 0.002,0 0.252973,0.1998 0.515722,0.394 0.75,0.5879 0,0 0.002,0 0.002,0 0.0778,0.064 0.150779,0.1306 0.220703,0.1953 0,0 0.002,0 0.002,0 0.2981,0.2758 0.511401,0.556 0.527344,0.8574 3.12e-4,0.01 -1.6e-4,0.012 0,0.018 0.0033,0.1188 -0.02466,0.2405 -0.08984,0.3671 -0.02103,0.041 -0.0475,0.076 -0.07813,0.1036 -0.01,0.01 -0.0223,0.019 -0.0332,0.027 -0.01088,0.01 -0.02343,0.015 -0.03516,0.022 -0.08535,0.048 -0.192905,0.066 -0.3125,0.068 0,0 -0.002,0 -0.002,0 -0.03383,3e-4 -0.06987,0 -0.105468,0 -0.0356,0 -0.07242,-0.01 -0.109375,-0.01 0,0 -0.002,0 -0.002,0 -0.150534,-0.016 -0.309451,-0.044 -0.464844,-0.068 -0.155516,-0.024 -0.307233,-0.044 -0.439453,-0.039 -0.189959,0.01 -0.336307,0.075 -0.449219,0.1836 -0.01577,0.015 -0.03244,0.03 -0.04687,0.047 0,0 0,0 0,0 -0.0295,0.034 -0.05583,0.071 -0.08008,0.1114 -0.01211,0.02 -0.02429,0.039 -0.03516,0.061 0,0 0,0 0,0 -0.01058,0.021 -0.02181,0.043 -0.03125,0.064 0,0 0,0 0,0 -0.0025,0.01 -0.0054,0.012 -0.0078,0.018 -0.01378,0.034 -0.02577,0.068 -0.03711,0.1036 -0.0019,0.01 -0.004,0.012 -0.0059,0.017 0,0 0,0 0,0 -0.01459,0.048 -0.02655,0.099 -0.03711,0.1504 0,0 0,0 0,0 -0.0107,0.052 -0.02041,0.1039 -0.02734,0.1582 -0.0069,0.054 -0.0121,0.1084 -0.01563,0.1641 0,0 0,0 0,0 -0.0034,0.055 -0.0054,0.1124 -0.0059,0.1679 -0.0016,0.1678 0.01052,0.3385 0.0293,0.4942 0.01261,0.1041 0.0289,0.2013 0.04687,0.291 0.0085,0.043 0.01952,0.088 0.0332,0.1289 0.01382,0.041 0.03025,0.081 0.04883,0.1211 0,0 0,0 0,0 0.01866,0.04 0.04141,0.078 0.06445,0.1172 0,0 0,0 0,0 0.02312,0.039 0.04904,0.077 0.07617,0.1152 0,0 0,0 0,0 0.0272,0.038 0.05706,0.074 0.08789,0.1113 0,0 0,0 0,0 0.03089,0.037 0.06352,0.072 0.09766,0.1075 0,0 0,0 0,0 0.448444,0.4711 1.160339,0.8652 1.703125,1.2735 0.01783,0.013 0.03529,0.027 0.05273,0.041 0.105059,0.081 0.203701,0.1631 0.291016,0.2461 0.03356,0.032 0.06741,0.063 0.09766,0.096 0,0 0,0 0,0 0.03057,0.033 0.05915,0.064 0.08594,0.098 0.02677,0.033 0.05163,0.066 0.07422,0.1 0,0 0,0 0,0 0.07912,0.1186 0.131369,0.2408 0.148438,0.3692 0.0049,0.037 0.0069,0.074 0.0059,0.1113 -5.38e-4,0.019 -0.0018,0.038 -0.0039,0.057 -0.0021,0.019 -0.0061,0.037 -0.0098,0.057 0,0 0,0 0,0 -0.01118,0.058 -0.03039,0.1177 -0.05664,0.1778 -0.02361,0.054 -0.05423,0.098 -0.0918,0.1347 -0.01253,0.012 -0.02514,0.023 -0.03906,0.033 -0.01348,0.01 -0.03021,0.021 -0.04492,0.029 -0.04531,0.026 -0.09693,0.045 -0.152344,0.059 -0.223924,0.054 -0.52198,0.019 -0.824219,-0.014 -0.201633,-0.022 -0.404987,-0.042 -0.589844,-0.033 -0.05698,0 -0.111231,0.01 -0.164062,0.017 -0.03315,0.01 -0.06458,0.013 -0.0957,0.022 -0.217974,0.061 -0.383244,0.1567 -0.503907,0.2793 -0.02414,0.024 -0.04567,0.05 -0.06641,0.076 0,0 0,0 0,0 -0.02035,0.026 -0.04138,0.052 -0.05859,0.08 0,0 0,0 0,0 -0.01713,0.028 -0.03272,0.056 -0.04687,0.086 0,0 0,0 0,0 -0.05758,0.1206 -0.09078,0.2538 -0.105468,0.3965 -0.0037,0.036 -0.0064,0.071 -0.0078,0.1074 0,0 0,0 0,0 -0.0013,0.036 -0.0027,0.072 -0.002,0.1094 0,0 0,0 0,0 7.37e-4,0.037 0.0032,0.074 0.0059,0.1113 0,0 0,0 0,0 0.0027,0.038 0.0053,0.076 0.0098,0.1153 0.0032,0.028 0.0086,0.055 0.01367,0.082 0,0 0,0 0,0 0.005,0.027 0.01087,0.054 0.01758,0.08 0,0 0,0 0,0 0.0067,0.026 0.01504,0.052 0.02344,0.078 0,0 0,0 0,0 0.0086,0.027 0.01709,0.052 0.02734,0.078 0.01026,0.026 0.02135,0.052 0.0332,0.078 0,0 0,0 0,0 0.01165,0.025 0.02595,0.049 0.03906,0.074 0,0 0,0 0,0 0.02677,0.051 0.05539,0.1007 0.08789,0.1504 0.03251,0.05 0.06776,0.098 0.105469,0.1465 0,0 0,0 0,0 0.678693,0.8721 2.158551,1.5473 2.896485,2.3183 0.04101,0.043 0.07906,0.085 0.115234,0.1289 0,0 0,0 0,0 0.03579,0.043 0.07104,0.085 0.101562,0.1289 0,0 0,0 0,0 0.0154,0.022 0.02901,0.044 0.04297,0.066 0.0015,0 0.0024,0.01 0.0039,0.01 0.03985,0.064 0.07487,0.1289 0.101562,0.1953 0.0092,0.023 0.01785,0.045 0.02539,0.068 0,0 0,0 0,0 0.0073,0.023 0.01391,0.045 0.01953,0.068 0,0 0,0 0,0 0.01138,0.046 0.01934,0.095 0.02344,0.1426 0.01012,0.1203 -0.0045,0.2445 -0.04687,0.373 -0.0083,0.025 -0.01689,0.051 -0.02734,0.076 0,0 -0.002,0 -0.002,0 -0.0091,0.022 -0.01802,0.042 -0.0293,0.061 0,0 -0.002,0 -0.002,0 -0.01133,0.019 -0.02375,0.037 -0.03711,0.053 0,0 -0.002,0 -0.002,0 -0.01361,0.016 -0.02932,0.031 -0.04492,0.045 -0.0118,0.01 -0.02424,0.02 -0.03711,0.029 -0.0039,0 -0.0077,0.01 -0.01172,0.01 0,0 -0.002,0 -0.002,0 -0.01729,0.011 -0.03572,0.021 -0.05469,0.029 0,0 -0.002,0 -0.002,0 -0.177812,0.081 -0.427658,0.071 -0.701172,0.035 -0.304903,-0.04 -0.640892,-0.1112 -0.945312,-0.123 -0.151627,-0.01 -0.297698,0 -0.425781,0.039 -0.02506,0.01 -0.05043,0.014 -0.07422,0.024 -0.02382,0.01 -0.04983,0.02 -0.07227,0.031 -0.02242,0.011 -0.0455,0.025 -0.06641,0.039 -0.06516,0.043 -0.128682,0.092 -0.189453,0.1445 -0.0306,0.026 -0.06064,0.055 -0.08984,0.084 -0.08724,0.085 -0.168757,0.1773 -0.240234,0.2774 0,0 0,0 0,0 -0.02358,0.033 -0.04687,0.067 -0.06836,0.1016 0,0 0,0 0,0 -0.195438,0.3124 -0.302752,0.67 -0.25,1.0039 0,0 0.002,0 0.002,0 0.01873,0.044 0.03911,0.087 0.05859,0.1308 0.01915,0.043 0.03677,0.087 0.05664,0.1289 0,0 0.002,0 0.002,0 0.03976,0.084 0.08049,0.1659 0.123047,0.248 0.0013,0 0.0026,0.01 0.0039,0.01 0.0417,0.08 0.08463,0.1599 0.128906,0.2382 0.0021,0 0.0037,0.01 0.0059,0.012 0.04369,0.077 0.09063,0.1532 0.136718,0.2285 0.02536,0.041 0.05206,0.082 0.07813,0.123 -0.128535,-0.017 -0.257449,-0.015 -0.38086,0.01 -0.761441,0.1515 -0.636898,0.9987 -1.378906,0.7734 -1.735434,-0.5239 -0.493481,-3.3388 -0.892578,-4.9531 -0.144219,-0.5834 -0.613923,-1.1018 -1.234375,-0.9668 -0.623271,0.1353 -0.767955,1.0546 -1.400391,0.9649 -1.22436,-0.1739 -0.69797,-2.3203 -1.734375,-3.3692 -0.419387,-0.4244 -1.626043,-1.5011 -2.267578,-1.1348 -0.323544,0.1848 -0.521584,0.3992 -0.615234,0.6719 -0.0018,0.01 -0.0022,0.01 -0.0039,0.016 -0.0066,0.02 -0.01405,0.04 -0.01953,0.061 0,0 0,0 0,0 -0.04425,0.1696 -0.05105,0.3626 -0.02734,0.5821 0.0038,0.036 0.0082,0.072 0.01367,0.1093 0.0049,0.033 0.0094,0.067 0.01563,0.1016 0.0054,0.03 0.01312,0.062 0.01953,0.094 0.0047,0.023 0.0085,0.045 0.01367,0.068 0.0124,0.056 0.02576,0.1143 0.04102,0.1739 0.0036,0.014 0.008,0.027 0.01172,0.041 0.01891,0.072 0.0378,0.1461 0.06055,0.2226 0.01338,0.053 0.03004,0.1077 0.04687,0.1602 0.03402,0.1054 0.0747,0.2087 0.121093,0.3105 0,0 0,0 0,0 0.02312,0.051 0.04843,0.1006 0.07422,0.1504 0,0 0,0 0,0 0.0519,0.1 0.110759,0.1987 0.171875,0.2949 0.06114,0.096 0.127061,0.1927 0.195313,0.2852 0.137184,0.1858 0.286425,0.3629 0.439453,0.5332 0.153035,0.1703 0.309179,0.3319 0.460937,0.4863 0,0 0,0 0,0 0.303033,0.3083 0.587568,0.5853 0.783203,0.8281 0.04892,0.061 0.09208,0.1192 0.128907,0.1758 0.01841,0.028 0.03579,0.055 0.05078,0.082 0,0 0,0 0,0 0.01463,0.027 0.02799,0.053 0.03906,0.078 0,0 0,0 0,0 0.03358,0.078 0.0506,0.1525 0.04687,0.2207 -0.0015,0.022 -0.0057,0.045 -0.01172,0.066 -0.01015,0.036 -0.02122,0.067 -0.0332,0.096 0,0 0,0 0,0 -0.0018,0 -0.0041,0.01 -0.0059,0.012 -0.01971,0.044 -0.04212,0.079 -0.06641,0.1075 -0.0033,0 -0.0063,0.01 -0.0098,0.012 0,0 0,0 0,0 -0.0039,0 -0.0077,0.01 -0.01172,0.012 -0.0037,0 -0.0099,0.01 -0.01367,0.01 -0.0034,0 -0.0063,0.01 -0.0098,0.01 -0.20581,0.1542 -0.539567,-0.046 -0.960937,0.1836 -0.02613,0.014 -0.04879,0.032 -0.07031,0.051 -0.128365,0.1146 -0.176917,0.3105 -0.15625,0.5352 0,0 0,0 0,0 0.007,0.074 0.02163,0.1519 0.04297,0.2305 0,0 0,0 0,0 0.07553,0.277 0.237078,0.5685 0.46289,0.7852 0.0226,0.022 0.04489,0.042 0.06836,0.062 0,0 0.002,0 0.002,0 0.164043,0.1459 0.348241,0.2753 0.546875,0.3887 0,0 0.002,0 0.002,0 0.0564,0.032 0.113431,0.064 0.171875,0.094 0,0 0.002,0 0.002,0 0.23538,0.121 0.485176,0.2257 0.740235,0.3223 0,0 0.002,0 0.002,0 0.06313,0.024 0.12789,0.047 0.191406,0.07 0.257179,0.093 0.515618,0.1799 0.765625,0.2676 0.125013,0.044 0.248011,0.087 0.367187,0.1328 0.446876,0.1702 0.844376,0.3582 1.119141,0.6133 0.01796,0.017 0.03584,0.034 0.05273,0.051 0,0 0,0 0,0 0.01687,0.017 0.03502,0.033 0.05078,0.051 0,0 0,0 0,0 0.01571,0.018 0.03035,0.036 0.04492,0.055 0,0 0,0 0,0 0.01454,0.019 0.02961,0.035 0.04297,0.055 0,0 0,0 0,0 0.01332,0.019 0.02696,0.039 0.03906,0.059 0,0 0,0 0,0 0.01206,0.02 0.02434,0.04 0.03516,0.061 0,0 0,0 0,0 0.01077,0.021 0.02177,0.041 0.03125,0.062 0,0 0,0 0,0 0.0094,0.021 0.01923,0.042 0.02734,0.064 0,0 0,0 0,0 0.0081,0.022 0.01672,0.045 0.02344,0.068 0,0 0,0 0,0 0.0067,0.023 0.01231,0.046 0.01758,0.07 0,0 0,0 0,0 0.0052,0.024 0.0099,0.048 0.01367,0.072 0,0 0,0 0,0 0.0037,0.025 0.0075,0.05 0.0098,0.076 0,0 0,0 0,0 1.12e-4,0 -1.09e-4,0 0,0 0.0042,0.051 0.0057,0.1036 0.0039,0.1582 0,0 0,0 0,0 -9.57e-4,0.028 -0.0013,0.055 -0.0039,0.084 0,0 0,0 0,0 -0.0026,0.029 -0.0074,0.058 -0.01172,0.088 0,0 0,0 0,0 -0.0043,0.03 -0.0096,0.061 -0.01563,0.092 0,0 0,0 0,0 -0.0042,0.022 -0.0083,0.041 -0.01367,0.061 0,0 0,0 0,0 -0.01096,0.039 -0.0257,0.074 -0.04102,0.1035 0,0 0,0 0,0 -0.0075,0.015 -0.01687,0.026 -0.02539,0.039 0,0 0,0 0,0 -0.0086,0.013 -0.01788,0.024 -0.02734,0.035 0,0 0,0 0,0 -0.146828,0.168 -0.403563,0.1349 -0.669922,0.1523 -0.214112,0.014 -0.436717,0.062 -0.61914,0.2715 -0.07646,0.088 -0.139131,0.1857 -0.189453,0.293 0,0 0,0 0,0 -0.150326,0.3216 -0.185624,0.7124 -0.115235,1.0684 0,0 0,0 0,0 0.0235,0.1183 0.05913,0.2333 0.105469,0.3399 0,0 0,0 0,0 0.01533,0.035 0.03302,0.068 0.05078,0.1016 0,0 0,0 0,0 0.08618,0.1611 0.199946,0.297 0.333985,0.414 0.05071,0.044 0.104104,0.086 0.160156,0.125 0.08161,0.057 0.167056,0.1085 0.257812,0.1563 0,0 0.002,0 0.002,0 0.04464,0.024 0.09034,0.045 0.136719,0.066 0,0 0.002,0 0.002,0 0.09365,0.043 0.192195,0.084 0.291016,0.1211 0.09962,0.037 0.200432,0.072 0.302734,0.1054 0.10232,0.033 0.206175,0.065 0.308594,0.096 0.409607,0.1235 0.809404,0.2355 1.117188,0.4004 0.173164,0.093 0.317932,0.2007 0.417968,0.3379 0,0 0,0 0,0 0.01076,0.015 0.02153,0.029 0.03125,0.045 0,0 0,0 0,0 0.0097,0.015 0.01875,0.031 0.02734,0.047 0,0 0,0 0,0 0.0174,0.033 0.03416,0.068 0.04687,0.1035 0,0 0,0 0,0 0.0062,0.018 0.01255,0.036 0.01758,0.055 0,0 0,0 0,0 0.01013,0.038 0.01845,0.076 0.02344,0.1172 0,0 0,0 0,0 0.0049,0.041 0.0064,0.084 0.0059,0.1289 0,0 0,0 0,0 -3.15e-4,0.022 -2.52e-4,0.043 -0.002,0.066 0,0 0,0 0,0 -0.0017,0.023 -0.0046,0.048 -0.0078,0.072 -0.003,0.023 -0.0073,0.043 -0.01172,0.064 0,0 0,0 0,0 -0.0043,0.021 -0.01002,0.041 -0.01563,0.061 0,0 0,0 0,0 -0.0056,0.019 -0.01271,0.037 -0.01953,0.055 0,0 0,0 0,0 -0.0069,0.018 -0.0135,0.034 -0.02148,0.051 0,0 0,0 0,0 -0.008,0.016 -0.01824,0.032 -0.02734,0.047 0,0 0,0 0,0 -0.0091,0.015 -0.01915,0.029 -0.0293,0.043 0,0 0,0 0,0 -0.01019,0.014 -0.02206,0.026 -0.0332,0.039 0,0 0,0 0,0 -0.19516,0.2263 -0.530733,0.3056 -0.845703,0.4746 0,0 -0.002,0 -0.002,0 -0.110538,0.06 -0.219911,0.1305 -0.318359,0.2227 -0.01618,0.015 -0.03319,0.03 -0.04883,0.047 0,0 0,0 0,0 -0.01561,0.016 -0.03187,0.033 -0.04687,0.051 0,0 0,0 0,0 -0.0183,0.022 -0.0362,0.043 -0.05273,0.066 0,0 0,0 0,0 -0.01649,0.024 -0.03413,0.047 -0.04883,0.072 0,0 0,0 0,0 -0.01464,0.025 -0.0282,0.05 -0.04102,0.076 0,0 0,0 0,0 -0.01278,0.026 -0.02619,0.053 -0.03711,0.08 0,0 0,0 0,0 -0.01087,0.027 -0.02031,0.056 -0.0293,0.084 0,0 0,0 0,0 -0.0089,0.028 -0.01837,0.057 -0.02539,0.086 0,0 0,0 0,0 -0.0014,0.01 -0.0026,0.012 -0.0039,0.018 -0.01121,0.049 -0.0198,0.1 -0.02539,0.1504 -4.27e-4,0 -0.0016,0.01 -0.002,0.012 0,0 0,0 0,0 -0.003,0.03 -0.0049,0.06 -0.0059,0.09 0,0 0,0 0,0 -0.0018,0.061 0.0012,0.1205 0.0078,0.1797 0,0 0,0 0,0 0.0066,0.059 0.01791,0.1194 0.0332,0.1758 0.01539,0.056 0.03619,0.1123 0.06055,0.164 0.01215,0.026 0.02467,0.05 0.03906,0.074 0,0 0,0 0,0 0.02758,0.046 0.05739,0.089 0.08594,0.1328 0,0 0,0 0,0 0.02855,0.043 0.05839,0.084 0.08789,0.125 0,0 0,0 0,0 0.08914,0.1225 0.183536,0.2343 0.28125,0.334 0.261517,0.2665 0.552411,0.4553 0.873047,0.5977 0,0 0.002,0 0.002,0 0.761202,0.3375 1.685213,0.4073 2.748047,0.5859 0.422475,0.071 0.857019,0.1278 1.365235,0.1934 0.328702,0.043 0.693004,0.089 1.099609,0.1445 0.02209,0.047 0.04451,0.095 0.06641,0.1426 0.21241,0.4599 0.416251,0.916 0.609375,1.3652 0.06437,0.1497 0.127401,0.2993 0.189453,0.4473 0.06206,0.148 0.121989,0.2934 0.181641,0.4394 0,0 0.002,0 0.002,0 0.119295,0.2919 0.232647,0.579 0.341797,0.8613 0.05458,0.1411 0.108245,0.2797 0.160156,0.418 0,0 0,0 0,0 0.01386,0.037 0.02735,0.073 0.04102,0.1094 0.139685,0.3753 0.270253,0.7398 0.388672,1.0898 0,0 0,0 0,0 0.04317,0.1276 0.08482,0.2532 0.125,0.377 0,0 0,0 0,0 0.04016,0.1237 0.08011,0.2457 0.117187,0.3652 0,0 0,0 0,0 0.01109,0.036 0.02044,0.07 0.03125,0.1055 0.0979,0.3204 0.185814,0.6262 0.259766,0.9121 0,0 0,0 0,0 0.0054,0.021 0.01037,0.04 0.01563,0.061 0.01058,0.042 0.01926,0.082 0.0293,0.123 -8.83e-4,0.022 -10e-4,0.045 -0.002,0.066 h 0.002 0.01758 v 0 c 0.02875,0.1189 0.05813,0.2362 0.08203,0.3476 l 0.931641,-0.082 h 0.03906 l 0.638672,0.1602 0.1875,-0.504 c -0.0036,-0.054 -0.0062,-0.108 -0.0098,-0.1621 h 0.08203 l 0.246094,0.3086 0.375,0.4766 0.335937,-0.1133 c 0.466899,-0.5344 0.937891,-1.0638 1.410156,-1.5918 0.708045,-0.7916 1.418888,-1.5802 2.121094,-2.3789 0,0 0,0 0,0 0.35126,-0.3996 0.701099,-0.801 1.046875,-1.2071 0.11527,-0.1353 0.231241,-0.2718 0.345703,-0.4082 0.228901,-0.2726 0.454614,-0.5469 0.679688,-0.8242 0.112548,-0.1386 0.224495,-0.278 0.335937,-0.418 0.222862,-0.2799 0.444267,-0.5617 0.66211,-0.8476 0.217864,-0.286 0.432482,-0.5763 0.644531,-0.8692 0.106014,-0.1464 0.211994,-0.293 0.316406,-0.4414 0.104421,-0.1483 0.207828,-0.2988 0.310547,-0.4492 0.10271,-0.1504 0.203779,-0.3005 0.304687,-0.4531 0.133272,-0.2015 0.264604,-0.4058 0.394532,-0.6113 0.0046,-10e-5 0.0091,0 0.01367,0 0.333246,-0.01 0.681057,-0.044 1.023438,-0.1094 0.170559,-0.033 0.341996,-0.071 0.507812,-0.1172 0.110331,-0.031 0.221619,-0.066 0.328126,-0.1016 0.05294,-0.018 0.106463,-0.035 0.158203,-0.055 0.156339,-0.058 0.308911,-0.1243 0.451171,-0.1933 0.02302,-0.011 0.04579,-0.022 0.06836,-0.033 0.02346,-0.012 0.0493,-0.025 0.07227,-0.037 0.04514,-0.024 0.08973,-0.049 0.132812,-0.074 0.04306,-0.025 0.08611,-0.052 0.126953,-0.078 0.04081,-0.026 0.08267,-0.053 0.121094,-0.08 0.0384,-0.027 0.07745,-0.056 0.113281,-0.084 0.03022,-0.024 0.05766,-0.048 0.08594,-0.072 0.0052,0 0.01051,-0.01 0.01563,-0.014 0,0 0.002,0 0.002,0 0.0021,0 0.0037,0 0.0059,-0.01 0.03041,-0.027 0.06193,-0.054 0.08984,-0.082 0.01489,-0.015 0.03077,-0.032 0.04492,-0.047 0.02827,-0.03 0.0549,-0.061 0.08008,-0.092 0,0 0.002,0 0.002,0 0.01224,-0.015 0.02368,-0.03 0.03516,-0.045 0,0 0.002,0 0.002,0 0.01145,-0.015 0.02254,-0.032 0.0332,-0.047 0,0 0.002,0 0.002,0 0.0027,0 0.0052,-0.01 0.0078,-0.012 0.0078,-0.012 0.01609,-0.023 0.02344,-0.035 0,0 0,0 0,0 0.01024,-0.018 0.02063,-0.036 0.0293,-0.055 0.0087,-0.019 0.01628,-0.04 0.02344,-0.061 0,0 0,0 0,0 0.01464,-0.041 0.02712,-0.083 0.03516,-0.1269 0.008,-0.044 0.01216,-0.091 0.01367,-0.1367 7.55e-4,-0.022 7.52e-4,-0.044 0,-0.066 0,0 0,0 0,0 -0.0074,-0.2063 -0.0787,-0.4134 -0.208984,-0.5586 0,0 -0.002,0 -0.002,0 -0.0059,-0.01 -0.01108,-0.013 -0.01758,-0.02 0,0 -0.002,0 -0.002,0 -0.0065,-0.01 -0.01245,-0.012 -0.01953,-0.018 0,0 -0.002,0 -0.002,0 -0.01465,-0.012 -0.03006,-0.025 -0.04687,-0.035 0,0 -0.002,0 -0.002,0 -0.01684,-0.01 -0.03415,-0.02 -0.05273,-0.029 0,0 -0.002,0 -0.002,0 -0.01864,-0.01 -0.03861,-0.019 -0.05859,-0.027 0,0 -0.002,0 -0.002,0 -0.02,-0.01 -0.03961,-0.016 -0.06055,-0.023 0,0 -0.002,0 -0.002,0 -0.02097,-0.01 -0.04296,-0.014 -0.06445,-0.021 0,0 -0.002,0 -0.002,0 -0.04417,-0.015 -0.08709,-0.03 -0.130859,-0.045 -0.02189,-0.01 -0.04527,-0.014 -0.06641,-0.022 -0.02113,-0.01 -0.04059,-0.015 -0.06055,-0.023 -0.01996,-0.01 -0.04025,-0.018 -0.05859,-0.027 -0.01834,-0.01 -0.03448,-0.019 -0.05078,-0.029 -0.0163,-0.01 -0.03305,-0.021 -0.04687,-0.033 -0.0065,-0.01 -0.01167,-0.012 -0.01758,-0.018 -0.03106,-0.032 -0.05299,-0.069 -0.0625,-0.1133 -0.07762,-0.3531 0.109382,-0.6023 0.423828,-0.8066 0,0 0.002,0 0.002,0 0.03113,-0.02 0.06419,-0.041 0.09766,-0.06 0.06739,-0.039 0.139595,-0.077 0.214844,-0.1133 0,0 0.002,0 0.002,0 0.03743,-0.018 0.07627,-0.037 0.115234,-0.055 0.612042,-0.2773 1.397096,-0.5078 1.837891,-0.918 0.01422,-0.013 0.02753,-0.025 0.04102,-0.039 0.01349,-0.014 0.02634,-0.029 0.03906,-0.043 0.01272,-0.014 0.02519,-0.027 0.03711,-0.041 0.02384,-0.029 0.04599,-0.059 0.06641,-0.09 0.05305,-0.08 0.109419,-0.1659 0.162109,-0.2558 0.01755,-0.03 0.03392,-0.059 0.05078,-0.09 0.08438,-0.154 0.158212,-0.3189 0.201172,-0.4804 0.0086,-0.032 0.01554,-0.064 0.02148,-0.096 0.003,-0.016 0.0055,-0.033 0.0078,-0.049 0.0023,-0.016 0.0044,-0.031 0.0059,-0.047 0.01507,-0.1585 -0.0089,-0.3098 -0.0918,-0.4454 0,0 0,0 0,0 -0.0025,0 -0.0051,-0.01 -0.0078,-0.012 -0.0038,-0.01 -0.0095,-0.011 -0.01367,-0.016 -0.0075,-0.01 -0.01481,-0.017 -0.02344,-0.025 -0.01727,-0.016 -0.03733,-0.03 -0.05859,-0.041 -0.01011,-0.01 -0.02034,-0.011 -0.03125,-0.016 0,0 -0.002,0 -0.002,0 -0.0115,0 -0.02287,-0.01 -0.03516,-0.014 -0.269935,-0.085 -0.720311,0.029 -0.914063,-0.1113 0,0 -0.002,0 -0.002,0 -0.01705,-0.013 -0.03228,-0.028 -0.04492,-0.045 -0.01293,-0.017 -0.02359,-0.038 -0.03125,-0.061 -0.02268,-0.067 -0.03711,-0.1331 -0.04492,-0.1972 -0.0026,-0.021 -0.0048,-0.041 -0.0059,-0.062 -0.001,-0.021 -4.64e-4,-0.042 0,-0.062 0.0014,-0.062 0.0093,-0.1241 0.02344,-0.1836 0.0094,-0.04 0.02055,-0.079 0.03516,-0.1172 0.02191,-0.058 0.04952,-0.1141 0.08203,-0.1699 0.03252,-0.056 0.07143,-0.112 0.113281,-0.166 0.01395,-0.018 0.02808,-0.035 0.04297,-0.053 0.163818,-0.1963 0.383552,-0.3827 0.626953,-0.5664 0.04386,-0.033 0.08954,-0.067 0.134766,-0.1 0.04524,-0.033 0.09243,-0.067 0.138671,-0.1 0.55976,-0.399 1.179123,-0.8026 1.53125,-1.2871 0.01468,-0.02 0.02924,-0.04 0.04297,-0.061 0.01373,-0.02 0.02633,-0.042 0.03906,-0.062 0.01273,-0.021 0.02543,-0.041 0.03711,-0.062 0.02337,-0.042 0.04361,-0.085 0.0625,-0.1289 0.0094,-0.022 0.01909,-0.042 0.02734,-0.064 0.01651,-0.044 0.0315,-0.089 0.04297,-0.1348 0,0 0,0 0,0 0.0095,-0.038 0.01621,-0.076 0.02344,-0.1153 0.06505,-0.35 0.03762,-0.7309 -0.07422,-1.082 -0.01243,-0.039 -0.02457,-0.077 -0.03906,-0.1152 -0.04347,-0.1146 -0.09662,-0.2258 -0.158203,-0.3301 -0.02053,-0.035 -0.04196,-0.068 -0.06445,-0.1016 -0.02249,-0.033 -0.04588,-0.066 -0.07031,-0.098 -0.01142,-0.015 -0.02461,-0.029 -0.03711,-0.043 -0.0012,0 -0.0027,0 -0.0039,0 -0.01143,-0.013 -0.02291,-0.027 -0.03516,-0.039 -0.0019,0 -0.0059,-0.01 -0.0078,-0.01 -0.01119,-0.011 -0.02336,-0.022 -0.03516,-0.033 -0.004,0 -0.0076,-0.01 -0.01172,-0.012 -0.01087,-0.01 -0.02187,-0.018 -0.0332,-0.027 -0.0053,0 -0.01019,-0.01 -0.01563,-0.014 -0.01018,-0.01 -0.02074,-0.016 -0.03125,-0.024 -0.0071,-0.01 -0.01421,-0.01 -0.02148,-0.016 -0.0092,-0.01 -0.01798,-0.013 -0.02734,-0.02 -0.0088,-0.01 -0.01837,-0.012 -0.02734,-0.018 -0.0083,-0.01 -0.01693,-0.011 -0.02539,-0.016 -0.01089,-0.01 -0.02209,-0.012 -0.0332,-0.018 -0.0067,0 -0.01278,-0.01 -0.01953,-0.012 -0.144379,-0.076 -0.305413,-0.1239 -0.462891,-0.1309 -0.536285,-0.023 -1.102882,0.245 -1.472656,0.6114 -1.18131,1.169 -0.140062,4.2586 -1.832031,4.5214 -0.480556,0.075 -0.455587,-0.9662 -0.931641,-1.0605 -0.388619,-0.077 -0.831536,0.2015 -1.064453,0.5039 -0.844169,1.0964 0.744885,3.6419 -0.638672,4.0156 -0.454288,0.1229 -0.460531,-0.9146 -0.921875,-1.0117 -0.466481,-0.098 -1.057939,0.17 -1.308594,0.5527 -0.251787,1.047 -0.214854,3.1452 0.640625,4.3965 -2.27147,3.0729 -4.827716,6.0354 -6.894531,8.1094 0.651868,-3.9025 2.147539,-9.5528 4.076172,-14.8086 0.677421,-0.4393 1.176653,-0.9056 1.455078,-1.5918 1.207766,-0.4229 2.364018,-1.2578 2.921875,-1.8652 0.178534,-0.4169 0.05648,-1.0236 -0.304687,-1.3184 -0.357022,-0.2914 -1.249351,0.321 -1.414063,-0.096 -0.50211,-1.2686 2.620128,-1.5793 3.056641,-2.8691 0.120453,-0.3559 0.09522,-0.8549 -0.201172,-1.1035 -0.363655,-0.3051 -1.237391,0.3317 -1.458985,-0.076 -0.780162,-1.4361 2.480904,-2.4823 2.779297,-4.0703 0.09358,-0.4973 -0.01491,-1.0868 -0.353515,-1.4785 -0.198936,-0.2302 -0.543898,-0.3717 -0.859375,-0.3692 -0.166301,0 -0.335358,0.022 -0.501954,0.061 -0.02631,0.01 -0.05195,0.013 -0.07812,0.02 -0.01564,0 -0.0313,0.01 -0.04688,0.014 -0.161642,0.046 -0.320718,0.1079 -0.470703,0.1836 -0.0044,0 -0.0093,0 -0.01367,0.01 -0.0341,0.017 -0.06643,0.036 -0.09961,0.055 -0.01979,0.011 -0.03916,0.022 -0.05859,0.033 -0.0085,0.01 -0.01698,0.01 -0.02539,0.016 -0.01133,0.01 -0.022,0.014 -0.0332,0.022 -0.02966,0.019 -0.05922,0.039 -0.08789,0.059 -0.0096,0.01 -0.01983,0.013 -0.0293,0.019 -0.02925,0.021 -0.05788,0.042 -0.08594,0.064 -0.0014,0 -0.0025,0 -0.0039,0 -0.0098,0.01 -0.02156,0.017 -0.03125,0.025 0.07213,-0.359 -0.01728,-0.715 -0.357421,-0.9277 -0.532562,-0.3334 -1.342319,0.201 -1.707032,-0.293 -0.705951,-0.9566 1.316335,-2.0713 1.416016,-3.5 0.04037,-0.5782 0.04394,-2.1428 -0.679688,-2.3301 -0.372101,-0.096 -0.67748,-0.081 -0.957031,0.049 -0.03985,0.019 -0.08222,0.039 -0.121094,0.062 -0.03357,0.02 -0.0666,0.043 -0.09961,0.066 -0.009,0.01 -0.01835,0.013 -0.02734,0.02 -0.02845,0.021 -0.05581,0.044 -0.08398,0.068 -0.0091,0.01 -0.01829,0.015 -0.02734,0.024 -0.03289,0.029 -0.06495,0.059 -0.09766,0.092 -0.0064,0.01 -0.01309,0.013 -0.01953,0.02 -0.01786,0.018 -0.03488,0.039 -0.05273,0.059 -0.03296,0.036 -0.06655,0.072 -0.09961,0.1113 -0.0054,0.01 -0.01026,0.013 -0.01563,0.02 -0.03573,0.043 -0.07135,0.089 -0.107422,0.1367 -0.0092,0.012 -0.0181,0.025 -0.02734,0.037 -0.007,0.01 -0.01442,0.018 -0.02148,0.027 -0.03294,0.045 -0.06614,0.092 -0.09961,0.1407 -0.04449,0.065 -0.08906,0.1316 -0.134765,0.2031 -0.940402,1.3422 -0.525128,3.4763 -0.941406,4.1211 -0.01436,0.022 -0.03045,0.042 -0.04687,0.061 -0.01611,0.018 -0.03447,0.036 -0.05273,0.051 -0.0089,0.01 -0.01985,0.013 -0.0293,0.02 -0.0095,0.01 -0.01925,0.012 -0.0293,0.018 -0.03431,0.018 -0.06968,0.034 -0.09961,0.045 -0.02967,0.011 -0.05804,0.02 -0.08398,0.025 -0.01258,0 -0.02726,0 -0.03906,0.01 -0.01237,0 -0.02356,0 -0.03516,0 -0.02321,6e-4 -0.04583,10e-5 -0.06641,0 -0.01994,0 -0.03859,-0.012 -0.05664,-0.02 0,0 -0.002,0 -0.002,0 -0.01855,-0.01 -0.03556,-0.016 -0.05273,-0.027 -0.0172,-0.011 -0.03433,-0.025 -0.05078,-0.039 -0.01608,-0.014 -0.03092,-0.029 -0.04687,-0.045 0,0 -0.002,0 -0.002,0 -0.03263,-0.032 -0.06561,-0.067 -0.101562,-0.1035 -0.01799,-0.018 -0.03688,-0.038 -0.05664,-0.057 -0.01975,-0.019 -0.04035,-0.036 -0.0625,-0.055 -0.08865,-0.073 -0.197411,-0.1411 -0.349609,-0.1836 0,0 -0.002,0 -0.002,0 -0.02831,-0.01 -0.05706,-0.012 -0.08594,-0.014 0,0 -0.002,0 -0.002,0 -0.235644,-0.012 -0.486235,0.1734 -0.671875,0.4492 0,0 0,0 0,0 -0.115907,0.1726 -0.206739,0.3791 -0.253906,0.5938 0,0 0,0 0,0 -0.01868,0.086 -0.03158,0.1736 -0.03516,0.2598 -0.01512,0.3641 0.05968,0.7315 0.177734,1.0977 0,0 0,0 0,0 0.118004,0.3656 0.280295,0.7287 0.441406,1.082 0,0 0,0 0,0 0.05354,0.1174 0.106498,0.2346 0.158203,0.3496 0.103502,0.2306 0.201009,0.458 0.277344,0.6758 0.09529,0.2721 0.159697,0.5346 0.166016,0.7793 5.69e-4,0.024 5.49e-4,0.047 0,0.07 0,0 0,0 0,0 0,0 0,0 0,0 -0.0023,0.091 -0.01418,0.181 -0.03516,0.2676 -9.42e-4,0 -9.7e-4,0.01 -0.002,0.012 0,0 0,0 0,0 -0.01154,0.045 -0.02571,0.089 -0.04297,0.1329 0,0 -0.002,0 -0.002,0 -0.02608,0.065 -0.05753,0.1294 -0.09766,0.1914 0,0 -0.002,0 -0.002,0 -0.01311,0.02 -0.02632,0.041 -0.04102,0.061 0,0 -0.002,0 -0.002,0 -0.01476,0.02 -0.03048,0.039 -0.04687,0.059 0,0 -0.002,0 -0.002,0 -0.01647,0.019 -0.03457,0.04 -0.05273,0.059 -0.01849,0.019 -0.04026,0.04 -0.06055,0.059 -0.01804,0.017 -0.03715,0.034 -0.05664,0.051 -0.0022,0 -0.0037,0 -0.0059,0.01 0,0 -0.002,0 -0.002,0 -0.02193,0.018 -0.04459,0.035 -0.06836,0.053 0,0 -0.002,0 -0.002,0 -0.02387,0.018 -0.04845,0.035 -0.07422,0.053 0,0 -0.002,0 -0.002,0 -0.02587,0.017 -0.05421,0.034 -0.08203,0.051 0,0 -0.002,0 -0.002,0 -0.0193,0.012 -0.03834,0.022 -0.05664,0.031 0,0 -0.002,0 -0.002,0 -0.01819,0.01 -0.03547,0.016 -0.05273,0.024 0,0 -0.002,0 -0.002,0 -0.07119,0.029 -0.13687,0.04 -0.195313,0.037 -0.05836,0 -0.11358,-0.021 -0.164062,-0.047 -0.228515,-0.1196 -0.402298,-0.4309 -0.744141,-0.5214 0,0 -0.002,0 -0.002,0 -0.07639,-0.02 -0.160125,-0.03 -0.255859,-0.024 -0.119812,0.01 -0.242422,0.035 -0.359375,0.074 -0.0778,0.026 -0.15595,0.058 -0.230469,0.096 -0.187541,0.095 -0.360858,0.2243 -0.509766,0.3731 -0.02942,0.029 -0.05863,0.059 -0.08594,0.09 0,0 0,0 0,0 -0.02727,0.031 -0.05512,0.062 -0.08008,0.094 0,0 0,0 0,0 -0.02491,0.032 -0.04986,0.064 -0.07227,0.098 0,0 0,0 0,0 -0.02235,0.033 -0.0448,0.066 -0.06445,0.1 0,0 0,0 0,0 -0.0196,0.034 -0.03798,0.069 -0.05469,0.1035 0,0 0,0 0,0 -0.01665,0.035 -0.0333,0.068 -0.04687,0.1035 0,0 0,0 0,0 -0.0088,0.023 -0.016,0.046 -0.02344,0.068 0,0 -0.002,0 -0.002,0 -0.0053,0.016 -0.009,0.033 -0.01367,0.049 -0.0018,0.01 -0.0041,0.013 -0.0059,0.02 0,0 0,0 0,0 -0.006,0.023 -0.0128,0.045 -0.01758,0.068 0,0 0,0 0,0 -0.01449,0.07 -0.02371,0.1406 -0.02734,0.211 0,0 0,0 0,0 -0.0023,0.047 -0.0019,0.094 0,0.1406 0,0 0,0 0,0 0.01005,0.2366 0.07161,0.4738 0.160156,0.709 0,0 0,0 0,0 0.01757,0.047 0.0372,0.092 0.05664,0.1387 0,0 0,0 0,0 0.03933,0.094 0.08242,0.1865 0.126953,0.2793 0.04456,0.093 0.09027,0.1841 0.136718,0.2754 0,0 0,0 0,0 0.09263,0.1819 0.187182,0.3599 0.267579,0.5332 0,0 0,0 0,0 0.04029,0.087 0.07711,0.1717 0.109374,0.2558 0.01614,0.042 0.03141,0.084 0.04492,0.125 0.04303,0.1316 0.06859,0.2583 0.07617,0.3809 -0.723669,0.1447 -1.561581,0.7681 -2.015625,0.2988 -1.25662,-1.2989 1.569462,-3.3622 1.222657,-5.0703 -0.104013,-0.5119 -0.461775,-1.0724 -1.017579,-1.0723 -0.551292,3e-4 -1.246524,0.6384 -1.626953,0.2657 -1.124964,-1.1022 1.409191,-2.9087 1.123047,-4.3965 -0.103464,-0.5373 -0.479143,-1.0957 -1.113281,-1.2481 -0.643612,-0.1546 -1.546262,0.7548 -1.964844,0.2754 -0.949628,-1.0885 1.919174,-2.5235 1.609375,-3.8887 -0.132589,-0.5834 -0.74593,-1.086 -1.355469,-1.2812 -0.436868,-0.1398 -1.01398,0.4448 -1.36914,0.1699 -1.166279,-0.903 0.627714,-3.0246 -0.208985,-4.1992 -0.352926,-0.4954 -1.058717,-0.9301 -1.703125,-0.9219 z m 15.935547,13.8184 c -0.0072,0.031 -0.01136,0.062 -0.01758,0.094 -0.005,0.025 -0.01116,0.05 -0.01563,0.076 -0.0089,0.052 -0.01666,0.1034 -0.02344,0.1563 -0.01359,0.1056 -0.02239,0.2146 -0.0293,0.3242 -0.0069,0.1096 -0.01103,0.2204 -0.01367,0.332 -0.0054,0.2232 -0.0047,0.4478 -0.0078,0.668 0,0 0,0 0,0 -7.65e-4,0.054 -0.0025,0.1085 -0.0039,0.1621 0,0 0,0 0,0 -0.0056,0.2165 -0.0173,0.4259 -0.04492,0.6211 0,0 0,0 0,0 -0.0069,0.048 -0.01448,0.096 -0.02344,0.1426 0,0 0,0 0,0 -0.02719,0.1403 -0.06537,0.2714 -0.117188,0.3906 0,0 0,0 0,0 -0.0085,0.019 -0.01811,0.038 -0.02734,0.057 0,0 0,0 0,0 -0.0093,0.019 -0.01922,0.037 -0.0293,0.055 0,0 0,0 0,0 -0.01011,0.018 -0.02224,0.035 -0.0332,0.053 0,0 0,0 0,0 -0.02227,0.035 -0.04626,0.068 -0.07227,0.1 0,0 0,0 0,0 -0.09173,0.1124 -0.21116,0.2058 -0.357422,0.2735 -0.04214,0.019 -0.08547,0.035 -0.132813,0.051 -0.119566,0.038 -0.221778,-0.016 -0.316406,-0.1093 0,0 0,0 0,0 -0.151874,-0.1501 -0.289567,-0.3958 -0.458984,-0.5078 -0.0106,-0.01 -0.02038,-0.014 -0.03125,-0.019 -0.01087,-0.01 -0.02204,-0.011 -0.0332,-0.016 -0.01061,0 -0.0223,-0.01 -0.0332,-0.012 0,0 -0.002,0 -0.002,0 -0.0115,0 -0.02136,-0.01 -0.0332,-0.01 -0.01185,0 -0.02294,0 -0.03516,0 0,0 -0.002,0 -0.002,0 -0.01157,-3e-4 -0.02518,8e-4 -0.03711,0 -0.0019,2e-4 -0.0039,-3e-4 -0.0059,0 -0.06324,0.01 -0.124315,0.023 -0.18164,0.045 0,0 -0.002,0 -0.002,0 -0.02902,0.011 -0.05838,0.024 -0.08594,0.039 -0.01365,0.01 -0.02967,0.015 -0.04297,0.023 -0.0053,0 -0.01037,0.01 -0.01563,0.01 -0.01612,0.01 -0.03128,0.022 -0.04687,0.033 -0.0052,0 -0.01242,0.01 -0.01758,0.012 -0.03867,0.029 -0.07579,0.063 -0.111328,0.098 -0.04718,0.046 -0.09479,0.1002 -0.136719,0.1543 -0.04186,0.054 -0.08025,0.1128 -0.117187,0.1719 0,0 -0.002,0 -0.002,0 -0.0182,0.029 -0.03567,0.058 -0.05273,0.088 0,0 -0.002,0 -0.002,0 -0.0079,0.014 -0.01378,0.029 -0.02148,0.043 -0.0089,0.016 -0.01876,0.033 -0.02734,0.049 0,0 0,0 0,0 -0.0034,0.01 -0.0064,0.013 -0.0098,0.019 -0.01853,-0.027 -0.03543,-0.058 -0.05273,-0.092 -0.706418,-1.3897 1.667552,-2.404 2.863281,-3.5976 z m -15.257812,13.1855 c 0.009,0.01 0.01831,0.017 0.02734,0.025 0.04775,0.045 0.09597,0.09 0.144532,0.1348 0.01965,0.018 0.03881,0.037 0.05859,0.055 0.01264,0.011 0.02442,0.024 0.03711,0.035 0.05379,0.048 0.109375,0.095 0.164062,0.1426 0.04347,0.038 0.08685,0.076 0.13086,0.1133 0.03843,0.033 0.07641,0.065 0.115234,0.098 0.0078,0.01 0.0156,0.013 0.02344,0.02 0.05355,0.044 0.107848,0.087 0.162109,0.1308 0.117186,0.095 0.237235,0.1876 0.357422,0.2793 0.105536,0.08 0.210811,0.1598 0.318359,0.2383 0.132255,0.097 0.265571,0.1913 0.400391,0.2852 0.02797,0.019 0.05592,0.039 0.08398,0.059 0.13612,0.094 0.274038,0.1858 0.41211,0.2773 0.01913,0.013 0.03747,0.026 0.05664,0.039 0.403566,0.2662 0.81399,0.5218 1.22461,0.7734 0.0346,0.3956 0.06798,0.7907 0.09961,1.1816 0.0531,0.656 0.101807,1.3043 0.146484,1.9434 0.04466,0.6392 0.08494,1.269 0.121094,1.8867 0.03617,0.6177 0.06813,1.2228 0.0957,1.8145 0.05783,1.2417 0.09581,2.4198 0.115235,3.5156 -0.471593,-1.1608 -0.968876,-2.3192 -1.542969,-3.4687 0.41066,-0.8933 0.641396,-1.6642 0.835937,-2.4395 0,0 0,0 0,0 0.410278,-1.6358 0.591098,-2.7538 -0.58789,-4.0175 -0.259295,-0.2778 -0.742343,-0.4238 -1.123047,-0.3321 -0.711881,0.1713 -0.949765,0.5958 -1.640625,0.3614 -1.322166,-0.4493 -0.291189,-1.8734 -0.236328,-3.1485 z m 6.878906,1.0879 c 0.06923,0.092 0.134962,0.1805 0.208984,0.2793 -0.02604,0.1166 -0.05303,0.2332 -0.07813,0.3496 -0.04798,0.2226 -0.09399,0.4439 -0.138672,0.666 -1.25e-4,7e-4 1.26e-4,0 0,0 -0.04455,0.2215 -0.08743,0.4429 -0.128906,0.6641 -0.08331,0.4442 -0.160273,0.887 -0.232422,1.33 -0.03604,0.2212 -0.07191,0.4412 -0.105468,0.6621 -9.7e-5,7e-4 9.6e-5,0 0,0 -0.03346,0.2203 -0.0645,0.4401 -0.0957,0.6602 -0.03137,0.2212 -0.0625,0.441 -0.0918,0.6621 -0.02922,0.2204 -0.05662,0.4399 -0.08398,0.6601 -0.02743,0.2209 -0.05432,0.4415 -0.08008,0.6621 -0.0257,0.22 -0.04997,0.4384 -0.07422,0.6582 -7e-5,7e-4 7.1e-5,0 0,0 -0.04841,0.439 -0.09484,0.8779 -0.138672,1.3164 -6.4e-5,6e-4 6.5e-5,0 0,0 -0.02357,0.2359 -0.04575,0.4713 -0.06836,0.7071 -0.148777,-2.55 -0.314433,-5.1031 -0.560547,-7.6739 0.596123,-0.4876 1.160975,-1.0311 1.667969,-1.6113 z m 3.072266,0.019 c -0.07182,0.1745 -0.143548,0.349 -0.212891,0.5235 -0.08493,0.2137 -0.166634,0.4268 -0.248047,0.6406 -0.08163,0.2144 -0.161941,0.4282 -0.240234,0.6426 -0.0781,0.2138 -0.153526,0.4267 -0.228516,0.6406 -0.07519,0.2145 -0.148435,0.428 -0.220703,0.6426 -0.07209,0.214 -0.143503,0.4266 -0.212891,0.6406 0,0 0,0 0,0 -0.06919,0.2134 -0.136414,0.4271 -0.203125,0.6406 0,0 0,0 0,0 -0.0667,0.2136 -0.132836,0.4271 -0.197265,0.6407 0,0 0,0 0,0 -0.06442,0.2136 -0.129055,0.4271 -0.191407,0.6407 0,0 0,0 0,0 -0.06235,0.2136 -0.125067,0.427 -0.185546,0.6406 0,0 0,0 0,0 -0.06047,0.2136 -0.118922,0.427 -0.177735,0.6406 0,0 0,0 0,0 -0.0073,0.027 -0.01417,0.053 -0.02148,0.08 0.217362,-2.0493 0.517076,-4.233 0.896484,-6.416 0.536206,-0.1909 1.004159,-0.3959 1.44336,-0.6094 z"
         transform="scale(0.26458333)" />
      <g
         id="g120744"
         transform="translate(4.4152343,-0.49609375)"
         style="stroke-width:1.06493">
        <path
           id="path113519"
           style="fill:#c74f00;fill-opacity:1;fill-rule:evenodd;stroke:#321400;stroke-width:0.563529;stroke-linecap:butt;stroke-linejoin:miter;stroke-miterlimit:4;stroke-dasharray:none;stroke-opacity:1"
           d="m 5.6110269,292.24054 c -0.2745976,0.009 -0.5616787,0.019 -0.8152302,0.13388 -0.1239171,0.0681 -0.1700181,0.21508 -0.2140686,0.34055 -0.1069972,0.37343 -0.1160285,0.76724 -0.1034811,1.15295 0.1892493,0.14282 0.3807989,0.29741 0.6113674,0.36642 0.2703356,0.0732 0.5604301,0.0605 0.8273692,-0.0212 0.1929522,-0.0777 0.3625506,-0.20159 0.5281393,-0.32515 0.02558,-0.37843 0.034962,-0.76551 -0.053982,-1.13691 -0.033806,-0.14811 -0.108137,-0.29062 -0.2373616,-0.37656 -0.097645,-0.0682 -0.2040766,-0.15083 -0.3303961,-0.13779 -0.068636,0.003 -0.1532186,-0.01 -0.2123564,0.004 z" />
        <path
           style="fill:#c74f00;fill-opacity:1;fill-rule:evenodd;stroke:none;stroke-width:0.281763px;stroke-linecap:butt;stroke-linejoin:miter;stroke-opacity:1"
           d="m 4.4784349,293.87251 c 0,0 -0.062073,-1.05843 0.241521,-1.43799 0.081484,-0.10187 0.362282,-0.14803 0.362282,-0.14803 0.3165857,-0.0553 0.5624616,-0.0477 0.8108202,-0.0423 0.053695,-0.007 0.3308509,0.14908 0.414037,0.29608 0.223342,0.39466 0.138013,1.35341 0.138013,1.35341 0,0 -0.356434,0.27988 -0.5693,0.33836 -0.260617,0.0716 -0.5506993,0.0734 -0.8108217,0 -0.2207104,-0.0623 -0.5865515,-0.35953 -0.5865515,-0.35953 z"
           id="path110993"
           sodipodi:nodetypes="csccscssc" />
        <path
           id="path111632"
           style="fill:#aa4400;fill-rule:evenodd;stroke:none;stroke-width:1.06493px;stroke-linecap:butt;stroke-linejoin:miter;stroke-opacity:1"
           d="m 18.912109,1104.7676 c -0.33776,0.081 -0.868616,0.2415 -1.072265,0.4961 -1.147442,1.4345 -0.914063,5.4355 -0.914063,5.4355 0,0 1.382616,1.1239 2.216797,1.3594 0.98314,0.2774 2.079444,0.2706 3.064453,0 0.804533,-0.221 2.152344,-1.2793 2.152344,-1.2793 0,0 0.338763,-3.6328 -0.521484,-5.1152 -0.01812,-0.031 -0.03893,-0.063 -0.0625,-0.094 a 2.7179418,1.2595337 0 0 1 -2.705079,1.2285 2.7179418,1.2595337 0 0 1 -2.730468,-1.248 2.7179418,1.2595337 0 0 1 0.572265,-0.7832 z"
           transform="scale(0.26458333)" />
        <path
           id="path112383"
           style="fill:#7f3300;fill-opacity:1;fill-rule:evenodd;stroke:none;stroke-width:1.06493px;stroke-linecap:butt;stroke-linejoin:miter;stroke-opacity:1"
           d="m 17.839844,1105.2637 c -1.147442,1.4345 -0.914063,5.4355 -0.914063,5.4355 0,0 1.382616,1.1239 2.216797,1.3594 0.98314,0.2774 2.079444,0.2706 3.064453,0 0.804533,-0.221 2.152344,-1.2793 2.152344,-1.2793 -4.330915,0.7391 -7.496458,1.3546 -6.519531,-5.5156 z"
           sodipodi:nodetypes="ccsscc"
           transform="scale(0.26458333)" />
      </g>
      <g
         id="g110958"
         transform="matrix(1.1066295,-0.41442607,0.44070169,1.0406498,-129.59846,-6.2392523)"
         style="stroke-width:0.921943">
        <path
           style="fill:#56c200;fill-opacity:1;fill-rule:evenodd;stroke:none;stroke-width:0.24393px;stroke-linecap:butt;stroke-linejoin:miter;stroke-opacity:1"
           d="m 10.662516,288.27788 c 0.227783,-0.32546 0.362954,-0.55601 0.230047,-0.93037 -0.02922,-0.0823 -0.116529,-0.15409 -0.203095,-0.16528 -0.16188,-0.0209 -0.247965,0.0529 -0.370053,-0.0553 -0.300966,-0.26704 0.345998,-0.56784 0.260347,-0.96097 -0.02792,-0.12836 -0.135002,-0.26995 -0.26447,-0.29218 -0.170384,-0.0293 -0.218998,0.16661 -0.3524348,0.0562 -0.3123378,-0.2576 0.1900438,-0.77303 0.2487618,-1.16008 0.02122,-0.13987 -0.03062,-0.29225 -0.170453,-0.31362 -0.1404554,-0.0215 -0.2504354,0.16847 -0.3731023,0.0968 -0.237464,-0.13878 0.058862,-0.56657 -0.063351,-0.88191 -0.049452,-0.12761 -0.2044974,-0.4631 -0.368897,-0.43544 -0.1932331,0.0325 -0.2590018,0.15614 -0.2881915,0.42971 -0.061492,0.41442 0.3051995,0.88032 0.2036147,1.01741 -0.083984,0.11338 -0.1285006,-0.0147 -0.268054,0.006 -0.106166,0.0156 -0.1458841,0.22361 -0.082529,0.37506 0.1771267,0.4234 0.8773638,0.6384 0.619856,1.04898 -0.090653,0.14455 -0.197254,-0.0504 -0.3464566,0.0322 -0.1250972,0.0693 -0.2014594,0.24263 -0.1892199,0.38516 0.032177,0.37467 0.6812042,0.49939 0.500063,0.82896 -0.084196,0.15319 -0.2436771,0.0539 -0.3954243,0.14063 -0.092478,0.0529 -0.1587467,0.17943 -0.1446109,0.28503 0.053623,0.40062 0.34244,0.51242 0.6857929,0.72568 0.1619597,0.10059 0.3389514,0.19314 0.6161509,0.35675 0.236098,-0.21134 0.381021,-0.39719 0.515655,-0.58956 z"
           id="path110954"
           sodipodi:nodetypes="sssssssssssscsssssssssscss" />
        <path
           id="path110956"
           style="fill:#419805;fill-opacity:1;fill-rule:evenodd;stroke:none;stroke-width:0.24393px;stroke-linecap:butt;stroke-linejoin:miter;stroke-opacity:1"
           d="m 9.0501513,283.33244 c -0.057418,0.0694 -0.085655,0.17661 -0.1023194,0.33279 -0.061492,0.41442 0.30519,0.88043 0.2036053,1.01751 -0.083984,0.11338 -0.1286473,-0.0146 -0.2682007,0.006 -0.1061659,0.0156 -0.1460373,0.22371 -0.082682,0.37515 0.1771267,0.42342 0.8776251,0.63794 0.6201172,1.04852 -0.090653,0.14457 -0.1975464,-0.05 -0.3467489,0.0326 -0.1250971,0.0693 -0.2013751,0.24247 -0.1891358,0.38497 0.032177,0.37468 0.681369,0.49932 0.5002279,0.82891 -0.084196,0.15317 -0.2435776,0.0538 -0.3953246,0.14055 -0.092478,0.0529 -0.1588299,0.17965 -0.144694,0.28525 0.053623,0.40063 0.3423934,0.51228 0.6857463,0.72554 0.1619597,0.10059 0.3387836,0.19349 0.6159824,0.35708 0.01137,-0.0101 0.02263,-0.0204 0.03359,-0.0305 -0.0011,-0.005 -0.0025,-0.009 -0.0036,-0.0135 -0.008,-0.0322 -0.01557,-0.0643 -0.02325,-0.0966 -0.01536,-0.0648 -0.03059,-0.12978 -0.04496,-0.19534 -0.01436,-0.0656 -0.02787,-0.13161 -0.04134,-0.19791 -0.01348,-0.0663 -0.02658,-0.13303 -0.03927,-0.2 -0.01269,-0.067 -0.02519,-0.13446 -0.037207,-0.20206 -0.01202,-0.0676 -0.023685,-0.13547 -0.03514,-0.2036 -0.011456,-0.0681 -0.02259,-0.13655 -0.03359,-0.20516 -0.010999,-0.0686 -0.021907,-0.13716 -0.032556,-0.20619 -0.010649,-0.069 -0.021114,-0.13835 -0.031522,-0.20775 -0.020817,-0.13877 -0.041508,-0.27823 -0.062012,-0.41804 -0.020503,-0.13983 -0.040957,-0.2803 -0.062012,-0.42066 -0.010528,-0.0702 -0.021212,-0.1401 -0.03204,-0.21032 -0.010827,-0.0702 -0.021839,-0.14062 -0.033073,-0.21084 -0.011234,-0.0702 -0.022355,-0.14021 -0.034106,-0.21032 -0.01175,-0.0701 -0.023799,-0.14034 -0.036174,-0.21032 -0.012374,-0.07 -0.025133,-0.14004 -0.038241,-0.20981 -0.013107,-0.0698 -0.026877,-0.13928 -0.040824,-0.20876 -0.013949,-0.0695 -0.027995,-0.13859 -0.042892,-0.20775 -0.014896,-0.0692 -0.030556,-0.13846 -0.046509,-0.20722 -0.00798,-0.0344 -0.016029,-0.0686 -0.024289,-0.10284 -0.00826,-0.0343 -0.016764,-0.0687 -0.025321,-0.10285 -0.00856,-0.0341 -0.016968,-0.0678 -0.025839,-0.10178 -0.00887,-0.034 -0.018193,-0.0684 -0.027389,-0.10232 -0.00919,-0.0339 -0.018373,-0.0675 -0.027905,-0.10128 -0.00953,-0.0338 -0.019571,-0.0672 -0.029456,-0.10078 -0.00988,-0.0336 -0.019722,-0.0673 -0.029972,-0.10078 -0.01025,-0.0334 -0.020891,-0.067 -0.031522,-0.10025 -0.010631,-0.0333 -0.021016,-0.0661 -0.032039,-0.0992 -0.011023,-0.0331 -0.022678,-0.0663 -0.034106,-0.0992 -0.011427,-0.0329 -0.022775,-0.0655 -0.034623,-0.0982 -0.011848,-0.0327 -0.023892,-0.0657 -0.036174,-0.0982 -0.00692,-0.0183 -0.014126,-0.0365 -0.021188,-0.0548 z" />
      </g>
      <g
         id="g110916"
         transform="matrix(1.0800947,0.47229282,-0.50223733,1.015697,144.4193,-10.210617)"
         style="stroke-width:0.921943">
        <path
           style="fill:#56c200;fill-opacity:1;fill-rule:evenodd;stroke:none;stroke-width:0.24393px;stroke-linecap:butt;stroke-linejoin:miter;stroke-opacity:1"
           d="m 10.662516,288.27788 c 0.227783,-0.32546 0.362954,-0.55601 0.230047,-0.93037 -0.02922,-0.0823 -0.116529,-0.15409 -0.203095,-0.16528 -0.16188,-0.0209 -0.247965,0.0529 -0.370053,-0.0553 -0.300966,-0.26704 0.345998,-0.56784 0.260347,-0.96097 -0.02792,-0.12836 -0.135002,-0.26995 -0.26447,-0.29218 -0.170384,-0.0293 -0.218998,0.16661 -0.3524348,0.0562 -0.3123378,-0.2576 0.1900438,-0.77303 0.2487618,-1.16008 0.02122,-0.13987 -0.03062,-0.29225 -0.170453,-0.31362 -0.1404554,-0.0215 -0.2504354,0.16847 -0.3731023,0.0968 -0.237464,-0.13878 0.058862,-0.56657 -0.063351,-0.88191 -0.049452,-0.12761 -0.2044974,-0.4631 -0.368897,-0.43544 -0.1932331,0.0325 -0.2590018,0.15614 -0.2881915,0.42971 -0.061492,0.41442 0.3051995,0.88032 0.2036147,1.01741 -0.083984,0.11338 -0.1285006,-0.0147 -0.268054,0.006 -0.106166,0.0156 -0.1458841,0.22361 -0.082529,0.37506 0.1771267,0.4234 0.8773638,0.6384 0.619856,1.04898 -0.090653,0.14455 -0.197254,-0.0504 -0.3464566,0.0322 -0.1250972,0.0693 -0.2014594,0.24263 -0.1892199,0.38516 0.032177,0.37467 0.6812042,0.49939 0.500063,0.82896 -0.084196,0.15319 -0.2436771,0.0539 -0.3954243,0.14063 -0.092478,0.0529 -0.1587467,0.17943 -0.1446109,0.28503 0.053623,0.40062 0.34244,0.51242 0.6857929,0.72568 0.1619597,0.10059 0.3389514,0.19314 0.6161509,0.35675 0.236098,-0.21134 0.381021,-0.39719 0.515655,-0.58956 z"
           id="path11190-3"
           sodipodi:nodetypes="sssssssssssscsssssssssscss" />
        <path
           id="path17494-5"
           style="fill:#419805;fill-opacity:1;fill-rule:evenodd;stroke:none;stroke-width:0.24393px;stroke-linecap:butt;stroke-linejoin:miter;stroke-opacity:1"
           d="m 9.0501513,283.33244 c -0.057418,0.0694 -0.085655,0.17661 -0.1023194,0.33279 -0.061492,0.41442 0.30519,0.88043 0.2036053,1.01751 -0.083984,0.11338 -0.1286473,-0.0146 -0.2682007,0.006 -0.1061659,0.0156 -0.1460373,0.22371 -0.082682,0.37515 0.1771267,0.42342 0.8776251,0.63794 0.6201172,1.04852 -0.090653,0.14457 -0.1975464,-0.05 -0.3467489,0.0326 -0.1250971,0.0693 -0.2013751,0.24247 -0.1891358,0.38497 0.032177,0.37468 0.681369,0.49932 0.5002279,0.82891 -0.084196,0.15317 -0.2435776,0.0538 -0.3953246,0.14055 -0.092478,0.0529 -0.1588299,0.17965 -0.144694,0.28525 0.053623,0.40063 0.3423934,0.51228 0.6857463,0.72554 0.1619597,0.10059 0.3387836,0.19349 0.6159824,0.35708 0.01137,-0.0101 0.02263,-0.0204 0.03359,-0.0305 -0.0011,-0.005 -0.0025,-0.009 -0.0036,-0.0135 -0.008,-0.0322 -0.01557,-0.0643 -0.02325,-0.0966 -0.01536,-0.0648 -0.03059,-0.12978 -0.04496,-0.19534 -0.01436,-0.0656 -0.02787,-0.13161 -0.04134,-0.19791 -0.01348,-0.0663 -0.02658,-0.13303 -0.03927,-0.2 -0.01269,-0.067 -0.02519,-0.13446 -0.037207,-0.20206 -0.01202,-0.0676 -0.023685,-0.13547 -0.03514,-0.2036 -0.011456,-0.0681 -0.02259,-0.13655 -0.03359,-0.20516 -0.010999,-0.0686 -0.021907,-0.13716 -0.032556,-0.20619 -0.010649,-0.069 -0.021114,-0.13835 -0.031522,-0.20775 -0.020817,-0.13877 -0.041508,-0.27823 -0.062012,-0.41804 -0.020503,-0.13983 -0.040957,-0.2803 -0.062012,-0.42066 -0.010528,-0.0702 -0.021212,-0.1401 -0.03204,-0.21032 -0.010827,-0.0702 -0.021839,-0.14062 -0.033073,-0.21084 -0.011234,-0.0702 -0.022355,-0.14021 -0.034106,-0.21032 -0.01175,-0.0701 -0.023799,-0.14034 -0.036174,-0.21032 -0.012374,-0.07 -0.025133,-0.14004 -0.038241,-0.20981 -0.013107,-0.0698 -0.026877,-0.13928 -0.040824,-0.20876 -0.013949,-0.0695 -0.027995,-0.13859 -0.042892,-0.20775 -0.014896,-0.0692 -0.030556,-0.13846 -0.046509,-0.20722 -0.00798,-0.0344 -0.016029,-0.0686 -0.024289,-0.10284 -0.00826,-0.0343 -0.016764,-0.0687 -0.025321,-0.10285 -0.00856,-0.0341 -0.016968,-0.0678 -0.025839,-0.10178 -0.00887,-0.034 -0.018193,-0.0684 -0.027389,-0.10232 -0.00919,-0.0339 -0.018373,-0.0675 -0.027905,-0.10128 -0.00953,-0.0338 -0.019571,-0.0672 -0.029456,-0.10078 -0.00988,-0.0336 -0.019722,-0.0673 -0.029972,-0.10078 -0.01025,-0.0334 -0.020891,-0.067 -0.031522,-0.10025 -0.010631,-0.0333 -0.021016,-0.0661 -0.032039,-0.0992 -0.011023,-0.0331 -0.022678,-0.0663 -0.034106,-0.0992 -0.011427,-0.0329 -0.022775,-0.0655 -0.034623,-0.0982 -0.011848,-0.0327 -0.023892,-0.0657 -0.036174,-0.0982 -0.00692,-0.0183 -0.014126,-0.0365 -0.021188,-0.0548 z" />
      </g>
      <g
         id="g110928"
         transform="matrix(0.55351975,0.78318051,-0.83283605,0.52051766,247.94226,128.5524)"
         style="stroke-width:1.09818">
        <path
           style="fill:#56c101;fill-opacity:1;fill-rule:evenodd;stroke:none;stroke-width:0.290559px;stroke-linecap:butt;stroke-linejoin:miter;stroke-opacity:1"
           d="m 8.2959428,289.98623 c -0.049515,-0.0812 -0.043227,-0.20953 0.014563,-0.28515 0.04918,-0.0644 0.2003033,-0.0665 0.2124828,-0.14699 0.04999,-0.32133 -0.6046076,-0.30464 -0.7908963,-0.57119 -0.080677,-0.11544 -0.1786945,-0.28128 -0.1145749,-0.40668 0.048903,-0.0957 0.2753763,-0.007 0.3027118,-0.11082 0.107857,-0.40962 -0.7062117,-0.56076 -0.8235846,-0.96777 -0.048767,-0.16911 -0.020742,-0.37525 0.075534,-0.52259 0.045624,-0.0699 0.129492,-0.12424 0.2125164,-0.13226 0.1413971,-0.0136 0.2952189,0.0542 0.398044,0.15227 0.3284178,0.31307 0.095802,1.19489 0.5465702,1.24663 0.1280321,0.0147 0.1067834,-0.27708 0.2314697,-0.30974 0.1016542,-0.0266 0.2225155,0.0456 0.2882705,0.12757 0.2383234,0.29707 -0.1460134,1.03332 0.2247937,1.12025 0.1217613,0.0286 0.1090512,-0.26337 0.2295736,-0.29669 0.1219409,-0.0337 0.281857,0.034 0.353404,0.13827 0.083086,0.29809 0.101838,0.91043 -0.123619,1.27036 -0.3822071,0.13298 -1.0497956,-0.0203 -1.2375604,-0.30588 z"
           id="path3433-7"
           sodipodi:nodetypes="cssssssssssssssccc" />
        <path
           id="path17496-9"
           style="fill:#409606;fill-opacity:1;fill-rule:evenodd;stroke:none;stroke-width:0.290559px;stroke-linecap:butt;stroke-linejoin:miter;stroke-opacity:1"
           d="m 9.4382413,290.31755 c -0.00904,-0.0156 -0.017513,-0.0309 -0.026872,-0.047 -0.020402,-0.0351 -0.041191,-0.0711 -0.063045,-0.108 -0.021855,-0.0369 -0.044465,-0.0746 -0.067696,-0.11319 -0.023231,-0.0386 -0.047299,-0.0782 -0.07183,-0.11832 -0.024532,-0.0402 -0.049692,-0.0809 -0.075448,-0.12248 -0.025754,-0.0415 -0.052162,-0.0838 -0.079065,-0.1266 -0.026903,-0.0428 -0.054191,-0.0859 -0.082166,-0.12973 -0.027975,-0.0438 -0.056812,-0.0885 -0.085783,-0.13332 -0.028971,-0.0447 -0.058477,-0.0899 -0.088367,-0.13539 -0.029889,-0.0455 -0.060218,-0.0914 -0.09095,-0.13745 -0.030733,-0.0461 -0.061518,-0.0925 -0.093017,-0.13901 -0.0315,-0.0465 -0.063411,-0.0932 -0.095601,-0.14005 -0.03219,-0.0468 -0.064864,-0.0936 -0.097669,-0.14057 -0.032805,-0.047 -0.065876,-0.0941 -0.099219,-0.14107 -0.033343,-0.0469 -0.066964,-0.0938 -0.100769,-0.14055 -0.033805,-0.0467 -0.067612,-0.0931 -0.1018026,-0.13954 -0.034191,-0.0464 -0.068853,-0.0926 -0.1033529,-0.13849 -0.0345,-0.0459 -0.069136,-0.0917 -0.1038696,-0.13694 -0.034734,-0.0453 -0.069495,-0.0899 -0.1043863,-0.13436 -0.034891,-0.0444 -0.069931,-0.0883 -0.1049033,-0.13176 -0.034972,-0.0435 -0.069926,-0.0864 -0.1049031,-0.1287 -0.034977,-0.0423 -0.069998,-0.084 -0.1049033,-0.12504 -0.017452,-0.0206 -0.034772,-0.0413 -0.052193,-0.0615 -0.01742,-0.0201 -0.034814,-0.0402 -0.052193,-0.06 -0.017378,-0.0198 -0.034865,-0.0395 -0.052193,-0.0589 -0.017327,-0.0193 -0.034409,-0.0383 -0.051677,-0.0574 -0.017267,-0.019 -0.034479,-0.0378 -0.051676,-0.0563 -0.017198,-0.0185 -0.034559,-0.0371 -0.051677,-0.0553 -0.017116,-0.0183 -0.034132,-0.0361 -0.05116,-0.0538 -0.00522,-0.005 -0.010292,-0.0106 -0.015502,-0.0161 -0.047583,0.12901 -0.054543,0.27847 -0.017571,0.40669 0.1173729,0.40701 0.9310624,0.55827 0.8232055,0.9679 -0.027335,0.10382 -0.2534041,0.0148 -0.3023071,0.1106 -0.06412,0.12538 0.033528,0.29125 0.1142048,0.40669 0.1862889,0.26654 0.8411562,0.25021 0.7911663,0.57152 -0.012179,0.0805 -0.16321,0.0824 -0.2123903,0.14677 -0.057651,0.0754 -0.063598,0.20402 -0.01447,0.28525 0.1735373,0.26286 0.7531917,0.4133 1.142049,0.33125 z" />
      </g>
      <g
         id="g110920"
         transform="matrix(-0.58687977,-0.76139951,-0.80967409,0.55188869,252.99822,138.15399)"
         style="stroke-width:1.09818">
        <path
           style="fill:#56c200;fill-opacity:1;fill-rule:evenodd;stroke:none;stroke-width:0.290559px;stroke-linecap:butt;stroke-linejoin:miter;stroke-opacity:1"
           d="m 10.798776,288.0857 c 0.04097,-0.0859 0.151905,-0.15066 0.246812,-0.14355 0.0808,0.006 0.165106,0.13146 0.239183,0.0977 0.296476,-0.13361 -0.07504,-0.67285 0.04651,-0.97448 0.05264,-0.13063 0.138023,-0.30332 0.278086,-0.3181 0.106858,-0.0115 0.156266,0.22685 0.258164,0.19305 0.402045,-0.1333 0.08402,-0.89783 0.360858,-1.21846 0.115021,-0.13322 0.303009,-0.22232 0.479012,-0.22215 0.08342,-3.9e-4 0.174791,0.0406 0.22686,0.10578 0.08862,0.11101 0.115838,0.2769 0.08981,0.4166 -0.08288,0.4461 -0.948603,0.73287 -0.745747,1.13873 0.05762,0.11527 0.290456,-0.0617 0.385875,0.0247 0.0778,0.0706 0.08334,0.2113 0.05059,0.31115 -0.118682,0.36188 -0.945331,0.44206 -0.815626,0.80016 0.04255,0.11761 0.280158,-0.0526 0.373913,0.0302 0.09483,0.0837 0.125458,0.25467 0.07721,0.37155 -0.204321,0.2324 -0.70702,0.58256 -1.131664,0.59028 -0.320144,-0.24754 -0.556364,-0.89048 -0.419694,-1.20374 z"
           id="path17492-0"
           sodipodi:nodetypes="cssssssssssssssccc" />
        <path
           id="path17498-0"
           style="fill:#419805;fill-opacity:1;fill-rule:evenodd;stroke:none;stroke-width:0.290559px;stroke-linecap:butt;stroke-linejoin:miter;stroke-opacity:1"
           d="m 12.843202,285.53335 c -0.04255,-0.0217 -0.09043,-0.0338 -0.13591,-0.0336 -0.176002,-1.6e-4 -0.364019,0.089 -0.47904,0.22222 -0.276838,0.32062 0.04134,1.08522 -0.360702,1.21851 -0.101898,0.0338 -0.151524,-0.20476 -0.258382,-0.19325 -0.140063,0.0148 -0.225379,0.1877 -0.278019,0.31832 -0.12155,0.30163 0.249967,0.84048 -0.04651,0.97409 -0.07408,0.0338 -0.158462,-0.0917 -0.239262,-0.0977 -0.09476,-0.007 -0.205369,0.058 -0.246496,0.14367 -0.136265,0.3134 0.09962,0.9556 0.419613,1.20301 0.0078,-1.3e-4 0.01589,0 0.02377,0 0.0039,-0.0183 0.0082,-0.0366 0.0124,-0.0553 0.0052,-0.0228 0.01037,-0.0459 0.01602,-0.0692 0.0057,-0.0233 0.01197,-0.0469 0.01809,-0.0708 0.0061,-0.0238 0.01203,-0.0485 0.0186,-0.0729 0.0066,-0.0243 0.01366,-0.0485 0.02067,-0.0734 0.007,-0.0249 0.01426,-0.0501 0.0217,-0.0754 0.0074,-0.0254 0.01488,-0.0507 0.02274,-0.0765 0.0079,-0.0257 0.01603,-0.0519 0.02429,-0.078 0.0083,-0.0262 0.01667,-0.0525 0.02532,-0.0791 0.0087,-0.0265 0.01732,-0.0532 0.02636,-0.0801 0.009,-0.0269 0.0185,-0.0544 0.02791,-0.0816 0.0094,-0.0273 0.01919,-0.0546 0.02894,-0.0822 0.0098,-0.0276 0.01936,-0.0553 0.02945,-0.0832 0.0101,-0.0279 0.02058,-0.0556 0.03101,-0.0837 0.01043,-0.0281 0.02078,-0.0564 0.03152,-0.0847 0.01074,-0.0284 0.02202,-0.0572 0.03307,-0.0858 0.01105,-0.0286 0.02225,-0.057 0.03359,-0.0858 0.01134,-0.0288 0.02248,-0.0578 0.03411,-0.0868 0.02325,-0.058 0.04702,-0.1166 0.07131,-0.17518 0.02429,-0.0586 0.04917,-0.11723 0.07441,-0.17621 0.02524,-0.059 0.05091,-0.11808 0.077,-0.17724 0.02609,-0.0592 0.05274,-0.11856 0.07958,-0.17778 0.02684,-0.0592 0.05415,-0.11819 0.08165,-0.17724 0.0275,-0.0591 0.05515,-0.11803 0.0832,-0.17674 0.02805,-0.0587 0.05624,-0.117 0.08475,-0.17518 0.0285,-0.0582 0.05744,-0.11616 0.0863,-0.17362 0.02886,-0.0575 0.0577,-0.11446 0.08682,-0.17106 0.02912,-0.0566 0.05806,-0.11295 0.08733,-0.16846 0.02928,-0.0555 0.05903,-0.11059 0.08837,-0.16486 0.02933,-0.0543 0.05855,-0.1079 0.08785,-0.16071 0.0293,-0.0528 0.05869,-0.10488 0.08785,-0.15607 0.02307,-0.0405 0.0458,-0.08 0.06873,-0.11936 z" />
      </g>
      <g
         id="g110940"
         transform="matrix(1.2735585,-0.07847325,0.08344864,1.1976261,-28.059958,-57.903412)"
         style="stroke-width:0.860443">
        <path
           style="fill:#4b9419;fill-opacity:1;fill-rule:evenodd;stroke:none;stroke-width:0.227659px;stroke-linecap:butt;stroke-linejoin:miter;stroke-opacity:1"
           d="m 10.869924,292.69571 -0.378542,0.0315 -0.03473,-0.088 c 0.25151,-1.53639 0.386245,-3.06624 1.100886,-4.62856 l 0.224361,-0.10152 c -0.535685,1.62165 -0.89136,3.73558 -0.911972,4.7866 z"
           id="path197125-8"
           sodipodi:nodetypes="cccccc" />
        <path
           id="path3086-6"
           style="fill:#376c12;fill-opacity:1;fill-rule:evenodd;stroke:none;stroke-width:0.227659px;stroke-linecap:butt;stroke-linejoin:miter;stroke-opacity:1"
           d="m 11.69185,287.94974 -0.134358,0.061 c -0.714641,1.56231 -0.849198,3.09227 -1.100708,4.62865 l 0.03462,0.0878 0.166398,-0.014 c 8.47e-4,-0.006 0.0017,-0.0127 0.0026,-0.019 0.01517,-0.11398 0.03043,-0.22799 0.04547,-0.34208 0.01504,-0.11412 0.03028,-0.22815 0.04548,-0.34211 0.0152,-0.11395 0.03038,-0.22801 0.04599,-0.34157 0.01562,-0.11359 0.03175,-0.2271 0.04806,-0.34005 0.0082,-0.0565 0.01591,-0.11271 0.02429,-0.16899 0.0084,-0.0562 0.0172,-0.11242 0.02584,-0.16846 0.0086,-0.056 0.01743,-0.11165 0.02635,-0.16742 0.0089,-0.0558 0.01814,-0.11145 0.02739,-0.1669 0.0093,-0.0555 0.01829,-0.11076 0.02791,-0.1659 0.0096,-0.0551 0.01945,-0.11057 0.02946,-0.16536 0.01001,-0.0548 0.02057,-0.1089 0.03101,-0.1633 0.01043,-0.0544 0.02063,-0.1088 0.03152,-0.16277 0.01089,-0.054 0.0222,-0.10772 0.03359,-0.16124 0.01139,-0.0535 0.02323,-0.10663 0.03514,-0.15968 0.01192,-0.053 0.02421,-0.10612 0.03669,-0.15864 0.01248,-0.0525 0.02517,-0.10459 0.03824,-0.15658 0.01307,-0.052 0.02609,-0.10414 0.03979,-0.15555 0.01371,-0.0514 0.02801,-0.10216 0.04238,-0.15296 0.01437,-0.0508 0.02886,-0.10125 0.04392,-0.15142 0.0075,-0.0251 0.01554,-0.0505 0.02325,-0.0755 0.0077,-0.0249 0.01536,-0.0496 0.02325,-0.0744 0.0079,-0.0249 0.01568,-0.0493 0.02377,-0.0739 0.0081,-0.0246 0.01652,-0.049 0.0248,-0.0734 0.0083,-0.0244 0.01633,-0.0487 0.02481,-0.0729 0.0085,-0.0243 0.01716,-0.0488 0.02584,-0.0729 0.0087,-0.0241 0.01747,-0.048 0.02636,-0.0718 0.0089,-0.0238 0.01778,-0.0471 0.02687,-0.0708 0.0091,-0.0236 0.01859,-0.0473 0.02791,-0.0708 0.0093,-0.0235 0.01889,-0.047 0.02842,-0.0703 0.0095,-0.0233 0.01919,-0.0462 0.02894,-0.0692 0.0098,-0.023 0.01947,-0.0464 0.02946,-0.0692 0.01,-0.0228 0.01976,-0.0456 0.02997,-0.0682 0.003,-0.007 0.0062,-0.0135 0.0093,-0.0201 z" />
      </g>
      <g
         id="g110932"
         transform="matrix(1,0,0,0.94037777,-0.65481034,16.800356)"
         style="stroke-width:1.09818">
        <path
           style="fill:#4b941a;fill-opacity:1;fill-rule:evenodd;stroke:none;stroke-width:0.290559px;stroke-linecap:butt;stroke-linejoin:miter;stroke-opacity:1"
           d="m 10.105678,292.70796 0.37906,-0.0349 0.02157,-0.0777 c -0.471788,-1.21757 -0.8271258,-2.44832 -1.7609176,-3.61214 l -0.2367084,-0.047 c 0.7653508,1.24125 1.4240517,2.91454 1.596989,3.77168 z"
           id="path3394-0"
           sodipodi:nodetypes="cccccc" />
        <path
           id="path3396-5"
           style="fill:#376c13;fill-opacity:1;fill-rule:evenodd;stroke:none;stroke-width:0.290559px;stroke-linecap:butt;stroke-linejoin:miter;stroke-opacity:1"
           d="m 8.6321948,288.96066 -0.123313,-0.0245 c 0.7653538,1.24125 1.4239794,2.91472 1.5969162,3.77186 l 0.246616,-0.0232 c -0.03729,-0.10572 -0.07435,-0.21149 -0.111924,-0.31712 -0.03083,-0.0866 -0.06194,-0.17338 -0.0932,-0.25989 -0.03126,-0.0865 -0.06276,-0.17267 -0.09466,-0.25896 -0.0319,-0.0863 -0.06443,-0.17247 -0.097188,-0.2585 -0.032761,-0.0861 -0.065857,-0.17203 -0.099701,-0.25772 -0.016914,-0.0428 -0.033868,-0.0857 -0.051099,-0.12846 -0.017219,-0.0427 -0.034512,-0.0853 -0.052086,-0.12795 -0.017573,-0.0427 -0.035672,-0.0852 -0.053603,-0.12768 -0.017915,-0.0425 -0.035759,-0.0849 -0.054088,-0.12727 -0.018316,-0.0424 -0.036859,-0.0848 -0.055598,-0.12697 -0.018735,-0.0423 -0.037941,-0.0845 -0.057118,-0.1267 -0.019174,-0.0421 -0.038427,-0.0839 -0.058073,-0.1259 -0.019651,-0.042 -0.039446,-0.0837 -0.059582,-0.12559 -0.020137,-0.0419 -0.040453,-0.0836 -0.061105,-0.12531 -0.020659,-0.0415 -0.041393,-0.0833 -0.062592,-0.12472 -0.021214,-0.0415 -0.042813,-0.0828 -0.064588,-0.12402 -0.021776,-0.0413 -0.043707,-0.0824 -0.066079,-0.12343 -0.022395,-0.0411 -0.045093,-0.0822 -0.0681,-0.12304 -0.023005,-0.0409 -0.046408,-0.0814 -0.070071,-0.12204 -0.023643,-0.0406 -0.047762,-0.0812 -0.072096,-0.12167 -0.024328,-0.0403 -0.049042,-0.0808 -0.074086,-0.12098 -0.025044,-0.0402 -0.050313,-0.0802 -0.076081,-0.12026 -0.025787,-0.0399 -0.052044,-0.0798 -0.078587,-0.1195 -0.02656,-0.0397 -0.053259,-0.0794 -0.080581,-0.11879 -0.00267,-0.004 -0.00563,-0.008 -0.00833,-0.0119 z" />
      </g>
      <g
         id="g110924"
         transform="matrix(1.1634539,-0.14419139,0.16127538,1.0402086,-55.045053,-10.013657)"
         style="stroke-width:0.958859">
        <path
           style="fill:#56c200;fill-opacity:1;fill-rule:evenodd;stroke:none;stroke-width:0.253698px;stroke-linecap:butt;stroke-linejoin:miter;stroke-opacity:1"
           d="m 16.747941,287.12624 c 0.005,-0.13252 -0.05268,-0.28878 -0.159431,-0.36191 -0.16472,-0.11284 -0.482021,0.15408 -0.59217,-0.0158 -0.235448,-0.36303 0.466214,-0.79038 0.447924,-1.22739 -0.0055,-0.13096 -0.06578,-0.28183 -0.189798,-0.29899 -0.123014,-0.017 -0.300021,0.12052 -0.372005,0.0157 -0.212881,-0.30984 0.414749,-0.68201 0.402372,-1.06216 -0.0045,-0.13728 -0.06876,-0.28854 -0.204982,-0.34617 -0.138256,-0.0585 -0.371109,0.14057 -0.447923,0.008 -0.17423,-0.30102 0.515372,-0.57026 0.493475,-0.92054 -0.0094,-0.14971 -0.128875,-0.29437 -0.258125,-0.36194 -0.09264,-0.0484 -0.241534,0.0796 -0.311269,10e-6 -0.228987,-0.26143 0.244746,-0.73529 0.09869,-1.05429 -0.07041,-0.15377 -0.246729,-0.30203 -0.409964,-0.28324 -0.149438,0.0172 -0.26848,0.18894 -0.311269,0.33832 -0.09817,0.34271 0.404523,0.7745 0.189798,1.05429 -0.0741,0.0966 -0.260436,-0.0567 -0.35682,0.0158 -0.105032,0.0789 -0.143455,0.24339 -0.136655,0.37766 0.0172,0.33966 0.621685,0.62917 0.440332,0.91266 -0.06586,0.10295 -0.238169,-0.0119 -0.356821,-0.0236 -0.194833,-0.0191 -0.23502,0.30426 -0.227757,0.48781 0.01398,0.3533 0.679777,0.61463 0.508658,0.92053 -0.07615,0.13614 -0.305607,-0.025 -0.455515,0 -0.16238,0.0271 -0.214609,0.1614 -0.220166,0.31865 -0.01595,0.45148 0.864539,0.80488 0.652906,1.19985 -0.09215,0.17198 -0.401446,-0.0995 -0.569394,-0.008 -0.129167,0.0705 -0.24333,0.22635 -0.242942,0.37764 0.171647,0.74452 0.73753,1.25506 1.267851,1.73092 0.671822,-0.40197 1.284437,-1.13081 1.320995,-1.79387 z"
           id="path103215"
           sodipodi:nodetypes="csssssssssssssssssssssssssccc" />
        <path
           id="path105740"
           style="fill:#419805;fill-opacity:1;fill-rule:evenodd;stroke:none;stroke-width:0.253698px;stroke-linecap:butt;stroke-linejoin:miter;stroke-opacity:1"
           d="m 15.268835,281.21641 c -0.008,1.6e-4 -0.0163,1.4e-4 -0.02429,10e-4 -0.149438,0.0172 -0.268303,0.18912 -0.311092,0.33848 -0.09817,0.34271 0.404378,0.77441 0.189653,1.0542 -0.0741,0.0966 -0.260184,-0.0565 -0.356568,0.016 -0.105032,0.0789 -0.143742,0.24296 -0.136942,0.37721 0.0172,0.33968 0.621636,0.62913 0.440283,0.91263 -0.06586,0.10295 -0.237915,-0.0116 -0.356567,-0.0233 -0.194833,-0.0191 -0.235156,0.30427 -0.227893,0.48782 0.01398,0.35329 0.680131,0.61446 0.509012,0.92035 -0.07615,0.13615 -0.305878,-0.025 -0.455786,0 -0.16238,0.0271 -0.214584,0.16161 -0.220141,0.31885 -0.01595,0.45148 0.864306,0.80497 0.652673,1.19994 -0.09215,0.17198 -0.401009,-0.0998 -0.568957,-0.008 -0.129167,0.0705 -0.243268,0.22645 -0.24288,0.37777 0.168846,0.73236 0.719089,1.23759 1.241785,1.70685 -0.0011,-0.1165 -0.0025,-0.23336 -0.0031,-0.3488 -9.8e-4,-0.18404 -0.0015,-0.36684 -0.0015,-0.54882 -3.2e-5,-0.18196 4.61e-4,-0.36296 10e-4,-0.54362 0.0011,-0.36134 0.0032,-0.72051 0.0047,-1.08108 7.46e-4,-0.18029 0.0012,-0.36087 0.0015,-0.54208 3.17e-4,-0.18122 4.57e-4,-0.36333 0,-0.54624 -4.57e-4,-0.18288 -0.0015,-0.36658 -0.0031,-0.55189 -7.88e-4,-0.0927 -0.0015,-0.18566 -0.0026,-0.27906 -0.0011,-0.0934 -0.0026,-0.18737 -0.0041,-0.28162 -0.0015,-0.0942 -0.0032,-0.18904 -0.0052,-0.28424 -0.0019,-0.0952 -0.0043,-0.19058 -0.0067,-0.28678 -0.0024,-0.0962 -0.0048,-0.19312 -0.0078,-0.29044 -0.0029,-0.0973 -0.0063,-0.19499 -0.0098,-0.29352 -0.0035,-0.0985 -0.0073,-0.19781 -0.01137,-0.29766 -0.0041,-0.0998 -0.0087,-0.20053 -0.01344,-0.30178 -0.0047,-0.10123 -0.0095,-0.2032 -0.01499,-0.30592 -0.0054,-0.10273 -0.0114,-0.20626 -0.01757,-0.31059 -0.0062,-0.10432 -0.01269,-0.20921 -0.01964,-0.31522 -0.0059,-0.0893 -0.01217,-0.17974 -0.0186,-0.27028 z" />
      </g>
      <g
         id="g110946"
         transform="matrix(-0.65997722,-0.70649228,-0.75128561,0.6206279,236.95567,117.84531)"
         style="stroke-width:1.09818">
        <path
           style="fill:#4b9419;fill-opacity:1;fill-rule:evenodd;stroke:none;stroke-width:0.290559px;stroke-linecap:butt;stroke-linejoin:miter;stroke-opacity:1"
           d="m 10.869924,292.69571 -0.378542,0.0315 -0.03473,-0.088 c 0.25151,-1.53639 0.386245,-3.06624 1.100886,-4.62856 l 0.224361,-0.10152 c -0.535685,1.62165 -0.89136,3.73558 -0.911972,4.7866 z"
           id="path110942"
           sodipodi:nodetypes="cccccc" />
        <path
           id="path110944"
           style="fill:#376c12;fill-opacity:1;fill-rule:evenodd;stroke:none;stroke-width:0.290559px;stroke-linecap:butt;stroke-linejoin:miter;stroke-opacity:1"
           d="m 11.69185,287.94974 -0.134358,0.061 c -0.714641,1.56231 -0.849198,3.09227 -1.100708,4.62865 l 0.03462,0.0878 0.166398,-0.014 c 8.47e-4,-0.006 0.0017,-0.0127 0.0026,-0.019 0.01517,-0.11398 0.03043,-0.22799 0.04547,-0.34208 0.01504,-0.11412 0.03028,-0.22815 0.04548,-0.34211 0.0152,-0.11395 0.03038,-0.22801 0.04599,-0.34157 0.01562,-0.11359 0.03175,-0.2271 0.04806,-0.34005 0.0082,-0.0565 0.01591,-0.11271 0.02429,-0.16899 0.0084,-0.0562 0.0172,-0.11242 0.02584,-0.16846 0.0086,-0.056 0.01743,-0.11165 0.02635,-0.16742 0.0089,-0.0558 0.01814,-0.11145 0.02739,-0.1669 0.0093,-0.0555 0.01829,-0.11076 0.02791,-0.1659 0.0096,-0.0551 0.01945,-0.11057 0.02946,-0.16536 0.01001,-0.0548 0.02057,-0.1089 0.03101,-0.1633 0.01043,-0.0544 0.02063,-0.1088 0.03152,-0.16277 0.01089,-0.054 0.0222,-0.10772 0.03359,-0.16124 0.01139,-0.0535 0.02323,-0.10663 0.03514,-0.15968 0.01192,-0.053 0.02421,-0.10612 0.03669,-0.15864 0.01248,-0.0525 0.02517,-0.10459 0.03824,-0.15658 0.01307,-0.052 0.02609,-0.10414 0.03979,-0.15555 0.01371,-0.0514 0.02801,-0.10216 0.04238,-0.15296 0.01437,-0.0508 0.02886,-0.10125 0.04392,-0.15142 0.0075,-0.0251 0.01554,-0.0505 0.02325,-0.0755 0.0077,-0.0249 0.01536,-0.0496 0.02325,-0.0744 0.0079,-0.0249 0.01568,-0.0493 0.02377,-0.0739 0.0081,-0.0246 0.01652,-0.049 0.0248,-0.0734 0.0083,-0.0244 0.01633,-0.0487 0.02481,-0.0729 0.0085,-0.0243 0.01716,-0.0488 0.02584,-0.0729 0.0087,-0.0241 0.01747,-0.048 0.02636,-0.0718 0.0089,-0.0238 0.01778,-0.0471 0.02687,-0.0708 0.0091,-0.0236 0.01859,-0.0473 0.02791,-0.0708 0.0093,-0.0235 0.01889,-0.047 0.02842,-0.0703 0.0095,-0.0233 0.01919,-0.0462 0.02894,-0.0692 0.0098,-0.023 0.01947,-0.0464 0.02946,-0.0692 0.01,-0.0228 0.01976,-0.0456 0.02997,-0.0682 0.003,-0.007 0.0062,-0.0135 0.0093,-0.0201 z" />
      </g>
      <g
         id="g110952"
         transform="matrix(1.2723651,0.09404745,-0.10001029,1.1965039,25.714565,-59.33552)"
         style="stroke-width:0.860443">
        <path
           style="fill:#4b9419;fill-opacity:1;fill-rule:evenodd;stroke:none;stroke-width:0.227659px;stroke-linecap:butt;stroke-linejoin:miter;stroke-opacity:1"
           d="m 10.869924,292.69571 -0.378542,0.0315 -0.03473,-0.088 c 0.25151,-1.53639 0.386245,-3.06624 1.100886,-4.62856 l 0.224361,-0.10152 c -0.535685,1.62165 -0.89136,3.73558 -0.911972,4.7866 z"
           id="path110948"
           sodipodi:nodetypes="cccccc" />
        <path
           id="path110950"
           style="fill:#376c12;fill-opacity:1;fill-rule:evenodd;stroke:none;stroke-width:0.227659px;stroke-linecap:butt;stroke-linejoin:miter;stroke-opacity:1"
           d="m 11.69185,287.94974 -0.134358,0.061 c -0.714641,1.56231 -0.849198,3.09227 -1.100708,4.62865 l 0.03462,0.0878 0.166398,-0.014 c 8.47e-4,-0.006 0.0017,-0.0127 0.0026,-0.019 0.01517,-0.11398 0.03043,-0.22799 0.04547,-0.34208 0.01504,-0.11412 0.03028,-0.22815 0.04548,-0.34211 0.0152,-0.11395 0.03038,-0.22801 0.04599,-0.34157 0.01562,-0.11359 0.03175,-0.2271 0.04806,-0.34005 0.0082,-0.0565 0.01591,-0.11271 0.02429,-0.16899 0.0084,-0.0562 0.0172,-0.11242 0.02584,-0.16846 0.0086,-0.056 0.01743,-0.11165 0.02635,-0.16742 0.0089,-0.0558 0.01814,-0.11145 0.02739,-0.1669 0.0093,-0.0555 0.01829,-0.11076 0.02791,-0.1659 0.0096,-0.0551 0.01945,-0.11057 0.02946,-0.16536 0.01001,-0.0548 0.02057,-0.1089 0.03101,-0.1633 0.01043,-0.0544 0.02063,-0.1088 0.03152,-0.16277 0.01089,-0.054 0.0222,-0.10772 0.03359,-0.16124 0.01139,-0.0535 0.02323,-0.10663 0.03514,-0.15968 0.01192,-0.053 0.02421,-0.10612 0.03669,-0.15864 0.01248,-0.0525 0.02517,-0.10459 0.03824,-0.15658 0.01307,-0.052 0.02609,-0.10414 0.03979,-0.15555 0.01371,-0.0514 0.02801,-0.10216 0.04238,-0.15296 0.01437,-0.0508 0.02886,-0.10125 0.04392,-0.15142 0.0075,-0.0251 0.01554,-0.0505 0.02325,-0.0755 0.0077,-0.0249 0.01536,-0.0496 0.02325,-0.0744 0.0079,-0.0249 0.01568,-0.0493 0.02377,-0.0739 0.0081,-0.0246 0.01652,-0.049 0.0248,-0.0734 0.0083,-0.0244 0.01633,-0.0487 0.02481,-0.0729 0.0085,-0.0243 0.01716,-0.0488 0.02584,-0.0729 0.0087,-0.0241 0.01747,-0.048 0.02636,-0.0718 0.0089,-0.0238 0.01778,-0.0471 0.02687,-0.0708 0.0091,-0.0236 0.01859,-0.0473 0.02791,-0.0708 0.0093,-0.0235 0.01889,-0.047 0.02842,-0.0703 0.0095,-0.0233 0.01919,-0.0462 0.02894,-0.0692 0.0098,-0.023 0.01947,-0.0464 0.02946,-0.0692 0.01,-0.0228 0.01976,-0.0456 0.02997,-0.0682 0.003,-0.007 0.0062,-0.0135 0.0093,-0.0201 z" />
      </g>
      <g
         id="g110936"
         transform="matrix(1.2052396,0,0,1.1315437,-2.8265502,-39.159434)"
         style="stroke-width:0.911907">
        <path
           style="fill:#4b9419;fill-opacity:1;fill-rule:evenodd;stroke:none;stroke-width:0.241275px;stroke-linecap:butt;stroke-linejoin:miter;stroke-opacity:1"
           d="m 10.164757,292.62906 0.375439,0.0998 0.04129,-0.11777 C 10.44604,290.42987 10.426655,288.275 9.83092,285.98944 l -0.2162918,-0.17473 c 0.4126578,2.34204 0.6086208,5.34456 0.5501258,6.81439 z"
           id="path195770-3"
           sodipodi:nodetypes="cccccc" />
        <path
           id="path2457-6"
           style="fill:#376c12;fill-opacity:1;fill-rule:evenodd;stroke:none;stroke-width:0.241275px;stroke-linecap:butt;stroke-linejoin:miter;stroke-opacity:1"
           d="m 9.7275095,285.90568 -0.1126336,-0.0912 c 0.4126581,2.34204 0.6085021,5.34482 0.5500071,6.81465 l 0.244213,0.0648 c -0.0082,-0.18791 -0.01616,-0.37581 -0.02467,-0.56367 -0.007,-0.15413 -0.01421,-0.30849 -0.02164,-0.46256 -0.0074,-0.15407 -0.01518,-0.30769 -0.0233,-0.46167 -0.0081,-0.15401 -0.01685,-0.30805 -0.02586,-0.46196 -0.009,-0.15389 -0.01834,-0.30791 -0.02849,-0.4617 -0.0051,-0.0769 -0.01016,-0.15388 -0.01556,-0.23073 -0.0054,-0.0768 -0.01089,-0.15352 -0.01664,-0.23032 -0.0057,-0.0768 -0.01205,-0.1537 -0.01818,-0.23049 -0.0061,-0.0768 -0.01221,-0.15329 -0.01875,-0.23002 -0.0065,-0.0767 -0.01332,-0.1535 -0.02029,-0.23017 -0.007,-0.0767 -0.0144,-0.1537 -0.02183,-0.23034 -0.0074,-0.0766 -0.01504,-0.15286 -0.02296,-0.22944 -0.0079,-0.0766 -0.01606,-0.15304 -0.02451,-0.22957 -0.0084,-0.0765 -0.01706,-0.15326 -0.02605,-0.22974 -0.009,-0.0765 -0.01807,-0.15299 -0.02764,-0.22939 -0.0096,-0.0764 -0.01958,-0.15272 -0.02975,-0.22908 -0.01018,-0.0763 -0.02055,-0.15245 -0.03135,-0.22872 -0.01081,-0.0763 -0.021939,-0.15275 -0.033404,-0.22895 -0.011465,-0.0762 -0.023415,-0.152 -0.035569,-0.22812 -0.012151,-0.0761 -0.024755,-0.1523 -0.037622,-0.22835 -0.01287,-0.076 -0.026122,-0.15207 -0.039733,-0.22804 -0.013614,-0.0759 -0.027459,-0.15187 -0.041844,-0.22773 -0.014382,-0.0759 -0.029282,-0.15171 -0.044466,-0.2275 -0.015183,-0.0758 -0.030565,-0.15149 -0.046576,-0.22718 -0.00161,-0.008 -0.00329,-0.0152 -0.0049,-0.0229 z" />
      </g>
    </g>
  </g>
</svg>
