<?xml version="1.0" encoding="UTF-8" standalone="no"?>
<!-- Created with Inkscape (http://www.inkscape.org/) -->

<svg
   width="64"
   height="64"
   viewBox="0 0 16.933333 16.933334"
   version="1.1"
   id="svg930"
   inkscape:version="1.1.1 (3bf5ae0d25, 2021-09-20)"
   sodipodi:docname="carrot_1.svg"
   xmlns:inkscape="http://www.inkscape.org/namespaces/inkscape"
   xmlns:sodipodi="http://sodipodi.sourceforge.net/DTD/sodipodi-0.dtd"
   xmlns="http://www.w3.org/2000/svg"
   xmlns:svg="http://www.w3.org/2000/svg">
  <sodipodi:namedview
     id="namedview932"
     pagecolor="#505050"
     bordercolor="#eeeeee"
     borderopacity="1"
     inkscape:pageshadow="0"
     inkscape:pageopacity="0"
     inkscape:pagecheckerboard="0"
     inkscape:document-units="px"
     showgrid="false"
     units="px"
     showguides="true"
     inkscape:guide-bbox="true"
     inkscape:zoom="4.192802"
     inkscape:cx="16.814531"
     inkscape:cy="33.748315"
     inkscape:window-width="1920"
     inkscape:window-height="1017"
     inkscape:window-x="-8"
     inkscape:window-y="-8"
     inkscape:window-maximized="1"
     inkscape:current-layer="layer1">
    <sodipodi:guide
       position="5.5847199,1.2203923"
       orientation="0,-1"
       id="guide1233" />
    <sodipodi:guide
       position="8.0457829,15.608146"
       orientation="0,-1"
       id="guide1235" />
    <sodipodi:guide
       position="1.3567399,12.705354"
       orientation="1,0"
       id="guide1237" />
    <sodipodi:guide
       position="15.712941,5.9216538"
       orientation="1,0"
       id="guide1239" />
  </sodipodi:namedview>
  <defs
     id="defs927" />
  <g
     inkscape:label="Layer 1"
     inkscape:groupmode="layer"
     id="layer1">
    <g
       id="g102978"
       transform="translate(-0.95070132,-279.82938)">
      <path
         id="path101422"
         style="fill:#182600;fill-opacity:1;fill-rule:evenodd;stroke:#182600;stroke-width:2;stroke-linecap:butt;stroke-linejoin:miter;stroke-miterlimit:4;stroke-dasharray:none;stroke-opacity:1"
         d="m 32.279297,1069.666 c -0.01934,7e-4 -0.03918,0 -0.05859,0.01 -0.313388,0.053 -0.538055,0.1681 -0.701172,0.3652 0,0 -0.002,0 -0.002,0 -0.05199,0.063 -0.0964,0.1365 -0.136719,0.2168 -0.0045,0.01 -0.0093,0.018 -0.01367,0.027 -0.015,0.031 -0.02947,0.063 -0.04297,0.098 -0.0019,0 -0.004,0.01 -0.0059,0.014 -0.01139,0.03 -0.02089,0.06 -0.03125,0.092 -0.0096,0.029 -0.01859,0.061 -0.02734,0.092 -0.05689,0.2012 -0.0971,0.4371 -0.126954,0.7168 -0.01424,0.096 -0.02252,0.1939 -0.02539,0.291 -3.8e-5,0 3.6e-5,0 0,0.01 -0.01353,0.4947 0.110084,1.0012 0.267578,1.4727 0.06311,0.1887 0.13186,0.3716 0.199219,0.5468 0.06736,0.1752 0.133034,0.342 0.191406,0.4981 0.06522,0.1743 0.119737,0.3336 0.15625,0.4765 0.01234,0.048 0.02364,0.096 0.03125,0.1407 0,0 0,0 0,0 3.44e-4,0 -3.33e-4,0 0,0.01 0.0071,0.043 0.01178,0.082 0.01367,0.1211 0.0012,0.024 9.6e-4,0.046 0,0.068 -0.0012,0.026 -0.0034,0.051 -0.0078,0.074 -0.0081,0.043 -0.02072,0.083 -0.04102,0.1172 -0.005,0.01 -0.0098,0.018 -0.01563,0.025 -0.119033,0.1607 -0.218281,0.1939 -0.322266,0.1758 -0.08568,-0.015 -0.178359,-0.066 -0.287109,-0.1055 -0.110186,-0.04 -0.23947,-0.071 -0.404297,-0.047 -0.125393,0.018 -0.226711,0.1065 -0.298828,0.2382 0,0 0,0 0,0 -0.01411,0.026 -0.0272,0.053 -0.03906,0.082 0,0 0,0 0,0 -0.06724,0.165 -0.09643,0.3759 -0.08398,0.5918 0.0018,0.031 0.0042,0.062 0.0078,0.094 0.0071,0.062 0.01494,0.1228 0.0293,0.1836 0,0 0,0 0,0 0.01798,0.076 0.04257,0.1516 0.07227,0.2226 0.02092,0.05 0.04375,0.098 0.06836,0.1465 0,0 0,0 0,0 0.03337,0.066 0.07192,0.1282 0.111328,0.1914 0.03394,0.054 0.06958,0.1074 0.107422,0.1601 0.0313,0.044 0.06402,0.086 0.09766,0.1289 0.174343,0.2206 0.376592,0.4286 0.58789,0.627 0.335435,0.3146 0.687789,0.6076 0.976563,0.9043 0.03807,0.039 0.07575,0.078 0.111328,0.1172 0.10239,0.113 0.192223,0.2277 0.267578,0.3437 0.03735,0.058 0.07255,0.1172 0.101562,0.1758 0.0097,0.02 0.01867,0.039 0.02734,0.059 0.0258,0.059 0.04848,0.1191 0.06445,0.1797 0.0054,0.02 0.0095,0.042 0.01367,0.062 0.0012,0.01 8.87e-4,0.012 0.002,0.018 0.0065,0.035 0.0128,0.07 0.01563,0.1054 5.14e-4,0.01 -3.88e-4,0.013 0,0.02 0.0017,0.028 0.0027,0.057 0.002,0.086 -4.12e-4,0.015 -8.09e-4,0.031 -0.002,0.047 -0.0047,0.067 -0.0164,0.1337 -0.03516,0.2031 -0.0093,0.034 -0.02017,0.068 -0.0332,0.1035 0,0 0,0 0,0 -0.03386,0.091 -0.08015,0.1848 -0.140625,0.2812 -0.02141,0.034 -0.04254,0.063 -0.06445,0.088 0,0 -0.002,0 -0.002,0 -0.02126,0.024 -0.04267,0.043 -0.06445,0.059 0,0 -0.002,0 -0.002,0 -0.01972,0.014 -0.04037,0.025 -0.06055,0.033 -0.0021,9e-4 -0.0057,0 -0.0078,0 -0.0014,6e-4 -0.0025,0 -0.0039,0 -0.159892,0.06 -0.33533,-0.035 -0.533203,-0.098 -0.05717,-0.018 -0.116522,-0.035 -0.177735,-0.043 -0.01534,0 -0.03127,0 -0.04687,0 -0.109001,-0.01 -0.2243,0.01 -0.347656,0.078 -0.108478,0.06 -0.205702,0.141 -0.292969,0.2363 -0.0078,0.01 -0.01776,0.017 -0.02539,0.025 -0.007,0.01 -0.01273,0.017 -0.01953,0.025 -0.07542,0.091 -0.140679,0.1924 -0.195312,0.3008 -0.01266,0.025 -0.0237,0.05 -0.03516,0.076 -0.112935,0.2538 -0.168453,0.5352 -0.146485,0.791 0.0019,0.022 0.0048,0.045 0.0078,0.066 0.003,0.021 0.0057,0.043 0.0098,0.064 0.0081,0.042 0.01924,0.085 0.03125,0.125 0.01224,0.041 0.02701,0.08 0.04297,0.1191 0.01596,0.039 0.03339,0.078 0.05273,0.1153 0.03343,0.065 0.07306,0.1283 0.115235,0.1894 0.01402,0.02 0.02811,0.041 0.04297,0.061 0.12154,0.1631 0.269413,0.3127 0.427734,0.4551 0.03372,0.03 0.06713,0.06 0.101562,0.09 0.137636,0.1187 0.280297,0.2331 0.416016,0.3457 0.06788,0.056 0.133872,0.1119 0.197266,0.168 0.03169,0.028 0.06173,0.056 0.0918,0.084 0.01452,0.013 0.02889,0.027 0.04297,0.041 0.02262,0.022 0.04504,0.044 0.06641,0.066 0.04747,0.049 0.09279,0.098 0.132812,0.1484 0,0 0,0 0,0 0.0047,0.01 0.0091,0.012 0.01367,0.017 0.04015,0.052 0.07727,0.1046 0.107422,0.1583 0,0 0,0 0,0 0.03351,0.06 0.06149,0.1207 0.08008,0.1836 0,0 0,0 0,0 0.0047,0.016 0.0081,0.031 0.01172,0.047 0.0036,0.016 0.0072,0.033 0.0098,0.049 0.0025,0.016 0.0045,0.032 0.0059,0.049 4.98e-4,0.01 -3.56e-4,0.012 0,0.018 0.0037,0.061 0.0013,0.1246 -0.01172,0.1894 -0.0013,0.01 -0.0044,0.013 -0.0059,0.02 -0.0046,0.02 -0.0093,0.04 -0.01563,0.061 -0.0084,0.027 -0.01772,0.054 -0.0293,0.082 0,0 0,0 0,0 -0.0153,0.037 -0.03359,0.075 -0.05469,0.1133 -0.01989,0.036 -0.04047,0.068 -0.0625,0.098 -0.01102,0.015 -0.02363,0.028 -0.03516,0.041 -0.05737,0.064 -0.120968,0.1107 -0.189453,0.1426 -0.01378,0.01 -0.0288,0.012 -0.04297,0.018 -0.0064,0 -0.01308,0 -0.01953,0.01 -0.0074,0 -0.01596,0.01 -0.02344,0.01 -0.02849,0.01 -0.06003,0.015 -0.08984,0.021 -0.0019,4e-4 -0.004,-4e-4 -0.0059,0 -0.189655,0.036 -0.403909,0.025 -0.625,0.061 -0.04992,0.01 -0.100011,0.019 -0.15039,0.033 -0.02268,0.01 -0.04564,0.012 -0.06836,0.02 -0.0072,0 -0.01432,0.01 -0.02148,0.01 -0.01783,0.01 -0.03491,0.014 -0.05273,0.022 -0.018,0.01 -0.03672,0.016 -0.05469,0.025 -0.01784,0.01 -0.03495,0.017 -0.05273,0.027 -0.349524,0.1999 -0.600302,0.679 -0.546875,1.0781 0.126668,0.9464 0.599467,1.4663 1.253906,1.92 0,0 0.002,0 0.002,0 0.261435,0.1811 0.551012,0.3521 0.859375,0.5351 0.159166,0.094 0.309054,0.1831 0.476563,0.2871 0.153032,0.095 0.309444,0.1893 0.474609,0.2852 0.358981,0.2088 0.812857,0.467 1.304687,0.75 0.03522,0.379 0.07108,0.7569 0.103516,1.1328 0.05098,0.5906 0.09852,1.1781 0.142578,1.7578 0.06607,0.8697 0.123527,1.7247 0.173828,2.5586 0.03355,0.5559 0.06339,1.1018 0.08984,1.6367 0.03966,0.8024 0.0722,1.5785 0.0957,2.3223 0.01568,0.4958 0.02675,0.9766 0.03516,1.4414 0.0011,0.062 9.6e-4,0.1219 0.002,0.1836 -0.688312,-1.8391 -1.407112,-3.6741 -2.326171,-5.4863 0.758959,-1.3749 0.683671,-3.564 0.380859,-4.6504 -0.270414,-0.3941 -0.875059,-0.6508 -1.335938,-0.5235 -0.455517,0.126 -0.406987,1.2292 -0.867187,1.1211 -1.401476,-0.3285 0.05114,-3.1116 -0.849609,-4.2344 -0.248523,-0.3098 -0.705639,-0.581 -1.089844,-0.4804 -0.471255,0.1234 -0.391099,1.2255 -0.875,1.1699 -1.703691,-0.1956 -0.825142,-3.5277 -2.066406,-4.7109 -0.388631,-0.3707 -0.969492,-0.6276 -1.503907,-0.5762 -0.313793,0.03 -0.630297,0.2358 -0.802734,0.5 -0.08801,0.1347 -0.161379,0.2819 -0.21875,0.4375 -4.98e-4,0 -0.0015,0 -0.002,0 -0.0014,0 -0.0025,0.01 -0.0039,0.012 -0.01775,0.049 -0.03418,0.1 -0.04883,0.1504 -0.0056,0.019 -0.01047,0.039 -0.01563,0.059 -0.0089,0.034 -0.01594,0.068 -0.02344,0.1016 -0.0037,0.017 -0.0083,0.034 -0.01172,0.051 -8.99e-4,0 -0.0011,0.01 -0.002,0.014 -0.0022,0.012 -0.0038,0.024 -0.0059,0.035 -0.0065,0.036 -0.01261,0.073 -0.01758,0.1093 -0.0032,0.023 -0.0053,0.047 -0.0078,0.07 -0.01257,0.1159 -0.01869,0.2319 -0.01563,0.3476 3.73e-4,0.014 0.0014,0.027 0.002,0.041 0.0024,0.055 0.0057,0.1114 0.01172,0.166 2.12e-4,0 -2.16e-4,0 0,0.01 0.0067,0.059 0.01637,0.1162 0.02734,0.1738 0.0017,0.01 0.004,0.018 0.0059,0.027 0.01166,0.057 0.025,0.1144 0.04102,0.1699 0.0137,0.048 0.03029,0.095 0.04883,0.1406 2.26e-4,6e-4 -2.27e-4,0 0,0 0.03764,0.092 0.0854,0.1797 0.140625,0.2656 0.01381,0.022 0.02818,0.043 0.04297,0.064 0.01474,0.021 0.02925,0.042 0.04492,0.062 0.01572,0.021 0.03222,0.042 0.04883,0.062 0.01658,0.02 0.03336,0.041 0.05078,0.061 0.03491,0.04 0.07137,0.078 0.109375,0.1172 0.03799,0.039 0.07844,0.078 0.119141,0.1152 0.122146,0.1133 0.254663,0.2228 0.394531,0.3281 0.04662,0.035 0.09473,0.069 0.142578,0.1036 0.04803,0.035 0.09564,0.069 0.144531,0.1035 0.09739,0.068 0.196379,0.1346 0.294922,0.2011 0.09812,0.066 0.196671,0.1334 0.292969,0.1993 0.09667,0.066 0.191354,0.1306 0.283203,0.1972 0.09185,0.067 0.18158,0.1351 0.265625,0.2032 0.08404,0.068 0.163072,0.1365 0.236328,0.207 0.03663,0.035 0.0721,0.071 0.105469,0.1074 0.03337,0.036 0.06401,0.072 0.09375,0.1094 0.02974,0.037 0.05825,0.073 0.08398,0.1113 0.02574,0.038 0.04895,0.076 0.07031,0.1152 0.04272,0.078 0.07664,0.1588 0.09961,0.2422 0.02297,0.083 0.03492,0.1702 0.03516,0.2598 2.4e-4,0.09 -0.01163,0.1825 -0.03711,0.2793 -0.0065,0.024 -0.01536,0.045 -0.02734,0.064 -0.01198,0.019 -0.02616,0.036 -0.04297,0.051 -0.01641,0.014 -0.03629,0.027 -0.05664,0.037 -4.96e-4,3e-4 -0.0015,-2e-4 -0.002,0 -0.02094,0.011 -0.04203,0.02 -0.06641,0.027 -0.02438,0.01 -0.051,0.013 -0.07813,0.018 -0.02713,0 -0.05481,0.01 -0.08398,0.012 -0.05836,0.01 -0.121187,0.01 -0.183594,0.012 -0.03125,0 -0.06253,0 -0.09375,0 -0.03086,0 -0.06165,0 -0.0918,0.01 -0.061,0 -0.119902,0.013 -0.173828,0.025 -0.02634,0.01 -0.05251,0.014 -0.07617,0.023 -5.61e-4,2e-4 -0.0014,-2e-4 -0.002,0 -0.02415,0.01 -0.04576,0.02 -0.06641,0.033 -0.01912,0.012 -0.03719,0.027 -0.05273,0.043 -6.46e-4,6e-4 -0.0013,0 -0.002,0 -6.15e-4,7e-4 -0.0013,0 -0.002,0 -0.01645,0.017 -0.02946,0.036 -0.04102,0.059 -0.0129,0.025 -0.02367,0.052 -0.0332,0.078 -0.0015,0 -0.0045,0.01 -0.0059,0.012 -1.93e-4,6e-4 1.92e-4,0 0,0 -0.0017,0.01 -0.0023,0.01 -0.0039,0.016 -0.0063,0.02 -0.01305,0.04 -0.01758,0.061 -0.0012,0.01 -0.0029,0.01 -0.0039,0.016 -1.2e-4,6e-4 1.18e-4,0 0,0 -3.65e-4,0 3.5e-4,0 0,0.01 -0.0056,0.03 -0.0096,0.059 -0.01172,0.09 -0.0011,0.016 -0.0017,0.033 -0.002,0.049 -2.24e-4,0.016 -6.61e-4,0.032 0,0.049 6.77e-4,0.016 0.0024,0.034 0.0039,0.051 0.0045,0.05 0.01214,0.1 0.02344,0.1503 0.01523,0.068 0.03544,0.1356 0.06055,0.2032 0.02511,0.068 0.05556,0.1348 0.08789,0.2011 0.03233,0.066 0.0666,0.1316 0.103516,0.1954 0.03691,0.064 0.0764,0.1257 0.115234,0.1855 0.0388,0.06 0.07712,0.1173 0.115234,0.1719 0.01388,0.02 0.0297,0.04 0.04492,0.059 0.02081,0.026 0.04324,0.052 0.06641,0.076 0.01344,0.014 0.02683,0.029 0.04102,0.043 0.02128,0.021 0.04354,0.041 0.06641,0.061 0.0074,0.01 0.01387,0.013 0.02148,0.019 3.82e-4,3e-4 0.0016,-3e-4 0.002,0 0.0308,0.025 0.06246,0.05 0.0957,0.074 4.26e-4,3e-4 0.0015,-3e-4 0.002,0 0.0063,0 0.01314,0.01 0.01953,0.014 0.06107,0.043 0.125614,0.084 0.19336,0.123 7.81e-4,5e-4 0.0012,0 0.002,0 0.07575,0.043 0.154327,0.082 0.236328,0.1211 0.06638,0.031 0.135882,0.061 0.205078,0.09 0.01601,0.01 0.03076,0.015 0.04687,0.022 5.53e-4,2e-4 0.0014,-2e-4 0.002,0 0.08558,0.035 0.172293,0.07 0.259766,0.1035 0.08857,0.034 0.177289,0.065 0.265625,0.098 0.08693,0.032 0.175207,0.065 0.259766,0.098 0.04268,0.016 0.08528,0.034 0.126953,0.051 0.124466,0.05 0.244833,0.1015 0.355468,0.1563 0.07409,0.037 0.143799,0.075 0.208985,0.1152 0.06518,0.04 0.125569,0.082 0.179687,0.127 0.01352,0.011 0.02632,0.023 0.03906,0.035 0.01257,0.012 0.02533,0.023 0.03711,0.035 0.01194,0.012 0.02406,0.025 0.03516,0.037 0.0033,0 0.0065,0.01 0.0098,0.012 0.01547,0.018 0.02933,0.036 0.04297,0.055 0.01198,0.016 0.02466,0.032 0.03516,0.049 2.79e-4,5e-4 -2.78e-4,0 0,0 0.008,0.013 0.01631,0.027 0.02344,0.041 0.0075,0.014 0.01506,0.028 0.02148,0.043 0.01274,0.029 0.02276,0.059 0.03125,0.09 0.0083,0.031 0.01556,0.063 0.01953,0.096 7.8e-5,6e-4 -7.6e-5,0 0,0 0.0039,0.033 0.0046,0.067 0.0039,0.1016 -1.4e-5,7e-4 1.6e-5,0 0,0 -4.46e-4,0.017 -0.0023,0.035 -0.0039,0.053 -0.0017,0.019 -0.0028,0.037 -0.0059,0.057 -0.0014,0.01 -0.0034,0.018 -0.0059,0.027 -9.42e-4,0 -0.0028,0.01 -0.0039,0.01 -0.003,0.01 -0.0057,0.019 -0.0098,0.027 -0.0046,0.01 -0.01167,0.02 -0.01758,0.029 -0.0013,0 -0.0026,0 -0.0039,0.01 -3.07e-4,5e-4 3.1e-4,0 0,0 -0.0015,0 -0.0043,0 -0.0059,0.01 -0.009,0.012 -0.01814,0.024 -0.0293,0.035 -0.01827,0.018 -0.0395,0.035 -0.0625,0.051 -0.02696,0.018 -0.05421,0.035 -0.08594,0.051 -0.03896,0.019 -0.08208,0.039 -0.125,0.057 -0.04294,0.018 -0.08751,0.033 -0.130859,0.051 -0.04335,0.018 -0.0848,0.037 -0.125,0.057 -0.0402,0.02 -0.07783,0.04 -0.111328,0.064 -0.01674,0.012 -0.03247,0.026 -0.04687,0.039 -0.01441,0.014 -0.02745,0.028 -0.03906,0.043 -0.0546,0.072 -0.09693,0.1557 -0.126953,0.2461 -0.07505,0.2262 -0.07245,0.493 0.01172,0.709 0.01651,0.042 0.03577,0.083 0.05859,0.1211 4.4e-4,7e-4 0.0015,0 0.002,0 0.02049,0.031 0.04299,0.062 0.06641,0.092 0.0015,0 0.0024,0 0.0039,0.01 0.02208,0.028 0.04579,0.056 0.07031,0.084 0.05254,0.059 0.110898,0.1148 0.173828,0.1699 0.05678,0.05 0.117262,0.098 0.181641,0.1445 0.01175,0.01 0.02317,0.017 0.03516,0.025 0.06746,0.047 0.138441,0.093 0.21289,0.1368 0.0803,0.047 0.16459,0.092 0.251954,0.1347 0.08372,0.041 0.170556,0.08 0.259765,0.1172 0.0038,0 0.0079,0 0.01172,0 0.09288,0.038 0.187466,0.074 0.285156,0.1074 0.09842,0.034 0.198599,0.065 0.300782,0.094 0.101353,0.028 0.204633,0.053 0.308593,0.076 0.104577,0.023 0.210298,0.045 0.316407,0.062 0.08951,0.015 0.179661,0.028 0.269531,0.039 0.01245,0 0.02466,0 0.03711,0 0.0079,9e-4 0.01555,0 0.02344,0 0.101592,0.012 0.203733,0.019 0.304687,0.025 0.171657,0.01 0.341762,0.014 0.507813,0.01 0.216489,0.467 0.425713,0.9331 0.626953,1.3965 0.212409,0.4891 0.416251,0.9755 0.609375,1.4531 0.06437,0.1593 0.1274,0.3173 0.189453,0.4747 0.124114,0.3147 0.243104,0.626 0.357422,0.9316 0.11431,0.3056 0.22431,0.6062 0.328125,0.9004 0.103823,0.2942 0.202294,0.5809 0.294922,0.8613 0.138931,0.4207 0.265175,0.8257 0.376953,1.209 0.186308,0.6388 0.333418,1.2204 0.435547,1.7266 l 0.998046,-0.092 0.439454,0.1171 0.01953,0.047 0.123047,-0.01 0.06055,0.016 0.0078,-0.022 0.4375,-0.037 0.800781,-0.066 c 0.05735,-2.9244 0.803785,-8.0253 2,-12.959 1.429352,-0.3055 2.930527,-1.3919 3.595704,-2.1484 0.182354,-0.4418 0.0674,-1.088 -0.291016,-1.4043 -0.35435,-0.313 -1.253244,0.3312 -1.414063,-0.1133 -0.490223,-1.3535 2.635423,-1.6577 3.083985,-3.0254 0.123779,-0.3774 0.102641,-0.909 -0.191406,-1.1758 -0.360639,-0.3265 -1.241208,0.3419 -1.458985,-0.094 -0.7667,-1.534 2.505112,-2.6167 2.818359,-4.3028 0.09837,-0.528 -0.0049,-1.1546 -0.339843,-1.5742 -0.08951,-0.112 -0.209577,-0.2053 -0.34375,-0.2734 -0.01356,-0.01 -0.02719,-0.013 -0.04102,-0.02 -0.02698,-0.012 -0.05422,-0.025 -0.08203,-0.035 -0.0025,-10e-4 -0.0053,-10e-4 -0.0078,0 -0.124922,-0.046 -0.25599,-0.071 -0.382812,-0.07 -0.415755,-4e-4 -0.847948,0.13 -1.220703,0.3516 0,0 -0.002,0 -0.002,0 -0.222742,0.1327 -0.425425,0.2982 -0.587891,0.4864 -0.0327,0.038 -0.06334,0.076 -0.0918,0.1171 0,0 0,0 0,0 -0.02222,0.032 -0.0427,0.066 -0.0625,0.1 -0.01536,0.026 -0.02899,0.053 -0.04297,0.08 -0.0024,0 -0.0054,0.01 -0.0078,0.014 -0.01147,0.023 -0.02264,0.045 -0.0332,0.068 -0.05681,0.1267 -0.100654,0.2633 -0.134766,0.4063 -0.0082,0.034 -0.01435,0.07 -0.02148,0.1054 -0.01361,0.067 -0.02705,0.1355 -0.03711,0.2051 -0.008,0.055 -0.01345,0.1115 -0.01953,0.168 -0.0046,0.043 -0.01002,0.086 -0.01367,0.1289 -0.0078,0.093 -0.01313,0.1865 -0.01758,0.2812 -0.0028,0.06 -0.0059,0.1191 -0.0078,0.1797 0,0 0,0 0,0 -0.0037,0.118 -0.0059,0.2372 -0.0078,0.3554 -0.0074,0.4711 -0.01014,0.937 -0.08398,1.334 -6.03e-4,0 -0.0013,0.01 -0.002,0.01 0,0 0,0 0,0 -0.0094,0.049 -0.02142,0.098 -0.0332,0.1445 0,0 0,0 0,0 -9.9e-4,0 -0.0029,0.01 -0.0039,0.012 -0.01111,0.043 -0.02175,0.086 -0.03516,0.1269 -0.0073,0.023 -0.01536,0.045 -0.02344,0.066 -0.02189,0.059 -0.04832,0.1162 -0.07617,0.1699 -0.0027,0.01 -0.005,0.01 -0.0078,0.016 0,0 0,0 0,0 -0.0029,0.01 -0.0068,0.01 -0.0098,0.016 -0.01527,0.028 -0.03173,0.054 -0.04883,0.08 -0.0034,0.01 -0.0063,0.011 -0.0098,0.016 0,0 0,0 0,0 -0.004,0.01 -0.0096,0.01 -0.01367,0.016 -0.06627,0.093 -0.144858,0.1735 -0.240235,0.2403 -0.01561,0.011 -0.03236,0.021 -0.04883,0.031 -0.06879,0.042 -0.143582,0.079 -0.228515,0.1074 -0.04247,0.014 -0.08287,0.014 -0.121094,0.01 -0.01043,0 -0.02109,0 -0.03125,-0.01 -0.04763,-0.017 -0.09152,-0.05 -0.134766,-0.092 -0.0096,-0.01 -0.01987,-0.017 -0.0293,-0.027 -0.01888,-0.02 -0.03624,-0.043 -0.05469,-0.066 -0.03685,-0.046 -0.07305,-0.096 -0.109375,-0.1465 -0.01823,-0.025 -0.03628,-0.051 -0.05469,-0.076 -0.09169,-0.1266 -0.187552,-0.2463 -0.298828,-0.2969 -0.01093,0 -0.02195,-0.01 -0.0332,-0.012 -0.03439,-0.011 -0.07151,-0.016 -0.109375,-0.012 -0.02898,0 -0.05622,0.01 -0.08398,0.016 -0.0038,9e-4 -0.0099,10e-4 -0.01367,0 -0.0233,0.01 -0.04592,0.013 -0.06836,0.022 -0.0072,0 -0.01633,0 -0.02344,0.01 -0.0053,0 -0.01033,0.01 -0.01563,0.01 -0.01773,0.01 -0.03555,0.016 -0.05273,0.025 -0.0059,0 -0.01369,0.01 -0.01953,0.01 -0.0074,0 -0.01416,0.01 -0.02148,0.014 -0.0064,0 -0.01322,0.01 -0.01953,0.012 -0.01399,0.01 -0.0274,0.018 -0.04102,0.027 -0.02695,0.019 -0.05261,0.04 -0.07813,0.062 -0.02551,0.022 -0.0501,0.045 -0.07422,0.07 -0.09651,0.099 -0.181956,0.217 -0.257813,0.3437 0,0 0,0 0,0 -0.01866,0.031 -0.03718,0.064 -0.05469,0.096 -0.01783,0.033 -0.03606,0.065 -0.05273,0.098 -0.01982,0.039 -0.03643,0.078 -0.05469,0.1172 -0.04312,0.093 -0.08413,0.1846 -0.119141,0.2715 -0.02871,0.071 -0.04923,0.145 -0.06445,0.2226 0,0 0,0 0,0 -0.0037,0.019 -0.0068,0.037 -0.0098,0.057 -0.0093,0.06 -0.01659,0.1208 -0.01953,0.1836 -0.0039,0.082 -0.0013,0.1677 0.0039,0.2539 0,0 0,0 0,0 1.17e-4,0 -1.21e-4,0 0,0.01 0.0043,0.067 0.01104,0.1349 0.01953,0.2032 0.006,0.049 0.01373,0.097 0.02148,0.1465 0.0047,0.03 0.0085,0.06 0.01367,0.09 0.053,0.3037 0.131282,0.614 0.195312,0.9121 0.0096,0.045 0.01853,0.091 0.02734,0.1348 0.0086,0.043 0.0178,0.087 0.02539,0.1289 0,0 0,0 0,0 0.0012,0.01 0.0027,0.013 0.0039,0.02 0.04411,0.2505 0.0671,0.4855 0.04297,0.6894 0,0 0,0 0,0 -0.03345,0.2788 -0.156055,0.501 -0.435547,0.6269 -0.03437,0.016 -0.07002,0.022 -0.105469,0.022 0,0 -0.002,0 -0.002,0 -0.01552,-4e-4 -0.03118,0 -0.04687,-0.01 -0.0019,-4e-4 -0.0039,3e-4 -0.0059,0 0,0 -0.002,0 -0.002,0 -0.07268,-0.015 -0.147187,-0.057 -0.222656,-0.1055 -0.01899,-0.012 -0.03949,-0.026 -0.05859,-0.039 -0.0046,0 -0.009,-0.01 -0.01367,-0.01 -0.07124,-0.05 -0.144932,-0.1021 -0.216796,-0.1446 -0.03809,-0.022 -0.07725,-0.044 -0.115235,-0.059 -0.01866,-0.01 -0.03805,-0.013 -0.05664,-0.017 0,0 -0.002,0 -0.002,0 -0.0093,0 -0.01804,0 -0.02734,-0.01 -0.0096,0 -0.01975,0 -0.0293,0 -0.07346,-0.01 -0.148865,0 -0.224609,0.018 -0.02876,0.01 -0.0574,0.013 -0.08594,0.021 -0.07945,0.024 -0.159186,0.059 -0.232422,0.1016 -0.0418,0.024 -0.08302,0.053 -0.121094,0.082 -0.114811,0.089 -0.209442,0.1973 -0.267578,0.3184 0,0 0,0 0,0 -0.01586,0.036 -0.0317,0.074 -0.04492,0.1132 0,0 0,0 0,0 -0.01318,0.039 -0.02455,0.078 -0.03516,0.1191 0,0 0,0 0,0 -0.01058,0.041 -0.02123,0.082 -0.0293,0.125 0,0 0,0 0,0 -0.008,0.043 -0.01395,0.086 -0.01953,0.1309 -1.62e-4,0 1.6e-4,0 0,0 -0.01104,0.09 -0.0179,0.1835 -0.01953,0.2793 0,0 0,0 0,0 -0.0079,0.4855 0.101501,1.0414 0.294922,1.586 0,0 0,0 0,0 0.0052,0.015 0.01229,0.029 0.01758,0.043 0.09368,0.2573 0.204644,0.5119 0.332031,0.7539 0.02689,0.051 0.05383,0.1025 0.08203,0.1524 0.169442,0.2999 0.363833,0.5792 0.572266,0.8164 0.01478,0.017 0.02998,0.032 0.04492,0.049 -0.544308,1.81 -0.942993,3.6102 -1.273438,5.4082 0,0 0,0 0,0 -0.06665,0.3627 -0.1316,0.7254 -0.193359,1.0878 0,0 0,0 0,0 -0.244547,1.4353 -0.456202,2.8689 -0.673828,4.3027 -0.232749,-4.202 -0.409658,-8.3909 -0.878906,-12.6465 0.537938,-0.5562 0.934346,-1.0765 1.308593,-1.6113 0.860912,-1.2301 1.371467,-2.1007 0.869141,-3.5156 -0.110438,-0.3111 -0.4404,-0.5827 -0.767578,-0.625 -0.61183,-0.079 -0.936999,0.2 -1.398438,-0.209 -1.137508,-1.0093 1.308096,-2.147 0.984375,-3.6328 -0.105524,-0.4851 -0.51067,-1.0195 -1,-1.1035 -0.643968,-0.1108 -0.827703,0.6302 -1.332031,0.2129 -1.180489,-0.9736 0.719479,-2.9219 0.941406,-4.3848 0.08019,-0.5286 -0.116008,-1.1048 -0.644531,-1.1855 -0.530855,-0.081 -0.946533,0.6361 -1.410156,0.3652 -0.897502,-0.5245 0.221673,-2.1422 -0.240235,-3.334 -0.181064,-0.4672 -0.736486,-1.6706 -1.335937,-1.6504 z"
         transform="scale(0.26458333)" />
      <path
         style="fill:#56c200;fill-opacity:1;fill-rule:evenodd;stroke:none;stroke-width:0.264583px;stroke-linecap:butt;stroke-linejoin:miter;stroke-opacity:1"
         d="m 10.088167,287.86724 c 0.04097,-0.0859 0.151905,-0.15066 0.246812,-0.14355 0.0808,0.006 0.165106,0.13146 0.239183,0.0977 0.296476,-0.13361 -0.07504,-0.67285 0.04651,-0.97448 0.05264,-0.13063 0.138023,-0.30332 0.278086,-0.3181 0.106858,-0.0115 0.156266,0.22685 0.258164,0.19305 0.402045,-0.1333 0.08402,-0.89783 0.360858,-1.21846 0.115021,-0.13322 0.303009,-0.22232 0.479012,-0.22215 0.08342,-3.9e-4 0.174791,0.0406 0.22686,0.10578 0.08862,0.11101 0.115838,0.2769 0.08981,0.4166 -0.08288,0.4461 -0.948603,0.73287 -0.745747,1.13873 0.05762,0.11527 0.290456,-0.0617 0.385875,0.0247 0.0778,0.0706 0.08334,0.2113 0.05059,0.31115 -0.118682,0.36188 -0.945331,0.44206 -0.815626,0.80016 0.04255,0.11761 0.280158,-0.0526 0.373913,0.0302 0.09483,0.0837 0.125458,0.25467 0.07721,0.37155 -0.204321,0.2324 -0.70702,0.58256 -1.131664,0.59028 -0.320144,-0.24754 -0.5563641,-0.89048 -0.419694,-1.20374 z"
         id="path17492"
         sodipodi:nodetypes="cssssssssssssssccc" />
      <path
         style="fill:#56c101;fill-opacity:1;fill-rule:evenodd;stroke:none;stroke-width:0.264583px;stroke-linecap:butt;stroke-linejoin:miter;stroke-opacity:1"
         d="m 7.585334,289.76777 c -0.049515,-0.0812 -0.043227,-0.20953 0.014563,-0.28515 0.04918,-0.0644 0.2003033,-0.0665 0.2124828,-0.14699 0.04999,-0.32133 -0.6046076,-0.30464 -0.7908963,-0.57119 -0.080677,-0.11544 -0.1786945,-0.28128 -0.1145749,-0.40668 0.048903,-0.0957 0.2753763,-0.007 0.3027118,-0.11082 0.107857,-0.40962 -0.7062117,-0.56076 -0.8235846,-0.96777 -0.048767,-0.16911 -0.020742,-0.37525 0.075534,-0.52259 0.045624,-0.0699 0.129492,-0.12424 0.2125164,-0.13226 0.1413971,-0.0136 0.2952189,0.0542 0.398044,0.15227 0.3284178,0.31307 0.095802,1.19489 0.5465702,1.24663 0.1280321,0.0147 0.1067834,-0.27708 0.2314697,-0.30974 0.1016542,-0.0266 0.2225155,0.0456 0.2882705,0.12757 0.2383234,0.29707 -0.1460134,1.03332 0.2247937,1.12025 0.1217613,0.0286 0.1090512,-0.26337 0.2295736,-0.29669 0.1219409,-0.0337 0.281857,0.034 0.353404,0.13827 0.083086,0.29809 0.101838,0.91043 -0.123619,1.27036 -0.3822071,0.13298 -1.0497956,-0.0203 -1.2375604,-0.30588 z"
         id="path3433"
         sodipodi:nodetypes="cssssssssssssssccc" />
      <path
         style="fill:#56c200;fill-opacity:1;fill-rule:evenodd;stroke:none;stroke-width:0.264583px;stroke-linecap:butt;stroke-linejoin:miter;stroke-opacity:1"
         d="m 9.9519072,288.05942 c 0.2277828,-0.32546 0.3629538,-0.55601 0.2300468,-0.93037 -0.02922,-0.0823 -0.116529,-0.15409 -0.2030948,-0.16528 -0.16188,-0.0209 -0.2479646,0.0529 -0.3700535,-0.0553 -0.3009658,-0.26704 0.3459985,-0.56784 0.2603475,-0.96097 -0.02792,-0.12836 -0.1350019,-0.26995 -0.2644704,-0.29218 -0.1703832,-0.0293 -0.2189976,0.16661 -0.3524344,0.0562 -0.3123378,-0.2576 0.1900439,-0.77303 0.2487621,-1.16008 0.021218,-0.13987 -0.030615,-0.29225 -0.1704533,-0.31362 -0.1404554,-0.0215 -0.2504354,0.16847 -0.3731023,0.0968 -0.237464,-0.13878 0.058862,-0.56657 -0.063351,-0.88191 -0.049452,-0.12761 -0.2044974,-0.4631 -0.368897,-0.43544 -0.1932331,0.0325 -0.2590018,0.15614 -0.2881915,0.42971 -0.061492,0.41442 0.3051995,0.88032 0.2036147,1.01741 -0.083984,0.11338 -0.1285006,-0.0147 -0.268054,0.006 -0.106166,0.0156 -0.1458841,0.22361 -0.082529,0.37506 0.1771267,0.4234 0.8773638,0.6384 0.619856,1.04898 -0.090653,0.14455 -0.197254,-0.0504 -0.3464566,0.0322 -0.1250972,0.0693 -0.2014594,0.24263 -0.1892199,0.38516 0.032177,0.37467 0.6812042,0.49939 0.500063,0.82896 -0.084196,0.15319 -0.2436771,0.0539 -0.3954243,0.14063 -0.092478,0.0529 -0.1587467,0.17943 -0.1446109,0.28503 0.053623,0.40062 0.34244,0.51242 0.6857929,0.72568 0.1619597,0.10059 0.3389514,0.19314 0.6161508,0.35675 0.2360981,-0.21134 0.3810211,-0.39719 0.5156551,-0.58956 z"
         id="path11190"
         sodipodi:nodetypes="sssssssssssscsssssssssscss" />
      <path
         id="path17494"
         style="fill:#419805;fill-opacity:1;fill-rule:evenodd;stroke:none;stroke-width:0.999999px;stroke-linecap:butt;stroke-linejoin:miter;stroke-opacity:1"
         d="m 31.519531,1070.0371 c -0.217015,0.2623 -0.323735,0.6675 -0.386719,1.2578 -0.23241,1.5663 1.153474,3.3276 0.769532,3.8457 -0.31742,0.4285 -0.486226,-0.055 -1.013672,0.024 -0.401257,0.059 -0.551952,0.8455 -0.3125,1.4179 0.669455,1.6003 3.317008,2.4111 2.34375,3.9629 -0.342626,0.5464 -0.746632,-0.1891 -1.310547,0.1231 -0.472808,0.2619 -0.761103,0.9164 -0.714844,1.455 0.121614,1.4161 2.575253,1.8872 1.890625,3.1329 -0.318221,0.5789 -0.920608,0.2034 -1.49414,0.5312 -0.349524,0.1999 -0.600302,0.679 -0.546875,1.0781 0.202669,1.5142 1.294085,1.9362 2.591797,2.7422 0.612131,0.3802 1.280442,0.7313 2.328124,1.3496 0.04296,-0.038 0.08555,-0.077 0.126954,-0.1152 -0.0042,-0.017 -0.0095,-0.034 -0.01367,-0.051 -0.03005,-0.1216 -0.05886,-0.2428 -0.08789,-0.3652 -0.05806,-0.2449 -0.115632,-0.4905 -0.169922,-0.7383 -0.05429,-0.2478 -0.105322,-0.4974 -0.15625,-0.748 -0.05093,-0.2507 -0.100462,-0.5028 -0.148437,-0.7559 -0.04798,-0.2532 -0.09519,-0.5082 -0.140625,-0.7637 -0.04543,-0.2554 -0.08952,-0.512 -0.132813,-0.7695 -0.0433,-0.2575 -0.08538,-0.5161 -0.126953,-0.7754 -0.04157,-0.2593 -0.0828,-0.5184 -0.123047,-0.7793 -0.04025,-0.2609 -0.0798,-0.5229 -0.11914,-0.7852 -0.07868,-0.5245 -0.15688,-1.0516 -0.234375,-1.58 -0.07749,-0.5285 -0.154799,-1.0594 -0.234375,-1.5899 -0.03979,-0.2652 -0.08017,-0.5295 -0.121094,-0.7949 -0.04092,-0.2654 -0.08254,-0.5315 -0.125,-0.7969 -0.04246,-0.2653 -0.08449,-0.5299 -0.128906,-0.7949 -0.04441,-0.265 -0.08995,-0.5304 -0.136719,-0.7949 -0.04677,-0.2645 -0.09499,-0.5293 -0.144531,-0.793 -0.04954,-0.2637 -0.101581,-0.5264 -0.154297,-0.789 -0.05272,-0.2627 -0.105809,-0.5238 -0.16211,-0.7852 -0.0563,-0.2614 -0.115487,-0.5233 -0.175781,-0.7832 -0.03015,-0.1299 -0.06058,-0.2592 -0.0918,-0.3887 -0.03122,-0.1295 -0.06336,-0.2596 -0.0957,-0.3887 -0.03235,-0.129 -0.06413,-0.2561 -0.09766,-0.3847 -0.03352,-0.1286 -0.06876,-0.2587 -0.103516,-0.3867 -0.03475,-0.1281 -0.06944,-0.2553 -0.105468,-0.3828 -0.03603,-0.1276 -0.07397,-0.2539 -0.111329,-0.3809 -0.03736,-0.127 -0.07454,-0.2545 -0.113281,-0.3809 -0.03874,-0.1263 -0.07896,-0.2531 -0.11914,-0.3789 -0.04018,-0.1257 -0.07943,-0.2499 -0.121094,-0.375 -0.04166,-0.1251 -0.08571,-0.2506 -0.128906,-0.375 -0.04319,-0.1244 -0.08608,-0.2474 -0.13086,-0.3711 -0.04478,-0.1236 -0.0903,-0.2481 -0.136719,-0.3711 -0.02616,-0.069 -0.05339,-0.138 -0.08008,-0.207 z"
         transform="scale(0.26458333)" />
      <path
         id="path17496"
         style="fill:#409606;fill-opacity:1;fill-rule:evenodd;stroke:none;stroke-width:0.999999px;stroke-linecap:butt;stroke-linejoin:miter;stroke-opacity:1"
         d="m 32.986328,1096.4375 c -0.03417,-0.059 -0.06619,-0.1169 -0.101562,-0.1777 -0.07711,-0.1326 -0.155682,-0.2687 -0.238282,-0.4082 -0.0826,-0.1396 -0.168057,-0.2818 -0.255859,-0.4278 -0.0878,-0.1459 -0.178768,-0.2955 -0.271484,-0.4472 -0.09272,-0.1518 -0.187814,-0.3059 -0.285157,-0.4629 -0.09734,-0.157 -0.197147,-0.3169 -0.298828,-0.4785 -0.101681,-0.1617 -0.204815,-0.3246 -0.310547,-0.4903 -0.105731,-0.1657 -0.214724,-0.3347 -0.324218,-0.5039 -0.109495,-0.1691 -0.221016,-0.3397 -0.333985,-0.5117 -0.112968,-0.172 -0.227595,-0.3453 -0.34375,-0.5195 -0.116155,-0.1743 -0.232509,-0.3495 -0.351562,-0.5254 -0.119054,-0.1759 -0.239665,-0.3523 -0.361328,-0.5293 -0.121664,-0.177 -0.245155,-0.3538 -0.369141,-0.5313 -0.123986,-0.1775 -0.24898,-0.3558 -0.375,-0.5332 -0.12602,-0.1773 -0.253093,-0.3546 -0.380859,-0.5312 -0.127767,-0.1767 -0.255541,-0.352 -0.384766,-0.5274 -0.129225,-0.1753 -0.26023,-0.3499 -0.390625,-0.5234 -0.130395,-0.1735 -0.261301,-0.3466 -0.392578,-0.5176 -0.131278,-0.171 -0.26266,-0.3399 -0.394531,-0.5078 -0.131872,-0.1679 -0.264307,-0.3338 -0.396485,-0.498 -0.132178,-0.1643 -0.264288,-0.3264 -0.396484,-0.4864 -0.132196,-0.16 -0.264558,-0.3175 -0.396485,-0.4726 -0.06596,-0.078 -0.131423,-0.1562 -0.197265,-0.2324 -0.06584,-0.076 -0.131581,-0.1518 -0.197266,-0.2266 -0.06568,-0.075 -0.131774,-0.1493 -0.197265,-0.2227 -0.06549,-0.073 -0.130051,-0.1449 -0.195313,-0.2168 -0.06526,-0.072 -0.130316,-0.1427 -0.195312,-0.2129 -0.065,-0.07 -0.130618,-0.1404 -0.195313,-0.2089 -0.06469,-0.069 -0.129002,-0.1364 -0.193359,-0.2032 -0.01973,-0.02 -0.0389,-0.04 -0.05859,-0.061 -0.179842,0.4876 -0.206145,1.0525 -0.06641,1.5371 0.443614,1.5383 3.518976,2.11 3.111328,3.6582 -0.103315,0.3924 -0.957748,0.056 -1.142578,0.418 -0.242342,0.4739 0.126719,1.1008 0.43164,1.5371 0.704084,1.0074 3.179173,0.9457 2.990235,2.1601 -0.04603,0.3042 -0.616857,0.3113 -0.802735,0.5547 -0.217894,0.2851 -0.240371,0.7711 -0.05469,1.0781 0.655889,0.9935 2.846709,1.5621 4.316406,1.252 z"
         transform="scale(0.26458333)" />
      <path
         id="path17498"
         style="fill:#419805;fill-opacity:1;fill-rule:evenodd;stroke:none;stroke-width:0.999999px;stroke-linecap:butt;stroke-linejoin:miter;stroke-opacity:1"
         d="m 45.855469,1078.3555 c -0.160805,-0.082 -0.341795,-0.1278 -0.513672,-0.127 -0.665208,-6e-4 -1.375822,0.3364 -1.810547,0.8399 -1.046317,1.2118 0.156259,4.1016 -1.363281,4.6054 -0.385127,0.1278 -0.57269,-0.7739 -0.976563,-0.7304 -0.529372,0.056 -0.851827,0.7094 -1.050781,1.2031 -0.459402,1.14 0.944758,3.1766 -0.175781,3.6816 -0.279976,0.1276 -0.598911,-0.3464 -0.904297,-0.3691 -0.358133,-0.027 -0.7762,0.2191 -0.931641,0.543 -0.515015,1.1845 0.376501,3.6117 1.585938,4.5468 0.02958,-5e-4 0.06007,0 0.08984,0 0.01475,-0.069 0.03089,-0.1385 0.04687,-0.209 0.01956,-0.086 0.03918,-0.1734 0.06055,-0.2617 0.02137,-0.088 0.04523,-0.1773 0.06836,-0.2676 0.02313,-0.09 0.04547,-0.1832 0.07031,-0.2754 0.02484,-0.092 0.05162,-0.1833 0.07813,-0.2773 0.02651,-0.094 0.0539,-0.1895 0.08203,-0.2851 0.02813,-0.096 0.05623,-0.1918 0.08594,-0.2891 0.0297,-0.097 0.06057,-0.1961 0.0918,-0.2949 0.03123,-0.099 0.06299,-0.1985 0.0957,-0.2989 0.03271,-0.1003 0.06547,-0.201 0.09961,-0.3027 0.03414,-0.1017 0.06994,-0.2056 0.105469,-0.3086 0.03553,-0.103 0.07251,-0.2063 0.109375,-0.3105 0.03687,-0.1042 0.07317,-0.2092 0.111328,-0.3145 0.03816,-0.1053 0.07778,-0.2101 0.117188,-0.3164 0.03941,-0.1063 0.07853,-0.213 0.11914,-0.3203 0.04061,-0.1073 0.08324,-0.2161 0.125,-0.3242 0.04176,-0.1082 0.08409,-0.2153 0.126954,-0.3242 0.04287,-0.1089 0.08498,-0.2186 0.128906,-0.3282 0.08786,-0.2191 0.177715,-0.4407 0.269531,-0.6621 0.09182,-0.2213 0.185848,-0.4431 0.28125,-0.666 0.0954,-0.2229 0.192401,-0.4463 0.291016,-0.6699 0.09861,-0.2237 0.199327,-0.4481 0.300781,-0.6719 0.101453,-0.2238 0.204674,-0.4467 0.308594,-0.6699 0.103919,-0.2232 0.208441,-0.4461 0.314453,-0.668 0.106011,-0.2219 0.212582,-0.4422 0.320312,-0.6621 0.107731,-0.2199 0.217096,-0.439 0.326172,-0.6562 0.109076,-0.2173 0.218077,-0.4326 0.328125,-0.6465 0.110048,-0.2139 0.219432,-0.4269 0.330078,-0.6367 0.110647,-0.2099 0.223113,-0.418 0.333985,-0.6231 0.110872,-0.2051 0.221307,-0.4078 0.332031,-0.6074 0.110724,-0.1997 0.221829,-0.3964 0.332031,-0.5899 0.0872,-0.1531 0.173105,-0.3023 0.259766,-0.4511 z"
         transform="scale(0.26458333)" />
      <path
         style="fill:#4b9419;fill-opacity:1;fill-rule:evenodd;stroke:none;stroke-width:0.264583px;stroke-linecap:butt;stroke-linejoin:miter;stroke-opacity:1"
         d="m 10.159315,292.47725 -0.3785423,0.0315 -0.03473,-0.088 c 0.25151,-1.53639 0.3862453,-3.06624 1.1008863,-4.62856 l 0.224361,-0.10152 c -0.535685,1.62165 -0.89136,3.73558 -0.911972,4.7866 z"
         id="path197125"
         sodipodi:nodetypes="cccccc" />
      <path
         id="path3086"
         style="fill:#376c12;fill-opacity:1;fill-rule:evenodd;stroke:none;stroke-width:0.999999px;stroke-linecap:butt;stroke-linejoin:miter;stroke-opacity:1"
         d="m 41.503906,1087.4883 -0.507812,0.2305 c -2.701006,5.9048 -3.209568,11.6873 -4.160156,17.4941 l 0.130859,0.332 0.628906,-0.053 c 0.0032,-0.024 0.0066,-0.048 0.0098,-0.072 0.05732,-0.4308 0.115011,-0.8617 0.171875,-1.2929 0.05686,-0.4313 0.114443,-0.8623 0.171875,-1.293 0.05743,-0.4307 0.114804,-0.8618 0.173828,-1.291 0.05902,-0.4293 0.120001,-0.8583 0.181641,-1.2852 0.03082,-0.2134 0.06013,-0.426 0.0918,-0.6387 0.03167,-0.2126 0.06502,-0.4249 0.09766,-0.6367 0.03264,-0.2118 0.06587,-0.422 0.09961,-0.6328 0.03374,-0.2108 0.06855,-0.4212 0.103516,-0.6308 0.03497,-0.2097 0.06914,-0.4186 0.105468,-0.627 0.03633,-0.2084 0.07351,-0.4179 0.111328,-0.625 0.03782,-0.2071 0.07776,-0.4116 0.117188,-0.6172 0.03943,-0.2056 0.07797,-0.4112 0.119141,-0.6152 0.04117,-0.204 0.08391,-0.4071 0.126953,-0.6094 0.04304,-0.2023 0.08778,-0.403 0.132812,-0.6035 0.04504,-0.2005 0.09151,-0.4011 0.138672,-0.5996 0.04716,-0.1986 0.09512,-0.3953 0.144531,-0.5918 0.04941,-0.1965 0.09859,-0.3936 0.150391,-0.5879 0.0518,-0.1943 0.105851,-0.3861 0.160156,-0.5781 0.05431,-0.1921 0.109073,-0.3827 0.166016,-0.5723 0.02847,-0.095 0.05874,-0.191 0.08789,-0.2852 0.02915,-0.094 0.05804,-0.1876 0.08789,-0.2812 0.02985,-0.094 0.05927,-0.1864 0.08984,-0.2793 0.03057,-0.093 0.06245,-0.1851 0.09375,-0.2773 0.0313,-0.092 0.0617,-0.1839 0.09375,-0.2754 0.03205,-0.092 0.06484,-0.1846 0.09766,-0.2754 0.03281,-0.091 0.06602,-0.1814 0.09961,-0.2715 0.03359,-0.09 0.06718,-0.1782 0.101563,-0.2676 0.03439,-0.089 0.07027,-0.1789 0.105469,-0.2676 0.0352,-0.089 0.0714,-0.1777 0.107422,-0.2656 0.03602,-0.088 0.07251,-0.1745 0.109375,-0.2617 0.03687,-0.087 0.0736,-0.1753 0.111328,-0.2617 0.03773,-0.086 0.07468,-0.1723 0.113281,-0.2578 0.01151,-0.026 0.02357,-0.051 0.03516,-0.076 z"
         transform="scale(0.26458333)" />
      <path
         style="fill:#4b9419;fill-opacity:1;fill-rule:evenodd;stroke:none;stroke-width:0.264583px;stroke-linecap:butt;stroke-linejoin:miter;stroke-opacity:1"
         d="m 9.4541483,292.4106 0.3754388,0.0998 0.041289,-0.11777 c -0.1354452,-2.18122 -0.1548297,-4.33609 -0.7505649,-6.62165 l -0.2162918,-0.17473 c 0.4126579,2.34204 0.6086212,5.34456 0.5501259,6.81439 z"
         id="path195770"
         sodipodi:nodetypes="cccccc" />
      <path
         id="path2457"
         style="fill:#376c12;fill-opacity:1;fill-rule:evenodd;stroke:none;stroke-width:0.264583px;stroke-linecap:butt;stroke-linejoin:miter;stroke-opacity:1"
         d="m 9.0169007,285.68722 -0.1126336,-0.0912 c 0.4126578,2.34204 0.608502,5.34482 0.5500073,6.81465 l 0.2442124,0.0648 c -0.0082,-0.18791 -0.016162,-0.37581 -0.024668,-0.56367 -0.00698,-0.15413 -0.01421,-0.30849 -0.021645,-0.46256 -0.00743,-0.15407 -0.01518,-0.30769 -0.023296,-0.46167 -0.00811,-0.15401 -0.016846,-0.30805 -0.025864,-0.46196 -0.00902,-0.15389 -0.018344,-0.30791 -0.028489,-0.4617 -0.00507,-0.0769 -0.010159,-0.15388 -0.015556,-0.23073 -0.0054,-0.0768 -0.010886,-0.15352 -0.016636,-0.23032 -0.00575,-0.0768 -0.012051,-0.1537 -0.018178,-0.23049 -0.00613,-0.0768 -0.01221,-0.15329 -0.018747,-0.23002 -0.00654,-0.0767 -0.013315,-0.1535 -0.020289,-0.23017 -0.00697,-0.0767 -0.014395,-0.1537 -0.021831,-0.23034 -0.00744,-0.0766 -0.015035,-0.15286 -0.022963,-0.22944 -0.00793,-0.0766 -0.01606,-0.15304 -0.024508,-0.22957 -0.00845,-0.0765 -0.017056,-0.15326 -0.02605,-0.22974 -0.009,-0.0765 -0.018073,-0.15299 -0.027643,-0.22939 -0.00957,-0.0764 -0.019582,-0.15272 -0.029754,-0.22908 -0.010175,-0.0763 -0.020545,-0.15245 -0.031351,-0.22872 -0.010806,-0.0763 -0.021939,-0.15275 -0.033404,-0.22895 -0.011465,-0.0762 -0.023415,-0.152 -0.035569,-0.22812 -0.012151,-0.0761 -0.024755,-0.1523 -0.037622,-0.22835 -0.01287,-0.076 -0.026122,-0.15207 -0.039733,-0.22804 -0.013614,-0.0759 -0.027459,-0.15187 -0.041844,-0.22773 -0.014382,-0.0759 -0.029282,-0.15171 -0.044466,-0.2275 -0.015183,-0.0758 -0.030565,-0.15149 -0.046576,-0.22718 -0.00161,-0.008 -0.00329,-0.0152 -0.0049,-0.0229 z" />
      <path
         style="fill:#4b941a;fill-opacity:1;fill-rule:evenodd;stroke:none;stroke-width:0.264583px;stroke-linecap:butt;stroke-linejoin:miter;stroke-opacity:1"
         d="m 9.3950691,292.4895 0.3790605,-0.0349 0.021567,-0.0777 c -0.4717884,-1.21757 -0.8271262,-2.44832 -1.760918,-3.61214 l -0.2367084,-0.047 c 0.7653508,1.24125 1.4240517,2.91454 1.5969887,3.77168 z"
         id="path3394"
         sodipodi:nodetypes="cccccc" />
      <path
         id="path3396"
         style="fill:#376c13;fill-opacity:1;fill-rule:evenodd;stroke:none;stroke-width:0.264583px;stroke-linecap:butt;stroke-linejoin:miter;stroke-opacity:1"
         d="m 7.921586,288.7422 -0.123313,-0.0245 c 0.7653538,1.24125 1.4239794,2.91472 1.5969159,3.77186 l 0.2466163,-0.0232 c -0.037287,-0.10572 -0.074347,-0.21149 -0.1119245,-0.31712 -0.030834,-0.0866 -0.061942,-0.17338 -0.093199,-0.25989 -0.031259,-0.0865 -0.062758,-0.17267 -0.094658,-0.25896 -0.031903,-0.0863 -0.064429,-0.17247 -0.097188,-0.2585 -0.032761,-0.0861 -0.065857,-0.17203 -0.099701,-0.25772 -0.016914,-0.0428 -0.033868,-0.0857 -0.051099,-0.12846 -0.017219,-0.0427 -0.034512,-0.0853 -0.052086,-0.12795 -0.017573,-0.0427 -0.035672,-0.0852 -0.053603,-0.12768 -0.017915,-0.0425 -0.035759,-0.0849 -0.054088,-0.12727 -0.018316,-0.0424 -0.036859,-0.0848 -0.055598,-0.12697 -0.018735,-0.0423 -0.037941,-0.0845 -0.057118,-0.1267 -0.019174,-0.0421 -0.038427,-0.0839 -0.058073,-0.1259 -0.019651,-0.042 -0.039446,-0.0837 -0.059582,-0.12559 -0.020137,-0.0419 -0.040453,-0.0836 -0.061105,-0.12531 -0.020659,-0.0415 -0.041393,-0.0833 -0.062592,-0.12472 -0.021214,-0.0415 -0.042813,-0.0828 -0.064588,-0.12402 -0.021776,-0.0413 -0.043707,-0.0824 -0.066079,-0.12343 -0.022395,-0.0411 -0.045093,-0.0822 -0.0681,-0.12304 -0.023005,-0.0409 -0.046408,-0.0814 -0.070071,-0.12204 -0.023643,-0.0406 -0.047762,-0.0812 -0.072096,-0.12167 -0.024328,-0.0403 -0.049042,-0.0808 -0.074086,-0.12098 -0.025044,-0.0402 -0.050313,-0.0802 -0.076081,-0.12026 -0.025787,-0.0399 -0.052044,-0.0798 -0.078587,-0.1195 -0.02656,-0.0397 -0.053259,-0.0794 -0.080581,-0.11879 -0.00267,-0.004 -0.00563,-0.008 -0.00833,-0.0119 z" />
    </g>
  </g>
</svg>
