<?xml version="1.0" encoding="UTF-8" standalone="no"?>
<!-- Created with Inkscape (http://www.inkscape.org/) -->

<svg
   width="64"
   height="64"
   viewBox="0 0 16.933333 16.933334"
   version="1.1"
   id="svg930"
   inkscape:version="1.1.1 (3bf5ae0d25, 2021-09-20)"
   sodipodi:docname="potato_1.svg"
   xmlns:inkscape="http://www.inkscape.org/namespaces/inkscape"
   xmlns:sodipodi="http://sodipodi.sourceforge.net/DTD/sodipodi-0.dtd"
   xmlns="http://www.w3.org/2000/svg"
   xmlns:svg="http://www.w3.org/2000/svg">
  <sodipodi:namedview
     id="namedview932"
     pagecolor="#505050"
     bordercolor="#eeeeee"
     borderopacity="1"
     inkscape:pageshadow="0"
     inkscape:pageopacity="0"
     inkscape:pagecheckerboard="0"
     inkscape:document-units="px"
     showgrid="false"
     units="px"
     showguides="true"
     inkscape:guide-bbox="true"
     inkscape:zoom="8.3856039"
     inkscape:cx="47.164164"
     inkscape:cy="29.395617"
     inkscape:window-width="1920"
     inkscape:window-height="1017"
     inkscape:window-x="-8"
     inkscape:window-y="-8"
     inkscape:window-maximized="1"
     inkscape:current-layer="layer1">
    <sodipodi:guide
       position="5.5847199,1.2203923"
       orientation="0,-1"
       id="guide1233" />
    <sodipodi:guide
       position="8.0457829,15.608146"
       orientation="0,-1"
       id="guide1235" />
    <sodipodi:guide
       position="1.3567399,12.705354"
       orientation="1,0"
       id="guide1237" />
    <sodipodi:guide
       position="15.712941,5.9216538"
       orientation="1,0"
       id="guide1239" />
  </sodipodi:namedview>
  <defs
     id="defs927" />
  <g
     inkscape:label="Layer 1"
     inkscape:groupmode="layer"
     id="layer1">
    <g
       id="g138584"
       transform="matrix(0.56096929,0,0,0.56211634,-2.5994587,-147.68584)"
       style="stroke-width:0.471172;stroke-miterlimit:4;stroke-dasharray:none;paint-order:fill markers stroke">
      <path
         id="path125616"
         style="fill:#2b9235;fill-opacity:1;fill-rule:evenodd;stroke:#0b2b00;stroke-width:0.890405;stroke-linecap:round;stroke-linejoin:round;stroke-miterlimit:4;stroke-dasharray:none;stroke-opacity:0.976471;paint-order:fill markers stroke"
         d="m 24.923026,272.13843 c 0,0 -3.142127,0.61277 -3.639571,1.95543 -0.129072,0.3484 -0.132099,0.75427 -0.03307,1.13585 -0.842488,-0.3226 -2.354378,0.0434 -2.354378,0.0434 0,0 0.0024,0.007 0.0072,0.0212 0.0014,0.004 0.0026,0.008 0.0047,0.014 0.01044,0.0298 0.02716,0.0763 0.05168,0.14107 0.0036,0.009 0.0075,0.0193 0.01137,0.0294 0.0037,0.01 0.0069,0.0187 0.01085,0.029 6.41e-4,0.002 0.0014,0.003 0.0021,0.005 0.0075,0.0193 0.0154,0.0394 0.02377,0.0605 0.0038,0.009 0.008,0.0196 0.01189,0.0294 0.0055,0.0137 0.01068,0.027 0.01654,0.0413 6.6e-4,0.002 0.0014,0.003 0.0021,0.005 0.0095,0.0232 0.01911,0.0472 0.02946,0.0718 6.15e-4,0.001 0.0014,0.003 0.0021,0.004 0.0105,0.025 0.02119,0.0507 0.03256,0.077 6.25e-4,10e-4 0.0014,0.003 0.0021,0.004 0.01172,0.027 0.02356,0.0545 0.03617,0.0827 0.0027,0.006 0.0055,0.0124 0.0083,0.0186 0.01009,0.0224 0.02038,0.0452 0.03101,0.0682 6.56e-4,10e-4 0.0014,0.003 0.0021,0.004 0.01324,0.0287 0.02678,0.0574 0.04082,0.0868 6.75e-4,10e-4 0.0014,0.003 0.0021,0.004 0.01459,0.0305 0.02953,0.0614 0.04496,0.0925 1.73e-4,3.4e-4 3.43e-4,6.8e-4 5.16e-4,0.001 0.01495,0.0301 0.03028,0.0605 0.04599,0.0909 0.03349,0.065 0.0686,0.13055 0.10542,0.19588 0.0083,0.0146 0.0169,0.0288 0.02532,0.0434 0.198394,0.34425 0.44061,0.67506 0.711584,0.85836 -0.678823,-0.0283 -1.529105,0.27387 -1.529105,0.27387 0,0 0.0023,0.005 0.0072,0.016 0.0016,0.004 0.0037,0.008 0.0062,0.0129 0.01095,0.0232 0.02774,0.0583 0.05219,0.10698 6.82e-4,0.001 0.0014,0.003 0.0021,0.004 0.0061,0.0121 0.01225,0.0243 0.01912,0.0377 6.6e-4,0.001 0.0014,0.002 0.0021,0.004 0.0075,0.0145 0.01545,0.0301 0.02377,0.046 5.61e-4,0.001 9.86e-4,0.002 0.0016,0.003 0.0085,0.0163 0.0175,0.0326 0.02687,0.0501 6.38e-4,10e-4 9.09e-4,0.002 0.0016,0.004 0.0094,0.0176 0.01924,0.0356 0.02945,0.0543 5.75e-4,0.001 9.73e-4,0.002 0.0016,0.003 0.01037,0.0189 0.02139,0.038 0.03256,0.0579 0.0051,0.009 0.01025,0.0186 0.0155,0.0279 0.0069,0.012 0.01354,0.0238 0.02067,0.0362 6.32e-4,0.001 0.0014,0.002 0.0021,0.003 0.01202,0.0208 0.02446,0.0421 0.03721,0.0636 0.02487,0.0419 0.05158,0.085 0.07906,0.12869 0.002,0.003 0.0036,0.007 0.0057,0.01 6.71e-4,0.001 0.0014,0.002 0.0021,0.003 0.01478,0.0233 0.0295,0.0467 0.04496,0.0703 0,0 5.17e-4,5.2e-4 5.17e-4,5.2e-4 0.03895,0.0594 0.08013,0.1192 0.12299,0.17828 0.0079,0.0108 0.01579,0.0218 0.02377,0.0325 7.36e-4,10e-4 0.0013,0.002 0.0021,0.003 0.008,0.0107 0.01619,0.0213 0.02429,0.032 7.49e-4,10e-4 0.0013,0.002 0.0021,0.003 0.0081,0.0106 0.01658,0.021 0.02481,0.0315 0.216142,0.27805 0.469824,0.52011 0.729154,0.58187 0.288646,0.0688 0.600058,-0.003 0.828373,-0.18137 -0.453877,1.76445 -0.54818,3.13713 -0.63562,4.95471 -0.416596,-2.69089 -1.115923,-5.10087 -2.603975,-8.25944 0.230323,0.17089 0.553042,0.20574 0.820105,0.0858 0.187788,-0.0843 0.348062,-0.29352 0.47749,-0.53123 0.0054,-0.01 0.0107,-0.0199 0.01602,-0.03 4.32e-4,-8.2e-4 6.01e-4,-0.002 0.001,-0.003 0.0053,-0.01 0.01082,-0.0198 0.01602,-0.03 4.18e-4,-8.2e-4 6.16e-4,-0.002 10e-4,-0.003 0.0052,-0.0102 0.01093,-0.0203 0.01602,-0.0305 4.15e-4,-8.2e-4 6.2e-4,-0.002 0.001,-0.003 0.0051,-0.0102 0.01002,-0.0202 0.01499,-0.0305 4e-4,-8.2e-4 6.34e-4,-0.002 10e-4,-0.003 0.005,-0.0103 0.01014,-0.0207 0.01499,-0.031 0.0161,-0.0343 0.03113,-0.0686 0.04599,-0.10285 0.0093,-0.0214 0.01857,-0.0428 0.02739,-0.0641 3.59e-4,-8.7e-4 6.75e-4,-0.002 0.001,-0.003 0.0087,-0.0211 0.0176,-0.0422 0.02584,-0.063 4.06e-4,-0.001 6.28e-4,-0.002 0.001,-0.003 0.0082,-0.0208 0.01605,-0.0411 0.02377,-0.0615 3.9e-4,-0.001 6.46e-4,-0.002 10e-4,-0.003 0.0043,-0.0114 0.0083,-0.0224 0.0124,-0.0336 0.0036,-0.01 0.0074,-0.0198 0.01085,-0.0295 0.001,-0.003 0.0016,-0.006 0.0026,-0.008 0.02143,-0.0595 0.04105,-0.11594 0.05788,-0.16796 0.0055,-0.017 0.011,-0.0336 0.01602,-0.0496 3.41e-4,-10e-4 6.95e-4,-0.002 0.001,-0.003 0.005,-0.0159 0.0095,-0.0308 0.01395,-0.0455 3.29e-4,-10e-4 7.06e-4,-0.002 10e-4,-0.003 9.77e-4,-0.003 0.0016,-0.006 0.0026,-0.009 0.0083,-0.0278 0.0158,-0.0533 0.02222,-0.076 0.0068,-0.024 0.01236,-0.0441 0.01705,-0.0615 3.68e-4,-10e-4 6.8e-4,-0.002 10e-4,-0.003 0.0044,-0.0166 0.0074,-0.0288 0.0098,-0.0382 5.13e-4,-0.002 6.28e-4,-0.002 10e-4,-0.003 0.0024,-0.01 0.0036,-0.015 0.0036,-0.015 0,0 -0.98361,-0.152 -1.53479,0.0868 0.02844,-0.20071 0.01351,-0.40434 -0.05323,-0.58446 -0.325698,-0.87908 -2.383317,-1.28001 -2.383317,-1.28001 0,0 -0.0031,0.031 -0.0078,0.0863 -8.53e-4,0.0101 -0.0017,0.0234 -0.0026,0.0351 -0.0041,0.0525 -0.0087,0.11692 -0.01292,0.19741 -0.0036,0.0678 -0.0067,0.14475 -0.0088,0.22791 -1.57e-4,0.006 -3.73e-4,0.0126 -5.17e-4,0.0191 -3.5e-5,0.002 3.5e-5,0.003 0,0.005 -6.16e-4,0.0288 -0.0012,0.0582 -0.0015,0.0884 -1.7e-5,0.002 1.6e-5,0.003 0,0.005 -3.03e-4,0.0307 -5.88e-4,0.0621 -5.17e-4,0.094 2e-6,10e-4 -2e-6,0.002 0,0.003 8.3e-5,0.0315 5.27e-4,0.0635 0.001,0.0961 0.0011,0.0698 0.0028,0.14129 0.0062,0.21447 0.0016,0.0343 0.004,0.0691 0.0062,0.10388 0.03449,0.54509 0.14677,1.13686 0.448551,1.42832 0.03291,0.0318 0.06726,0.0613 0.103353,0.0889 -0.49291,0.31953 -0.940545,0.93289 -0.947229,0.94207 -0.503773,-0.15867 -1.071769,-0.18449 -1.071769,-0.18449 0,0 0.0019,0.0486 0.0083,0.13022 1.08e-4,0.001 4.07e-4,0.002 5.17e-4,0.004 9.94e-4,0.0126 0.0019,0.0257 0.0031,0.0398 1.09e-4,10e-4 4.05e-4,0.002 5.16e-4,0.004 0.0012,0.0143 0.0021,0.0293 0.0036,0.045 1.19e-4,0.001 3.95e-4,0.002 5.16e-4,0.004 4.6e-4,0.005 0.0011,0.0101 0.0016,0.015 0.0023,0.0237 0.0048,0.0486 0.0078,0.0749 6.43e-4,0.006 0.0014,0.0112 0.0021,0.017 1.22e-4,10e-4 3.94e-4,0.002 5.17e-4,0.003 0.0022,0.0188 0.0042,0.038 0.0067,0.0579 1.33e-4,10e-4 3.83e-4,0.002 5.17e-4,0.003 0.0026,0.0209 0.0053,0.0422 0.0083,0.0641 0,0 0,5.3e-4 0,5.3e-4 4.66e-4,0.003 0.0011,0.007 0.0015,0.0103 0.0024,0.0175 0.005,0.0352 0.0078,0.0532 1.58e-4,0.001 3.57e-4,0.002 5.16e-4,0.003 0.0034,0.0225 0.0071,0.0456 0.01085,0.0687 0.01159,0.0708 0.02485,0.14438 0.04082,0.2191 0.0024,0.0114 0.0052,0.0227 0.0078,0.0341 0.0058,0.0259 0.01173,0.0521 0.01809,0.078 0.0028,0.0115 0.0059,0.0227 0.0088,0.0341 2.6e-4,10e-4 2.56e-4,0.002 5.17e-4,0.003 0.0029,0.0115 0.0062,0.0232 0.0093,0.0346 0.08337,0.31165 0.211867,0.61084 0.410311,0.75292 0.125263,0.0897 0.273122,0.142 0.423746,0.15555 -0.235782,0.28022 -0.197404,0.99219 -0.197404,0.99219 0,0 0.0013,-4.8e-4 0.0016,-5.1e-4 0,0 0.0027,-3.9e-4 0.0036,-5.2e-4 0.0014,-2.2e-4 0.0012,-1.6e-4 0.0036,-5.3e-4 0.01008,-10e-4 0.03223,-0.005 0.06563,-0.0109 4.97e-4,-8e-5 0.0011,-4.2e-4 0.0016,-5e-4 0.0034,-6.1e-4 0.0073,-10e-4 0.01085,-0.002 0.01051,-0.002 0.02157,-0.004 0.03359,-0.006 0.0021,-3.9e-4 0.0041,-6e-4 0.0062,-0.001 6.7e-4,-1.3e-4 0.0014,-3.7e-4 0.0021,-5e-4 0.01866,-0.004 0.03888,-0.008 0.06046,-0.0124 6.72e-4,-1.6e-4 0.0014,-3.7e-4 0.0021,-5.3e-4 0.01052,-0.002 0.02146,-0.005 0.03256,-0.007 6.71e-4,-1.6e-4 0.0014,-3.7e-4 0.0021,-5.3e-4 0.01132,-0.003 0.02279,-0.005 0.03462,-0.008 5.18e-4,-1.1e-4 10e-4,-3.7e-4 0.0015,-5.1e-4 0.0243,-0.006 0.04948,-0.0122 0.07545,-0.0191 5.18e-4,-1.4e-4 10e-4,-3.8e-4 0.0016,-5.1e-4 0.01275,-0.003 0.02573,-0.007 0.03876,-0.0109 5.21e-4,-1.5e-4 10e-4,-3.7e-4 0.0015,-5.2e-4 0.0059,-0.002 0.01211,-0.003 0.01809,-0.005 0.0078,-0.002 0.01542,-0.004 0.02325,-0.007 0.01429,-0.004 0.02846,-0.009 0.04289,-0.0135 0.0066,-0.002 0.01305,-0.004 0.01964,-0.006 0.0065,-0.002 0.01266,-0.005 0.01912,-0.007 5.21e-4,-1.8e-4 0.001,-3.4e-4 0.0016,-5.3e-4 0.0063,-0.002 0.0128,-0.004 0.01912,-0.007 6.61e-4,-2.3e-4 0.0014,-2.6e-4 0.0021,-5e-4 0.0065,-0.002 0.01268,-0.004 0.01912,-0.007 5.15e-4,-1.8e-4 10e-4,-3.4e-4 0.0016,-5.3e-4 0.0063,-0.002 0.01283,-0.005 0.01912,-0.007 6.58e-4,-2.7e-4 0.0014,-2.7e-4 0.0021,-5.3e-4 0.0063,-0.002 0.01235,-0.005 0.0186,-0.008 6.55e-4,-2.4e-4 0.0014,-2.4e-4 0.0021,-5.1e-4 0.0062,-0.002 0.0124,-0.005 0.0186,-0.008 6.5e-4,-2.6e-4 0.0014,-2.6e-4 0.0021,-5.3e-4 0.0063,-0.003 0.01231,-0.005 0.0186,-0.008 5.03e-4,-2.1e-4 10e-4,-2.9e-4 0.0016,-5e-4 0.0063,-0.003 0.01237,-0.006 0.0186,-0.008 0.0072,-0.003 0.01456,-0.007 0.0217,-0.01 0.01279,-0.006 0.02529,-0.0119 0.03772,-0.0181 4.85e-4,-2.4e-4 0.0011,-2.9e-4 0.0015,-5.3e-4 0.006,-0.003 0.0117,-0.006 0.01757,-0.009 4.77e-4,-2.6e-4 0.0011,-2.9e-4 0.0016,-5.3e-4 0.0059,-0.003 0.01181,-0.006 0.01757,-0.009 4.78e-4,-2.4e-4 0.0011,-2.4e-4 0.0015,-5e-4 0.09949,-0.0541 0.182638,-0.11959 0.227376,-0.19741 0.06699,-0.11655 0.082,-0.25768 0.04599,-0.38396 0.9223,0.24106 1.803318,0.52022 2.646867,0.8382 0.0154,0.0471 0.03092,0.094 0.04599,0.14107 0.03083,0.0962 0.06096,0.19225 0.09043,0.28835 0.02951,0.0963 0.05815,0.19216 0.0863,0.28837 0.02811,0.096 0.0554,0.19187 0.08217,0.28784 0,0 0,5e-4 0,5e-4 0.02672,0.0958 0.05317,0.19158 0.07855,0.28734 0.101693,0.38375 0.192455,0.76676 0.272852,1.1498 0.0201,0.0957 0.03961,0.19111 0.05839,0.28681 0.07515,0.3829 0.139444,0.76543 0.193787,1.14823 0.01358,0.0957 0.02646,0.19114 0.03876,0.28681 0.01232,0.0958 0.0241,0.19145 0.03514,0.28731 0.01102,0.0957 0.02126,0.19109 0.03101,0.28681 0.01952,0.19161 0.0367,0.38291 0.05116,0.57465 0.0072,0.0958 0.01367,0.19148 0.01964,0.28731 0.006,0.096 0.01129,0.19177 0.01602,0.28784 l 0.57826,0.007 c 0,0 0,-5.3e-4 0,-5.3e-4 l 0.230993,-0.1111 0.536918,0.17465 0.385507,-0.10384 c -0.07987,-1.97163 -0.07988,-3.54034 0.257865,-5.27257 0.156206,0.23456 0.417533,0.39936 0.70435,0.43151 0.264824,0.0297 0.585727,-0.11245 0.88315,-0.30075 0.01132,-0.007 0.02286,-0.0144 0.03411,-0.0217 0.02547,-0.0165 0.05094,-0.0336 0.07597,-0.0506 0.01116,-0.008 0.02253,-0.0151 0.03359,-0.0227 0.04884,-0.034 0.09629,-0.0684 0.142626,-0.10335 0.0073,-0.006 0.01443,-0.011 0.0217,-0.0165 0.03778,-0.0288 0.07456,-0.0578 0.110071,-0.0863 0.0021,-0.002 0.0041,-0.003 0.0062,-0.005 0.01783,-0.0144 0.03554,-0.0288 0.05271,-0.0429 0.02026,-0.0167 0.04017,-0.0329 0.05943,-0.0491 9.51e-4,-7.9e-4 0.0016,-0.002 0.0026,-0.003 0.01551,-0.0131 0.03067,-0.026 0.04547,-0.0387 0.0036,-0.003 0.0073,-0.006 0.01085,-0.009 0.01708,-0.0148 0.03359,-0.0293 0.04961,-0.0434 0.001,-9e-4 0.0021,-0.002 0.0031,-0.003 0.01598,-0.0141 0.03115,-0.0275 0.04599,-0.0408 9.4e-4,-8.4e-4 0.0016,-0.002 0.0026,-0.003 0.01471,-0.0133 0.02888,-0.0258 0.04237,-0.0382 9.44e-4,-8.8e-4 0.0016,-0.002 0.0026,-0.003 0.0049,-0.004 0.0092,-0.009 0.01395,-0.0129 0.0092,-0.008 0.01836,-0.0169 0.02687,-0.0248 0.01177,-0.011 0.02261,-0.0216 0.03307,-0.0315 0.0011,-10e-4 0.002,-0.002 0.0031,-0.003 0.02148,-0.0204 0.03945,-0.0377 0.05478,-0.0527 0.0011,-10e-4 0.0015,-10e-4 0.0026,-0.003 0.01461,-0.0143 0.02542,-0.0254 0.03359,-0.0336 0.0017,-0.002 0.0012,-0.001 0.0026,-0.003 0.0082,-0.008 0.0124,-0.0124 0.0124,-0.0124 0,0 -0.287507,-0.23611 -0.665075,-0.45886 0.367998,-0.0575 0.77648,-0.22731 1.123962,-0.4036 0.0299,-0.0152 0.05943,-0.0303 0.08837,-0.0455 0.0014,-7.1e-4 0.0028,-0.001 0.0041,-0.002 0.02885,-0.0152 0.05699,-0.0304 0.08475,-0.0455 0.0014,-7.4e-4 0.0028,-10e-4 0.0041,-0.002 0.0069,-0.004 0.01337,-0.007 0.02015,-0.0109 0.05079,-0.0278 0.09948,-0.0556 0.145728,-0.0822 0.0084,-0.005 0.01609,-0.009 0.02429,-0.0139 0.01746,-0.0101 0.035,-0.0201 0.05168,-0.03 0.01076,-0.006 0.02059,-0.0124 0.03101,-0.0186 0.01338,-0.008 0.02699,-0.0161 0.03979,-0.0238 0.02131,-0.0128 0.04188,-0.0252 0.0615,-0.0372 0.0014,-8.8e-4 0.0027,-0.002 0.0041,-0.003 0.04001,-0.0246 0.07595,-0.0473 0.108004,-0.0677 0.0016,-10e-4 0.0026,-0.002 0.0041,-0.003 0.0314,-0.0201 0.05808,-0.0374 0.08062,-0.0522 0.0018,-0.001 0.0024,-0.001 0.0041,-0.003 0.02141,-0.0141 0.03703,-0.0249 0.04909,-0.0331 0.0026,-0.002 0.0021,-10e-4 0.0041,-0.003 0.01218,-0.008 0.0186,-0.0129 0.0186,-0.0129 0,0 -0.562435,-0.67841 -1.210779,-1.11879 0.129375,-0.0746 0.250442,-0.16526 0.359152,-0.27027 0.522443,-0.50459 0.673134,-1.59732 0.700215,-2.50888 0.0015,-0.0511 0.0028,-0.10158 0.0036,-0.15143 3.8e-5,-0.002 -3.7e-5,-0.005 0,-0.007 7.72e-4,-0.0497 0.0014,-0.0986 0.0015,-0.14676 5e-6,-0.002 -4e-6,-0.005 0,-0.007 5e-6,-0.002 -4e-6,-0.005 0,-0.007 9.4e-5,-0.0983 -0.0011,-0.19325 -0.0031,-0.28318 -9.58e-4,-0.0436 -0.0023,-0.0858 -0.0036,-0.12713 -8.1e-5,-0.002 8.2e-5,-0.005 0,-0.007 -0.0042,-0.12748 -0.01004,-0.24255 -0.01602,-0.34211 -1.55e-4,-0.003 -3.61e-4,-0.005 -5.16e-4,-0.007 -0.0019,-0.0312 -0.0038,-0.06 -0.0057,-0.0879 -1.93e-4,-0.003 -3.24e-4,-0.004 -5.17e-4,-0.007 -0.0079,-0.11485 -0.01521,-0.19782 -0.01964,-0.24391 -4.57e-4,-0.005 -1.42e-4,-0.003 -5.16e-4,-0.007 -0.0022,-0.0224 -0.0036,-0.0341 -0.0036,-0.0341 z m -7.790222,3.96565 c 0.0044,0.01 0.0091,0.0189 0.01344,0.0284 0.04487,0.0976 0.08885,0.19502 0.132292,0.2925 0.04338,0.0973 0.08619,0.19425 0.128157,0.29143 0.01257,0.0291 0.02425,0.0583 0.03669,0.0873 0.153728,0.35947 0.298526,0.71779 0.433049,1.0754 0.03952,0.10504 0.07788,0.20979 0.115755,0.3147 -0.759424,-0.24707 -1.5739,-0.48199 -2.462899,-0.70901 0.149533,-0.26371 0.167556,-0.62444 0.02636,-0.88212 -0.03313,-0.0604 -0.07934,-0.11514 -0.134876,-0.16483 0.0097,0.004 0.01914,0.008 0.02894,0.0124 0.0011,4.5e-4 0.002,0.001 0.0031,0.002 0.02146,0.009 0.04309,0.0184 0.06511,0.0274 0.0011,4.5e-4 0.002,0.001 0.0031,0.002 0.02208,0.009 0.04464,0.0176 0.06718,0.0264 0.01287,0.005 0.02575,0.01 0.03876,0.015 0.01096,0.004 0.02203,0.008 0.03307,0.0124 0.02488,0.009 0.04973,0.0182 0.07493,0.0269 0.01129,0.004 0.02277,0.008 0.03411,0.0114 8.76e-4,2.9e-4 0.0017,7.4e-4 0.0026,10e-4 0.01134,0.004 0.02274,0.007 0.03411,0.0109 8.82e-4,2.7e-4 0.0017,7.4e-4 0.0026,0.001 0.01137,0.004 0.02272,0.007 0.03411,0.0103 0.283166,0.0865 0.571791,0.12867 0.781347,0.0481 0.242432,-0.0932 0.431489,-0.29853 0.509013,-0.54002 z m 4.154268,1.31517 c -0.07088,0.21203 -0.136934,0.41701 -0.198437,0.6165 -0.05671,-0.1965 -0.165052,-0.37671 -0.314709,-0.49818 -0.0037,-0.003 -0.0076,-0.006 -0.01137,-0.009 0.180781,10e-4 0.361035,-0.0361 0.524515,-0.10953 z m 0.533818,0.13126 c 0.04931,0.16854 0.137144,0.32459 0.253215,0.45733 -0.08017,8.7e-4 -0.156522,0.0121 -0.22686,0.0367 -0.07261,0.0254 -0.142121,0.0618 -0.207223,0.10694 0.05553,-0.19677 0.115881,-0.39661 0.180868,-0.60097 z" />
      <path
         id="path41511-7"
         style="fill:#2b9235;fill-opacity:1;fill-rule:evenodd;stroke:none;stroke-width:0.471172;stroke-linecap:butt;stroke-linejoin:miter;stroke-miterlimit:4;stroke-dasharray:none;stroke-opacity:1;paint-order:fill markers stroke"
         d="m 15.244008,277.4129 -0.249966,0.17039 0.268503,0.39056 c 1.125051,0.28011 2.18921,0.61658 3.199412,1.00878 a 4.8747978,3.0290008 5.9392746 0 1 0.200881,-0.56255 c -1.024278,-0.35842 -2.145694,-0.69012 -3.41883,-1.00718 z" />
      <path
         id="path43878-7"
         style="fill:#16581c;fill-opacity:0.973856;fill-rule:evenodd;stroke:none;stroke-width:0.471172;stroke-linecap:butt;stroke-linejoin:miter;stroke-miterlimit:4;stroke-dasharray:none;stroke-opacity:1;paint-order:fill markers stroke"
         d="m 14.994042,277.58329 0.268503,0.39056 c 1.124934,0.28009 2.189358,0.61659 3.199412,1.00878 a 4.8747978,3.0290008 5.9392746 0 1 0.102792,-0.34882 c -0.01944,-0.007 -0.03856,-0.0146 -0.05802,-0.0216 -0.116949,-0.0422 -0.234389,-0.0834 -0.352298,-0.12446 -0.117924,-0.041 -0.235938,-0.0819 -0.354677,-0.12157 -0.118769,-0.0397 -0.238327,-0.0784 -0.357778,-0.11673 -0.11944,-0.0383 -0.238734,-0.0758 -0.358722,-0.11265 -0.119977,-0.0368 -0.240937,-0.0726 -0.361314,-0.10771 -0.120382,-0.0353 -0.240666,-0.0695 -0.361279,-0.10305 -0.120619,-0.0336 -0.24103,-0.0666 -0.361759,-0.0985 -0.12071,-0.0318 -0.24169,-0.0627 -0.36235,-0.0928 -0.120674,-0.0301 -0.240815,-0.0598 -0.36129,-0.088 -0.09374,-0.0219 -0.187639,-0.0428 -0.281221,-0.0635 z" />
      <path
         style="fill:#2b9235;fill-opacity:1;fill-rule:evenodd;stroke:none;stroke-width:0.471172;stroke-linecap:butt;stroke-linejoin:miter;stroke-miterlimit:4;stroke-dasharray:none;stroke-opacity:1;paint-order:fill markers stroke"
         d="m 19.333856,284.78411 c -0.151133,-3.06861 -0.939527,-6.10661 -2.465061,-9.23752 l 0.127342,-0.45671 0.290732,0.0823 c 1.799541,3.69402 2.541164,6.3413 2.968851,9.45405 l -0.343811,0.16464 z"
         id="path41511"
         sodipodi:nodetypes="ccccccc" />
      <path
         style="fill:#00b21e;fill-opacity:0.996078;fill-rule:evenodd;stroke:none;stroke-width:0.471172;stroke-linecap:butt;stroke-linejoin:miter;stroke-miterlimit:4;stroke-dasharray:none;stroke-opacity:1;paint-order:fill markers stroke"
         d="m 18.382433,275.82818 c 0.544431,-0.24449 0.857633,-1.53775 0.857633,-1.53775 0,0 -1.384669,-0.21401 -1.788756,0.26501 -0.235104,0.27873 -0.252408,0.77044 -0.02528,1.05569 0.222188,0.27903 0.63101,0.36318 0.956399,0.21705 z"
         id="path47511-4-8"
         sodipodi:nodetypes="scsss" />
      <path
         id="path43878"
         style="fill:#16581c;fill-opacity:0.973856;fill-rule:evenodd;stroke:none;stroke-width:0.471172;stroke-linecap:butt;stroke-linejoin:miter;stroke-miterlimit:4;stroke-dasharray:none;stroke-opacity:1;paint-order:fill markers stroke"
         d="m 16.996132,275.08988 -0.127078,0.45698 c 1.525535,3.1309 2.313454,6.16879 2.464588,9.23739 l 0.578271,0.007 c -0.0024,-0.0491 -0.0075,-0.20289 -0.01068,-0.25304 -0.0056,-0.0874 -0.01222,-0.17669 -0.02007,-0.26707 -0.0079,-0.0904 -0.01656,-0.18181 -0.02666,-0.27504 -0.01009,-0.0932 -0.0215,-0.18817 -0.03381,-0.28407 -0.01231,-0.0959 -0.02597,-0.19312 -0.04045,-0.2915 -0.01448,-0.0984 -0.02986,-0.19764 -0.04647,-0.29841 -0.01661,-0.10076 -0.0344,-0.20287 -0.05312,-0.30583 -0.01872,-0.10292 -0.03847,-0.2067 -0.05925,-0.31165 -0.02078,-0.10495 -0.04253,-0.21117 -0.06533,-0.318 -0.02281,-0.10684 -0.04678,-0.2143 -0.07157,-0.32283 -0.02479,-0.10853 -0.05035,-0.21797 -0.07709,-0.32806 -0.02675,-0.11009 -0.05472,-0.2209 -0.08338,-0.33235 -0.02867,-0.11147 -0.05785,-0.22331 -0.0884,-0.33599 -0.03055,-0.1127 -0.06235,-0.22604 -0.09475,-0.33977 -0.03239,-0.11376 -0.0656,-0.22825 -0.09981,-0.3429 -0.03421,-0.11467 -0.06901,-0.22959 -0.104987,-0.345 -0.03598,-0.11542 -0.07311,-0.23117 -0.110829,-0.34716 -0.03771,-0.11599 -0.07598,-0.23225 -0.115391,-0.34867 -0.03941,-0.11644 -0.07959,-0.23308 -0.12067,-0.34975 -0.04108,-0.11669 -0.0833,-0.23352 -0.126007,-0.3503 -0.04271,-0.11678 -0.08643,-0.23356 -0.130728,-0.35027 -0.0443,-0.11673 -0.08898,-0.23315 -0.134837,-0.34964 -0.04586,-0.11654 -0.0929,-0.23307 -0.140275,-0.34921 -0.04738,-0.11613 -0.09497,-0.23188 -0.143825,-0.34748 -0.04886,-0.11559 -0.09907,-0.23107 -0.149376,-0.34596 -0.0503,-0.11491 -0.101309,-0.22923 -0.153028,-0.34324 -0.05172,-0.11403 -0.103591,-0.2275 -0.156682,-0.34052 -0.05309,-0.11299 -0.107295,-0.22557 -0.161729,-0.33737 -0.05443,-0.11182 -0.109086,-0.22309 -0.164821,-0.33356 -0.04338,-0.0859 -0.08759,-0.17125 -0.131737,-0.25634 z"
         sodipodi:nodetypes="ccccsssssssssssssssssssssssssssssc" />
      <path
         id="path48520-9-3"
         style="fill:#00911a;fill-opacity:1;fill-rule:evenodd;stroke:none;stroke-width:0.471172;stroke-linecap:butt;stroke-linejoin:miter;stroke-miterlimit:4;stroke-dasharray:none;stroke-opacity:1;paint-order:fill markers stroke"
         d="m 19.239143,274.29349 c 0,0 -0.313354,1.2929 -0.857783,1.53738 -0.324314,0.14566 -0.731061,0.063 -0.954238,-0.2143 0.492158,-0.62041 1.143702,-0.98519 1.812021,-1.32308 z"
         sodipodi:nodetypes="cscc" />
      <path
         style="fill:#2b9235;fill-opacity:1;fill-rule:evenodd;stroke:none;stroke-width:0.471172;stroke-linecap:butt;stroke-linejoin:miter;stroke-miterlimit:4;stroke-dasharray:none;stroke-opacity:1;paint-order:fill markers stroke"
         d="m 21.065307,284.75073 c -0.124364,-3.06981 -0.0575,-5.16224 1.181429,-8.41722 l -0.06734,-0.26499 -0.382587,-0.0701 c -1.461392,3.84037 -1.516673,5.53946 -1.663798,8.67801 l 0.54681,0.17784 z"
         id="path46382"
         sodipodi:nodetypes="ccccccc" />
      <path
         id="path47377"
         style="fill:#16581c;fill-opacity:0.973856;fill-rule:evenodd;stroke:none;stroke-width:0.471172;stroke-linecap:butt;stroke-linejoin:miter;stroke-miterlimit:4;stroke-dasharray:none;stroke-opacity:1;paint-order:fill markers stroke"
         d="m 21.796475,275.99839 c -1.461392,3.84037 -1.516339,5.53947 -1.663464,8.67804 l 0.546737,0.17775 c 0.0044,-0.17323 0.0081,-0.3465 0.01137,-0.51935 0.0033,-0.17283 0.0062,-0.34555 0.0093,-0.5183 0.0031,-0.17277 0.0065,-0.34528 0.01034,-0.51831 0.0019,-0.0865 0.0039,-0.17331 0.0062,-0.25993 0.0023,-0.0867 0.005,-0.17312 0.0078,-0.25995 0.0028,-0.0868 0.0059,-0.17391 0.0093,-0.26096 0.0034,-0.087 0.0068,-0.17418 0.01085,-0.26149 0.0041,-0.0873 0.0086,-0.17492 0.01344,-0.26252 0.0049,-0.0876 0.0102,-0.1751 0.01602,-0.26302 0.0058,-0.0879 0.01226,-0.17627 0.01912,-0.26459 0.0069,-0.0883 0.01419,-0.17687 0.02222,-0.26561 0.008,-0.0887 0.01653,-0.17743 0.02584,-0.26665 0.0093,-0.0892 0.01927,-0.17899 0.02997,-0.26874 0.0107,-0.0897 0.02241,-0.17946 0.03462,-0.26974 0.01222,-0.0903 0.02492,-0.18095 0.03876,-0.2718 0.0069,-0.0454 0.01436,-0.0908 0.0217,-0.13642 0.0073,-0.0456 0.01495,-0.0912 0.02274,-0.13695 0.0078,-0.0457 0.01552,-0.0915 0.02377,-0.13748 0.0082,-0.0459 0.0166,-0.0919 0.02532,-0.13795 0.0087,-0.0461 0.01767,-0.0922 0.02687,-0.13851 0.0092,-0.0463 0.01872,-0.0931 0.02842,-0.13952 0.0097,-0.0465 0.01975,-0.0929 0.02997,-0.13954 0.01022,-0.0466 0.02078,-0.0932 0.03152,-0.14004 0.01075,-0.0468 0.02178,-0.094 0.03307,-0.14108 0.01129,-0.047 0.02277,-0.0938 0.03462,-0.14107 0.01185,-0.0472 0.02427,-0.0947 0.03669,-0.14211 0.01242,-0.0474 0.02472,-0.095 0.03772,-0.14261 0.01301,-0.0477 0.0267,-0.0953 0.04031,-0.14317 0.01361,-0.0479 0.02712,-0.0961 0.04134,-0.14417 0.01422,-0.0481 0.02907,-0.0964 0.04393,-0.1447 0.01485,-0.0483 0.02998,-0.0966 0.04547,-0.1452 0.0155,-0.0486 0.03139,-0.0974 0.04754,-0.14624 0.01616,-0.0488 0.03226,-0.0977 0.04909,-0.14676 0.01683,-0.0491 0.03416,-0.098 0.05168,-0.14727 0.01752,-0.0493 0.03553,-0.0988 0.05374,-0.14833 0.01822,-0.0496 0.03688,-0.0995 0.05581,-0.14933 0.01893,-0.0498 0.03821,-0.0998 0.05788,-0.14988 0.01966,-0.0501 0.03954,-0.10002 0.05994,-0.15037 0.02041,-0.0504 0.04136,-0.10128 0.06253,-0.15192 0.02117,-0.0506 0.04265,-0.10102 0.0646,-0.15195 0.02194,-0.0509 0.04393,-0.10226 0.06666,-0.15346 0.02273,-0.0512 0.04623,-0.1025 0.06976,-0.15401 0.02353,-0.0515 0.04748,-0.10322 0.07183,-0.15502 z" />
      <path
         style="fill:#00b21e;fill-opacity:0.996078;fill-rule:evenodd;stroke:none;stroke-width:0.471172;stroke-linecap:butt;stroke-linejoin:miter;stroke-miterlimit:4;stroke-dasharray:none;stroke-opacity:1;paint-order:fill markers stroke"
         d="m 15.695969,275.11152 c -0.642168,-0.62023 -0.426936,-2.59913 -0.426936,-2.59913 0,0 2.057209,0.4012 2.382907,1.2803 0.189505,0.5115 -0.03556,1.21228 -0.499914,1.4985 -0.454236,0.27998 -1.072253,0.19103 -1.456057,-0.17967 z"
         id="path47511"
         sodipodi:nodetypes="scsss" />
      <path
         style="fill:#00b21e;fill-opacity:0.996078;fill-rule:evenodd;stroke:none;stroke-width:0.471172;stroke-linecap:butt;stroke-linejoin:miter;stroke-miterlimit:4;stroke-dasharray:none;stroke-opacity:1;paint-order:fill markers stroke"
         d="m 16.620862,276.64295 c -0.581293,0.22353 -1.769425,-0.49515 -1.769425,-0.49515 0,0 0.859349,-1.18291 1.511192,-1.13009 0.379271,0.0308 0.756199,0.37937 0.800509,0.7573 0.04334,0.36969 -0.194851,0.73435 -0.542276,0.86794 z"
         id="path47511-4"
         sodipodi:nodetypes="scsss" />
      <path
         id="path48520"
         style="fill:#00911a;fill-opacity:1;fill-rule:evenodd;stroke:none;stroke-width:0.471172;stroke-linecap:butt;stroke-linejoin:miter;stroke-miterlimit:4;stroke-dasharray:none;stroke-opacity:1;paint-order:fill markers stroke"
         d="m 15.268781,272.51716 c 0,0 -0.214832,1.97847 0.427335,2.59869 0.382531,0.36949 0.996871,0.4595 1.451605,0.18245 -0.377912,-1.12276 -1.109797,-1.96662 -1.87894,-2.78114 z"
         sodipodi:nodetypes="cscc" />
      <path
         style="fill:#00b21e;fill-opacity:0.996078;fill-rule:evenodd;stroke:none;stroke-width:0.471172;stroke-linecap:butt;stroke-linejoin:miter;stroke-miterlimit:4;stroke-dasharray:none;stroke-opacity:1;paint-order:fill markers stroke"
         d="m 20.368107,277.45726 c -0.842348,-0.29583 -1.472189,-2.18412 -1.472189,-2.18412 0,0 2.037041,-0.49349 2.699748,0.16962 0.385592,0.38583 0.473357,1.11661 0.170721,1.57043 -0.296044,0.44394 -0.894831,0.62089 -1.39828,0.44407 z"
         id="path47511-3"
         sodipodi:nodetypes="scsss" />
      <path
         id="path48520-1"
         style="fill:#00911a;fill-opacity:1;fill-rule:evenodd;stroke:none;stroke-width:0.471172;stroke-linecap:butt;stroke-linejoin:miter;stroke-miterlimit:4;stroke-dasharray:none;stroke-opacity:1;paint-order:fill markers stroke"
         d="m 18.897678,275.27758 c 0,0 0.630026,1.88774 1.472369,2.18356 0.501787,0.17624 1.097674,0.002 1.395393,-0.43969 -0.811799,-0.86278 -1.828969,-1.32443 -2.867762,-1.74387 z"
         sodipodi:nodetypes="cscc" />
      <path
         id="path48520-9"
         style="fill:#00911a;fill-opacity:1;fill-rule:evenodd;stroke:none;stroke-width:0.471172;stroke-linecap:butt;stroke-linejoin:miter;stroke-miterlimit:4;stroke-dasharray:none;stroke-opacity:1;paint-order:fill markers stroke"
         d="m 14.854379,276.14936 c 0,0 1.187978,0.71831 1.769265,0.49477 0.346286,-0.13314 0.584065,-0.49516 0.542724,-0.86431 -0.821309,-0.0915 -1.570442,0.12291 -2.311989,0.36954 z"
         sodipodi:nodetypes="cscc" />
      <path
         style="fill:#00b21e;fill-opacity:0.996078;fill-rule:evenodd;stroke:none;stroke-width:0.471172;stroke-linecap:butt;stroke-linejoin:miter;stroke-miterlimit:4;stroke-dasharray:none;stroke-opacity:1;paint-order:fill markers stroke"
         d="m 14.340166,277.71247 c -0.506367,-0.36257 -0.559615,-1.75011 -0.559615,-1.75011 0,0 1.460571,0.0671 1.774958,0.64058 0.182867,0.3337 0.09905,0.84021 -0.192217,1.08507 -0.28492,0.23952 -0.720476,0.24114 -1.023126,0.0245 z"
         id="path47511-4-4"
         sodipodi:nodetypes="scsss" />
      <path
         id="path48520-9-2"
         style="fill:#00911a;fill-opacity:1;fill-rule:evenodd;stroke:none;stroke-width:0.471172;stroke-linecap:butt;stroke-linejoin:miter;stroke-miterlimit:4;stroke-dasharray:none;stroke-opacity:1;paint-order:fill markers stroke"
         d="m 13.780871,275.96567 c 0,0 0.05345,1.38723 0.559838,1.74977 0.301652,0.21598 0.734775,0.21546 1.020339,-0.0221 -0.375282,-0.73627 -0.966364,-1.244 -1.580177,-1.72769 z"
         sodipodi:nodetypes="cscc" />
      <path
         style="fill:#00b21e;fill-opacity:0.996078;fill-rule:evenodd;stroke:none;stroke-width:0.471172;stroke-linecap:butt;stroke-linejoin:miter;stroke-miterlimit:4;stroke-dasharray:none;stroke-opacity:1;paint-order:fill markers stroke"
         d="m 15.53889,278.44156 c -0.178956,0.31131 -0.971947,0.4214 -0.971947,0.4214 0,0 -0.04523,-0.84178 0.265736,-1.05502 0.180983,-0.12401 0.476347,-0.105 0.633518,0.0481 0.153752,0.14972 0.179656,0.39951 0.07269,0.58556 z"
         id="path47511-4-7"
         sodipodi:nodetypes="scsss" />
      <path
         id="path48520-9-8"
         style="fill:#00911a;fill-opacity:1;fill-rule:evenodd;stroke:none;stroke-width:0.471172;stroke-linecap:butt;stroke-linejoin:miter;stroke-miterlimit:4;stroke-dasharray:none;stroke-opacity:1;paint-order:fill markers stroke"
         d="m 14.568827,278.86259 c 0,0 0.792784,-0.11021 0.971737,-0.42151 0.106593,-0.18547 0.08149,-0.43389 -0.07117,-0.5841 -0.400903,0.25748 -0.658251,0.62576 -0.900568,1.00561 z"
         sodipodi:nodetypes="cscc" />
      <path
         style="fill:#00b21e;fill-opacity:0.996078;fill-rule:evenodd;stroke:none;stroke-width:0.471172;stroke-linecap:butt;stroke-linejoin:miter;stroke-miterlimit:4;stroke-dasharray:none;stroke-opacity:1;paint-order:fill markers stroke"
         d="m 24.271051,276.10802 c 0.980794,-0.94729 0.652066,-3.9697 0.652066,-3.9697 0,0 -3.142011,0.61276 -3.639455,1.95542 -0.289434,0.78123 0.05431,1.85154 0.763527,2.28869 0.693763,0.42762 1.637671,0.29176 2.223862,-0.27441 z"
         id="path47511-0"
         sodipodi:nodetypes="scsss" />
      <path
         id="path48520-6"
         style="fill:#00901a;fill-opacity:0.972549;fill-rule:evenodd;stroke:none;stroke-width:0.471172;stroke-linecap:butt;stroke-linejoin:miter;stroke-miterlimit:4;stroke-dasharray:none;stroke-opacity:1;paint-order:fill markers stroke"
         d="m 24.923502,272.14561 c 0,0 0.328117,3.02175 -0.652676,3.96902 -0.584246,0.56433 -1.522538,0.7018 -2.217061,0.27866 0.577191,-1.71481 1.695012,-3.00365 2.869737,-4.24768 z"
         sodipodi:nodetypes="cscc" />
      <path
         style="fill:#00b21e;fill-opacity:0.996078;fill-rule:evenodd;stroke:none;stroke-width:0.471172;stroke-linecap:butt;stroke-linejoin:miter;stroke-miterlimit:4;stroke-dasharray:none;stroke-opacity:1;paint-order:fill markers stroke"
         d="m 22.636176,278.37327 c 0.851977,0.26683 2.486283,-0.86957 2.486283,-0.86957 0,0 -1.337164,-1.61402 -2.264896,-1.47908 -0.539795,0.0785 -1.047283,0.61163 -1.076246,1.15634 -0.02833,0.53284 0.345652,1.03283 0.854859,1.19231 z"
         id="path47511-33"
         sodipodi:nodetypes="scsss" />
      <path
         id="path48520-7"
         style="fill:#00911a;fill-opacity:1;fill-rule:evenodd;stroke:none;stroke-width:0.471172;stroke-linecap:butt;stroke-linejoin:miter;stroke-miterlimit:4;stroke-dasharray:none;stroke-opacity:1;paint-order:fill markers stroke"
         d="m 25.118392,277.5062 c 0,0 -1.634121,1.13585 -2.486087,0.86901 -0.507536,-0.15894 -0.880688,-0.6552 -0.855169,-1.18707 1.166648,-0.20576 2.257913,0.0328 3.341256,0.31806 z"
         sodipodi:nodetypes="cscc" />
      <path
         style="fill:#00b21e;fill-opacity:0.996078;fill-rule:evenodd;stroke:none;stroke-width:0.471172;stroke-linecap:butt;stroke-linejoin:miter;stroke-miterlimit:4;stroke-dasharray:none;stroke-opacity:1;paint-order:fill markers stroke"
         d="m 22.030406,279.90733 c 0.703995,0.0789 1.804941,-1.05365 1.804941,-1.05365 0,0 -1.285829,-1.05475 -1.988013,-0.80921 -0.408561,0.14286 -0.723147,0.63492 -0.663256,1.06357 0.05859,0.41931 0.425567,0.75215 0.846328,0.79929 z"
         id="path47511-2"
         sodipodi:nodetypes="scsss" />
      <path
         id="path48520-0"
         style="fill:#00911a;fill-opacity:1;fill-rule:evenodd;stroke:none;stroke-width:0.471172;stroke-linecap:butt;stroke-linejoin:miter;stroke-miterlimit:4;stroke-dasharray:none;stroke-opacity:1;paint-order:fill markers stroke"
         d="m 23.832559,278.85625 c 0,0 -1.100886,1.13206 -1.804875,1.05318 -0.419377,-0.047 -0.785143,-0.37702 -0.845775,-0.79516 0.877557,-0.33687 1.763649,-0.31625 2.65065,-0.25802 z"
         sodipodi:nodetypes="cscc" />
      <path
         style="fill:#00b21e;fill-opacity:0.996078;fill-rule:evenodd;stroke:none;stroke-width:0.471172;stroke-linecap:butt;stroke-linejoin:miter;stroke-miterlimit:4;stroke-dasharray:none;stroke-opacity:1;paint-order:fill markers stroke"
         d="m 19.970651,279.22836 c -0.689125,-0.16414 -1.341547,-1.60258 -1.341547,-1.60258 0,0 1.567017,-0.55705 2.144581,-0.0883 0.336053,0.27276 0.465441,0.84227 0.263944,1.22532 -0.19711,0.37471 -0.65511,0.56362 -1.066978,0.46551 z"
         id="path47511-2-5"
         sodipodi:nodetypes="scsss" />
      <path
         id="path48520-0-8"
         style="fill:#00911a;fill-opacity:1;fill-rule:evenodd;stroke:none;stroke-width:0.471172;stroke-linecap:butt;stroke-linejoin:miter;stroke-miterlimit:4;stroke-dasharray:none;stroke-opacity:1;paint-order:fill markers stroke"
         d="m 18.630857,277.62915 c 0,0 0.652532,1.43795 1.341644,1.6021 0.410518,0.0978 0.866425,-0.0889 1.06506,-0.4618 -0.711652,-0.61412 -1.552383,-0.89475 -2.406704,-1.1403 z"
         sodipodi:nodetypes="cscc" />
    </g>
  </g>
</svg>
