<?xml version="1.0" encoding="UTF-8" standalone="no"?>
<!-- Created with Inkscape (http://www.inkscape.org/) -->

<svg
   width="64"
   height="64"
   viewBox="0 0 16.933333 16.933334"
   version="1.1"
   id="svg930"
   inkscape:version="1.1.1 (3bf5ae0d25, 2021-09-20)"
   sodipodi:docname="potato_0.svg"
   xmlns:inkscape="http://www.inkscape.org/namespaces/inkscape"
   xmlns:sodipodi="http://sodipodi.sourceforge.net/DTD/sodipodi-0.dtd"
   xmlns="http://www.w3.org/2000/svg"
   xmlns:svg="http://www.w3.org/2000/svg">
  <sodipodi:namedview
     id="namedview932"
     pagecolor="#505050"
     bordercolor="#eeeeee"
     borderopacity="1"
     inkscape:pageshadow="0"
     inkscape:pageopacity="0"
     inkscape:pagecheckerboard="0"
     inkscape:document-units="px"
     showgrid="false"
     units="px"
     showguides="true"
     inkscape:guide-bbox="true"
     inkscape:zoom="8.3856039"
     inkscape:cx="47.164164"
     inkscape:cy="29.395617"
     inkscape:window-width="1920"
     inkscape:window-height="1017"
     inkscape:window-x="-8"
     inkscape:window-y="-8"
     inkscape:window-maximized="1"
     inkscape:current-layer="layer1">
    <sodipodi:guide
       position="5.5847199,1.2203923"
       orientation="0,-1"
       id="guide1233" />
    <sodipodi:guide
       position="8.0457829,15.608146"
       orientation="0,-1"
       id="guide1235" />
    <sodipodi:guide
       position="1.3567399,12.705354"
       orientation="1,0"
       id="guide1237" />
    <sodipodi:guide
       position="15.712941,5.9216538"
       orientation="1,0"
       id="guide1239" />
  </sodipodi:namedview>
  <defs
     id="defs927" />
  <g
     inkscape:label="Layer 1"
     inkscape:groupmode="layer"
     id="layer1">
    <g
       id="g41476"
       transform="matrix(0.40549748,0,0,0.39265678,0.35224645,-99.821923)"
       style="stroke-width:2.50611">
      <path
         style="fill:none;fill-opacity:1;fill-rule:evenodd;stroke:#2b1700;stroke-width:1.25305;stroke-linecap:butt;stroke-linejoin:miter;stroke-miterlimit:4;stroke-dasharray:none;stroke-opacity:0.976471"
         d="m 16.927427,281.17449 c -0.332959,-0.9755 0.728569,-2.48419 1.720155,-2.99511 1.033138,-0.53233 2.940029,-0.44584 3.84505,0.28333 0.741756,0.59763 1.511893,2.1154 1.123159,2.89392 -0.351333,0.70361 -0.380273,0.87285 -3.227819,0.82971 -3.109194,-0.0471 -3.164651,-0.14494 -3.460545,-1.01185 z"
         id="path34174"
         sodipodi:nodetypes="ssssss" />
      <path
         style="fill:#482400;fill-opacity:1;fill-rule:evenodd;stroke:none;stroke-width:0.663073px;stroke-linecap:butt;stroke-linejoin:miter;stroke-opacity:1"
         d="m 16.927427,281.17449 c -0.332959,-0.9755 0.728569,-2.48419 1.720155,-2.99511 1.033138,-0.53233 2.940029,-0.44584 3.84505,0.28333 0.741756,0.59763 1.511893,2.1154 1.123159,2.89392 -0.351333,0.70361 -0.380273,0.87285 -3.227819,0.82971 -3.109194,-0.0471 -3.164651,-0.14494 -3.460545,-1.01185 z"
         id="path1329"
         sodipodi:nodetypes="ssssss" />
      <path
         id="path9406"
         style="fill:#613304;fill-opacity:1;fill-rule:evenodd;stroke:none;stroke-width:0.663073px;stroke-linecap:butt;stroke-linejoin:miter;stroke-opacity:1"
         d="m 20.34838,277.83786 c -0.629416,-0.006 -1.248673,0.10866 -1.700671,0.34157 -0.454135,0.234 -0.92276,0.67736 -1.265556,1.18288 a 5.2876349,3.6366436 0 0 0 5.106665,2.6448 5.2876349,3.6366436 0 0 0 0.636137,-0.03 c 0.255801,-0.131 0.34597,-0.33033 0.490926,-0.62063 0.388734,-0.77854 -0.381689,-2.29627 -1.123446,-2.89388 -0.509074,-0.41016 -1.334805,-0.61707 -2.144055,-0.62476 z" />
      <path
         id="path29586"
         style="fill:#7c440a;fill-opacity:1;fill-rule:evenodd;stroke:none;stroke-width:0.663073px;stroke-linecap:butt;stroke-linejoin:miter;stroke-opacity:1"
         d="m 20.34838,277.83786 c -0.629416,-0.006 -1.248673,0.10866 -1.700671,0.34157 -0.422688,0.21778 -0.856489,0.61767 -1.191142,1.07953 a 3.2767913,2.6661514 0 0 1 2.680974,-1.18443 3.2767913,2.6661514 0 0 1 3.31711,2.62154 l 5.16e-4,0.0444 a 3.2767913,2.6661514 0 0 1 -0.377238,1.23971 5.2876349,3.6366436 0 0 0 0.04703,-0.003 c 0.255801,-0.131 0.34597,-0.33033 0.490926,-0.62063 0.388734,-0.77854 -0.381689,-2.29627 -1.123446,-2.89388 -0.509074,-0.41016 -1.334805,-0.61707 -2.144055,-0.62476 z" />
    </g>
  </g>
</svg>
