<?xml version="1.0" encoding="UTF-8" standalone="no"?>
<!-- Created with Inkscape (http://www.inkscape.org/) -->

<svg
   width="180"
   height="80"
   viewBox="0 0 47.625 21.166667"
   version="1.1"
   id="svg5"
   inkscape:version="1.1.1 (3bf5ae0d25, 2021-09-20)"
   sodipodi:docname="logo_h.svg"
   xmlns:inkscape="http://www.inkscape.org/namespaces/inkscape"
   xmlns:sodipodi="http://sodipodi.sourceforge.net/DTD/sodipodi-0.dtd"
   xmlns="http://www.w3.org/2000/svg"
   xmlns:svg="http://www.w3.org/2000/svg">
  <sodipodi:namedview
     id="namedview7"
     pagecolor="#505050"
     bordercolor="#eeeeee"
     borderopacity="1"
     inkscape:pageshadow="0"
     inkscape:pageopacity="0"
     inkscape:pagecheckerboard="0"
     inkscape:document-units="mm"
     showgrid="false"
     inkscape:object-nodes="false"
     inkscape:zoom="4.192802"
     inkscape:cx="103.15298"
     inkscape:cy="30.170755"
     inkscape:window-width="1920"
     inkscape:window-height="1017"
     inkscape:window-x="-8"
     inkscape:window-y="-8"
     inkscape:window-maximized="1"
     inkscape:current-layer="layer1"
     fit-margin-top="0"
     fit-margin-left="0"
     fit-margin-right="0"
     fit-margin-bottom="0"
     units="px" />
  <defs
     id="defs2" />
  <g
     inkscape:label="Layer 1"
     inkscape:groupmode="layer"
     id="layer1"
     transform="translate(-0.354022,-252.5981)">
    <path
       id="path28042"
       style="fill:#393900;fill-opacity:1;fill-rule:evenodd;stroke:#cccccc;stroke-width:5.00000006;stroke-linecap:butt;stroke-linejoin:miter;stroke-opacity:1;stroke-miterlimit:4;stroke-dasharray:none"
       d="M 122.11719 4.9257812 L 59.255859 8.9824219 L 37.441406 10.310547 L 35.779297 11.634766 L 35.640625 11.642578 L 33.009766 13.736328 L 32.798828 21.496094 C 32.605971 21.401759 32.412525 21.307499 32.224609 21.212891 C 28.789534 19.483417 25.011289 18.438517 21.240234 17.683594 C 20.161745 17.467783 17.953125 17.40625 17.953125 17.40625 L 17.953125 17.408203 L 17.847656 17.992188 C 17.822383 17.991395 17.734375 17.988281 17.734375 17.988281 L 16.998047 22.037109 L 15.421875 17.193359 C 15.421875 17.193359 12.85334 16.87588 11.5625 16.867188 C 8.9181449 16.84829 3.6484375 17.427734 3.6484375 17.427734 L 3.6484375 17.429688 C 3.6484375 17.429688 3.6615432 17.713237 3.6738281 17.986328 C 3.6288938 17.990615 3.4316406 18.009766 3.4316406 18.009766 C 3.4316406 18.009766 3.5889709 22.557095 4.1015625 24.759766 C 4.7207859 27.420666 5.6003692 30.075496 6.9765625 32.435547 C 7.176213 32.777934 7.7402344 33.347656 7.7402344 33.347656 L 12.056641 32.265625 L 9.0449219 34.064453 L 9.3261719 34.345703 L 8.828125 34.644531 L 10.158203 35.976562 L 15.335938 33.601562 L 11.089844 36.724609 C 11.089844 36.724609 11.200924 36.867017 11.298828 36.990234 L 10.871094 37.304688 C 10.871094 37.304688 12.669701 39.615966 13.779297 40.554688 C 15.226422 41.778964 16.711191 43.11552 18.34375 44.109375 L 15.939453 67.484375 L 18.46875 74.734375 L 25.421875 73.740234 L 113.54688 76.048828 L 144.13672 75.167969 L 145.09375 74.035156 L 146.0332 74.007812 L 148.21875 71.417969 L 148.0918 68.371094 L 147.75586 60.318359 C 149.58454 60.271856 151.45284 59.908394 153.23828 59.613281 C 154.67225 59.376305 157.40039 58.314453 157.40039 58.314453 L 157.19531 57.824219 C 157.34238 57.768703 157.51172 57.705078 157.51172 57.705078 L 155.46484 52.839844 L 158.69531 57.539062 L 160.51953 57.080078 L 160.24414 56.566406 L 160.63086 56.46875 L 158.9707 53.382812 L 162.11914 56.521484 C 162.11914 56.521484 162.89522 56.322557 163.24219 56.130859 C 165.63387 54.810368 167.75042 52.982567 169.64648 51.015625 C 171.21605 49.387442 173.68359 45.5625 173.68359 45.5625 C 173.68359 45.5625 173.52424 45.446336 173.48828 45.419922 C 173.63911 45.191395 173.79492 44.953125 173.79492 44.953125 C 173.79492 44.953125 169.56647 41.754737 167.28711 40.414062 C 166.17444 39.7596 163.80859 38.714844 163.80859 38.714844 L 159.96875 42.064453 L 161.41406 38.210938 C 161.41406 38.210938 161.3376 38.169978 161.31641 38.158203 L 161.52539 37.601562 L 161.52539 37.599609 C 161.52539 37.599609 159.59717 36.520092 158.56055 36.152344 C 155.6124 35.106681 152.56103 34.223563 149.46094 33.78125 L 145.03906 32.464844 L 150.72461 32.951172 L 151.52734 31.25 L 150.95703 31.136719 L 151.12695 30.777344 L 147.6875 30.099609 L 152.11328 29.660156 C 152.11328 29.660156 152.45114 28.934629 152.52344 28.544922 C 153.02168 25.858736 152.95452 23.063272 152.63867 20.349609 C 152.3772 18.103209 150.98828 13.769531 150.98828 13.769531 C 150.98828 13.769531 150.79718 13.819056 150.75391 13.830078 C 150.67282 13.567515 150.58789 13.296875 150.58789 13.296875 C 150.58789 13.296875 145.43218 14.531561 142.94922 15.441406 C 141.73717 15.885576 139.42773 17.050781 139.42773 17.050781 L 139.57617 22.140625 L 137.51758 18.580078 C 137.51758 18.580078 137.43697 18.612054 137.41406 18.621094 L 137.11719 18.107422 C 137.11719 18.107422 135.05743 18.91102 134.11523 19.478516 C 133.97863 19.560788 133.84329 19.645279 133.70703 19.728516 L 132.59961 10.320312 L 130.26367 7.2929688 L 122.11719 4.9257812 z "
       transform="matrix(0.26458333,0,0,0.26458333,0.354022,252.5981)" />
    <path
       id="path22724"
       style="fill:#393900;fill-opacity:1;fill-rule:evenodd;stroke:#241103;stroke-width:2.00000003;stroke-linecap:butt;stroke-linejoin:miter;stroke-opacity:1;stroke-miterlimit:4;stroke-dasharray:none"
       d="M 122.11719 4.9257812 L 59.255859 8.9824219 L 37.441406 10.310547 L 35.779297 11.634766 L 35.640625 11.642578 L 33.009766 13.736328 L 32.798828 21.496094 C 32.605971 21.401759 32.412525 21.307499 32.224609 21.212891 C 28.789534 19.483417 25.011289 18.438517 21.240234 17.683594 C 20.161745 17.467783 17.953125 17.40625 17.953125 17.40625 L 17.953125 17.408203 L 17.847656 17.992188 C 17.822383 17.991395 17.734375 17.988281 17.734375 17.988281 L 16.998047 22.037109 L 15.421875 17.193359 C 15.421875 17.193359 12.85334 16.87588 11.5625 16.867188 C 8.9181449 16.84829 3.6484375 17.427734 3.6484375 17.427734 L 3.6484375 17.429688 C 3.6484375 17.429688 3.6615432 17.713237 3.6738281 17.986328 C 3.6288938 17.990615 3.4316406 18.009766 3.4316406 18.009766 C 3.4316406 18.009766 3.5889709 22.557095 4.1015625 24.759766 C 4.7207859 27.420666 5.6003692 30.075496 6.9765625 32.435547 C 7.176213 32.777934 7.7402344 33.347656 7.7402344 33.347656 L 12.056641 32.265625 L 9.0449219 34.064453 L 9.3261719 34.345703 L 8.828125 34.644531 L 10.158203 35.976562 L 15.335938 33.601562 L 11.089844 36.724609 C 11.089844 36.724609 11.200924 36.867017 11.298828 36.990234 L 10.871094 37.304688 C 10.871094 37.304688 12.669701 39.615966 13.779297 40.554688 C 15.226422 41.778964 16.711191 43.11552 18.34375 44.109375 L 15.939453 67.484375 L 18.46875 74.734375 L 25.421875 73.740234 L 113.54688 76.048828 L 144.13672 75.167969 L 145.09375 74.035156 L 146.0332 74.007812 L 148.21875 71.417969 L 148.0918 68.371094 L 147.75586 60.318359 C 149.58454 60.271856 151.45284 59.908394 153.23828 59.613281 C 154.67225 59.376305 157.40039 58.314453 157.40039 58.314453 L 157.19531 57.824219 C 157.34238 57.768703 157.51172 57.705078 157.51172 57.705078 L 155.46484 52.839844 L 158.69531 57.539062 L 160.51953 57.080078 L 160.24414 56.566406 L 160.63086 56.46875 L 158.9707 53.382812 L 162.11914 56.521484 C 162.11914 56.521484 162.89522 56.322557 163.24219 56.130859 C 165.63387 54.810368 167.75042 52.982567 169.64648 51.015625 C 171.21605 49.387442 173.68359 45.5625 173.68359 45.5625 C 173.68359 45.5625 173.52424 45.446336 173.48828 45.419922 C 173.63911 45.191395 173.79492 44.953125 173.79492 44.953125 C 173.79492 44.953125 169.56647 41.754737 167.28711 40.414062 C 166.17444 39.7596 163.80859 38.714844 163.80859 38.714844 L 159.96875 42.064453 L 161.41406 38.210938 C 161.41406 38.210938 161.3376 38.169978 161.31641 38.158203 L 161.52539 37.601562 L 161.52539 37.599609 C 161.52539 37.599609 159.59717 36.520092 158.56055 36.152344 C 155.6124 35.106681 152.56103 34.223563 149.46094 33.78125 L 145.03906 32.464844 L 150.72461 32.951172 L 151.52734 31.25 L 150.95703 31.136719 L 151.12695 30.777344 L 147.6875 30.099609 L 152.11328 29.660156 C 152.11328 29.660156 152.45114 28.934629 152.52344 28.544922 C 153.02168 25.858736 152.95452 23.063272 152.63867 20.349609 C 152.3772 18.103209 150.98828 13.769531 150.98828 13.769531 C 150.98828 13.769531 150.79718 13.819056 150.75391 13.830078 C 150.67282 13.567515 150.58789 13.296875 150.58789 13.296875 C 150.58789 13.296875 145.43218 14.531561 142.94922 15.441406 C 141.73717 15.885576 139.42773 17.050781 139.42773 17.050781 L 139.57617 22.140625 L 137.51758 18.580078 C 137.51758 18.580078 137.43697 18.612054 137.41406 18.621094 L 137.11719 18.107422 C 137.11719 18.107422 135.05743 18.91102 134.11523 19.478516 C 133.97863 19.560788 133.84329 19.645279 133.70703 19.728516 L 132.59961 10.320312 L 130.26367 7.2929688 L 122.11719 4.9257812 z "
       transform="matrix(0.26458333,0,0,0.26458333,0.354022,252.5981)" />
    <g
       id="g70376"
       transform="matrix(-0.36906469,-0.22043509,-0.22043509,0.36906469,82.814557,213.9988)"
       style="stroke-width:2.3262">
      <path
         style="fill:#393900;fill-opacity:1;fill-rule:evenodd;stroke:none;stroke-width:0.615474px;stroke-linecap:butt;stroke-linejoin:miter;stroke-opacity:1"
         d="m 33.808707,149.71627 c 0.846806,1.54348 0.571107,3.53583 0.289145,5.27362 -0.25787,1.5893 -1.77583,4.49198 -1.77583,4.49198 0,0 -2.427078,1.11987 -3.7144,1.45119 -1.625495,0.41835 -3.35256,1.01919 -4.992028,0.65947 -1.833581,-0.40231 -3.328303,-1.79481 -4.761441,-3.00724 -0.68293,-0.57776 -1.789187,-2.00014 -1.789187,-2.00014 l 3.682398,-2.70853 -4.121976,1.89025 -0.818746,-0.81887 2.782745,-1.66364 -3.452321,0.86448 c 0,0 -0.347117,-0.35022 -0.469997,-0.56095 -0.847014,-1.45256 -1.388457,-3.08615 -1.769574,-4.72387 -0.315488,-1.3557 -0.412159,-4.15539 -0.412159,-4.15539 0,0 3.659863,-0.35334 4.870887,-0.34518 1.211024,0.008 2.374759,0.20049 2.374759,0.20049 l 1.015604,3.11624 0.542573,-2.98468 c 0,0 1.359717,0.038 2.023426,0.17083 2.321165,0.46461 4.646865,1.10782 6.761206,2.17236 1.368215,0.68887 2.998098,1.33458 3.734916,2.67758 z"
         id="path70370"
         sodipodi:nodetypes="sscsssccccccsscscccsss" />
      <path
         style="fill:#408000;fill-opacity:1;fill-rule:evenodd;stroke:none;stroke-width:0.615474px;stroke-linecap:butt;stroke-linejoin:miter;stroke-opacity:1"
         d="m 33.942571,149.3593 0.289145,5.27362 -1.77583,4.49198 c 0,0 -2.427078,1.11987 -3.7144,1.45119 -1.625495,0.41835 -3.35256,1.01919 -4.992028,0.65947 -1.833581,-0.40231 -3.328303,-1.79481 -4.761441,-3.00724 -0.68293,-0.57776 -1.789187,-2.00014 -1.789187,-2.00014 l 3.682398,-2.70853 -4.121976,1.89025 -0.818746,-0.81887 2.782745,-1.66364 -3.452321,0.86448 c 0,0 -0.347117,-0.35022 -0.469997,-0.56095 -0.847014,-1.45256 -1.388457,-3.08615 -1.769574,-4.72387 -0.315488,-1.3557 -0.412159,-4.15539 -0.412159,-4.15539 l 4.870887,-0.34518 2.374759,0.20049 1.015604,3.11624 0.542573,-2.98468 2.023426,0.17083 6.761206,2.17236 z"
         id="path70372"
         sodipodi:nodetypes="cccsssccccccsscccccccc" />
      <path
         id="path70374"
         style="fill:#50a11e;fill-opacity:1;fill-rule:evenodd;stroke:none;stroke-width:2.3262px;stroke-linecap:butt;stroke-linejoin:miter;stroke-opacity:1"
         d="m 47.71875,545.81055 36.267578,23.03906 23.949222,18.55078 14.67187,14.03906 0.0605,-0.0234 c 0,0 5.7363,-10.97017 6.71094,-16.97657 1.06576,-6.56793 2.10849,-14.09797 -1.0918,-19.93164 -2.78488,-5.07644 -8.94553,-7.5173 -14.11719,-10.12109 -7.9907,-4.0231 -16.780474,-6.45283 -25.552732,-8.20899 -2.50879,-0.50225 -7.648438,-0.64648 -7.648438,-0.64648 l -2.050781,11.28125 -3.837891,-11.77734 c 0,0 -5.973799,-0.7376 -8.976562,-0.75782 -6.151321,-0.0414 -18.408204,1.30469 -18.408204,1.30469 z"
         transform="scale(0.26458333)"
         sodipodi:nodetypes="cccccsssscccscc" />
    </g>
    <g
       id="g70368"
       transform="matrix(-0.40462389,0.14518914,0.14518914,0.40462389,24.344717,195.87579)"
       style="stroke-width:2.3262">
      <path
         style="fill:#393900;fill-opacity:1;fill-rule:evenodd;stroke:none;stroke-width:0.615474px;stroke-linecap:butt;stroke-linejoin:miter;stroke-opacity:1"
         d="m 33.808707,149.71627 c 0.846806,1.54348 0.571107,3.53583 0.289145,5.27362 -0.25787,1.5893 -1.77583,4.49198 -1.77583,4.49198 0,0 -2.427078,1.11987 -3.7144,1.45119 -1.625495,0.41835 -3.35256,1.01919 -4.992028,0.65947 -1.833581,-0.40231 -3.328303,-1.79481 -4.761441,-3.00724 -0.68293,-0.57776 -1.789187,-2.00014 -1.789187,-2.00014 l 3.682398,-2.70853 -4.121976,1.89025 -0.818746,-0.81887 2.782745,-1.66364 -3.452321,0.86448 c 0,0 -0.347117,-0.35022 -0.469997,-0.56095 -0.847014,-1.45256 -1.388457,-3.08615 -1.769574,-4.72387 -0.315488,-1.3557 -0.412159,-4.15539 -0.412159,-4.15539 0,0 3.659863,-0.35334 4.870887,-0.34518 1.211024,0.008 2.374759,0.20049 2.374759,0.20049 l 1.015604,3.11624 0.542573,-2.98468 c 0,0 1.359717,0.038 2.023426,0.17083 2.321165,0.46461 4.646865,1.10782 6.761206,2.17236 1.368215,0.68887 2.998098,1.33458 3.734916,2.67758 z"
         id="path70362"
         sodipodi:nodetypes="sscsssccccccsscscccsss" />
      <path
         style="fill:#408000;fill-opacity:1;fill-rule:evenodd;stroke:none;stroke-width:0.615474px;stroke-linecap:butt;stroke-linejoin:miter;stroke-opacity:1"
         d="m 33.942571,149.3593 0.289145,5.27362 -1.77583,4.49198 c 0,0 -2.427078,1.11987 -3.7144,1.45119 -1.625495,0.41835 -3.35256,1.01919 -4.992028,0.65947 -1.833581,-0.40231 -3.328303,-1.79481 -4.761441,-3.00724 -0.68293,-0.57776 -1.789187,-2.00014 -1.789187,-2.00014 l 3.682398,-2.70853 -4.121976,1.89025 -0.818746,-0.81887 2.782745,-1.66364 -3.452321,0.86448 c 0,0 -0.347117,-0.35022 -0.469997,-0.56095 -0.847014,-1.45256 -1.388457,-3.08615 -1.769574,-4.72387 -0.315488,-1.3557 -0.412159,-4.15539 -0.412159,-4.15539 l 4.870887,-0.34518 2.374759,0.20049 1.015604,3.11624 0.542573,-2.98468 2.023426,0.17083 6.761206,2.17236 z"
         id="path70364"
         sodipodi:nodetypes="cccsssccccccsscccccccc" />
      <path
         id="path70366"
         style="fill:#50a11e;fill-opacity:1;fill-rule:evenodd;stroke:none;stroke-width:2.3262px;stroke-linecap:butt;stroke-linejoin:miter;stroke-opacity:1"
         d="m 47.71875,545.81055 36.267578,23.03906 23.949222,18.55078 14.67187,14.03906 0.0605,-0.0234 c 0,0 5.7363,-10.97017 6.71094,-16.97657 1.06576,-6.56793 2.10849,-14.09797 -1.0918,-19.93164 -2.78488,-5.07644 -8.94553,-7.5173 -14.11719,-10.12109 -7.9907,-4.0231 -16.780474,-6.45283 -25.552732,-8.20899 -2.50879,-0.50225 -7.648438,-0.64648 -7.648438,-0.64648 l -2.050781,11.28125 -3.837891,-11.77734 c 0,0 -5.973799,-0.7376 -8.976562,-0.75782 -6.151321,-0.0414 -18.408204,1.30469 -18.408204,1.30469 z"
         transform="scale(0.26458333)"
         sodipodi:nodetypes="cccccsssscccscc" />
    </g>
    <g
       id="g70360"
       transform="matrix(0.42988414,0,0,0.42988414,-4.105434,195.15499)"
       style="stroke-width:2.3262">
      <path
         style="fill:#393900;fill-opacity:1;fill-rule:evenodd;stroke:none;stroke-width:0.615474px;stroke-linecap:butt;stroke-linejoin:miter;stroke-opacity:1"
         d="m 33.808707,149.71627 c 0.846806,1.54348 0.571107,3.53583 0.289145,5.27362 -0.25787,1.5893 -1.77583,4.49198 -1.77583,4.49198 0,0 -2.427078,1.11987 -3.7144,1.45119 -1.625495,0.41835 -3.35256,1.01919 -4.992028,0.65947 -1.833581,-0.40231 -3.328303,-1.79481 -4.761441,-3.00724 -0.68293,-0.57776 -1.789187,-2.00014 -1.789187,-2.00014 l 3.682398,-2.70853 -4.121976,1.89025 -0.818746,-0.81887 2.782745,-1.66364 -3.452321,0.86448 c 0,0 -0.347117,-0.35022 -0.469997,-0.56095 -0.847014,-1.45256 -1.388457,-3.08615 -1.769574,-4.72387 -0.315488,-1.3557 -0.412159,-4.15539 -0.412159,-4.15539 0,0 3.659863,-0.35334 4.870887,-0.34518 1.211024,0.008 2.374759,0.20049 2.374759,0.20049 l 1.015604,3.11624 0.542573,-2.98468 c 0,0 1.359717,0.038 2.023426,0.17083 2.321165,0.46461 4.646865,1.10782 6.761206,2.17236 1.368215,0.68887 2.998098,1.33458 3.734916,2.67758 z"
         id="path60632"
         sodipodi:nodetypes="sscsssccccccsscscccsss" />
      <path
         style="fill:#408000;fill-opacity:1;fill-rule:evenodd;stroke:none;stroke-width:0.615474px;stroke-linecap:butt;stroke-linejoin:miter;stroke-opacity:1"
         d="m 33.942571,149.3593 0.289145,5.27362 -1.77583,4.49198 c 0,0 -2.427078,1.11987 -3.7144,1.45119 -1.625495,0.41835 -3.35256,1.01919 -4.992028,0.65947 -1.833581,-0.40231 -3.328303,-1.79481 -4.761441,-3.00724 -0.68293,-0.57776 -1.789187,-2.00014 -1.789187,-2.00014 l 3.682398,-2.70853 -4.121976,1.89025 -0.818746,-0.81887 2.782745,-1.66364 -3.452321,0.86448 c 0,0 -0.347117,-0.35022 -0.469997,-0.56095 -0.847014,-1.45256 -1.388457,-3.08615 -1.769574,-4.72387 -0.315488,-1.3557 -0.412159,-4.15539 -0.412159,-4.15539 l 4.870887,-0.34518 2.374759,0.20049 1.015604,3.11624 0.542573,-2.98468 2.023426,0.17083 6.761206,2.17236 z"
         id="path66148"
         sodipodi:nodetypes="cccsssccccccsscccccccc" />
      <path
         id="path66903"
         style="fill:#50a11e;fill-opacity:1;fill-rule:evenodd;stroke:none;stroke-width:2.3262px;stroke-linecap:butt;stroke-linejoin:miter;stroke-opacity:1"
         d="m 47.71875,545.81055 36.267578,23.03906 23.949222,18.55078 14.67187,14.03906 0.0605,-0.0234 c 0,0 5.7363,-10.97017 6.71094,-16.97657 1.06576,-6.56793 2.10849,-14.09797 -1.0918,-19.93164 -2.78488,-5.07644 -8.94553,-7.5173 -14.11719,-10.12109 -7.9907,-4.0231 -16.780474,-6.45283 -25.552732,-8.20899 -2.50879,-0.50225 -7.648438,-0.64648 -7.648438,-0.64648 l -2.050781,11.28125 -3.837891,-11.77734 c 0,0 -5.973799,-0.7376 -8.976562,-0.75782 -6.151321,-0.0414 -18.408204,1.30469 -18.408204,1.30469 z"
         transform="scale(0.26458333)"
         sodipodi:nodetypes="cccccsssscccscc" />
    </g>
    <path
       id="path53719"
       style="opacity:1;fill:#431e05;fill-opacity:1;stroke-width:1;stroke-linecap:round;stop-color:#000000"
       d="m 6.0098056,263.12568 10.4696664,0.21789 16.65733,0.46918 5.086023,0.19529 0.55568,0.85494 0.290176,6.93796 -0.578251,0.68556 -8.094038,0.23289 -23.3159769,-0.61096 -1.8399754,0.26298 -0.6690142,-1.91821 0.703459,-6.84021 z"
       sodipodi:nodetypes="ccccccccccccc" />
    <path
       id="path53721"
       style="opacity:1;fill:#692f09;fill-opacity:1;stroke-width:1;stroke-linecap:round;stop-color:#000000"
       d="m 6.5115663,262.81875 10.4696657,0.21789 16.657331,0.4692 5.086022,0.19529 0.555677,0.85493 0.29018,6.93795 -0.578254,0.68558 -8.094036,0.23289 -23.3159762,-0.61098 -1.8399758,0.263 -0.6690141,-1.9182 0.7034594,-6.84021 z"
       sodipodi:nodetypes="ccccccccccccc" />
    <path
       id="path53723"
       style="opacity:1;fill:#7c3200;fill-opacity:1;stroke-width:1;stroke-linecap:round;stop-color:#000000"
       d="m 6.5116511,262.81872 -0.7350832,0.48739 -0.550102,5.35023 34.3102601,2.03178 -0.256456,-6.13197 -0.555715,-0.85506 -5.085923,-0.19526 -16.657424,-0.46919 z" />
    <path
       id="path53727"
       style="opacity:1;fill:#914614;fill-opacity:1;stroke-width:1;stroke-linecap:round;stop-color:#000000"
       d="m 6.5116511,262.81872 -0.7350832,0.48739 -0.3273493,3.18384 33.9554094,1.03944 -0.124358,-2.97324 -0.555715,-0.85506 -5.085923,-0.19526 -16.657424,-0.46919 z" />
    <path
       id="path18179"
       style="fill:#431e05;fill-opacity:1;stroke-width:1;stroke-linecap:round;stop-color:#000000"
       d="m 9.7837241,255.67856 5.7717169,-0.35142 16.6317,-1.0736 2.155836,0.62653 0.617861,0.80068 0.810221,6.88818 -0.571029,0.79199 -0.804261,0.5352 -1.861298,-0.29765 -22.293928,0.67756 -1.3395789,-1.1611 0.1871255,-6.88268 z"
       sodipodi:nodetypes="ccccccccccccc" />
    <path
       id="rect936"
       style="fill:#692f09;fill-opacity:1;stroke-width:1;stroke-linecap:round;stop-color:#000000"
       d="m 10.260599,255.32625 5.771717,-0.35142 16.6317,-1.0736 2.155837,0.62651 0.617859,0.80071 0.810223,6.88815 -0.571029,0.792 -0.804261,0.53519 -1.861299,-0.29763 -22.293928,0.67755 -1.3395783,-1.1611 0.187125,-6.88267 z"
       sodipodi:nodetypes="ccccccccccccc" />
    <path
       id="path52372"
       style="fill:#7c3200;fill-opacity:1;stroke-width:1;stroke-linecap:round;stop-color:#000000"
       d="m 10.26068,255.32619 -0.6957882,0.55381 -0.1462407,5.38342 26.7351609,0.15307 -0.716083,-6.08797 -0.61791,-0.8008 -2.155736,-0.62651 -16.631793,1.07362 z"
       sodipodi:nodetypes="ccccccccc" />
    <path
       id="path52896"
       style="fill:#914614;fill-opacity:1;stroke-width:1;stroke-linecap:round;stop-color:#000000"
       d="m 10.26068,255.32619 -0.6957882,0.55381 -0.08702,3.20359 26.3070682,-0.80317 -0.347213,-2.9519 -0.617911,-0.8008 -2.155734,-0.62651 -16.631794,1.07362 z"
       sodipodi:nodetypes="ccccccccc" />
    <g
       id="g53741"
       transform="matrix(0.46966501,-0.04361561,0.04060594,0.53883869,-13.955442,181.16101)"
       style="stroke-width:1.9809">
      <text
         xml:space="preserve"
         style="font-style:normal;font-variant:normal;font-weight:bold;font-stretch:normal;font-size:17.6389px;font-family:'Passion One';-inkscape-font-specification:'Passion One Bold';fill:#161200;fill-opacity:1;stroke:none;stroke-width:1.9809;stroke-linecap:round;stop-color:#000000"
         x="41.483669"
         y="155.93996"
         id="text36719"><tspan
           sodipodi:role="line"
           id="tspan36717"
           style="fill:#161200;fill-opacity:1;stroke-width:1.9809"
           x="41.483669"
           y="155.93996">Plants </tspan></text>
      <text
         xml:space="preserve"
         style="font-style:normal;font-variant:normal;font-weight:bold;font-stretch:normal;font-size:17.6389px;font-family:'Passion One';-inkscape-font-specification:'Passion One Bold';fill:#aad400;fill-opacity:1;stroke:none;stroke-width:1.9809;stroke-linecap:round;stop-color:#000000"
         x="41.862286"
         y="155.56134"
         id="text40553"><tspan
           sodipodi:role="line"
           id="tspan40551"
           style="fill:#aad400;fill-opacity:1;stroke-width:1.9809"
           x="41.862286"
           y="155.56134">Plants </tspan></text>
    </g>
    <g
       id="g53747"
       transform="matrix(0.52855563,0.00834016,-0.00834016,0.52855563,-7.5482877,182.47692)"
       style="stroke-width:1.89172">
      <text
         xml:space="preserve"
         style="font-style:normal;font-variant:normal;font-weight:bold;font-stretch:normal;font-size:16.4707px;font-family:'Passion One';-inkscape-font-specification:'Passion One Bold';fill:#211b00;fill-opacity:1;stroke:none;stroke-width:1.89172;stroke-linecap:round;stop-color:#000000"
         x="35.738239"
         y="154.81984"
         id="text40405"
         transform="matrix(0.933805,0.00216366,0.00216366,1.0708924,0,0)"><tspan
           sodipodi:role="line"
           id="tspan40403"
           style="fill:#211b00;fill-opacity:1;stroke-width:1.89172"
           x="35.738239"
           y="154.81984">Revived</tspan></text>
      <text
         xml:space="preserve"
         style="font-style:normal;font-variant:normal;font-weight:bold;font-stretch:normal;font-size:16.4707px;line-height:0;font-family:'Passion One';-inkscape-font-specification:'Passion One Bold';letter-spacing:0px;word-spacing:0px;fill:#d0af2a;fill-opacity:1;stroke:none;stroke-width:0.378342;stroke-linecap:round;stroke-miterlimit:4;stroke-dasharray:none;paint-order:stroke markers fill;stop-color:#000000"
         x="36.071568"
         y="154.52818"
         id="text30539"
         transform="matrix(0.933805,0.00216366,0.00216366,1.0708924,0,0)"><tspan
           sodipodi:role="line"
           id="tspan30537"
           style="fill:#d0af2a;fill-opacity:1;stroke:none;stroke-width:0.378342;stroke-miterlimit:4;stroke-dasharray:none;paint-order:stroke markers fill"
           x="36.071568"
           y="154.52818"
           dx="0"
           rotate="0 0 0 0 0 0 0 0">Revived</tspan></text>
    </g>
  </g>
</svg>
